<?xml version="1.0" encoding="UTF-8"?>
<svg width="160px" height="160px" viewBox="0 0 160 160" version="1.1" xmlns="http://www.w3.org/2000/svg" xmlns:xlink="http://www.w3.org/1999/xlink">
    <!-- Generator: Sketch 58 (84663) - https://sketch.com -->
    <title>1</title>
    <desc>Created with Sketch.</desc>
    <defs>
        <polygon id="path-1" points="0 0.807480519 62.3609351 0.807480519 62.3609351 63.1684156 0 63.1684156"></polygon>
    </defs>
    <g id="Page-1" stroke="none" stroke-width="1" fill="none" fill-rule="evenodd">
        <g id="Desktop-HD-Copy-3" transform="translate(-212.000000, -2069.000000)">
            <g id="1" transform="translate(212.000000, 2069.000000)">
                <circle id="Oval-Copy-12" fill-opacity="0.5" fill="#FFFFFF" opacity="0.40297154" cx="80" cy="80" r="80"></circle>
                <g id="Group-6" transform="translate(48.000000, 48.000000)">
                    <g id="Group-3" transform="translate(0.000000, 0.023688)">
                        <mask id="mask-2" fill="white">
                            <use xlink:href="#path-1"></use>
                        </mask>
                        <g id="Clip-2"></g>
                        <path d="M31.1809662,0.807480519 C30.2816416,0.807480519 29.3831481,1.29454545 28.9467844,2.26867532 C24.1110442,13.0514286 12.2444468,24.9188571 1.46086234,29.7537662 C-0.487397403,30.6264935 -0.487397403,33.3494026 1.46086234,34.222961 C12.2444468,39.0578701 24.1110442,50.9244675 28.9467844,61.7080519 C29.3831481,62.6821818 30.2816416,63.1684156 31.1809662,63.1684156 C32.0794597,63.1684156 32.9779532,62.6821818 33.4151481,61.7080519 C38.2500571,50.9244675 50.1174857,39.0578701 60.900239,34.222961 C62.8484987,33.3494026 62.8484987,30.6264935 60.900239,29.7537662 C50.1174857,24.9188571 38.2500571,13.0514286 33.4151481,2.26867532 C32.9779532,1.29454545 32.0794597,0.807480519 31.1809662,0.807480519 M31.1809662,7.08197403 C36.5129143,16.7625974 46.4063169,26.656 56.0869403,31.9879481 C46.4063169,37.3207273 36.5129143,47.2141299 31.1809662,56.8947532 C25.848187,47.2141299 15.9556156,37.3207273 6.27416104,31.9879481 C15.9556156,26.656 25.848187,16.7625974 31.1809662,7.08197403" id="Fill-1" fill="#FFFFFF" mask="url(#mask-2)"></path>
                    </g>
                    <path d="M61.9601455,9.18341818 C59.3527688,10.3894442 56.5134961,13.2295481 55.3074701,15.8360935 C55.0689247,16.350587 54.3549506,16.350587 54.1164052,15.8360935 C52.9103792,13.2295481 50.0711065,10.3894442 47.464561,9.18341818 C46.9492364,8.9457039 46.9492364,8.2308987 47.464561,7.99318442 C50.0711065,6.78715844 52.9103792,3.94705455 54.1164052,1.33967792 C54.3549506,0.826015584 55.0689247,0.826015584 55.3074701,1.33967792 C56.5134961,3.94705455 59.3527688,6.78715844 61.9601455,7.99318442 C62.474639,8.2308987 62.474639,8.9457039 61.9601455,9.18341818" id="Fill-4" fill="#FFFFFF"></path>
                </g>
            </g>
        </g>
    </g>
</svg>