<?xml version="1.0" encoding="UTF-8"?>
<svg width="160px" height="160px" viewBox="0 0 160 160" version="1.1" xmlns="http://www.w3.org/2000/svg" xmlns:xlink="http://www.w3.org/1999/xlink">
    <!-- Generator: Sketch 58 (84663) - https://sketch.com -->
    <title>2</title>
    <desc>Created with Sketch.</desc>
    <defs>
        <polygon id="path-1" points="8.42105263e-05 0.693894737 63.3061053 0.693894737 63.3061053 64 8.42105263e-05 64"></polygon>
    </defs>
    <g id="Page-1" stroke="none" stroke-width="1" fill="none" fill-rule="evenodd">
        <g id="Desktop-HD-Copy-3" transform="translate(-497.000000, -2069.000000)">
            <g id="2" transform="translate(497.000000, 2069.000000)">
                <circle id="Oval-Copy-12" fill-opacity="0.5" fill="#FFFFFF" opacity="0.40297154" cx="80" cy="80" r="80"></circle>
                <g id="Group-6" transform="translate(48.000000, 48.000000)">
                    <g id="Group-3" transform="translate(0.000000, 0.148632)">
                        <mask id="mask-2" fill="white">
                            <use xlink:href="#path-1"></use>
                        </mask>
                        <g id="Clip-2"></g>
                        <path d="M31.6531368,59.7896421 C16.5213474,59.7896421 4.21061053,47.4789053 4.21061053,32.3462737 C4.21061053,17.2144842 16.5213474,4.90374737 31.6531368,4.90374737 C46.7849263,4.90374737 59.0956632,17.2144842 59.0956632,32.3462737 C59.0956632,47.4789053 46.7849263,59.7896421 31.6531368,59.7896421 M31.6531368,0.693221053 C14.1710316,0.693221053 8.42105263e-05,14.8650105 8.42105263e-05,32.3462737 C8.42105263e-05,49.8283789 14.1710316,64.0001684 31.6531368,64.0001684 C49.1352421,64.0001684 63.3061895,49.8283789 63.3061895,32.3462737 C63.3061895,14.8650105 49.1352421,0.693221053 31.6531368,0.693221053" id="Fill-1" fill="#FFFFFF" mask="url(#mask-2)"></path>
                    </g>
                    <path d="M37.5840842,43.4464842 C36.3815579,43.8776421 35.0291368,44.1117474 33.6261895,44.1875368 L33.6261895,34.6018526 L34.2333474,34.5976421 C36.2047158,34.5782737 38.9819789,34.7197474 40.3158737,36.0435368 C40.9904,36.7138526 41.3188211,37.7100632 41.3188211,39.0902737 C41.3188211,41.0936421 40.0615579,42.5589053 37.5840842,43.4464842 M34.2021895,30.3871158 L30.9171368,30.4106947 C30.6215579,30.4106947 30.3091368,30.4132211 29.9849263,30.4174316 C27.7339789,30.4460632 24.6434526,30.4797474 23.2548211,29.1088 C22.6215579,28.4822737 22.3141895,27.5214316 22.3141895,26.1681684 C22.3141895,24.1134316 23.5470316,22.6296421 25.9790316,21.7589053 C27.0350316,21.3808 28.2038737,21.1643789 29.4156632,21.0784842 L29.4156632,24.0544842 C29.4156632,25.2174316 30.3579789,26.1597474 31.5209263,26.1597474 C32.6838737,26.1597474 33.6261895,25.2174316 33.6261895,24.0544842 L33.6261895,21.2965895 C36.8876632,21.8540632 39.9478737,23.2654316 41.5916632,25.2662737 C42.3301895,26.1656421 43.6573474,26.2936421 44.5541895,25.5568 C45.4535579,24.8182737 45.5832421,23.4919579 44.8447158,22.5934316 C42.2653474,19.4532211 37.9579789,17.6410105 33.6261895,17.0599579 L33.6261895,12.9159579 C33.6261895,11.7530105 32.6838737,10.8106947 31.5209263,10.8106947 C30.3579789,10.8106947 29.4156632,11.7530105 29.4156632,12.9159579 L29.4156632,16.8839579 C27.6598737,16.9765895 25.9967158,17.2797474 24.5592421,17.7951158 C20.4565053,19.2645895 18.1036632,22.3163789 18.1036632,26.1681684 C18.1036632,28.6692211 18.8413474,30.6658526 20.2956632,32.1033263 C22.7571368,34.5353263 26.4893474,34.6565895 29.4156632,34.6338526 L29.4156632,43.9433263 C26.0295579,43.3791158 22.8733474,41.9753263 21.2455579,39.9921684 C20.5078737,39.0936421 19.1798737,38.9656421 18.2821895,39.7024842 C17.3836632,40.4401684 17.2531368,41.7673263 17.9916632,42.6650105 C20.2198737,45.3765895 24.5878737,47.5610105 29.4156632,48.2490105 L29.4156632,52.0755368 C29.4156632,53.2384842 30.3579789,54.1808 31.5209263,54.1808 C32.6838737,54.1808 33.6261895,53.2384842 33.6261895,52.0755368 L33.6261895,48.4393263 C35.4493474,48.3483789 37.2691368,48.0309053 39.0038737,47.4111158 C43.1504,45.9256421 45.5293474,42.8932211 45.5293474,39.0902737 C45.5293474,36.5664842 44.7731368,34.5361684 43.2834526,33.0557474 C40.8624,30.6515368 37.1756632,30.3660632 34.2021895,30.3871158" id="Fill-4" fill="#FFFFFF"></path>
                </g>
            </g>
        </g>
    </g>
</svg>