<?xml version="1.0" encoding="utf-8"?>
<!-- Generator: Adobe Illustrator 23.0.3, SVG Export Plug-In . SVG Version: 6.00 Build 0)  -->
<svg version="1.1" id="Capa_1" xmlns="http://www.w3.org/2000/svg" xmlns:xlink="http://www.w3.org/1999/xlink" x="0px" y="0px"
	 viewBox="0 0 24 24" style="enable-background:new 0 0 24 24;" xml:space="preserve">
<style type="text/css">
	.st0{clip-path:url(#SVGID_2_);}
	.st1{fill:#2993FF;}
</style>
<g>
	<defs>
		<rect id="SVGID_1_" x="0.8" y="0.8" width="22.5" height="22.5"/>
	</defs>
	<clipPath id="SVGID_2_">
		<use xlink:href="#SVGID_1_"  style="overflow:visible;"/>
	</clipPath>
	<g class="st0">
		<path class="st1" d="M8.4,21.8H2.2V2.2h6.1c0.4,0,0.7-0.3,0.7-0.7S8.8,0.8,8.4,0.8H1.5c-0.4,0-0.7,0.3-0.7,0.7v21
			c0,0.4,0.3,0.7,0.7,0.7h6.9c0.4,0,0.7-0.3,0.7-0.7C9.1,22.1,8.8,21.8,8.4,21.8z"/>
		<path class="st1" d="M23,11.5l-7.2-7.2c-0.3-0.3-0.8-0.3-1,0c-0.3,0.3-0.3,0.8,0,1l5.9,5.9H5.2c-0.4,0-0.7,0.3-0.7,0.7
			c0,0.4,0.3,0.7,0.7,0.7h15.5l-5.9,6c-0.3,0.3-0.3,0.8,0,1c0.3,0.3,0.8,0.3,1,0l7.2-7.2c0.1-0.1,0.2-0.3,0.2-0.5S23.2,11.7,23,11.5
			z"/>
	</g>
</g>
</svg>
