<?xml version="1.0" encoding="UTF-8"?>
<svg width="24px" height="24px" viewBox="0 0 24 24" version="1.1" xmlns="http://www.w3.org/2000/svg" xmlns:xlink="http://www.w3.org/1999/xlink">
    <!-- Generator: Sketch 59.1 (86144) - https://sketch.com -->
    <title>icon/mail/grey@1x</title>
    <desc>Created with Sketch.</desc>
    <g id="icon/mail/grey" stroke="none" stroke-width="1" fill="none" fill-rule="evenodd">
        <path d="M21.3973147,17.5106383 L2.374648,17.5106383 C2.348248,17.5106383 2.46675467,17.6250213 2.46675467,17.5982128 L2.46675467,7.04459574 L11.4797147,14.9206383 C11.6167013,15.0394894 11.7513413,15.098766 11.920888,15.098766 C12.0895547,15.098766 12.285208,15.0397872 12.4221947,14.9221277 L21.5334213,7.09225532 L21.5334213,17.5982128 C21.5334213,17.6250213 21.4237147,17.5106383 21.3973147,17.5106383 L21.3973147,17.5106383 Z M19.715048,6.4893617 L11.887448,13.2355745 L4.10707467,6.4893617 L19.715048,6.4893617 Z M23.000088,6.53791489 C23.000088,5.68868085 22.3219013,5 21.4853147,5 L2.514568,5 C1.67798133,5 1.000088,5.68868085 1.000088,6.53791489 L1.000088,17.4620851 C1.000088,18.3113191 1.67798133,19 2.514568,19 L21.4853147,19 C22.3219013,19 23.000088,18.3113191 23.000088,17.4620851 L23.000088,6.53791489 Z" id="Fill-1" fill="#333333"></path>
    </g>
</svg>