<?xml version="1.0" encoding="UTF-8"?>
<svg width="24px" height="24px" viewBox="0 0 24 24" version="1.1" xmlns="http://www.w3.org/2000/svg" xmlns:xlink="http://www.w3.org/1999/xlink">
    <!-- Generator: Sketch 58 (84663) - https://sketch.com -->
    <title>Group 6</title>
    <desc>Created with Sketch.</desc>
    <defs>
        <polygon id="path-1" points="0 0.256831169 23.4314805 0.256831169 23.4314805 23.6882805 0 23.6882805"></polygon>
    </defs>
    <g id="Page-1" stroke="none" stroke-width="1" fill="none" fill-rule="evenodd">
        <g id="Desktop-HD-Copy-3" transform="translate(-181.000000, -588.000000)">
            <g id="boton/cta/blanco-copy" transform="translate(165.000000, 576.000000)">
                <g id="Group-6" transform="translate(16.000000, 12.000000)">
                    <path d="M16.2736208,11.3284987 L8.15881558,7.32922597 C7.91725714,7.20984935 7.63112727,7.22418701 7.40265974,7.36631688 C7.17419221,7.50844675 7.03486753,7.75873247 7.03486753,8.02803117 L7.03486753,16.0268883 C7.03486753,16.296187 7.17419221,16.5464727 7.40265974,16.6886026 C7.52795844,16.7665247 7.67102338,16.8061091 7.81408831,16.8061091 C7.93190649,16.8061091 8.04972468,16.7796156 8.15881558,16.7256935 L16.2736208,12.7261091 C16.5398026,12.5948883 16.708426,12.3240312 16.708426,12.0273039 C16.708426,11.7305766 16.5398026,11.4597195 16.2736208,11.3284987" id="Fill-1" fill="#FFFFFF"></path>
                    <g id="Group-5" transform="translate(0.000000, 0.054982)">
                        <mask id="mask-2" fill="white">
                            <use xlink:href="#path-1"></use>
                        </mask>
                        <g id="Clip-4"></g>
                        <path d="M21.873039,17.7705662 C21.873039,20.1743065 19.9178182,22.129839 17.5137662,22.129839 L5.91802597,22.129839 C3.51428571,22.129839 1.55844156,20.1743065 1.55844156,17.7705662 L1.55844156,6.17451429 C1.55844156,3.77077403 3.51428571,1.81524156 5.91802597,1.81524156 L17.5137662,1.81524156 C19.9178182,1.81524156 21.873039,3.77077403 21.873039,6.17451429 L21.873039,17.7705662 Z M17.5137662,0.2568 L5.91802597,0.2568 C2.64935065,0.2568 0,2.90646234 0,6.17451429 L0,17.7705662 C0,21.0386182 2.64935065,23.6882805 5.91802597,23.6882805 L17.5137662,23.6882805 C20.7821299,23.6882805 23.4314805,21.0386182 23.4314805,17.7705662 L23.4314805,6.17451429 C23.4314805,2.90646234 20.7821299,0.2568 17.5137662,0.2568 L17.5137662,0.2568 Z" id="Fill-3" fill="#FFFFFF" mask="url(#mask-2)"></path>
                    </g>
                </g>
            </g>
        </g>
    </g>
</svg>