<?xml version="1.0" encoding="UTF-8"?>
<svg width="88px" height="47px" viewBox="0 0 88 47" version="1.1" xmlns="http://www.w3.org/2000/svg" xmlns:xlink="http://www.w3.org/1999/xlink">
    <!-- Generator: Sketch 58 (84663) - https://sketch.com -->
    <title>Group 31</title>
    <desc>Created with Sketch.</desc>
    <defs>
        <polygon id="path-1" points="0 0.16632 26.2059893 0.16632 26.2059893 28.16 0 28.16"></polygon>
        <polygon id="path-3" points="0.327653333 0.2552 34.36312 0.2552 34.36312 10.2906613 0.327653333 10.2906613"></polygon>
    </defs>
    <g id="Page-1" stroke="none" stroke-width="1" fill="none" fill-rule="evenodd">
        <g id="Desktop-HD-Copy-3" transform="translate(-619.000000, -905.000000)">
            <g id="Group-31" transform="translate(619.000000, 905.000000)">
                <g id="Group-3" transform="translate(0.000000, 18.518427)">
                    <mask id="mask-2" fill="white">
                        <use xlink:href="#path-1"></use>
                    </mask>
                    <g id="Clip-2"></g>
                    <path d="M19.933936,22.0014667 C14.396976,22.6157067 12.9209227,21.3872267 12.9209227,21.3872267 L17.4740427,17.51288 L17.4740427,4.22429333 C17.4740427,3.60946667 19.933936,5.14477333 19.933936,5.14477333 L19.933936,22.0014667 Z M26.2059893,3.73325333 C26.2059893,3.73325333 22.3938293,3.60946667 20.8550027,0.16632 C20.8550027,0.16632 17.2874827,4.16504 11.7511093,5.57949333 L12.1236427,6.56333333 L12.1236427,19.2969333 L11.074096,20.3423733 C11.074096,20.3423733 6.89292267,17.2653067 6.52390933,13.5769333 C6.15548267,9.88504 6.89292267,7.05261333 11.016016,3.48861333 C11.016016,3.48861333 12.2439093,2.31586667 14.3347893,1.58136 L14.3347893,1.14957333 C7.69078933,1.14957333 -0.000410666667,7.17405333 -0.000410666667,14.1911733 C-0.000410666667,21.1431733 5.27606933,25.2580533 12.2439093,25.2580533 C12.2439093,25.2580533 16.6738293,25.3038133 19.9574027,23.4980533 L19.9574027,25.23576 C19.9574027,25.36952 19.685776,25.34312 19.685776,25.34312 C18.735376,25.34312 17.9674293,25.9737867 17.9674293,26.75112 C17.9674293,27.5284533 18.735376,28.1602933 19.685776,28.1602933 C20.636176,28.1602933 21.4041227,27.5284533 21.4041227,26.75112 L21.4041227,22.82808 C21.4076427,22.82808 22.3351627,22.1252533 22.639056,21.87768 C22.945296,21.6318667 22.6977227,21.1431733 22.3351627,21.2640267 C21.963216,21.3872267 21.4076427,21.6318667 21.4076427,21.6318667 L21.4076427,5.33426667 C21.4076427,5.33426667 24.608496,5.63757333 26.2059893,3.73325333 L26.2059893,3.73325333 Z" id="Fill-1" fill="#333333" mask="url(#mask-2)"></path>
                </g>
                <path d="M29.587008,37.13512 C27.1277013,36.64232 26.6378347,36.0932 26.6378347,36.0932 L26.6378347,27.7865867 C26.6378347,27.60296 29.587008,28.83144 29.587008,28.83144 L29.587008,37.13512 Z M33.2789013,36.5214667 L33.2789013,28.4031733 C33.2789013,28.0928267 33.8931413,27.4193333 33.8931413,27.4193333 C31.619808,27.17528 27.988928,25.3918133 27.988928,25.3918133 C25.961408,27.1095733 22.6977813,27.2955467 22.6977813,27.2955467 C22.6391147,27.6651467 23.191168,28.3380533 23.191168,28.3380533 L23.191168,36.33784 C23.191168,36.33784 22.9453547,36.5836533 22.393888,37.32168 C21.8389013,38.05912 22.1451413,38.05912 22.1451413,38.05912 C26.7000213,38.54664 28.541568,40.45448 28.541568,40.45448 C30.574368,38.1817333 34.016928,37.68776 34.016928,37.68776 C33.4648747,37.44312 33.2789013,36.5214667 33.2789013,36.5214667 L33.2789013,36.5214667 Z" id="Fill-4" fill="#333333"></path>
                <path d="M53.2094933,37.13512 C50.7496,36.64232 50.2568,36.0932 50.2568,36.0932 L50.2568,27.7865867 C50.2568,27.60296 53.2094933,28.83144 53.2094933,28.83144 L53.2094933,37.13512 Z M56.8984533,36.5214667 L56.8984533,28.4031733 C56.8984533,28.0928267 57.51504,27.4193333 57.51504,27.4193333 C55.2381867,27.17528 51.60848,25.3918133 51.60848,25.3918133 C49.5797867,27.1095733 46.3202667,27.2955467 46.3202667,27.2955467 C46.25808,27.6651467 46.81248,28.3380533 46.81248,28.3380533 L46.81248,36.33784 C46.81248,36.33784 46.5684267,36.5836533 46.0122667,37.32168 C45.4602133,38.05912 45.7646933,38.05912 45.7646933,38.05912 C50.3213333,38.54664 52.1640533,40.45448 52.1640533,40.45448 C54.1933333,38.1817333 57.6394133,37.68776 57.6394133,37.68776 C57.0861867,37.44312 56.8984533,36.5214667 56.8984533,36.5214667 L56.8984533,36.5214667 Z" id="Fill-6" fill="#333333"></path>
                <path d="M71.6826293,37.2631893 C71.679696,37.2631893 71.6697227,37.2631893 71.6632693,37.2590827 C71.6632693,37.2590827 71.5254027,37.4620693 71.6826293,37.2631893" id="Fill-8" fill="#333333"></path>
                <path d="M78.4906027,36.8317547 C77.3800427,35.9693547 75.844736,35.224288 75.844736,35.224288 L75.844736,27.1752213 C75.0867627,26.7141013 78.4906027,28.214208 78.4906027,28.214208 L78.4906027,36.8317547 Z M83.410976,37.0769813 C82.548576,36.9514347 82.1783893,35.9030613 82.1783893,35.9030613 L82.1783893,28.092768 L82.1783893,26.4958613 C79.533696,25.6363947 76.9494293,24.711808 76.9494293,24.711808 C74.489536,26.1855147 71.8466027,26.985728 71.8466027,26.985728 C71.7838293,27.3547413 72.3358827,28.031168 72.3358827,28.031168 L72.3358827,36.3976213 C72.3358827,36.3976213 72.5224427,36.151808 71.9668693,36.887488 C71.8272427,37.0769813 71.7380693,37.1913813 71.6829227,37.2629547 C74.3229227,37.586208 77.2327893,40.4544213 77.2327893,40.4544213 L79.3500693,38.1816747 L81.744256,40.4544213 L84.576096,37.2594347 L83.410976,37.0769813 Z" id="Fill-10" fill="#333333"></path>
                <path d="M34.6641973,27.54136 L37.7700107,25.1436533 C37.7700107,25.1436533 39.740624,26.30936 40.0445173,26.7992267 C40.0474507,26.7992267 40.3542773,27.0509067 42.8728373,25.3918133 L43.3075573,25.0814667 C43.3075573,25.0814667 44.9050507,26.5510667 46.2584907,26.9230133 C46.2584907,26.9230133 45.949904,29.63224 41.1515573,28.3380533 C41.1515573,28.3380533 40.1090507,28.1544267 40.1090507,28.6489867 L40.1090507,37.32168 L41.4624907,37.32168 C41.4624907,37.32168 39.369264,38.54664 38.630064,39.6613067 C37.8955573,40.7648267 37.9477707,40.45448 37.9477707,40.45448 C37.9501173,40.45448 37.707824,39.1057333 35.0631307,37.5669067 L35.0032907,37.3838667 L36.234704,37.3838667 L36.234704,29.1382667 C36.234704,29.1382667 35.708464,27.60296 34.6641973,27.54136" id="Fill-12" fill="#333333"></path>
                <path d="M70.0630187,27.17528 C68.7629653,26.6496267 66.616352,24.95592 66.616352,24.95592 L66.188672,25.26392 C63.663072,26.9230133 62.9244587,26.9857867 62.9244587,26.9857867 C62.6205653,26.49592 60.5895253,25.3261067 60.5895253,25.3261067 L57.8228053,27.41992 C58.8700053,27.4756533 59.298272,29.20456 59.298272,29.20456 L59.298272,37.44312 L58.0674453,37.44312 L58.129632,37.6285067 C60.774912,39.1667467 61.0764587,40.45448 61.0764587,40.45448 C61.0764587,40.45448 60.957952,40.82408 61.6965653,39.7188 C62.438112,38.61528 64.528992,37.3838667 64.528992,37.3838667 L63.1726187,37.3838667 L63.1726187,28.70648 L64.773632,27.4756533 L66.002112,28.5246133 L66.002112,37.32168 L65.2634987,37.32168 C65.2634987,37.32168 68.0079253,39.9059467 68.1287787,40.45448 C68.1287787,40.45448 70.6772587,37.5076533 70.9870187,37.5076533 L69.756192,37.5076533 L69.756192,28.3380533 C69.756192,28.3380533 70.3692587,27.2955467 70.0630187,27.17528" id="Fill-14" fill="#333333"></path>
                <path d="M56.4894293,19.5119467 C56.0582293,19.5119467 55.7056427,19.15584 55.7056427,18.7234667 C55.7056427,18.2952 56.0582293,17.93616 56.4894293,17.93616 C56.9241493,17.93616 57.273216,18.2952 57.273216,18.7234667 C57.273216,19.15584 56.9241493,19.5119467 56.4894293,19.5119467 L56.4894293,19.5119467 Z M50.3382293,19.5119467 C49.9064427,19.5119467 49.5579627,19.15584 49.5579627,18.7234667 C49.5579627,18.2952 49.9064427,17.93616 50.3382293,17.93616 C50.7723627,17.93616 51.1231893,18.2952 51.1231893,18.7234667 C51.1231893,19.15584 50.7723627,19.5119467 50.3382293,19.5119467 L50.3382293,19.5119467 Z M44.3102293,19.5119467 C43.879616,19.5119467 43.525856,19.15584 43.525856,18.7234667 C43.525856,18.2952 43.879616,17.93616 44.3102293,17.93616 C44.742016,17.93616 45.0946027,18.2952 45.0946027,18.7234667 C45.0946027,19.15584 44.742016,19.5119467 44.3102293,19.5119467 L44.3102293,19.5119467 Z M38.201856,19.5119467 C37.7700693,19.5119467 37.416896,19.15584 37.416896,18.7234667 C37.416896,18.2952 37.7700693,17.93616 38.201856,17.93616 C38.633056,17.93616 38.9821227,18.2952 38.9821227,18.7234667 C38.9821227,19.15584 38.633056,19.5119467 38.201856,19.5119467 L38.201856,19.5119467 Z M32.1715093,19.5119467 C31.7397227,19.5119467 31.390656,19.15584 31.390656,18.7234667 C31.390656,18.2952 31.7397227,17.93616 32.1715093,17.93616 C32.6056427,17.93616 32.958816,18.2952 32.958816,18.7234667 C32.958816,19.15584 32.6056427,19.5119467 32.1715093,19.5119467 L32.1715093,19.5119467 Z M30.0800427,19.8346133 L58.5832427,19.8346133 L58.5832427,17.4562667 L30.0800427,17.4562667 L30.0800427,19.8346133 Z" id="Fill-16" fill="#333333"></path>
                <path d="M30.0802773,17.162112 L58.642144,17.162112 C58.642144,17.162112 58.6556373,16.3882987 58.6521173,15.5757653 L30.0802773,15.5757653 L30.0802773,17.162112 Z" id="Fill-18" fill="#333333"></path>
                <path d="M30.0802773,15.3001493 L58.6485973,15.3001493 C58.6485973,15.114176 58.6450773,14.934656 58.642144,14.7680427 C58.6216107,13.7619093 59.442944,13.1899093 59.9134507,13.026816 C60.386304,12.8602027 61.3273173,12.183776 61.3273173,12.183776 C63.747904,10.256576 62.7423573,8.59396267 62.7423573,8.59396267 C62.7423573,8.59396267 61.9216107,10.4437227 59.1325973,10.1550827 C59.1325973,10.1550827 58.929024,11.302016 57.6166507,11.5894827 C57.6166507,11.5894827 58.302464,12.3181227 58.0865707,13.118336 C58.0865707,13.118336 58.0572373,13.8862827 56.9501973,13.729056 C56.9501973,13.729056 56.428064,13.2720427 57.195424,12.4712427 L56.1206507,11.611776 L55.078144,12.4067093 C55.078144,12.4067093 55.780384,12.778656 55.4148907,13.6997227 C55.4148907,13.6997227 55.0317973,14.0487893 54.8921707,14.068736 C54.7449173,14.091616 53.3914773,13.473856 54.8305707,11.9784427 L53.2096107,10.6027093 L51.5464107,11.9784427 C51.5464107,11.9784427 52.8593707,13.294336 51.7722773,13.9936427 C51.7722773,13.9936427 50.6053973,14.786816 50.4816107,13.3729493 C50.4816107,13.3729493 50.3378773,12.9218027 50.9133973,12.7000427 L49.2924373,11.6516693 L47.7536107,12.7393493 C47.7536107,12.7393493 48.2241173,13.065536 48.2082773,13.3500693 C48.1883307,13.641056 48.309184,14.1344427 47.3030507,14.2547093 C47.3030507,14.2547093 46.2188907,14.1508693 46.5251307,13.026816 C46.8331307,11.8957227 47.9601173,11.756096 48.3484907,11.6516693 C48.3484907,11.6516693 47.3030507,9.88756267 44.3726507,9.355456 L44.349184,9.355456 C41.4193707,9.88756267 40.3745173,11.6516693 40.3745173,11.6516693 C40.7634773,11.756096 41.890464,11.8957227 42.1972907,13.026816 C42.508224,14.1508693 41.4193707,14.2547093 41.4193707,14.2547093 C40.4126507,14.1344427 40.5381973,13.641056 40.517664,13.3500693 C40.4953707,13.065536 40.9688107,12.7393493 40.9688107,12.7393493 L39.4305707,11.6516693 L37.8096107,12.7000427 C38.3851307,12.9218027 38.240224,13.3729493 38.240224,13.3729493 C38.1199573,14.786816 36.9513173,13.9936427 36.9513173,13.9936427 C35.862464,13.294336 37.1760107,11.9784427 37.1760107,11.9784427 L35.513984,10.6027093 L33.893024,11.9784427 C35.3303573,13.473856 33.9786773,14.091616 33.8343573,14.068736 C33.6894507,14.0487893 33.3116373,13.6997227 33.3116373,13.6997227 C32.9420373,12.778656 33.6472107,12.4067093 33.6472107,12.4067093 L32.6035307,11.611776 L31.5281707,12.4712427 C32.298464,13.2720427 31.772224,13.729056 31.772224,13.729056 C30.6657707,13.8862827 30.6358507,13.118336 30.6358507,13.118336 C30.420544,12.3181227 31.1063573,11.5894827 31.1063573,11.5894827 C29.7963307,11.302016 29.5868907,10.1550827 29.5868907,10.1550827 C26.8008107,10.4437227 25.9812373,8.59396267 25.9812373,8.59396267 C25.9812373,8.59396267 24.9745173,10.256576 27.3992107,12.183776 C27.3992107,12.183776 28.3396373,12.8602027 28.8130773,13.026816 C29.2829973,13.1899093 30.103744,13.7619093 30.0802773,14.7680427 L30.0802773,15.3001493 Z" id="Fill-20" fill="#333333"></path>
                <path d="M58.6842667,15.5757067 L58.6842667,15.2999733 L58.64848,15.2999733 C58.652,15.3914933 58.652,15.4794933 58.652,15.5757067 L58.6842667,15.5757067 Z" id="Fill-22" fill="#333333"></path>
                <g id="Group-26" transform="translate(26.986667, 0.331760)">
                    <mask id="mask-4" fill="white">
                        <use xlink:href="#path-3"></use>
                    </mask>
                    <g id="Clip-25"></g>
                    <path d="M17.38616,8.45087467 C18.4486133,8.45087467 19.3984267,8.788208 20.0156,9.32031467 L20.06136,9.37311467 C20.4338933,9.735088 20.62984,9.712208 21.09096,9.712208 C21.60664,9.712208 22.02552,9.284528 22.02552,8.75535467 C22.02552,8.22970133 22.0155467,7.800848 21.28984,7.12911467 L20.8914933,6.75658133 L21.5057333,6.20394133 C24.4590133,7.46879467 24.82744,9.434128 24.82744,9.434128 L26.7939467,9.434128 C26.7939467,8.784688 25.8106933,7.00122133 25.8106933,7.00122133 C29.5941067,7.92815467 30.8243467,10.2906613 30.8243467,10.2906613 C31.9918133,8.20682133 34.02344,8.605168 34.02344,8.605168 L34.36312,7.58847467 C34.36312,7.58847467 33.1088267,7.52687467 32.1678133,7.77210133 C32.1678133,7.77210133 32.69992,7.11855467 31.3488267,6.95194133 C31.3488267,6.95194133 31.4726133,6.00858133 29.7085067,6.00858133 C29.7085067,6.00858133 29.78712,5.39082133 28.6824267,4.984848 C27.5748,4.57359467 27.2063733,4.984848 27.2063733,4.984848 C27.2063733,4.984848 26.9611467,4.328368 25.97496,4.122448 C24.99464,3.91711467 24.6608267,4.328368 24.6608267,4.328368 C24.6608267,4.328368 24.4590133,3.671888 23.0246133,3.50527467 C21.5866933,3.346288 21.3420533,3.79567467 21.3420533,3.79567467 C21.3420533,3.79567467 21.0974133,3.30639467 20.44152,3.26063467 C19.7844533,3.21839467 19.4964,3.59386133 19.4964,3.59386133 C19.4964,3.59386133 19.0874933,3.015408 18.5553867,3.46362133 C18.5553867,3.46362133 18.0203467,3.55103467 17.8167733,3.10047467 C17.8167733,3.10047467 17.8989067,2.64698133 18.2649867,2.56191467 C18.6369333,2.48330133 18.92088,2.48330133 18.92088,2.48330133 C18.92088,2.48330133 18.8827467,1.78751467 17.8607733,1.53935467 C17.8607733,1.53935467 18.2456267,0.911034667 17.38616,0.255141333 L17.3046133,0.255141333 C16.4451467,0.911034667 16.8305867,1.53935467 16.8305867,1.53935467 C15.80568,1.78751467 15.7657867,2.48330133 15.7657867,2.48330133 C15.7657867,2.48330133 16.05384,2.48330133 16.42168,2.56191467 C16.79128,2.64698133 16.8728267,3.10047467 16.8728267,3.10047467 C16.6669067,3.55103467 16.1348,3.46362133 16.1348,3.46362133 C15.6021067,3.015408 15.1902667,3.59386133 15.1902667,3.59386133 C15.1902667,3.59386133 14.9039733,3.21839467 14.2486667,3.26063467 C13.5927733,3.30639467 13.3446133,3.79567467 13.3446133,3.79567467 C13.3446133,3.79567467 13.0999733,3.346288 11.6655733,3.50527467 C10.2288267,3.671888 10.02584,4.328368 10.02584,4.328368 C10.02584,4.328368 9.69613333,3.91711467 8.71288,4.122448 C7.72962667,4.328368 7.48146667,4.984848 7.48146667,4.984848 C7.48146667,4.984848 7.11186667,4.57359467 6.00482667,4.984848 C4.89661333,5.39082133 4.98168,6.00858133 4.98168,6.00858133 C3.21816,6.00858133 3.3396,6.95194133 3.3396,6.95194133 C1.98616,7.11855467 2.52237333,7.77210133 2.52237333,7.77210133 C1.57842667,7.52687467 0.327653333,7.58847467 0.327653333,7.58847467 L0.66264,8.605168 C0.66264,8.605168 2.69544,8.20682133 3.86525333,10.2906613 C3.86525333,10.2906613 5.09666667,7.92815467 8.87597333,7.00122133 C8.87597333,7.00122133 7.89213333,8.784688 7.89213333,9.434128 L9.85922667,9.434128 C9.85922667,9.434128 10.2288267,7.46879467 13.1821067,6.20394133 L13.79576,6.75658133 L13.3974133,7.12911467 C12.6752267,7.800848 12.66232,8.22970133 12.66232,8.75535467 C12.66232,9.284528 13.0806133,9.712208 13.5962933,9.712208 C14.0568267,9.712208 14.25336,9.735088 14.6294133,9.37311467 L14.6716533,9.32031467 C15.2888267,8.788208 16.2392267,8.45087467 17.3046133,8.45087467 L17.38616,8.45087467 Z" id="Fill-24" fill="#333333" mask="url(#mask-4)"></path>
                </g>
                <path d="M86.2106667,37.1617547 L86.2106667,38.6266613 L86.5139733,38.6266613 L86.5139733,38.0505547 L86.8337067,38.0505547 C86.9234667,38.0505547 86.98624,38.069328 87.0202667,38.0998347 C87.0525333,38.127408 87.0713067,38.1931147 87.0713067,38.2863947 L87.0713067,38.4260213 C87.0713067,38.468848 87.0771733,38.5081547 87.0859733,38.5457013 C87.09008,38.570928 87.0994667,38.5985013 87.1047467,38.6266613 L87.4450133,38.6266613 L87.4450133,38.5891147 C87.4145067,38.570928 87.39632,38.5457013 87.3898667,38.5028747 C87.3834133,38.4870347 87.3798933,38.4377547 87.3798933,38.3691147 L87.3798933,38.2705547 C87.3798933,38.1708213 87.3675733,38.0933813 87.34,38.0441013 C87.30832,37.9948213 87.2613867,37.951408 87.1933333,37.9297013 C87.27664,37.9027147 87.3370667,37.8522613 87.37168,37.787728 C87.4057067,37.7167413 87.4238933,37.6516213 87.4238933,37.576528 C87.4238933,37.5243147 87.4115733,37.4685813 87.3928,37.425168 C87.37344,37.3817547 87.35232,37.3377547 87.3182933,37.3043147 C87.2807467,37.2609013 87.2338133,37.221008 87.1769067,37.196368 C87.12176,37.1817013 87.04256,37.1617547 86.9357867,37.1617547 L86.2106667,37.1617547 Z M87.0237867,37.4404213 C87.08304,37.4750347 87.1117867,37.5331147 87.1117867,37.6193547 C87.1117867,37.699728 87.08304,37.7566347 87.0202667,37.787728 C86.98624,37.8029813 86.9328533,37.8094347 86.8642133,37.8094347 L86.5139733,37.8094347 L86.5139733,37.4187147 L86.87008,37.4187147 C86.9398933,37.4187147 86.98624,37.425168 87.0237867,37.4404213 L87.0237867,37.4404213 Z" id="Fill-27" fill="#333333"></path>
                <path d="M86.8058987,38.926624 C87.3644053,38.926624 87.815552,38.476064 87.815552,37.9193173 C87.815552,37.3608107 87.3644053,36.9084907 86.8058987,36.9084907 C86.249152,36.9084907 85.796832,37.3608107 85.796832,37.9193173 C85.796832,38.476064 86.249152,38.926624 86.8058987,38.926624 M86.8058987,39.111424 C87.4664853,39.111424 87.9997653,38.5787307 87.9997653,37.9193173 C87.9997653,37.2587307 87.4664853,36.723104 86.8058987,36.723104 C86.1464853,36.723104 85.612032,37.2587307 85.612032,37.9193173 C85.612032,38.5787307 86.1464853,39.111424 86.8058987,39.111424" id="Fill-29" fill="#333333"></path>
            </g>
        </g>
    </g>
</svg>