<?xml version="1.0" encoding="UTF-8"?>
<svg width="88px" height="80px" viewBox="0 0 88 80" version="1.1" xmlns="http://www.w3.org/2000/svg" xmlns:xlink="http://www.w3.org/1999/xlink">
    <!-- Generator: Sketch 58 (84663) - https://sketch.com -->
    <title>Group 46</title>
    <desc>Created with Sketch.</desc>
    <defs>
        <polygon id="path-1" points="0.497229139 0.0664370861 53.646898 0.0664370861 53.646898 40.3125669 0.497229139 40.3125669"></polygon>
    </defs>
    <g id="Page-1" stroke="none" stroke-width="1" fill="none" fill-rule="evenodd">
        <g id="Desktop-HD-Copy-3" transform="translate(-168.000000, -888.000000)">
            <g id="Group-46" transform="translate(168.000000, 888.000000)">
                <path d="M3.40221987,60.2149616 C3.57821987,60.1695046 3.75247152,60.1263788 3.92555762,60.0850013 C3.7594649,60.1467762 3.5927894,60.2120477 3.42494834,60.2808159 L3.40221987,60.2149616 Z M73.4496371,60.6176636 C73.2072,60.5861934 72.9571868,60.5698755 72.6990146,60.5698755 C72.623253,60.5698755 72.5469086,60.5716238 72.4705642,60.5745377 C72.7817695,60.4020344 73.1157033,60.2516768 73.4694517,60.133955 L73.4496371,60.6176636 Z M37.5287364,71.1438623 C37.7198887,70.9835974 37.8988026,70.8081801 38.0654781,70.6181934 C39.1599417,69.3687099 39.6197563,67.5941404 39.3580874,65.6208424 C38.7834649,61.2575576 36.6236768,60.2930543 35.321743,60.1188026 C35.9383258,59.8425642 36.548498,59.7032795 37.1505113,59.7032795 C38.4145642,59.7032795 39.7316503,60.3309351 41.0644715,61.5687629 C42.068604,62.5076238 42.0779285,66.4722861 40.7078093,69.0854781 C40.3260874,69.8011338 39.0783523,70.6094517 37.5287364,71.1438623 L37.5287364,71.1438623 Z M83.4490013,71.4434119 L83.3336106,70.792445 C83.2555179,70.3518623 82.9798623,69.9753854 82.5928954,69.7655841 C83.2351205,68.9520212 83.4006305,68.0469616 83.5783788,66.7858225 C83.6191735,66.5020079 83.6634649,66.187306 83.7205775,65.8358887 C83.7841007,65.4460079 83.6861934,65.0637033 83.4734781,64.7618225 C83.6057695,64.5421139 83.6821139,64.2851073 83.6821139,64.0100344 C83.6821139,62.8339815 83.6401536,61.9988556 83.0795179,61.1415841 C82.5182993,60.2522596 81.1225377,59.8816106 80.0193325,59.7277563 C80.2547762,59.7195974 80.4838093,59.7161007 80.7070146,59.7161007 C85.7422464,59.7161007 85.9258225,61.6282066 85.9637033,62.4056371 C85.9549616,63.0839947 85.9328159,63.8200477 85.9100874,64.5858225 C85.841902,66.8540079 85.767306,69.3535576 85.9928424,71.4696371 L83.4490013,71.4434119 Z M57.0303523,71.4882861 L57.0303523,70.3565245 C57.0303523,69.9608159 56.8700874,69.592498 56.6020079,69.3250013 C56.8706702,68.8255576 56.977902,68.2765775 56.9079682,67.7287629 C56.8333722,66.7228821 56.8188026,65.7461404 56.8059815,64.8008689 C56.7850013,63.3007894 56.7634384,61.7634119 56.492445,60.1362861 L59.4244185,60.1362861 C59.1027232,63.7670146 59.033955,68.2037298 59.636551,71.4882861 L57.0303523,71.4882861 Z M19.7603126,71.5011073 C20.1554384,67.3394649 20.4654781,59.7131868 19.3850013,55.4798623 C20.3500874,55.4041007 21.3437298,55.2840477 22.3466967,55.1214517 C22.1019285,60.232445 22.0139285,66.2327629 22.7907762,71.4189351 L19.7603126,71.5011073 Z M12.7034119,71.5028556 L12.6806834,70.5698225 C12.6666967,70.0115179 12.335094,69.509743 11.825743,69.2789616 C11.7855311,69.2603126 11.7435709,69.2439947 11.7021934,69.2294252 C12.2220344,68.2876503 12.3525775,67.2648689 12.4656371,66.3825377 C12.4918623,66.1779815 12.5180874,65.9699285 12.5495576,65.7601272 C12.6078358,65.3731603 12.5075974,64.9792 12.2721536,64.6668291 C12.2564185,64.6464318 12.2406834,64.6260344 12.2237828,64.6062199 C12.4026967,64.3643656 12.5081801,64.0648159 12.5081801,63.7413722 L12.5081801,63.6492927 C12.5093457,62.4050543 12.5105113,60.1263788 10.0476768,59.4958093 C11.4853987,59.6036238 12.6293987,59.8967629 13.6591735,60.208551 C14.1009219,60.3408424 14.9383788,61.6101404 14.905743,63.4668821 L14.7903523,70.5628291 C14.7897695,70.6170278 14.7921007,70.6712265 14.7973457,70.7248424 C14.8224053,70.9900079 14.8614517,71.2569219 14.9144848,71.5250013 L12.7034119,71.5028556 Z M76.8600742,71.5990146 C76.0435974,71.5990146 75.1391205,71.4428291 74.0120212,71.1077298 C73.3464848,70.9078358 72.4653192,69.5103258 72.4653192,68.8418755 C72.4653192,67.9781934 72.4653192,66.3831205 76.1397563,65.7356503 C75.8635179,65.9874119 75.6251603,66.2735576 75.4398358,66.5981669 C75.1018225,67.1920212 74.6734781,68.4222728 75.6035974,69.9882066 C76.0500079,70.7475709 76.6992265,71.291306 77.4644185,71.5669616 C77.2656901,71.5885245 77.0646305,71.5990146 76.8600742,71.5990146 L76.8600742,71.5990146 Z M64.6502199,71.603094 C65.0942993,68.4683126 65.2254252,63.6114119 64.4648954,60.251094 L67.6643656,60.251094 L67.5606305,61.7424318 C67.5309086,62.1725245 67.6917563,62.579306 67.9808159,62.8701139 C67.9272,62.9761801 67.881743,63.085743 67.844445,63.1982199 C67.4778755,64.2507232 66.6689748,68.5399947 67.3875444,71.603094 L64.6502199,71.603094 Z M6.20131921,71.6526305 C4.69074967,71.6526305 1.92312053,70.8507232 1.78500132,69.2533192 C1.64163709,67.661743 1.9586702,67.0772132 2.25122649,66.7456106 C2.73668344,66.1937166 3.72449801,65.7939285 5.1989351,65.5503258 C5.18611391,65.5654781 5.17212715,65.5800477 5.15930596,65.5946172 C4.41975629,66.4390675 4.07008742,67.5300344 4.1744053,68.6682066 C4.3125245,70.1228291 5.66923974,71.2889748 7.36163709,71.4929483 C7.13260397,71.5506437 6.87676291,71.5966834 6.58012715,71.6328159 C6.46765033,71.6462199 6.33885563,71.6526305 6.20131921,71.6526305 L6.20131921,71.6526305 Z M50.4536636,71.7755974 C46.6888954,71.7755974 46.0169483,71.0162331 45.9079682,68.7334781 C45.8735841,67.8668821 45.895147,66.8679947 45.9184583,65.8102464 C45.9639152,63.7093192 46.0082066,61.6829881 45.668445,60.0407099 L48.5409748,60.0407099 L48.1738225,67.6209483 C48.1044715,68.9770808 48.6394649,69.8413457 49.100445,70.3268026 C49.7461669,71.0063258 50.6914384,71.4131073 51.7905642,71.4923656 C51.3330808,71.6776901 50.8814252,71.7755974 50.4536636,71.7755974 L50.4536636,71.7755974 Z M27.3638623,78.0259285 C27.9402331,73.8333987 28.4321007,64.8142728 27.0042861,60.0978225 L30.180445,60.0978225 L30.1140079,61.0733987 C30.0784583,61.5868291 30.3173987,62.0722861 30.7259285,62.3613457 C30.3634384,62.9103258 30.169955,63.4866967 30.1682066,64.0397563 L29.9007099,70.1781934 C29.8750675,70.7743788 30.2154119,71.3262728 30.759147,71.5704583 C30.8028556,71.5902728 30.8465642,71.6089219 30.8896901,71.6275709 C30.5306967,71.885743 30.3069086,72.2942728 30.2847629,72.7377695 C30.1950146,74.5420609 30.3593589,76.3137166 30.7748821,78.0259285 L27.3638623,78.0259285 Z" id="Fill-1" fill="#333333"></path>
                <path d="M50.0703682,58.5834649 L43.5129113,58.5834649 C44.9890967,60.3860079 44.3183152,65.3903523 44.452355,68.8031205 C44.6248583,72.4082066 46.5999046,73.2322596 50.4538384,73.2322596 C52.4667656,73.2322596 54.3462358,71.8330013 55.5729907,70.3562331 L55.5729907,72.9449483 L61.497547,72.9449483 C60.4048318,69.6854517 60.4817589,63.4345377 61.0377325,58.6796238 L54.6720106,58.6796238 C55.5922225,61.8627762 55.2087523,64.6041801 55.4581828,67.8829086 C55.6458384,69.1055841 53.8409642,70.0491073 52.1899444,70.0491073 C50.8116662,70.0491073 49.5423682,69.3923126 49.6292026,67.6911735 L50.0703682,58.5834649 Z M74.9959311,58.4109616 C72.1583682,58.4494252 69.8960106,60.4052397 69.0142623,61.8429616 L69.2252291,58.7944318 L62.4568053,58.7944318 C63.9906861,61.900657 63.7220238,69.8002596 62.8979709,73.0597563 L69.7235073,73.0597563 C67.8446199,71.5643391 68.6500238,65.2563126 69.2252291,63.6647364 C69.492143,62.8121272 71.1361695,62.0271205 72.6991894,62.0271205 C73.4911894,62.0271205 74.2633748,62.2287629 74.8234278,62.7252927 L74.9959311,58.4109616 Z M78.6645404,70.316604 C77.9686993,70.316604 77.3043285,70.0059815 76.8561695,69.2442861 C75.3024742,66.6270146 79.1622358,65.5034119 81.3418384,65.5034119 C81.7177325,65.5034119 82.0429245,65.5366305 82.2824477,65.6013192 C81.8797457,68.0746437 82.0907126,68.7652397 80.134898,69.8964185 C79.6727523,70.159253 79.1610702,70.316604 78.6645404,70.316604 L78.6645404,70.316604 Z M80.7066066,58.2594384 C79.3632954,58.2594384 77.9564609,58.3888159 76.6259709,58.5642331 L76.5303947,61.4408424 C77.0327523,61.1826702 77.7688053,61.0754384 78.5357457,61.0754384 C79.9915338,61.0754384 81.5592159,61.4618225 81.8610967,61.9391205 C82.1862887,62.4373987 82.2253351,62.9554914 82.2253351,64.009743 C81.6081695,64.009743 80.8738649,63.9934252 80.0812821,63.9934252 C76.2384212,63.9934252 71.0085404,64.3757298 71.0085404,68.8415841 C71.0085404,70.0881536 72.2539444,72.1010808 73.5966728,72.5037828 C74.7808848,72.8563656 75.8479576,73.0556768 76.8608318,73.0556768 C78.6010172,73.0556768 80.1774411,72.4653192 81.8989775,71.0468291 L82.2253351,72.887253 L87.7087258,72.9449483 C87.0373616,70.145849 87.3823682,65.6013192 87.4214146,62.3802861 C87.2687258,59.1388556 84.2038781,58.2594384 80.7066066,58.2594384 L80.7066066,58.2594384 Z M34.0724344,70.8859815 C33.2553748,70.8859815 32.3398252,70.6825907 31.3566728,70.2414252 L31.6247523,64.0674384 C31.6037722,63.0603921 33.2075868,61.5422464 34.8178119,61.5422464 C36.1506331,61.5422464 37.4886993,62.5825113 37.913547,65.8122861 C38.3086728,68.7949616 36.6966993,70.8859815 34.0724344,70.8859815 L34.0724344,70.8859815 Z M37.1506861,58.2466172 C34.9501033,58.2466172 33.0461563,59.591094 31.5676397,61.1721801 L31.740143,58.6411603 L24.6267126,58.6411603 C27.2340768,60.6540874 26.6011762,75.9742464 25.6238517,79.4831735 L32.7372821,79.4831735 C31.9511099,77.3356238 31.6247523,75.1117298 31.740143,72.8109086 C32.4651232,73.0760742 33.2967523,73.1949616 34.1674278,73.1949616 C37.3272689,73.1949616 41.0057854,71.6261139 41.9982623,69.761796 C43.4359841,67.0203921 43.8194543,62.1500874 42.0553748,60.5008159 C40.308196,58.8789351 38.6600901,58.2466172 37.1506861,58.2466172 L37.1506861,58.2466172 Z M7.89097748,70.0677563 C6.73007682,70.0677563 5.70263311,69.3491868 5.62512318,68.5350411 C5.45261987,66.6561536 7.10130861,65.5442066 8.53961325,65.4865113 C9.04488477,65.4771868 9.44409007,65.4643656 9.81415629,65.4643656 C10.2436662,65.4643656 10.6352954,65.481849 11.1085139,65.5442066 C10.878898,67.0775046 10.8981298,68.4965775 9.57521589,69.4937166 C9.04371921,69.8999152 8.45219603,70.0677563 7.89097748,70.0677563 L7.89097748,70.0677563 Z M8.86072583,57.9954384 C6.91714967,57.9954384 4.5149245,58.3078093 1.52175894,59.2355974 L2.57659338,62.2841272 C4.47063311,61.2922331 6.32912318,60.7362596 8.07863311,60.7362596 C8.5600106,60.7362596 9.0343947,60.7782199 9.49828874,60.8656371 C11.0898649,61.1721801 11.0519841,62.3995179 11.0519841,63.7416636 L7.94575894,63.8372397 C1.29214305,64.0866702 0.0269245033,65.9655576 0.332884768,69.3789086 C0.560752318,72.0020079 4.12154702,73.1092927 6.20032848,73.1092927 C6.4008053,73.1092927 6.58846093,73.0993854 6.75688477,73.0789881 C9.11481854,72.7916768 9.72790464,71.8522331 11.2244874,70.6056636 L11.2816,72.9449483 L16.918845,73.0026437 C16.5540238,72.1972397 16.3244079,71.3918358 16.2480636,70.5864318 L16.3628715,63.4922331 C16.4007523,61.3062199 15.4234278,59.2163656 14.0806993,58.8136636 C12.8405404,58.4383523 11.1761166,57.9954384 8.86072583,57.9954384 L8.86072583,57.9954384 Z M23.8982358,53.3489219 C21.7314543,53.8093192 19.4498649,54.0966305 17.2825007,54.116445 C19.1235073,56.6661139 18.836196,67.7488689 18.1263682,73.0026437 L24.5113219,72.8295576 C23.380143,67.0588556 23.5339974,59.8492662 23.8982358,53.3489219 L23.8982358,53.3489219 Z" id="Fill-3" fill="#333333"></path>
                <path d="M48.4089748,45.4986225 C54.0776901,36.7691391 61.0693192,31.3725828 69.2708026,29.4080265 C69.0178755,31.5118675 68.1460344,35.1542517 67.1401536,36.9620397 C60.3408424,37.4375894 54.1557828,40.2483444 48.4089748,45.4986225" id="Fill-5" fill="#333333"></path>
                <path d="M70.7208795,27.6178967 C60.4050649,29.4583205 50.8369589,36.4184795 43.4933298,51.2205457 L43.6279523,52.8698172 C51.527555,42.7649695 59.7529325,38.7385325 67.9596609,38.374294 C69.5897007,36.2267444 71.1428132,29.2665854 70.7208795,27.6178967 M67.4345748,31.4421086 C67.1128795,32.8932344 66.6542305,34.4877245 66.1903364,35.5816053 C62.6283762,35.9382675 59.1905483,36.9412344 55.8890914,38.5811815 C59.378204,35.206294 63.2333033,32.8209695 67.4345748,31.4421086" id="Fill-7" fill="#333333"></path>
                <path d="M35.5325934,42.5673483 C31.4525404,39.8445934 26.7739709,38.114898 21.3133086,37.3059974 C20.074898,34.7207788 19.3236927,32.0405669 19.0363815,29.176196 C21.5907126,29.9664477 24.0570437,30.9985536 26.3893351,32.2556132 C26.5047258,32.3179709 26.6282755,32.3645934 26.7559046,32.3931497 C28.0333616,32.6851232 28.4692821,33.7352954 28.499004,34.1368318 C28.3014411,35.9591894 29.3178119,37.3223152 31.2386596,37.7955338 C32.0941828,37.9785272 32.8174146,37.9907656 33.5167523,38.0024212 L33.890898,38.0094146 C34.506898,38.0368053 35.256355,38.9879046 35.7715338,39.781653 L36.4143417,40.7927788 C36.0576795,41.3633219 35.7610437,41.9612556 35.5325934,42.5673483" id="Fill-9" fill="#333333"></path>
                <path d="M17.4555285,27.215253 C17.5703364,31.7207364 18.702098,35.4406305 20.3507868,38.6430146 C26.371502,39.4291868 31.7593166,41.3844185 36.4565351,45.0273854 C36.5532768,43.4748556 37.3004026,41.9409748 38.163502,40.828445 L36.9932768,38.9880212 C35.7857536,37.1283656 34.8078464,36.5910411 33.926098,36.5525775 C33.139343,36.5339285 32.3916344,36.5525775 31.5868132,36.3800742 C30.3402437,36.0735311 29.8029192,35.3450543 29.9567735,34.2138755 C29.9760053,33.1782728 29.094257,31.4334252 27.080747,30.9730278 C24.1277934,29.3820344 20.8875285,28.0970013 17.4555285,27.215253 M33.0979656,39.4513325 C33.2320053,39.4548291 33.3631311,39.4565775 33.491343,39.4589086 L33.6457801,39.4618225 C33.736694,39.5346702 33.9121113,39.6966834 34.1615417,40.0212927 C33.8107073,39.8248954 33.4569589,39.6354914 33.0979656,39.4513325 M20.8309987,31.3285245 C22.5064954,31.9567629 24.1336212,32.695147 25.6983894,33.5384318 C25.9291709,33.6625642 26.1756874,33.7552265 26.4315285,33.8140874 C26.8155815,33.9015046 26.9711841,34.1328689 27.0277139,34.2488424 C26.9577801,35.417902 27.2678199,36.4709881 27.8925616,37.3171868 C26.1232371,36.7542199 24.2659126,36.3124715 22.3106808,35.9878623 C21.6457272,34.4784583 21.1550252,32.9323391 20.8309987,31.3285245" id="Fill-11" fill="#333333"></path>
                <path d="M51.0833007,8.63285828 C50.4795391,8.63285828 49.7242543,8.37585166 48.8372609,7.86941457 C46.9216583,6.83556026 44.7939232,6.29823576 42.6539497,6.29823576 C40.287857,6.29823576 37.978294,6.95736159 35.9741086,8.20393113 C35.9519629,8.21791788 35.9304,8.23248742 35.9088371,8.24763974 C35.4577642,8.56350728 35.1582146,8.59963974 34.9717245,8.59963974 C34.6896583,8.59963974 34.3539762,8.49823576 33.9215523,8.28144106 C33.8026649,8.16197086 33.8061616,7.94634172 33.8323868,7.87407682 C34.2939497,7.15142781 34.5369695,5.97420927 34.0946384,5.1309245 C33.9378702,4.8325404 33.7111682,4.59709669 33.4413404,4.4397457 C36.7130755,2.90236821 40.3525457,2.03985166 44.165102,2.03985166 C47.4385854,2.03985166 50.612996,2.67683179 53.543804,3.84472583 C53.4936848,3.84064636 53.4441483,3.83889801 53.3946119,3.83889801 C52.7710358,3.83889801 52.2249695,4.15534834 51.9341616,4.68626225 C51.3787709,5.69738808 52.0705325,6.78485828 52.3310358,7.19397086 C52.3461881,7.2178649 52.3619232,7.24175894 52.3794066,7.26448742 C52.4137907,7.35889801 52.3869828,7.80997086 52.0693669,8.30067285 C51.7779762,8.52912318 51.4685192,8.63285828 51.0833007,8.63285828 L51.0833007,8.63285828 Z M24.3336318,11.5980503 C25.9829033,9.55015629 27.9480424,7.75693775 30.1503735,6.29357351 C29.5565192,7.47312318 29.4399629,8.69579868 29.6311152,9.82289801 C29.2196715,9.69468609 28.8035656,9.62824901 28.386294,9.62824901 C27.682294,9.62824901 27.0062675,9.8106596 26.3768636,10.1702358 C25.6035126,10.6259709 24.925155,11.0997722 24.3336318,11.5980503 L24.3336318,11.5980503 Z M64.3479894,11.990845 C63.2960689,11.1423152 62.2581351,10.4645404 61.2580821,9.97383841 C61.2172874,9.95402384 61.1753272,9.93595762 61.1327841,9.91963974 C60.1350623,9.54141457 59.2434066,9.35725563 58.4059497,9.35725563 C58.042294,9.35725563 57.6932079,9.3928053 57.359857,9.46332185 C57.5789828,7.73712318 57.0807046,6.10125563 55.8527841,5.08022252 C55.6266649,4.89081854 55.4151152,4.72414305 55.2146384,4.58077881 C58.7888371,6.30930861 61.9288636,8.85023576 64.3479894,11.990845 L64.3479894,11.990845 Z M68.5096318,21.4703682 C66.0736053,21.4703682 63.7844397,21.0828185 61.6701086,20.3147126 C62.1573139,19.919004 62.6620026,19.326898 63.1299762,18.4457325 C63.9423735,16.9427391 64.5956715,15.348249 65.0642278,13.7170437 C65.1324132,13.4792689 65.1382411,13.2345007 65.0875391,13.0031364 C66.5439099,15.1040636 67.6879099,17.4427656 68.4431947,19.9638781 C68.5813139,20.4831364 68.703698,20.9843285 68.8097642,21.4686199 C68.7095258,21.4697854 68.6092874,21.4703682 68.5096318,21.4703682 L68.5096318,21.4703682 Z M28.658453,30.0832954 C28.2621616,29.8618384 27.8227444,29.6741828 27.3431152,29.5220768 C24.3429563,27.996355 21.3270623,26.9117987 18.8578172,26.1128053 C19.0093404,21.9173616 20.2471682,17.9672689 22.2962278,14.5271099 C22.3265325,14.8080106 22.4390093,15.0807523 22.6313272,15.3086199 L27.175857,20.6935205 C27.6793801,21.3310834 28.5051815,21.6953219 29.4498702,21.6953219 C29.7080424,21.6953219 29.9586384,21.6673483 30.1964132,21.6137325 C30.0116715,22.198845 30.0874331,22.8836132 30.423698,23.6557987 C30.4650755,23.7513748 30.516943,23.8422887 30.5781351,23.9267921 C30.9540291,24.4472159 31.2337642,25.0241695 31.4243338,25.676302 L30.5915391,26.3529113 C30.5146119,26.4152689 30.4440954,26.4852026 30.3817377,26.5621298 C29.3636185,27.8075338 28.7884132,28.9859179 28.658453,30.0832954 L28.658453,30.0832954 Z M37.4217377,37.1763285 C38.1321483,37.222951 38.8338172,37.246845 39.5226649,37.246845 C39.6765192,37.246845 39.8303735,37.2456795 39.9842278,37.2433483 C39.9947179,37.3074543 40.0092874,37.3709775 40.0279364,37.4339179 L40.1625589,37.8779974 C39.5523868,38.0580768 38.9859232,38.3209113 38.4654993,38.6659179 L37.4217377,37.1763285 Z" id="Fill-13" fill="#333333"></path>
                <g id="Group-17" transform="translate(16.900662, 0.516344)">
                    <mask id="mask-2" fill="white">
                        <use xlink:href="#path-1"></use>
                    </mask>
                    <g id="Clip-16"></g>
                    <path d="M27.2637987,0.0662622517 C12.8067391,0.0662622517 0.95762649,11.4940238 0.497229139,25.683004 L0.497229139,26.2576265 L0.497229139,26.6603285 C3.68038146,27.6574675 6.8250702,28.7886464 9.89224901,30.3609907 C12.0782623,31.0131232 12.9605934,32.3745007 12.9413616,34.2149245 C13.017706,35.3466861 14.129653,35.979004 16.2970172,36.0553483 C16.4339709,36.0337854 16.5685934,36.0232954 16.7014675,36.0232954 C17.6245934,36.0238781 18.4369907,36.530898 19.1916927,37.3019179 L21.3013616,40.3125669 C22.2786861,39.1813881 23.5631364,38.586951 25.1360636,38.5292556 L24.5223947,36.4965139 C24.732196,36.5244874 24.9344212,36.5378914 25.129653,36.5378914 C27.1076132,36.5378914 28.334951,35.1502887 29.0855735,32.9689377 C29.2808053,32.2212291 28.9317192,31.6739974 28.5167788,31.6739974 C28.2405404,31.6739974 27.9351629,31.9176 27.742845,32.5085404 C27.1489907,33.9083815 26.4776265,34.7901298 25.4233748,35.1351364 C24.4897589,35.2283815 23.5567258,35.2732556 22.6219444,35.2732556 C20.8701033,35.2732556 19.1147656,35.1164874 17.3506861,34.8285934 L14.3027391,34.368196 C13.8236927,33.1606728 13.5550305,31.9717987 13.3056,30.7636927 C12.9221298,29.6325139 13.4973351,28.3288318 14.6092821,26.9674543 L16.1431629,25.7208848 C15.9706596,24.7050967 15.6064212,23.5925669 14.8587126,22.557547 C14.3406199,21.3686728 14.9164079,21.1000106 15.4525669,21.1000106 C15.6524609,21.274845 15.8890702,21.3645934 16.1023682,21.3645934 C16.542951,21.3645934 16.881547,20.9811232 16.5843285,20.1797987 C16.1175205,19.1296265 15.6011762,18.5765669 14.9880901,18.5765669 C14.5929642,18.5765669 14.1576265,18.8056 13.6698384,19.2788185 C13.4571232,19.5684609 13.0060503,19.7223152 12.5491497,19.7223152 C12.0998252,19.7223152 11.6446728,19.5731232 11.406898,19.2595868 L6.84371921,13.8525404 C7.64912318,12.682898 8.79953377,11.7434543 10.1993748,10.9188185 C10.6079046,10.6851232 11.041494,10.5691497 11.4855735,10.5691497 C12.5007788,10.5691497 13.5725139,11.1752424 14.532355,12.376355 C14.8756132,12.7545801 15.2369377,12.9259179 15.5009377,12.9259179 C15.9461828,12.9259179 16.1146066,12.4410437 15.4525669,11.6472954 C14.2450437,10.3820768 13.5742623,8.17683179 14.6092821,6.31717616 C15.1314543,5.4610702 15.4886993,5.15802384 15.7060768,5.15802384 C16.0877987,5.15860662 16.0370967,6.09163974 15.6833483,6.60448742 C15.2806464,7.27585166 15.3954543,8.42626225 16.2387391,9.00146755 C16.8395868,9.31675232 17.4398517,9.5405404 18.0715868,9.5405404 C18.6304742,9.5405404 19.2138384,9.36570596 19.8438252,8.9245404 C21.6924079,7.7741298 23.7385536,7.23855364 25.7532291,7.23855364 C27.6659179,7.23855364 29.5517987,7.72109669 31.2138914,8.61799735 C32.3316662,9.25672583 33.3194808,9.57317616 34.1831629,9.57317616 C34.9780768,9.57317616 35.6680901,9.30451391 36.2566993,8.77126887 C36.9659444,7.81259338 37.1576795,6.58525563 36.6594013,5.89524238 C36.2147391,5.19765298 36.1675338,4.77921589 36.4938914,4.77921589 C36.759057,4.77979868 37.2724874,5.05661987 38.0207788,5.6842755 C39.4969642,6.91161325 39.3821563,9.72994437 37.6180768,11.8582623 C37.1815735,12.3477987 37.3715603,12.6485139 37.7218119,12.6485139 C38.0027126,12.6485139 38.3867656,12.4550305 38.6338649,12.0115338 C39.3343682,10.8203285 40.3099444,10.2975735 41.5052291,10.2975735 C42.1760106,10.2975735 42.9155603,10.4619179 43.7151364,10.765547 C44.7315073,11.2638252 45.7478781,11.9538384 46.764249,12.797706 C46.3225007,14.3315868 45.7088318,15.827004 44.9424742,17.2460768 C44.2711099,18.5107126 43.4977589,19.101653 42.7890967,19.101653 C42.6270834,19.101653 42.4685669,19.0707656 42.3152954,19.0101563 C41.9056,18.8149245 41.5932291,18.7391629 41.3601166,18.7391629 C40.6566993,18.7391629 40.6846728,19.4315073 40.9731497,19.6045934 C44.2227391,21.5376795 47.8569642,22.4112689 51.6089113,22.4112689 C52.2855205,22.4112689 52.9656265,22.3827126 53.646898,22.3273483 C53.4749775,21.1955868 53.225547,20.1028715 52.9382358,19.0293881 C49.6589245,8.08067285 39.3821563,0.0662622517 27.2637987,0.0662622517 M5.52896424,16.8119046 L9.14803709,21.1005934 C9.79084503,21.9030834 10.7378649,22.4229245 11.8235868,22.5831894 C11.8935205,22.936355 12.0100768,23.3157457 12.1866596,23.720196 C12.2699974,23.9119311 12.3737325,24.0937589 12.4961166,24.2639311 C12.5975205,24.4037987 12.6896,24.5506596 12.7729377,24.7045139 L12.7717722,24.7056795 C12.6185007,24.8303947 12.4780503,24.9702623 12.3527523,25.1241166 C11.6767258,25.9510834 11.1644609,26.7652291 10.8171232,27.5636397 C8.25055364,26.2809377 5.69738808,25.3135205 3.47990464,24.5652291 C3.70893775,21.8593748 4.40594437,19.2426861 5.52896424,16.8119046 M48.6757722,16.1591894 C49.2008583,17.2070305 49.6490172,18.301494 50.0132556,19.4361695 C49.0767258,19.3633219 48.167004,19.2257854 47.2858384,19.0235603 C47.3604344,18.8982623 47.4332821,18.7677192 47.505547,18.6319311 C47.940302,17.8271099 48.3313483,17.0007258 48.6757722,16.1591894 M27.2637987,2.98016954 C29.4323285,2.98016954 31.5542358,3.2768053 33.5834808,3.83452715 C33.249547,4.67140132 33.2973351,5.58869934 33.7245139,6.57301722 C33.4750834,6.49667285 33.1248318,6.35389139 32.6597722,6.08814305 C32.6393748,6.07648742 32.6183947,6.06424901 32.5968318,6.05317616 C30.5005669,4.92258013 28.1338914,4.32464636 25.7532291,4.32464636 C23.3306066,4.32464636 20.9610172,4.94472583 18.8589245,6.12252715 C18.9160371,5.60035497 18.8839841,5.05778543 18.7283815,4.53852715 C21.4225801,3.51516291 24.3067656,2.98016954 27.2637987,2.98016954" id="Fill-15" fill="#333333" mask="url(#mask-2)"></path>
                </g>
                <path d="M40.8231417,51.3440371 C34.0203338,50.4413086 27.7810755,46.8298119 23.6882013,41.3032954 C23.5127841,41.056196 23.334453,40.7997722 23.1567046,40.5375205 C28.9553801,41.7613616 35.2185325,44.3698914 40.8231417,51.3440371 M46.6777642,51.4460238 C53.5306914,43.5021298 59.7011815,40.976355 65.4007841,40.0444874 C64.2398834,41.8534411 62.8907444,43.4980503 61.3720159,44.9538384 C57.2989563,48.651004 52.1489166,50.9162755 46.6777642,51.4460238" id="Fill-18" fill="#333333"></path>
                <path d="M68.1131656,38.2400212 C60.5002914,38.9306172 52.5435762,41.4616371 43.7045298,52.7740079 C36.8976424,42.9378225 28.7678411,39.7937166 20.2551523,38.547147 C20.5045828,39.0261934 20.7528477,39.5058225 21.0413245,39.9656371 C21.5011391,40.6941139 21.9994172,41.4424053 22.5175099,42.1708821 C27.3878146,48.7475709 35.2874172,53.0234384 44.1835762,53.0234384 C51.1821987,53.0234384 57.5869669,50.357796 62.3797616,46.0055841 C64.6805828,43.8009219 66.6177483,41.173743 68.1131656,38.2400212 M27.2695099,43.2076503 C30.3710728,44.3300874 33.5186755,46.0638623 36.5398146,48.8670411 C33.0664371,47.7096371 29.8838675,45.7771338 27.2695099,43.2076503 M61.8115497,42.3917563 C61.3581457,42.9063523 60.8843444,43.4011338 60.391894,43.8743523 C57.626596,46.3773987 54.3531126,48.1805245 50.8249536,49.184657 C54.712106,45.4758358 58.3579868,43.4897166 61.8115497,42.3917563" id="Fill-20" fill="#333333"></path>
                <path d="M39.6012238,45.756445 C38.6617801,45.0279682 37.8377272,44.8362331 37.0509722,44.8741139 C36.4763497,44.8362331 36.2455682,45.3345113 36.5334623,45.8141404 C37.6646411,47.6161007 39.563343,48.4792 41.7680053,48.881902 C42.1707073,48.9588291 42.5157139,48.4984318 42.2662834,48.0572662 C42.1322437,47.7116768 41.9405086,47.4243656 41.6531974,47.1755179 C41.1735682,47.9418755 40.483555,48.172657 39.6012238,47.8462993 C38.872747,47.1562861 38.872747,46.4656901 39.6012238,45.756445" id="Fill-22" fill="#333333"></path>
                <path d="M37.2388026,44.869743 C37.1758623,44.869743 37.1135046,44.8714914 37.0517298,44.8744053 C37.0307497,44.872657 37.0097695,44.8720742 36.989955,44.8720742 C36.4596238,44.8720742 36.2562331,45.3522861 36.5336371,45.813849 C37.6642331,47.6163921 39.5629351,48.4789086 41.7675974,48.8816106 C41.797902,48.8874384 41.8276238,48.8903523 41.8567629,48.8903523 C42.2186702,48.8903523 42.4972397,48.4655046 42.2664583,48.0569748 C42.1318358,47.7119682 41.9401007,47.424657 41.6527894,47.1752265 C41.3147762,47.7160477 40.8712795,47.989955 40.3304583,47.989955 C40.1043391,47.989955 39.8613192,47.9421669 39.6013987,47.8460079 C38.8729219,47.1559947 38.8729219,46.4659815 39.6013987,45.7561536 C38.7359682,45.0853722 37.968445,44.869743 37.2388026,44.869743" id="Fill-24" fill="#333333"></path>
                <path d="M44.0688265,48.5174887 C46.1779126,45.8331974 46.8871576,43.3021775 45.8906013,40.9244291 C45.6411709,40.426151 44.9511576,40.4448 45.0659656,41.0205881 C45.5071311,42.1517669 45.5071311,43.2829457 44.7973033,44.3948927 C44.2028662,44.7020185 43.6276609,44.7404821 43.0338066,44.5102834 C41.6910781,43.7619921 40.3489325,43.4175682 39.0067868,43.2829457 C38.4508132,43.2829457 38.2398464,43.858151 38.9496742,43.9729589 C42.016853,44.7975947 43.6276609,46.3699391 44.0688265,48.5174887" id="Fill-26" fill="#333333"></path>
                <path d="M45.3721589,40.5685828 C45.1681854,40.5685828 45.0050066,40.7171921 45.0661987,41.0202384 C45.5067815,42.1514172 45.5067815,43.2831788 44.7975364,44.3951258 C44.4583576,44.570543 44.1244238,44.6579603 43.7899073,44.6579603 C43.5393113,44.6579603 43.2881325,44.6090066 43.033457,44.5099338 C41.6913113,43.7622252 40.3491656,43.4172185 39.0070199,43.2831788 C38.4510464,43.2831788 38.2400795,43.8583841 38.9493245,43.9731921 C42.0170861,44.7978278 43.627894,46.3701722 44.0690596,48.5177219 C46.1781457,45.8328477 46.8873907,43.3018278 45.8902517,40.9246623 C45.7725298,40.6886358 45.5551523,40.5685828 45.3721589,40.5685828" id="Fill-28" fill="#333333"></path>
                <path d="M40.2534728,45.2388185 C39.3140291,44.5103417 38.4893934,44.2993748 37.7032212,44.3378384 C37.1280159,44.3180238 36.8978172,44.797653 37.1851285,45.2965139 C38.3361219,47.0984742 40.2150093,47.9423417 42.4202543,48.3642755 C42.8223735,48.4406199 43.1673801,47.9808053 42.9179497,47.5204079 C42.7844927,47.1946331 42.5927576,46.9067391 42.3054464,46.6578914 C41.8252344,47.424249 41.1352212,47.6352159 40.2534728,47.3286728 C39.5244132,46.6380768 39.5244132,45.9288318 40.2534728,45.2388185" id="Fill-30" fill="#333333"></path>
                <path d="M37.8779391,44.3330596 C37.8196609,44.3330596 37.7613828,44.3348079 37.7031046,44.3377219 C37.6920318,44.3371391 37.6809589,44.3371391 37.6698861,44.3371391 C37.1191576,44.3371391 36.9035285,44.8074437 37.1855947,45.2963974 C38.3354225,47.0989404 40.2148927,47.9422252 42.4201377,48.3641589 C42.4498596,48.3699868 42.4795815,48.3723179 42.5081377,48.3723179 C42.870045,48.3723179 43.1491974,47.9463046 42.9178331,47.5202914 C42.7837934,47.1945166 42.5926411,46.9072053 42.304747,46.6577748 C41.966151,47.1997616 41.5214887,47.4643444 40.9783364,47.4643444 C40.7539656,47.4643444 40.5121113,47.4183046 40.2533563,47.3285563 C39.5242967,46.638543 39.5242967,45.9287152 40.2533563,45.238702 C39.3832636,44.5638411 38.6122437,44.3330596 37.8779391,44.3330596" id="Fill-32" fill="#333333"></path>
                <path d="M33.8491126,29.9570066 C34.7314437,29.4202649 35.6126093,29.9954702 35.4022252,30.9926093 C35.2874172,31.529351 35.0572185,31.3760795 34.4627815,31.5870464 C34.2902781,31.8364768 34.6737483,32.0468609 34.9610596,32.2770596 C35.2681854,32.4309139 34.8841325,32.8907285 34.3473907,32.5649536 C33.389298,32.1237881 32.8519735,30.9733775 33.8491126,29.9570066" id="Fill-34" fill="#333333"></path>
                <path d="M34.5246728,29.7515762 C34.3131232,29.7515762 34.0805934,29.8156821 33.8492291,29.957298 C32.8520901,30.9730861 33.3888318,32.1234967 34.3475073,32.5646623 C34.4827126,32.6468344 34.6080106,32.6788874 34.7146596,32.6788874 C35.0334411,32.6788874 35.1913748,32.3921589 34.9611762,32.2767682 C34.6738649,32.0471523 34.2903947,31.8361854 34.462898,31.586755 C35.0573351,31.3757881 35.2875338,31.5290596 35.4023417,30.9923179 C35.5573616,30.2574305 35.1196927,29.7515762 34.5246728,29.7515762" id="Fill-36" fill="#333333"></path>
                <path d="M40.1379073,30.2062623 C39.2561589,29.6695205 38.3744106,30.2447258 38.5853775,31.2418649 C38.7001854,31.7786066 38.9303841,31.6253351 39.5242384,31.836302 C39.6973245,32.0857325 39.2946225,32.2961166 39.0259603,32.5263152 C38.7188344,32.6801695 39.1028874,33.1399841 39.6396291,32.8142093 C40.5983046,32.3922755 41.1350464,31.2418649 40.1379073,30.2062623" id="Fill-38" fill="#333333"></path>
                <path d="M39.4624053,30.0008318 C38.8679682,30.0008318 38.4302993,30.5066861 38.5853192,31.2415735 C38.7001272,31.7783152 38.9303258,31.6250437 39.5241801,31.8360106 C39.6966834,32.0854411 39.2945642,32.2964079 39.025902,32.5266066 C38.7962861,32.6414146 38.9536371,32.928143 39.2724185,32.928143 C39.3790675,32.928143 39.5043656,32.8960901 39.6401536,32.8139179 C40.5982464,32.3925669 41.1349881,31.2415735 40.1384318,30.2065536 C39.9064848,30.0649377 39.6745377,30.0008318 39.4624053,30.0008318" id="Fill-40" fill="#333333"></path>
                <path d="M48.6320636,20.216747 C48.9584212,20.216747 49.2270834,20.4661775 49.2270834,20.7919523 C49.2270834,21.0990781 48.9584212,21.3671576 48.6320636,21.3671576 C48.305706,21.3671576 48.0376265,21.0990781 48.0376265,20.7919523 C48.0376265,20.4661775 48.305706,20.216747 48.6320636,20.216747 M44.4908185,22.1725616 C45.0269775,20.7727205 45.7752689,19.7563497 46.6954808,19.1240318 C48.1530172,18.2224689 49.5715073,18.395555 50.9713483,19.2965351 C51.5279046,19.7377007 51.0867391,20.4848265 50.5494146,20.312906 C50.2621033,20.1398199 49.6484344,20.1398199 49.7061298,20.3892503 C49.5913219,22.0764026 48.6897589,22.7669987 47.2129907,22.7669987 C46.8872159,22.7477669 46.5999046,22.6137272 46.3504742,22.4021775 C46.1202755,22.1533298 45.6989245,22.230257 45.6412291,22.4598728 C45.1808318,23.5147073 44.0688848,23.1697007 44.4908185,22.1725616" id="Fill-42" fill="#333333"></path>
                <path d="M48.6320636,21.3672159 C48.3062887,21.3672159 48.0376265,21.0991364 48.0376265,20.7920106 C48.0376265,20.4662358 48.3062887,20.2168053 48.6320636,20.2168053 C48.9584212,20.2168053 49.2270834,20.4662358 49.2270834,20.7920106 C49.2270834,21.0991364 48.9584212,21.3672159 48.6320636,21.3672159 M48.6524609,18.5279046 C48.0073219,18.5279046 47.3551894,18.716143 46.6960636,19.1235073 C45.7752689,19.7564079 45.0269775,20.7727788 44.4908185,22.1726199 C44.2483815,22.7460768 44.5129642,23.1033219 44.8690437,23.1033219 C45.1318781,23.1033219 45.4454146,22.9080901 45.6406464,22.4599311 C45.6738649,22.3293881 45.8242225,22.2477987 45.9903152,22.2477987 C46.116196,22.2477987 46.2508185,22.295004 46.3504742,22.4022358 C46.5999046,22.6137854 46.8872159,22.7478252 47.2129907,22.767057 C48.6897589,22.767057 49.5913219,22.0764609 49.7061298,20.3893086 C49.6746596,20.2529377 49.8430834,20.1911629 50.0493881,20.1911629 C50.2213086,20.1911629 50.4188715,20.2342887 50.5494146,20.3123815 C50.6036132,20.3298649 50.6566464,20.3380238 50.7079311,20.3380238 C51.1654146,20.3380238 51.4713748,19.6928848 50.9713483,19.2965934 C50.2049907,18.8029775 49.4333881,18.5279046 48.6524609,18.5279046" id="Fill-44" fill="#333333"></path>
            </g>
        </g>
    </g>
</svg>