<?xml version="1.0" encoding="UTF-8"?>
<svg width="63px" height="73px" viewBox="0 0 63 73" version="1.1" xmlns="http://www.w3.org/2000/svg" xmlns:xlink="http://www.w3.org/1999/xlink">
    <!-- Generator: Sketch 58 (84663) - https://sketch.com -->
    <title>Group 49</title>
    <desc>Created with Sketch.</desc>
    <defs>
        <polygon id="path-1" points="0 0.576334958 62.9597017 0.576334958 62.9597017 24.3333333 0 24.3333333"></polygon>
        <path d="M2.78008333,0.515866667 C1.3505,0.657 0.464766667,1.44175 0.464766667,1.44175 L0.464766667,1.44175 C0.786575,1.80431667 2.41751667,2.36763333 2.84030833,2.20703333 L2.84030833,2.20703333 C3.2631,2.045825 3.987625,2.02575 3.987625,2.02575 L3.987625,2.02575 L3.48453333,1.36145 L4.77298333,1.28115 C4.76081667,1.31095833 4.75473333,1.34076667 4.746825,1.36935833 L4.746825,1.36935833 C4.97799167,1.01105 5.17205,0.527425 5.25174167,0.318158333 L5.25174167,0.318158333 C4.99745833,0.333366667 4.009525,0.3942 2.78008333,0.515866667" id="path-3"></path>
        <radialGradient cx="222.188445%" cy="-179.758248%" fx="222.188445%" fy="-179.758248%" r="918.413106%" gradientTransform="translate(2.221884,-1.797582),scale(0.400465,1.000000),translate(-2.221884,1.797582)" id="radialGradient-5">
            <stop stop-color="#333333" offset="0%"></stop>
            <stop stop-color="#333333" offset="100%"></stop>
        </radialGradient>
    </defs>
    <g id="Page-1" stroke="none" stroke-width="1" fill="none" fill-rule="evenodd">
        <g id="Desktop-HD-Copy-3" transform="translate(-1196.000000, -892.000000)">
            <g id="Group-49" transform="translate(1196.000000, 892.000000)">
                <g id="Group-32">
                    <g id="Group-3" transform="translate(0.000000, 48.666667)">
                        <mask id="mask-2" fill="white">
                            <use xlink:href="#path-1"></use>
                        </mask>
                        <g id="Clip-2"></g>
                        <path d="M36.2502183,22.7422375 C36.2502183,22.7422375 35.0822183,24.0708375 34.1831017,22.9034458 C34.1831017,22.9034458 33.6057933,21.9100375 35.6059933,20.6489625 C35.6059933,20.6489625 36.8269183,21.1721292 36.2502183,22.7422375 L36.2502183,22.7422375 Z M42.8895683,15.1520625 C42.4339267,17.0445875 42.9826433,20.4640292 41.306685,20.8150375 C39.1884683,21.2579042 40.8826767,16.4599792 40.6417767,15.0687208 L39.3077017,15.0687208 C39.1580517,16.3346625 39.032735,17.6243292 38.8928183,18.8987875 C37.6299183,19.2078208 35.8998183,19.9177458 35.3942933,18.9821292 C35.7726767,18.5763708 36.32991,18.1225542 36.97596,17.4825875 C37.76801,16.7033125 38.59291,16.1637208 38.3915517,15.0687208 L33.9787017,15.0687208 C33.86251,15.3972208 33.8576433,15.8370458 33.8108017,16.2348958 C34.5389767,16.4228708 35.6114683,16.2665292 36.4765183,16.3164125 C35.8176933,17.6018208 34.1770183,17.9047708 33.9787017,19.6488625 C34.2700933,19.9402542 34.8613933,19.9323458 34.9769767,20.3977208 C34.0620433,20.9823292 32.8009683,21.5979625 32.8958683,22.9794875 C33.0509933,25.2747292 37.251535,24.3616208 37.6426933,22.3967042 C37.8343183,21.4367542 37.4717517,20.9166292 36.97596,19.8988875 C37.6700683,19.7601875 38.1141517,19.3720708 38.80826,19.2315458 C37.9419933,21.7056375 41.23186,22.8730292 42.390735,20.9811125 C42.4771183,21.3096125 42.591485,21.6125625 42.8056183,21.8139208 C43.222935,21.7603875 43.8592517,21.9228125 44.1378683,21.7311875 C43.19921,20.0047375 44.2844767,17.2447292 44.30516,15.1520625 C44.069735,15.0413458 43.1487183,15.0395208 42.8895683,15.1520625 L42.8895683,15.1520625 Z M37.1104017,6.45897917 C37.1170933,6.22355417 37.225985,4.5670625 38.9749433,4.43627083 C38.9749433,4.43627083 39.5352183,4.37787083 39.5668517,5.0397375 C39.56746,5.05312083 39.5680683,5.06650417 39.5686767,5.08049583 C39.5686767,5.08049583 39.93611,6.50460417 37.1097933,6.4869625 C37.1097933,6.4869625 37.1097933,6.47722917 37.1104017,6.45897917 L37.1104017,6.45897917 Z M48.5525433,4.6583125 C49.1371517,6.23815417 48.3359767,8.3831375 48.3025183,10.1552125 C48.6024267,10.3273708 49.2028517,10.1984042 49.6347683,10.2385542 C49.577585,8.63924583 50.8502183,5.33660417 49.9675267,3.99157917 C49.292885,2.96592917 47.3024183,3.31997917 46.6369017,4.40889583 C46.3138767,3.60832917 45.49506,3.1891875 44.471235,3.40879583 C43.8130183,3.5505375 43.58246,4.28662083 43.138985,4.24099583 L43.138985,3.5760875 L41.9734183,3.5760875 C42.04216,5.00445417 41.7544183,6.07694583 41.7240017,7.40615417 C41.029285,8.70555417 37.1578517,10.6041625 37.0593017,7.48949583 C38.3222017,7.3994625 39.2420017,7.42379583 40.058385,6.7406375 C40.412435,6.4431625 41.2050933,5.23014583 40.6417767,4.15947917 C39.9391517,2.82905417 37.5301517,3.3844625 36.6425933,4.40889583 C35.32251,5.9358125 35.276885,9.47509583 36.97596,10.2385542 C39.2420017,11.2532542 40.660635,9.2773875 41.55671,8.40625417 C41.6011183,9.11800417 41.3590017,9.54140417 41.3900267,10.2385542 L42.7222767,10.2385542 C43.4644433,8.2499125 42.2033683,4.33467917 44.9706767,4.5743625 C45.79436,6.10614583 44.7754017,8.3429875 44.8879433,10.2385542 L46.2201933,10.2385542 C46.7695183,8.22740417 45.9014267,4.02382083 48.5525433,4.6583125 L48.5525433,4.6583125 Z M11.5762183,3.5760875 C11.0421017,5.32504583 11.7532433,9.85895417 9.41055167,9.23845417 C8.02537667,8.87284583 9.555335,4.96612917 9.32781833,3.5760875 L7.99496,3.5760875 C7.879985,6.04652917 6.631685,8.30162083 4.57977667,8.9890375 C0.30441,10.4210542 0.75701,1.21332083 4.91375167,2.07654583 C5.25502667,2.14772083 5.41197667,2.34725417 5.74595167,2.5759875 C6.14745167,1.98772917 6.30987667,2.13129583 6.74666,1.57710417 C6.07384333,1.02960417 5.46611833,0.595254167 4.41431,0.577004167 C1.729735,0.5319875 0.24601,2.76457083 -0.000365,5.32504583 L-0.000365,6.9067125 C0.225326667,9.25670417 1.75406833,11.0214792 4.16306833,10.4885792 C5.70276,10.1466958 6.59031833,8.69095417 7.49491,7.9068125 C6.54834333,10.6315375 10.4471517,10.9861958 11.07556,9.40635417 C11.1126683,9.51707083 11.15586,9.9453375 11.3268017,10.1552125 C11.668685,10.3547458 12.3013517,10.3693458 12.7423933,10.2385542 C11.909585,8.32352083 12.9467933,5.7679125 12.9084683,3.5760875 L11.5762183,3.5760875 Z M62.87636,7.8228625 C62.0855267,8.53947917 60.33961,9.9070125 59.2123683,8.9890375 C57.3715517,7.48949583 59.9083017,2.66115417 61.62806,5.24109583 C61.7764933,4.8627125 62.0903933,4.65040417 62.2114517,4.24099583 C58.89786,1.05272083 55.705935,6.92922083 57.8807267,9.65577083 C59.1947267,11.3049625 62.465735,10.0019125 62.9597017,8.15622917 L62.9597017,7.8228625 L62.87636,7.8228625 Z M53.4660517,15.4020875 C52.6685267,14.5133125 50.9019267,14.9367125 50.2175517,15.9015292 C49.7649517,14.3776542 47.4411183,14.9318458 46.719635,15.8175792 L46.719635,15.0687208 C46.1733517,15.0559458 45.839985,15.0851458 45.55346,15.1520625 C45.551635,17.5361208 45.1543933,19.5265875 44.9706767,21.7311875 L46.387485,21.7311875 C46.6989517,19.6087125 46.33456,15.0334375 48.80196,16.4003625 C49.0598933,18.2156292 48.4929267,19.9195708 48.4685933,21.7311875 L49.80206,21.7311875 C50.387885,19.7747875 49.4747767,15.4860375 52.2159267,16.2348958 C52.6612267,17.9224125 51.85701,20.1111958 51.96651,21.7311875 L53.2999767,21.7311875 C53.0967933,19.9116625 54.5993767,16.6662042 53.4660517,15.4020875 L53.4660517,15.4020875 Z M23.98561,3.5760875 C23.480085,4.99350417 24.020285,8.03212917 22.98551,8.9050875 C22.7306183,9.11922083 22.202585,9.40939583 21.7359933,9.23845417 C20.5387933,8.7992375 21.9446517,4.9192875 21.7359933,3.5760875 L20.3197933,3.5760875 C20.46336,6.1237875 18.3469683,10.6960208 22.1527017,10.4046292 C22.7421767,10.2178708 23.02566,9.72329583 23.567685,9.48847917 C23.48921,9.90032083 23.669885,10.0536208 23.81771,10.2385542 C24.2332017,10.3723875 24.7180433,10.3109458 25.151785,10.2385542 C24.3481767,8.61065417 25.33976,5.74844583 25.3172517,3.5760875 L23.98561,3.5760875 Z M10.077285,12.9863958 C9.17330167,14.8868292 8.38064333,16.8985875 7.41156833,18.7327125 C6.857985,16.8706042 6.45161833,14.8624958 5.996585,12.9024458 L4.49704333,12.9024458 C3.89722667,15.4823875 3.52857667,18.8245708 2.99871833,21.7311875 L4.33036,21.7311875 C4.78174333,19.8490042 4.83284333,17.5701875 5.41319333,15.8175792 C5.839635,17.4454792 6.21497667,19.1238708 6.66271,20.7310875 L7.74554333,20.7310875 C8.59842667,19.0581708 9.28280167,17.2167458 10.2427517,15.6515042 C10.347385,18.4601792 8.887385,22.9052708 11.3268017,23.9795875 C11.0816433,20.5510208 11.67781,16.5731292 11.7422933,12.9024458 C11.2702267,12.9571958 10.40396,12.8513458 10.077285,12.9863958 L10.077285,12.9863958 Z M29.1655683,18.0014958 C29.1716517,17.7654625 29.2811517,16.1089708 31.0295017,15.9781792 C31.0295017,15.9781792 31.590385,15.9197792 31.6220183,16.5822542 C31.6226267,16.5956375 31.623235,16.6084125 31.623235,16.6224042 C31.623235,16.6224042 31.9906683,18.0465125 29.16496,18.0288708 C29.16496,18.0288708 29.1643517,18.0191375 29.1655683,18.0014958 L29.1655683,18.0014958 Z M29.148535,19.0660792 C30.98996,18.9176458 33.17996,18.6037458 32.8958683,16.3164125 C32.820435,15.7178125 32.17986,15.0060625 31.56301,14.9014292 C29.4703433,14.5467708 27.7858683,16.6339625 27.7311183,18.8160542 C27.7007017,20.0996375 28.1131517,21.3771375 29.148535,21.8139208 C31.2150433,22.6862708 33.0801933,20.9677292 33.47926,19.3994458 C32.6841683,20.4360458 29.082835,21.8680625 29.148535,19.0660792 L29.148535,19.0660792 Z M38.80826,2.65932917 C39.5479933,2.25722083 41.1418267,1.02352083 39.5577267,0.660954167 C39.2949267,1.3149125 38.7072767,1.6434125 38.4755017,2.32657083 C38.6215017,2.40200417 38.7328267,2.51332917 38.80826,2.65932917 L38.80826,2.65932917 Z" id="Fill-1" fill="#333333" mask="url(#mask-2)"></path>
                    </g>
                    <path d="M53.0488567,57.9890708 C51.5797317,57.5656708 52.2434233,51.8947875 54.6323483,53.3249792 C55.4481233,54.4570875 55.181065,58.6028792 53.0488567,57.9890708 M56.2134067,53.2410292 C55.8313733,52.4362042 54.947465,52.0267958 53.9650067,52.0754625 C53.48199,52.1010125 52.97464,52.1557625 52.6327567,52.3248792 C50.82479,53.2239958 50.001715,57.9002542 52.1339233,58.9052208 C55.2242567,60.3615708 57.5322733,56.0271958 56.2134067,53.2410292" id="Fill-4" fill="#333333"></path>
                    <path d="M15.4064675,69.481765 C13.1014925,70.3516817 13.3612508,65.0512733 15.1564425,64.7337233 C17.3208925,64.3522983 16.5032925,69.06749 15.4064675,69.481765 M14.9903675,63.6521067 C14.3674342,63.7628233 14.0115592,63.879015 13.6569008,64.15094 C12.5570342,64.999565 11.7345675,67.9481567 12.7425758,69.64784 C13.6812342,71.233765 16.2003425,70.64429 16.9893508,69.7311817 C18.8155675,67.6196567 18.1439675,63.0881817 14.9903675,63.6521067" id="Fill-6" fill="#333333"></path>
                    <path d="M17.3657267,56.9811842 C17.3657267,56.9811842 17.3249683,57.7160508 16.5262267,57.9028092 C16.09796,58.0731425 15.552285,58.0640175 15.15626,57.7397758 C14.1567683,56.9167008 14.83141,51.9782508 17.57256,53.2411508 C17.570735,53.2454092 17.5701267,53.2502758 17.5683017,53.2545342 C17.6285267,53.2575758 17.7070017,53.2758258 17.7070017,53.3518675 C17.7070017,53.4747508 17.3657267,56.9811842 17.3657267,56.9811842 M19.1536183,52.4922925 C15.7670267,50.8771675 12.953485,53.4120925 13.4912517,57.1563842 C13.774735,59.1231258 16.1113433,59.6846175 17.3231433,58.1552675 C17.366335,58.4722092 17.47401,58.7252758 17.65651,58.9053425 C18.1760267,59.0069342 18.70771,59.0458675 18.9881517,58.8213925 C18.1279683,57.1691592 19.13111,54.5606258 19.1536183,52.4922925" id="Fill-8" fill="#333333"></path>
                    <path d="M58.482855,68.4278275 C58.482855,68.4278275 58.442705,69.1626942 57.643355,69.3494525 C57.2156967,69.5203942 56.6700217,69.5106608 56.2733883,69.1864192 C55.2738967,68.3633442 55.9485383,63.4255025 58.6896883,64.6884025 C58.6884717,64.6920525 58.687255,64.6975275 58.6860383,64.7011775 C58.745655,64.7042192 58.82413,64.7230775 58.82413,64.7991192 C58.82413,64.9213942 58.482855,68.4278275 58.482855,68.4278275 M60.2707467,63.9395442 C56.884155,62.3238108 54.0706133,64.8587358 54.60838,68.6036358 C54.8918633,70.5697692 57.2284717,71.1318692 58.4402717,69.6019108 C58.4834633,69.9188525 58.5917467,70.1719192 58.7736383,70.3525942 C59.2937633,70.4541858 59.8248383,70.4925108 60.10528,70.2686442 C59.245705,68.6164108 60.2482383,66.0072692 60.2707467,63.9395442" id="Fill-10" fill="#333333"></path>
                    <path d="M25.8407833,58.8816175 L26.6693333,51.2646758 C26.6693333,51.2646758 27.1036833,49.9829175 28.0508583,49.9233008 L27.7546,52.6662758 C27.7546,52.6662758 30.2408583,51.2257425 30.9714667,52.7058175 C30.9714667,52.7058175 31.4642167,53.4747508 31.0700167,56.4349008 C31.0700167,56.4349008 30.6356667,59.7691758 30.8923833,60.0258925 C30.8923833,60.0258925 29.1555917,59.8482592 29.7475,56.2968092 C29.7475,56.2968092 30.4580333,53.0410092 29.136125,53.2581842 C29.136125,53.2581842 27.7941417,53.1000175 27.6165083,54.8958175 L27.2223083,58.8816175 L25.8407833,58.8816175 Z" id="Fill-12" fill="#333333"></path>
                    <path d="M32.03167,58.0790433 C32.03167,58.0790433 32.5347617,51.37521 32.716045,50.9931767 C32.8973283,50.610535 33.7222283,49.6037433 34.10487,49.96631 L33.9035117,52.1204183 L36.4001117,52.1204183 C36.4001117,52.1204183 36.7827533,53.4088683 33.9035117,53.36811 C33.9035117,53.36811 33.2191367,57.3545183 33.6626117,57.757235 C33.6626117,57.757235 33.7429117,58.1800267 35.0106783,57.73716 L35.3136283,58.6831183 C35.3136283,58.6831183 32.5548367,59.9514933 32.03167,58.0790433" id="Fill-14" fill="#333333"></path>
                    <path d="M24.0864717,69.406575 C24.0864717,69.406575 24.5895633,62.7027417 24.7708467,62.3201 C24.95213,61.9380667 25.77703,60.931275 26.1596717,61.2938417 L25.9583133,63.44795 L28.4549133,63.44795 C28.4549133,63.44795 28.837555,64.7357917 25.9583133,64.6956417 C25.9583133,64.6956417 25.2739383,68.68205 25.7174133,69.0847667 C25.7174133,69.0847667 25.7977133,69.5075583 27.06548,69.0646917 L27.36843,70.01065 C27.36843,70.01065 24.6096383,71.279025 24.0864717,69.406575" id="Fill-16" fill="#333333"></path>
                    <path d="M24.1904358,68.0319242 L24.1064858,68.0319242 C23.3162608,68.7485408 21.5703442,70.1154658 20.4431025,69.1980992 C18.6016775,67.6985575 21.1384275,62.8702158 22.8587942,65.4501575 C23.0072275,65.0717742 23.3205192,64.8588575 23.4421858,64.4500575 C20.1285942,61.2611742 16.9366692,67.1382825 19.1108525,69.8648325 C20.4254608,71.5140242 23.6964692,70.2109742 24.1904358,68.3652908" id="Fill-18" fill="#333333"></path>
                    <path d="M23.868445,68.0319242 L23.868445,68.3652908" id="Fill-20" fill="#333333"></path>
                    <path d="M55.0016067,23.4732717 C55.0016067,36.4374633 44.4926483,46.9464217 31.5284567,46.9464217 C18.5648733,46.9464217 8.05530667,36.4374633 8.05530667,23.4732717 C8.05530667,10.50908 18.5648733,0.000121666667 31.5284567,0.000121666667 C44.4926483,0.000121666667 55.0016067,10.50908 55.0016067,23.4732717" id="Fill-22" fill="#333333"></path>
                    <path d="M53.8740608,23.4732717 C53.8740608,35.81453 43.8700192,45.81918 31.5287608,45.81918 C19.1868942,45.81918 9.18224417,35.81453 9.18224417,23.4732717 C9.18224417,11.1320133 19.1868942,1.12736333 31.5287608,1.12736333 C43.8700192,1.12736333 53.8740608,11.1320133 53.8740608,23.4732717" id="Fill-24" fill="#FFFFFF"></path>
                    <path d="M30.4436767,2.44270167 C30.4035267,2.44452667 30.36216,2.448785 30.32201,2.45121833 C30.3627683,2.448785 30.4047433,2.44696 30.44611,2.44452667 C30.4448933,2.44391833 30.4448933,2.44331 30.4436767,2.44270167 Z" id="Stroke-26" stroke="#333333"></path>
                    <path d="M27.5897417,44.0282467 L27.5897417,44.0282467 C27.588525,44.0282467 27.5867,44.0276383 27.584875,44.0276383 C27.5867,44.0276383 27.588525,44.0282467 27.5897417,44.0282467 Z" id="Stroke-28" stroke="#333333"></path>
                    <path d="M52.172005,19.6622458 C50.434605,14.9105542 43.9351717,15.8461708 42.4131217,15.9173458 C40.6951883,15.9976458 39.78208,16.1253958 39.78208,16.1253958 C38.8963467,16.1655458 38.6548383,16.8699958 38.6548383,16.8699958 C38.3725717,17.7758042 39.3392133,17.9370125 39.3392133,17.9370125 C40.930005,18.2186708 40.36608,16.9107542 40.36608,16.9107542 C41.5936967,16.5883375 41.5936967,17.6754292 41.5936967,17.6754292 C41.69468,19.1853125 39.78208,19.3866708 39.78208,19.3866708 C36.9235217,19.5071208 36.9636717,17.1315792 36.9636717,17.1315792 C37.0038217,14.0114375 40.3253217,14.4743792 40.3253217,14.4743792 C41.2518133,14.5954375 42.4934217,14.6288958 42.4934217,14.6288958 C44.31903,14.7633375 43.835405,12.9377292 43.835405,12.9377292 C46.6233967,11.3931708 49.1564967,13.0265458 50.2581883,13.9506042 C49.4101717,12.2722125 48.343155,10.7227875 47.094855,9.34065417 C42.3784467,6.76557917 36.4271217,11.8907875 36.4271217,11.8907875 C37.9722883,7.6640875 42.382705,6.5544875 43.6997467,6.3135875 C42.3528967,5.35120417 40.8874217,4.5451625 39.3300883,3.92040417 C36.99713,4.36022917 34.874655,7.31064583 34.874655,7.31064583 C35.1782133,5.36337083 36.2166383,3.85957083 36.8468717,3.0997625 C35.1441467,2.6544625 33.3568633,2.41599583 31.51483,2.41599583 C31.1559133,2.41599583 30.8000383,2.4263375 30.4459883,2.4445875 C32.6706633,4.29209583 32.4814717,9.7975125 32.4814717,9.7975125 L32.4814717,20.9604292 L32.4814717,20.9902375 C32.4425383,20.9865875 32.3987383,20.9835458 32.3518967,20.9811125 C32.3458133,20.9805042 32.3409467,20.9805042 32.3354717,20.9805042 C32.28863,20.9780708 32.23753,20.9756375 32.1839967,20.9738125 C32.177305,20.9738125 32.1706133,20.9738125 32.1639217,20.9732042 C32.1085633,20.9719875 32.0483383,20.9707708 31.9844633,20.9695542 C31.980205,20.9695542 31.9753383,20.9695542 31.9704717,20.9695542 C31.9041633,20.9683375 31.8329883,20.9683375 31.7587717,20.9683375 L31.7587717,23.5537542 L32.3938717,23.5537542 C33.3203633,24.8622792 33.3002883,26.4725375 33.3002883,26.4725375 C33.3002883,26.4725375 33.275955,26.4743625 33.2345883,26.4767958 C33.155505,26.6854542 32.9614467,27.1690792 32.73028,27.5279958 C32.5508217,28.2093292 33.37998,28.7276292 33.37998,28.7276292 C34.8703967,30.9218875 34.9707717,32.2705625 34.9707717,32.2705625 C35.0309967,33.1970542 33.119005,33.3777292 33.119005,33.3777292 L33.5016467,34.4648208 L31.4679883,35.3104042 L33.159155,35.3104042 C33.159155,35.3104042 33.3002883,35.6127458 33.6020217,36.0556125 C33.903755,36.4984792 32.9377217,37.3641375 32.9377217,37.3641375 C33.6020217,38.4913792 33.159155,39.6587708 33.159155,39.6587708 C32.8768883,41.1485792 28.8107883,40.2026208 28.8107883,40.2026208 C27.501655,39.9404292 27.36113,41.2489542 27.36113,41.2489542 C27.1761967,42.2496625 27.450555,43.4961375 27.5898633,44.0284292 C28.8618883,44.2693292 30.173455,44.3964708 31.51483,44.3964708 C33.9134883,44.3964708 36.217855,43.9931458 38.3652717,43.2521958 C38.3482383,42.7557958 38.3068717,41.6881708 38.2320467,40.9672958 C38.1316717,40.0012625 38.8361217,39.8199792 38.8361217,39.8199792 C39.9432883,40.1624708 42.8821467,40.1423958 42.8821467,40.1423958 C46.6270467,39.7798292 44.875655,36.8805125 44.875655,36.8805125 C45.8015383,36.3774208 45.6409383,35.5719875 45.6409383,35.5719875 C45.539955,34.5858792 43.64743,34.8675375 43.64743,34.8675375 L43.5403633,34.6527958 C43.5403633,34.6527958 45.4991967,34.2500792 45.660405,34.0888708 C45.8222217,33.9282708 45.5533383,32.8277958 45.5533383,32.8277958 C46.60028,32.8010292 47.2980383,32.1300375 47.2980383,32.1300375 C47.7542883,31.6464125 47.0029967,30.2508958 46.2784717,29.2307208 C45.5533383,28.2105458 44.7746717,27.8352042 44.7746717,27.8352042 L44.8288133,27.3521875 C44.47963,27.6472292 43.64743,27.4324875 43.64743,27.4324875 L43.9966133,28.3985208 L43.3256217,28.1570125 L43.163805,28.1837792 C41.98303,28.4526625 40.4530717,27.4860208 40.4530717,27.4860208 L39.513805,27.4324875 C41.6076883,26.5199875 45.31183,26.6538208 45.31183,26.6538208 C45.5533383,25.8216208 44.0227717,23.3523958 44.0227717,23.3523958 L42.1448467,23.4868375 C42.4934217,21.9562708 46.116655,22.5743375 46.116655,22.5743375 C51.350755,22.4934292 51.91468,24.6676125 51.91468,24.6676125 C52.223105,24.3080875 52.4025633,23.8846875 52.504155,23.4746708 C52.5047633,23.4515542 52.5053717,23.4290458 52.5053717,23.4059292 C52.5053717,22.1284292 52.3903967,20.8770875 52.172005,19.6622458" id="Fill-30" fill="#333333"></path>
                </g>
                <g id="Group-35" transform="translate(27.983333, 26.158333)">
                    <mask id="mask-4" fill="white">
                        <use xlink:href="#path-3"></use>
                    </mask>
                    <g id="Clip-34"></g>
                    <path d="M2.78008333,0.515866667 C1.3505,0.657 0.464766667,1.44175 0.464766667,1.44175 L0.464766667,1.44175 C0.786575,1.80431667 2.41751667,2.36763333 2.84030833,2.20703333 L2.84030833,2.20703333 C3.2631,2.045825 3.987625,2.02575 3.987625,2.02575 L3.987625,2.02575 L3.48453333,1.36145 L4.77298333,1.28115 C4.76081667,1.31095833 4.75473333,1.34076667 4.746825,1.36935833 L4.746825,1.36935833 C4.97799167,1.01105 5.17205,0.527425 5.25174167,0.318158333 L5.25174167,0.318158333 C4.99745833,0.333366667 4.009525,0.3942 2.78008333,0.515866667" id="Fill-33" fill="url(#radialGradient-5)" mask="url(#mask-4)"></path>
                </g>
                <g id="Group-48" transform="translate(10.341667, 2.433333)" fill="#333333">
                    <path d="M14.0602867,12.9471583 C14.6242117,12.6247417 15.85852,11.04125 15.85852,11.04125 C14.487945,4.92993333 10.3336367,4.10503333 8.80672,4.01195833 C7.03282,5.30770833 5.47062,6.874775 4.17973667,8.65171667 C10.8768783,7.2635 14.0602867,12.9471583 14.0602867,12.9471583" id="Fill-36"></path>
                    <path d="M17.254645,8.59879167 C18.89532,5.46526667 17.3124367,1.02139167 17.07032,0.384466667 C15.5002117,0.695933333 13.99337,1.18138333 12.5704783,1.82135 C16.6116367,3.67494167 17.254645,8.59879167 17.254645,8.59879167" id="Fill-38"></path>
                    <path d="M1.71835917,13.0811133 C0.9834925,14.8921217 0.491959167,16.8284467 0.288775833,18.84933 C8.1028175,17.8644383 12.0472508,14.5976883 12.0472508,14.5976883 C8.76225083,10.4354717 3.5877675,12.2349217 1.71835917,13.0811133" id="Fill-40"></path>
                    <path d="M9.067695,23.4557517 C7.09487,22.44896 8.26226167,20.1135683 8.26226167,20.1135683 C6.16777,21.1453017 1.83217833,21.092985 0.183595,21.030935 C0.191503333,24.0281933 0.828428333,26.8770183 1.968445,29.4539183 C4.439495,24.8348433 9.067695,23.4557517 9.067695,23.4557517" id="Fill-42"></path>
                    <path d="M12.3654092,19.1474742 C10.9966592,19.3622158 10.7283842,20.0599742 10.7283842,20.0599742 C10.3792008,20.8654075 10.4862675,21.7912908 11.6408842,22.0467908 C12.7948925,22.3016825 12.4730842,20.9992408 12.4730842,20.9992408 C13.5735592,20.7041992 13.7615342,21.6842242 13.7615342,21.6842242 C14.0833425,22.7713158 13.0102425,23.5226075 12.0703675,23.7373492 C11.1311008,23.9520908 8.82247583,25.4820492 8.82247583,25.4820492 C5.67435083,28.5924575 4.95590917,31.5355742 4.80747583,33.0132158 C6.52905917,35.4678408 8.7634675,37.5361742 11.3543592,39.0643075 C9.41438417,30.6753908 17.7272592,32.4340825 17.7272592,32.4340825 C18.3915592,29.9782408 16.2782092,29.4544658 16.2782092,29.4544658 C14.2847008,28.4482825 14.3449258,27.1196825 14.3449258,27.1196825 C14.0231175,23.7774992 18.5326925,21.1202992 18.5326925,21.1202992 L22.2459592,21.1202992 L22.2459592,18.5348818 C19.8223592,18.5342742 13.5802508,18.9570658 12.3654092,19.1474742" id="Fill-44"></path>
                    <path d="M20.4216283,24.2408058 C18.992045,24.3813308 18.1063117,25.1666892 18.1063117,25.1666892 C18.4287283,25.5292558 20.0590617,26.0925725 20.4824617,25.9319725 C20.904645,25.7707642 21.62917,25.7506892 21.62917,25.7506892 L21.1260783,25.0863892 L22.4145283,25.0054808 C22.40297,25.0358975 22.3962783,25.0650975 22.38837,25.0949058 C22.6195367,24.7359892 22.8142033,24.2523642 22.8926783,24.0430975 C22.6396117,24.0583058 21.65107,24.1197475 20.4216283,24.2408058" id="Fill-46"></path>
                </g>
            </g>
        </g>
    </g>
</svg>