<?xml version="1.0" encoding="UTF-8"?>
<svg width="32px" height="32px" viewBox="0 0 32 32" version="1.1" xmlns="http://www.w3.org/2000/svg" xmlns:xlink="http://www.w3.org/1999/xlink">
    <!-- Generator: Sketch 59.1 (86144) - https://sketch.com -->
    <title>Group 14</title>
    <desc>Created with Sketch.</desc>
    <defs>
        <path d="M0.0829257143,0.0649832402 L0.0829257143,6.21988827 L8.84196571,6.21988827 C8.46464,8.20889385 7.31803429,9.8941676 5.59433143,11.0223911 L5.59433143,11.0223911 L5.59433143,15.0146145 L10.8541257,15.0146145 C13.9317029,12.244648 15.7072457,8.16545251 15.7072457,3.31968715 L15.7072457,3.31968715 C15.7072457,2.1913743 15.6036571,1.10650279 15.4112914,0.0649832402 L15.4112914,0.0649832402 L0.0829257143,0.0649832402 Z" id="path-1"></path>
        <path d="M0.0757942857,0.0817877095 L0.0757942857,4.2043352 C2.75382857,9.40460335 8.25782857,12.9701899 14.6200686,12.9701899 L14.6200686,12.9701899 C19.0143086,12.9701899 22.6985143,11.5453855 25.3912686,9.11517318 L25.3912686,9.11517318 L20.1314743,5.12294972 C18.6740114,6.07758659 16.8097829,6.64178771 14.6200686,6.64178771 L14.6200686,6.64178771 C10.3809829,6.64178771 6.79305143,3.84268156 5.51323429,0.0817877095 L5.51323429,0.0817877095 L0.0757942857,0.0817877095 Z" id="path-3"></path>
        <path d="M1.81293714,0.0134972067 C0.710674286,2.16151955 0.0818285714,4.59155307 0.0818285714,7.15906145 L0.0818285714,7.15906145 C0.0818285714,9.7267486 0.710674286,12.1568715 1.81293714,14.3048939 L1.81293714,14.3048939 L7.25037714,10.1823464 C6.9248,9.22762011 6.73993143,8.20791061 6.73993143,7.15906145 L6.73993143,7.15906145 C6.73993143,6.11039106 6.9248,5.09068156 7.25037714,4.13595531 L7.25037714,4.13595531 L7.25037714,0.0134972067 L1.81293714,0.0134972067 Z" id="path-5"></path>
        <path d="M0.0757942857,8.77327374 L5.51323429,12.8957318 C6.79305143,9.1347486 10.3809829,6.33582123 14.6200686,6.33582123 L14.6200686,6.33582123 C17.0095543,6.33582123 19.1549257,7.13868156 20.8416914,8.71535196 L20.8416914,8.71535196 L25.50976,4.15159777 C22.6911086,1.584 19.0069029,0.00732960894 14.6200686,0.00732960894 L14.6200686,0.00732960894 C8.25782857,0.00732960894 2.75382857,3.57300559 0.0757942857,8.77327374 L0.0757942857,8.77327374 Z" id="path-7"></path>
    </defs>
    <g id="–-Usuario" stroke="none" stroke-width="1" fill="none" fill-rule="evenodd">
        <g id="Web/Login/Usuario/Desktop-Copy" transform="translate(-709.000000, -639.000000)">
            <g id="Group-14" transform="translate(709.000000, 639.000000)">
                <g id="Group-13">
                    <g id="Group-3" transform="translate(16.274286, 13.033564)">
                        <mask id="mask-2" fill="white">
                            <use xlink:href="#path-1"></use>
                        </mask>
                        <g id="Clip-2"></g>
                        <polygon id="Fill-1" fill="#0083F5" mask="url(#mask-2)" points="-8.95899429 23.8545698 24.7489829 23.8545698 24.7489829 -8.7747933 -8.95899429 -8.7747933"></polygon>
                    </g>
                    <g id="Group-6" transform="translate(1.737143, 18.933006)">
                        <mask id="mask-4" fill="white">
                            <use xlink:href="#path-3"></use>
                        </mask>
                        <g id="Clip-5"></g>
                        <polygon id="Fill-4" fill="#00A94B" mask="url(#mask-4)" points="-8.96603429 21.8100559 34.4331886 21.8100559 34.4331886 -8.75798883 -8.96603429 -8.75798883"></polygon>
                    </g>
                    <g id="Group-9" transform="translate(0.000000, 8.832447)">
                        <mask id="mask-6" fill="white">
                            <use xlink:href="#path-5"></use>
                        </mask>
                        <g id="Clip-8"></g>
                        <polygon id="Fill-7" fill="#FFBC00" mask="url(#mask-6)" points="-8.96 23.1446704 16.2922057 23.1446704 16.2922057 -8.8264581 -8.96 -8.8264581"></polygon>
                    </g>
                    <g id="Group-12" transform="translate(1.737143, 0.072670)">
                        <mask id="mask-8" fill="white">
                            <use xlink:href="#path-7"></use>
                        </mask>
                        <g id="Clip-11"></g>
                        <polygon id="Fill-10" fill="#FF3F2F" mask="url(#mask-8)" points="-8.96603429 21.7355084 34.5515886 21.7355084 34.5515886 -8.83244693 -8.96603429 -8.83244693"></polygon>
                    </g>
                </g>
            </g>
        </g>
    </g>
</svg>