<?xml version="1.0" encoding="UTF-8"?>
<svg width="130px" height="32px" viewBox="0 0 130 32" version="1.1" xmlns="http://www.w3.org/2000/svg" xmlns:xlink="http://www.w3.org/1999/xlink">
    <!-- Generator: Sketch 58 (84663) - https://sketch.com -->
    <title>appstore</title>
    <desc>Created with Sketch.</desc>
    <g id="Page-1" stroke="none" stroke-width="1" fill="none" fill-rule="evenodd">
        <g id="Desktop-HD-Copy-3" transform="translate(-346.000000, -497.000000)" fill-rule="nonzero">
            <g id="appstore" transform="translate(336.000000, 488.000000)">
                <path d="M145.851719,41.3428571 C145.851719,44.9114286 142.965937,47.8028571 139.404336,47.8028571 L6.44738281,47.8028571 C2.88578125,47.8028571 0,44.9114286 0,41.3428571 L0,6.46 C0,2.89142857 2.88578125,0 6.44738281,0 L139.404336,0 C142.963086,0 145.851719,2.89142857 145.851719,6.46 L145.851719,41.3428571 Z" id="Path"></path>
                <g id="playstore" transform="translate(10.000000, 10.000000)" fill="#FFFFFF">
                    <path d="M4.71107405,0.482810634 C4.01211622,0.0311606714 3.17257582,-0.105347039 2.3851097,0.0805383507 L16.2235639,13.9190524 L20.7086631,9.43395319 L4.71107405,0.482810634 Z" id="Path"></path>
                    <path d="M0.667497536,1.20543859 C0.281524681,1.71857095 0.0593850488,2.34861576 0.0593850488,3.01509458 L0.0593850488,27.6654628 C0.0593850488,28.3320015 0.281584606,28.9619864 0.667497536,29.4751188 L14.8022777,15.3403386 L0.667497536,1.20543859 Z" id="Path"></path>
                    <path d="M26.5621353,12.7091795 L22.5312628,10.453806 L17.6447901,15.3402787 L22.5315025,20.2269911 L26.5627945,17.9714378 C27.5285955,17.4303208 28.1051279,16.4468421 28.1051279,15.3402787 C28.1051279,14.2337153 27.5285955,13.2502965 26.5621353,12.7091795 Z" id="Path"></path>
                    <path d="M16.2235039,16.7615049 L2.38588872,30.5991202 C2.61276237,30.6525128 2.84365096,30.6812765 3.07453955,30.6812765 C3.64513939,30.6812765 4.21376172,30.5190013 4.71107405,30.1976868 L20.708783,21.2466641 L16.2235039,16.7615049 Z" id="Path"></path>
                </g>
                <g id="Group" transform="translate(108.929688, 18.000000)" fill="#F9F9F9">
                    <path d="M4.57960938,13.7171429 C3.96652344,13.7171429 3.41046875,13.6028571 2.90289063,13.3771429 C2.39816406,13.1514286 1.97328125,12.8028571 1.62824219,12.3342857 L1.52558594,12.3342857 C1.59402344,12.8828571 1.62824219,13.4057143 1.62824219,13.8971429 L1.62824219,17.7714286 L0.2053125,17.7714286 L0.2053125,4.13142857 L1.36304687,4.13142857 L1.55980469,5.42 L1.62824219,5.42 C1.99324219,4.90571429 2.42097656,4.53142857 2.90574219,4.30285714 C3.39050781,4.07428571 3.94941406,3.96 4.57675781,3.96 C5.82289063,3.96 6.78386719,4.38571429 7.46253906,5.24 C8.14121094,6.09428571 8.47769531,7.29142857 8.47769531,8.83142857 C8.47769531,10.3771429 8.13265625,11.58 7.44542969,12.4342857 C6.75820312,13.2885714 5.80292969,13.7171429 4.57960938,13.7171429 Z M4.37429687,5.17142857 C3.41332031,5.17142857 2.72039062,5.43714286 2.29265625,5.97142857 C1.86492187,6.50285714 1.6425,7.35142857 1.63109375,8.51428571 L1.63109375,8.83142857 C1.63109375,10.1542857 1.85066406,11.1 2.29265625,11.6714286 C2.73179687,12.24 3.43898437,12.5257143 4.40851562,12.5257143 C5.22121094,12.5257143 5.85710937,12.1971429 6.31621094,11.5371429 C6.7753125,10.88 7.00628906,9.97142857 7.00628906,8.81428571 C7.00628906,7.64 6.7753125,6.74 6.31621094,6.11142857 C5.85425781,5.48285714 5.20695312,5.17142857 4.37429687,5.17142857 Z" id="Shape"></path>
                    <polygon id="Path" points="11.7741016 13.5457143 10.3511719 13.5457143 10.3511719 0.18 11.7741016 0.18"></polygon>
                    <path d="M19.9580859,13.5457143 L19.6757813,12.2057143 L19.6073438,12.2057143 C19.1396875,12.7971429 18.6720313,13.1942857 18.204375,13.4028571 C17.7395703,13.6114286 17.1578516,13.7171429 16.4592187,13.7171429 C15.5267578,13.7171429 14.7967578,13.4771429 14.2692187,12.9942857 C13.7416797,12.5142857 13.4764844,11.8285714 13.4764844,10.9428571 C13.4764844,9.04285714 14.9935156,8.04571429 18.0275781,7.95428571 L19.6216016,7.90285714 L19.6216016,7.32 C19.6216016,6.58 19.4619141,6.03428571 19.1453906,5.68285714 C18.8288672,5.33142857 18.3212891,5.15428571 17.6226562,5.15428571 C16.8384766,5.15428571 15.9544922,5.39428571 14.965,5.87714286 L14.5287109,4.78571429 C14.9906641,4.53428571 15.4982422,4.33714286 16.0514453,4.19428571 C16.6017969,4.05142857 17.155,3.98 17.7110547,3.98 C18.8317187,3.98 19.6615234,4.22857143 20.2004687,4.72857143 C20.7394141,5.22571429 21.0103125,6.02571429 21.0103125,7.12571429 L21.0103125,13.5514286 L19.9580859,13.5514286 L19.9580859,13.5457143 Z M16.7415234,12.54 C17.6283594,12.54 18.3212891,12.2971429 18.8288672,11.8114286 C19.3335937,11.3257143 19.5873828,10.6428571 19.5873828,9.76571429 L19.5873828,8.91428571 L18.1644531,8.97428571 C17.0323828,9.01428571 16.2168359,9.19142857 15.7178125,9.50285714 C15.2187891,9.81428571 14.9678516,10.3 14.9678516,10.96 C14.9678516,11.4742857 15.1218359,11.8685714 15.4355078,12.1371429 C15.7463281,12.4057143 16.1826172,12.54 16.7415234,12.54 Z" id="Shape"></path>
                    <path d="M21.8372656,4.13142857 L23.3628516,4.13142857 L25.4216797,9.5 C25.8722266,10.7257143 26.1545313,11.6114286 26.2628906,12.1542857 L26.3313281,12.1542857 C26.4054688,11.8628571 26.5623047,11.3628571 26.7989844,10.6542857 C27.0356641,9.94571429 27.8112891,7.77428571 29.1258594,4.13142857 L30.6514453,4.13142857 L26.6136328,14.8514286 C26.2144141,15.9114286 25.7467578,16.6628571 25.2106641,17.1057143 C24.6774219,17.5485714 24.0215625,17.7714286 23.2430859,17.7714286 C22.8096484,17.7714286 22.3790625,17.7228571 21.9570313,17.6257143 L21.9570313,16.4828571 C22.2707031,16.5514286 22.6242969,16.5857143 23.0121094,16.5857143 C23.9901953,16.5857143 24.6859766,16.0371429 25.1051563,14.9371429 L25.6269922,13.5971429 L21.8372656,4.13142857 Z" id="Path"></path>
                </g>
                <g id="Group" transform="translate(44.199219, 16.857143)" fill="#F9F9F9">
                    <path d="M42.9473828,6.14857143 C43.3979297,6.52285714 44.3417969,7.31142857 44.3417969,8.80857143 C44.3417969,10.2657143 43.5176953,10.9542857 42.6907422,11.6057143 C42.4341016,11.86 42.1403906,12.1371429 42.1403906,12.5714286 C42.1403906,13.0028571 42.4341016,13.24 42.6508203,13.4171429 L43.3580078,13.9685714 C44.2220312,14.6971429 45.0090625,15.3685714 45.0090625,16.7257143 C45.0090625,18.5771429 43.2211328,20.4457143 39.8420313,20.4457143 C36.9904688,20.4457143 35.6160156,19.0885714 35.6160156,17.6285714 C35.6160156,16.92 35.9696094,15.9171429 37.1301953,15.2257143 C38.3478125,14.4771429 39.9988672,14.38 40.8828516,14.32 C40.60625,13.9657143 40.2925781,13.5914286 40.2925781,12.9828571 C40.2925781,12.6485714 40.3923828,12.4514286 40.4893359,12.2142857 C40.2726172,12.2342857 40.0558984,12.2542857 39.8591406,12.2542857 C37.7775,12.2542857 36.5969531,10.6971429 36.5969531,9.16285714 C36.5969531,8.25714286 37.0104297,7.25142857 37.8544922,6.52285714 C38.9751563,5.59714286 40.3125391,5.44 41.3733203,5.44 L45.4196875,5.44 L44.1621484,6.14857143 L42.9473828,6.14857143 Z M41.5501172,14.8914286 C41.3932812,14.8714286 41.2934766,14.8714286 41.0995703,14.8714286 C40.9227734,14.8714286 39.8591406,14.9114286 39.0350391,15.1885714 C38.6016016,15.3457143 37.3440625,15.8171429 37.3440625,17.2171429 C37.3440625,18.6142857 38.7014062,19.62 40.8030078,19.62 C42.6878906,19.62 43.69165,18.7114286 43.69165,17.4914286 C43.6944922,16.4857143 43.0443359,15.9571429 41.5501172,14.8914286 Z M42.1204297,11.1514286 C42.5709766,10.6971429 42.6108984,10.0685714 42.6108984,9.71428571 C42.6108984,8.29714286 41.7668359,6.09142857 40.1357422,6.09142857 C39.6253125,6.09142857 39.0749609,6.34571429 38.7584375,6.74285714 C38.4248047,7.15714286 38.325,7.68857143 38.325,8.2 C38.325,9.52 39.0920703,11.7057143 40.7830469,11.7057143 C41.2763672,11.7028571 41.8067578,11.4657143 42.1204297,11.1514286 Z" id="Shape"></path>
                    <path d="M30.5744531,14.5771429 C27.4548437,14.5771429 25.7866797,12.14 25.7866797,9.93714286 C25.7866797,7.36285714 27.8854297,5.16 30.8681641,5.16 C33.7510938,5.16 35.5561362,7.42 35.5561362,9.8 C35.5589844,12.12 33.7739062,14.5771429 30.5744531,14.5771429 Z M33.0267969,12.9857143 C33.4973047,12.3571429 33.6170703,11.5685714 33.6170703,10.8028571 C33.6170703,9.07142857 32.7929687,5.76857143 30.3605859,5.76857143 C29.7132812,5.76857143 29.0659766,6.02571429 28.5954687,6.43714286 C27.83125,7.12571429 27.6915234,7.98857143 27.6915234,8.83714286 C27.6915234,10.7828571 28.6525,13.9857143 31.0278516,13.9857143 C31.7920703,13.9857143 32.57625,13.6142857 33.0267969,12.9857143 Z" id="Shape"></path>
                    <path d="M19.9409766,14.5771429 C16.8213672,14.5771429 15.1532031,12.14 15.1532031,9.93714286 C15.1532031,7.36285714 17.2519531,5.16 20.2346875,5.16 C23.1176172,5.16 24.9226562,7.42 24.9226562,9.8 C24.9226562,12.12 23.1375781,14.5771429 19.9409766,14.5771429 Z M22.3933203,12.9857143 C22.8638281,12.3571429 22.9835937,11.5685714 22.9835937,10.8028571 C22.9835937,9.07142857 22.1594922,5.76857143 19.7271094,5.76857143 C19.0798047,5.76857143 18.4325,6.02571429 17.9619922,6.43714286 C17.1977734,7.12571429 17.0580469,7.98857143 17.0580469,8.83714286 C17.0580469,10.7828571 18.0190234,13.9857143 20.394375,13.9857143 C21.1557422,13.9857143 21.9399219,13.6142857 22.3933203,12.9857143 Z" id="Shape"></path>
                    <path d="M13.6532812,14.2685714 L10.8330859,14.92 C9.68960938,15.0971429 8.66304687,15.2542857 7.57945313,15.2542857 C2.13296875,15.2542857 0.062734375,11.2428571 0.062734375,8.1 C0.062734375,4.26571429 3.00269531,0.708571429 8.03285156,0.708571429 C9.09933594,0.708571429 10.1230469,0.865714286 11.0498047,1.12285714 C12.5297656,1.53714286 13.2198438,2.05142857 13.6532813,2.34857143 L12.0164844,3.90857143 L11.3264063,4.06571429 L11.8197266,3.27428571 C11.1496094,2.62285714 9.92628906,1.41714286 7.59941406,1.41714286 C4.48265625,1.41714286 2.13582031,3.78857143 2.13582031,7.24857143 C2.13582031,10.9628571 4.81914063,14.4628571 9.11929688,14.4628571 C10.3825391,14.4628571 11.0326953,14.2057143 11.6258203,13.9685714 L11.6258203,10.7914286 L8.64878906,10.9485714 L10.2257031,10.0971429 L14.4089453,10.0971429 L13.8956641,10.5914286 C13.7559375,10.7114286 13.7388281,10.7514286 13.6989062,10.9085714 C13.6789453,11.0857143 13.6589844,11.66 13.6589844,11.8571429 L13.6589844,14.2685714 L13.6532812,14.2685714 Z" id="Path"></path>
                    <path d="M49.1808984,13.7 C48.5307422,13.64 48.3938672,13.5228571 48.3938672,12.7514286 L48.3938672,12.5342857 L48.3938672,1.56285714 C48.3967187,1.52 48.3995703,1.47714286 48.4052734,1.43428571 C48.4851172,0.742857143 48.681875,0.625714286 49.2949609,0.268571429 L46.4719141,0.268571429 L44.9919531,0.98 L46.5004297,0.98 L46.5004297,0.988571429 L46.5004297,0.98 L46.5004297,12.5285714 L46.5004297,13.1828571 C46.5004297,13.5771429 46.4234375,13.6371429 45.9671875,14.2285714 L49.4603516,14.2285714 L50.1903516,13.7942857 C49.8538672,13.7571429 49.5173828,13.74 49.1808984,13.7 Z" id="Path"></path>
                    <path d="M57.2080469,13.88 C56.9941797,13.9971429 56.7774609,14.1371429 56.5635937,14.2342857 C55.9162891,14.5285714 55.2490234,14.6085714 54.6616016,14.6085714 C54.0371094,14.6085714 53.0561719,14.5685714 52.0552734,13.8428571 C50.6665625,12.86 50.0591797,11.1714286 50.0591797,9.7 C50.0591797,6.65714286 52.5286328,5.16571429 54.5446875,5.16571429 C55.2490234,5.16571429 55.9761719,5.34285714 56.5635937,5.71428571 C57.5416797,6.36 57.7983203,7.20571429 57.9323437,7.65714286 L53.3299219,9.52285714 L51.8214453,9.64 C52.3090625,12.1314286 53.9943359,13.5828571 55.8564062,13.5828571 C56.8544531,13.5828571 57.5816016,13.2314286 58.2460156,12.8971429 L57.2080469,13.88 Z M55.3687891,8.03142857 C55.7394922,7.89428571 55.93625,7.77714286 55.93625,7.50285714 C55.93625,6.71714286 55.0551172,5.81428571 53.9971875,5.81428571 C53.2130078,5.81428571 51.7444531,6.42285714 51.7444531,8.54285714 C51.7444531,8.87714286 51.784375,9.22857143 51.8043359,9.58285714 L55.3687891,8.03142857 Z" id="Shape"></path>
                    <g transform="translate(58.457031, 5.142857)" id="Path">
                        <polygon points="0.644453125 0.157142857 0.644453125 1.45142857 0.487617187 1.45142857 0.487617187 0.157142857 0.0598828125 0.157142857 0.0598828125 0.0228571429 1.0721875 0.0228571429 1.0721875 0.157142857"></polygon>
                        <polygon points="2.40671875 1.45142857 2.40671875 0.142857143 2.39816406 0.142857143 1.99894531 1.45142857 1.87632813 1.45142857 1.47425781 0.142857143 1.46855469 0.142857143 1.46855469 1.45142857 1.32597656 1.45142857 1.32597656 0.0228571429 1.57121094 0.0228571429 1.93335938 1.17714286 1.9390625 1.17714286 2.29550781 0.0228571429 2.54359375 0.0228571429 2.54359375 1.45142857"></polygon>
                    </g>
                </g>
                <g id="Group" transform="translate(44.199219, 9.428571)" fill="#F9F9FA">
                    <path d="M3.97792969,4.28857143 L2.99699219,4.28857143 C2.99699219,4.15428571 2.90289062,3.77142857 2.71753906,3.14 L1.30316406,3.14 C1.11210938,3.76 1.01515625,4.14285714 1.01515625,4.28857143 L0.0941015625,4.28857143 C0.0941015625,4.20857143 0.333632813,3.55428571 0.80984375,2.32285714 C1.28605469,1.09428571 1.52558594,0.417142857 1.52558594,0.291428571 L2.68332031,0.291428571 C2.68332031,0.408571429 2.90003906,1.07428571 3.330625,2.29428571 C3.7640625,3.51428571 3.97792969,4.18 3.97792969,4.28857143 Z M2.56355469,2.55714286 C2.21566406,1.5 2.03886719,0.931428571 2.03886719,0.845714286 L1.99039063,0.845714286 C1.99039063,0.925714286 1.81074219,1.49714286 1.44859375,2.55714286 L2.56355469,2.55714286 Z" id="Shape"></path>
                    <path d="M7.93019531,4.28857143 L7.17453125,4.28857143 C7.17453125,4.20571429 6.89507812,3.76285714 6.33332031,2.96 C5.74589844,2.11428571 5.40941406,1.53714286 5.32957031,1.22571429 L5.28109375,1.22571429 C5.33242188,1.67428571 5.35808594,2.08 5.35808594,2.44 C5.35808594,2.94571429 5.37234375,3.56 5.40085938,4.28857143 L4.64804688,4.28857143 C4.67941406,3.65428571 4.69367188,2.95714286 4.69367188,2.19714286 C4.69367188,1.45142857 4.67941406,0.814285714 4.64804688,0.291428571 L5.55769531,0.291428571 C5.55769531,0.4 5.80863281,0.831428571 6.31335938,1.58857143 C6.84945313,2.39142857 7.15742188,2.93714286 7.23726563,3.22571429 L7.28289063,3.22571429 C7.23441406,2.76857143 7.20875,2.36 7.20875,1.99714286 C7.20875,1.44285714 7.19449219,0.874285714 7.16597656,0.291428571 L7.93304688,0.291428571 C7.90453125,0.8 7.89027344,1.43428571 7.89027344,2.19714286 C7.88742187,2.96857143 7.90167969,3.66571429 7.93019531,4.28857143 Z" id="Path"></path>
                    <path d="M12.3700781,2.15428571 C12.3700781,2.73428571 12.1847266,3.24285714 11.8111719,3.67714286 C11.4404687,4.11142857 10.9186328,4.32857143 10.2485156,4.32857143 C9.94625,4.32857143 9.52992187,4.31714286 8.99953125,4.29142857 C9.02519531,3.67428571 9.03945312,2.97714286 9.03945312,2.2 C9.03945312,1.45428571 9.02519531,0.82 8.99953125,0.294285714 L9.535625,0.294285714 C9.62402344,0.294285714 9.75519531,0.291428571 9.92914062,0.285714286 C10.1030859,0.28 10.2171484,0.277142857 10.2684766,0.277142857 C11.0041797,0.277142857 11.5402734,0.46 11.8710547,0.828571429 C12.2018359,1.19714286 12.3700781,1.63714286 12.3700781,2.15428571 Z M11.5317187,2.28571429 C11.5317187,1.89142857 11.4176562,1.56285714 11.1895312,1.29142857 C10.9614062,1.02285714 10.6106641,0.888571429 10.1430078,0.888571429 C10.0546094,0.888571429 9.93484375,0.897142857 9.78085938,0.917142857 C9.80082031,1.32571429 9.81222656,1.75428571 9.81222656,2.2 C9.81222656,2.68857143 9.82363281,3.17428571 9.84359375,3.65428571 C9.97761719,3.68 10.1087891,3.69428571 10.2428125,3.69428571 C10.6819531,3.69428571 11.0070313,3.55714286 11.2180469,3.28571429 C11.4262109,3.01142857 11.5317187,2.68 11.5317187,2.28571429 Z" id="Shape"></path>
                    <path d="M16.4620703,4.28857143 L15.5552734,4.28857143 C15.3185937,3.56285714 15.1360937,3.11714286 15.010625,2.94857143 C14.8851562,2.78 14.6798437,2.69428571 14.3975391,2.69428571 C14.2777734,2.69428571 14.1665625,2.69428571 14.0582031,2.69714286 C14.0582031,3.22285714 14.0667578,3.75428571 14.0867187,4.29142857 L13.2341016,4.29142857 C13.2597656,3.67428571 13.2740234,2.97714286 13.2740234,2.2 C13.2740234,1.45428571 13.2597656,0.82 13.2341016,0.294285714 L13.7644922,0.294285714 C13.824375,0.294285714 13.9526953,0.291428571 14.1494531,0.285714286 C14.3433594,0.28 14.5258594,0.277142857 14.69125,0.277142857 C15.6294141,0.277142857 16.0970703,0.597142857 16.0970703,1.24 C16.0970703,1.74857143 15.8290234,2.10571429 15.2957812,2.30571429 L15.2957812,2.35142857 C15.5010937,2.40857143 15.6835937,2.56857143 15.8375781,2.83428571 C15.9887109,3.09714286 16.1997266,3.58285714 16.4620703,4.28857143 Z M15.3128906,1.46571429 C15.3128906,1.06 15.0505469,0.854285714 14.5287109,0.854285714 C14.3376562,0.854285714 14.1665625,0.868571429 14.0211328,0.897142857 C14.0439453,1.21428571 14.0553516,1.62857143 14.0553516,2.13714286 C14.1665625,2.14 14.2635156,2.14285714 14.3405078,2.14285714 C14.9878125,2.14571429 15.3128906,1.91714286 15.3128906,1.46571429 Z" id="Shape"></path>
                    <path d="M20.8534766,2.21714286 C20.8534766,2.84571429 20.6624219,3.36571429 20.2774609,3.78 C19.8925,4.19428571 19.4191406,4.4 18.8516797,4.4 C18.3127344,4.4 17.8621875,4.21142857 17.4971875,3.83142857 C17.1350391,3.45142857 16.9525391,2.96857143 16.9525391,2.38571429 C16.9525391,1.75714286 17.1435937,1.23714286 17.5285547,0.822857143 C17.9135156,0.408571429 18.386875,0.202857143 18.9543359,0.202857143 C19.4932812,0.202857143 19.9438281,0.391428571 20.3088281,0.771428571 C20.6709766,1.14857143 20.8534766,1.63142857 20.8534766,2.21714286 Z M20.0094141,2.30857143 C20.0094141,1.88 19.9010547,1.53428571 19.6814844,1.26857143 C19.4619141,1.00285714 19.1938672,0.868571429 18.8716406,0.868571429 C18.5722266,0.868571429 18.3212891,1.00285714 18.113125,1.27142857 C17.9049609,1.54 17.7994531,1.87714286 17.7994531,2.28857143 C17.7994531,2.71428571 17.9078125,3.06 18.1273828,3.32857143 C18.3469531,3.59428571 18.615,3.72857143 18.934375,3.72857143 C19.2337891,3.72857143 19.4847266,3.59428571 19.6928906,3.32571429 C19.9039062,3.05142857 20.0094141,2.71428571 20.0094141,2.30857143 Z" id="Shape"></path>
                    <path d="M22.584375,4.28857143 L21.7175,4.28857143 C21.7431641,3.65428571 21.7574219,2.95714286 21.7574219,2.19714286 C21.7574219,1.45142857 21.7431641,0.814285714 21.7175,0.291428571 L22.584375,0.291428571 C22.5587109,0.805714286 22.5444531,1.44285714 22.5444531,2.19714286 C22.5444531,2.97142857 22.5587109,3.66857143 22.584375,4.28857143 Z" id="Path"></path>
                    <path d="M27.0242578,2.15428571 C27.0242578,2.73428571 26.8389062,3.24285714 26.4653516,3.67714286 C26.0946484,4.11142857 25.5728125,4.32857143 24.9026953,4.32857143 C24.6004297,4.32857143 24.1841016,4.31714286 23.6537109,4.29142857 C23.679375,3.67428571 23.6936328,2.97714286 23.6936328,2.2 C23.6936328,1.45428571 23.679375,0.82 23.6537109,0.294285714 L24.1898047,0.294285714 C24.2782031,0.294285714 24.409375,0.291428571 24.5833203,0.285714286 C24.7572656,0.28 24.8713281,0.277142857 24.9226562,0.277142857 C25.6583594,0.277142857 26.1944531,0.46 26.5252344,0.828571429 C26.8588672,1.19714286 27.0242578,1.63714286 27.0242578,2.15428571 Z M26.18875,2.28571429 C26.18875,1.89142857 26.0746875,1.56285714 25.8465625,1.29142857 C25.6184375,1.02285714 25.2676953,0.888571429 24.8000391,0.888571429 C24.7116406,0.888571429 24.591875,0.897142857 24.4378906,0.917142857 C24.4578516,1.32571429 24.4692578,1.75428571 24.4692578,2.2 C24.4692578,2.68857143 24.4806641,3.17428571 24.500625,3.65428571 C24.6346484,3.68 24.7658203,3.69428571 24.8998438,3.69428571 C25.3389844,3.69428571 25.6640625,3.55714286 25.8750781,3.28571429 C26.0832422,3.01142857 26.18875,2.68 26.18875,2.28571429 Z" id="Shape"></path>
                    <path d="M32.9155859,4.28857143 L31.9346484,4.28857143 C31.9346484,4.15428571 31.8405469,3.77142857 31.6551953,3.14 L30.2408203,3.14 C30.0497656,3.76 29.9528125,4.14285714 29.9528125,4.28857143 L29.0317578,4.28857143 C29.0317578,4.20857143 29.2712891,3.55428571 29.7475,2.32285714 C30.2237109,1.09428571 30.4632422,0.417142857 30.4632422,0.291428571 L31.6209766,0.291428571 C31.6209766,0.408571429 31.8376953,1.07428571 32.2682812,2.29428571 C32.6988672,3.51428571 32.9155859,4.18 32.9155859,4.28857143 Z M31.5012109,2.55714286 C31.1533203,1.5 30.9765234,0.931428571 30.9765234,0.845714286 L30.9280469,0.845714286 C30.9280469,0.925714286 30.7483984,1.49714286 30.38625,2.55714286 L31.5012109,2.55714286 Z" id="Shape"></path>
                    <path d="M36.4885937,1.34 C36.4885937,1.82857143 36.3060937,2.19142857 35.9439453,2.42285714 C35.5817969,2.65714286 35.1369531,2.77142857 34.6094141,2.77142857 C34.5124609,2.77142857 34.4440234,2.76857143 34.4041016,2.76571429 C34.4041016,3.15142857 34.4155078,3.65714286 34.4383203,4.28857143 L33.5771484,4.28857143 C33.6028125,3.69714286 33.6170703,3 33.6170703,2.19714286 C33.6170703,1.46 33.6028125,0.825714286 33.5771484,0.291428571 L34.1103906,0.291428571 C34.1845312,0.291428571 34.3299609,0.288571429 34.5466797,0.282857143 C34.7605469,0.277142857 34.9458984,0.274285714 35.1055859,0.274285714 C35.4933984,0.274285714 35.8213281,0.362857143 36.089375,0.537142857 C36.3545703,0.714285714 36.4885937,0.982857143 36.4885937,1.34 Z M35.6987109,1.50857143 C35.6987109,1.07142857 35.4078516,0.851428571 34.8289844,0.851428571 C34.6835547,0.851428571 34.5295703,0.865714286 34.3698828,0.897142857 C34.3926953,1.28285714 34.4041016,1.72285714 34.4041016,2.21142857 C34.4554297,2.21428571 34.5153125,2.21714286 34.5808984,2.21714286 C35.3251562,2.21714286 35.6987109,1.98285714 35.6987109,1.50857143 Z" id="Shape"></path>
                    <path d="M40.1614062,1.34 C40.1614062,1.82857143 39.9789062,2.19142857 39.6167578,2.42285714 C39.2546094,2.65714286 38.8097656,2.77142857 38.2822266,2.77142857 C38.1852734,2.77142857 38.1168359,2.76857143 38.0769141,2.76571429 C38.0769141,3.15142857 38.0883203,3.65714286 38.1111328,4.28857143 L37.2499609,4.28857143 C37.275625,3.69714286 37.2898828,3 37.2898828,2.19714286 C37.2898828,1.46 37.275625,0.825714286 37.2499609,0.291428571 L37.7832031,0.291428571 C37.8573437,0.291428571 38.0027734,0.288571429 38.2194922,0.282857143 C38.4333594,0.277142857 38.6187109,0.274285714 38.7783984,0.274285714 C39.1662109,0.274285714 39.4941406,0.362857143 39.7621875,0.537142857 C40.0302344,0.714285714 40.1614062,0.982857143 40.1614062,1.34 Z M39.3715234,1.50857143 C39.3715234,1.07142857 39.0806641,0.851428571 38.5017969,0.851428571 C38.3563672,0.851428571 38.2023828,0.865714286 38.0426953,0.897142857 C38.0655078,1.28285714 38.0769141,1.72285714 38.0769141,2.21142857 C38.1282422,2.21428571 38.188125,2.21714286 38.2537109,2.21714286 C39.0008203,2.21714286 39.3715234,1.98285714 39.3715234,1.50857143 Z" id="Shape"></path>
                    <path d="M46.1696484,2.21714286 C46.1696484,2.84571429 45.9785937,3.36571429 45.5936328,3.78 C45.2086719,4.19428571 44.7353125,4.4 44.1678516,4.4 C43.6289062,4.4 43.1783594,4.21142857 42.8133594,3.83142857 C42.4512109,3.45142857 42.2687109,2.96857143 42.2687109,2.38571429 C42.2687109,1.75714286 42.4597656,1.23714286 42.8447266,0.822857143 C43.2296875,0.408571429 43.7030469,0.202857143 44.2705078,0.202857143 C44.8094531,0.202857143 45.26,0.391428571 45.625,0.771428571 C45.9871484,1.14857143 46.1696484,1.63142857 46.1696484,2.21714286 Z M45.3227344,2.30857143 C45.3227344,1.88 45.214375,1.53428571 44.9948047,1.26857143 C44.7752344,1.00285714 44.5071875,0.868571429 44.1849609,0.868571429 C43.8855469,0.868571429 43.6346094,1.00285714 43.4264453,1.27142857 C43.2182812,1.54 43.1127734,1.87714286 43.1127734,2.28857143 C43.1127734,2.71428571 43.2211328,3.06 43.4435547,3.32857143 C43.663125,3.59428571 43.9311719,3.72857143 44.2505469,3.72857143 C44.5499609,3.72857143 44.8008984,3.59428571 45.0090625,3.32571429 C45.2200781,3.05142857 45.3227344,2.71428571 45.3227344,2.30857143 Z" id="Shape"></path>
                    <path d="M50.3215234,4.28857143 L49.5658594,4.28857143 C49.5658594,4.20571429 49.2864062,3.76285714 48.7246484,2.96 C48.1372266,2.11428571 47.8007422,1.53714286 47.7208984,1.22571429 L47.6724219,1.22571429 C47.72375,1.67428571 47.7494141,2.08 47.7494141,2.44 C47.7494141,2.94571429 47.7636719,3.56 47.7921875,4.28857143 L47.039375,4.28857143 C47.0707422,3.65428571 47.085,2.95714286 47.085,2.19714286 C47.085,1.45142857 47.0707422,0.814285714 47.039375,0.291428571 L47.9490234,0.291428571 C47.9490234,0.4 48.1999609,0.831428571 48.7046875,1.58857143 C49.2407812,2.39142857 49.54875,2.93714286 49.6285937,3.22571429 L49.6742187,3.22571429 C49.6257422,2.76857143 49.6000781,2.36 49.6000781,1.99714286 C49.6000781,1.44285714 49.5858203,0.874285714 49.5573047,0.291428571 L50.324375,0.291428571 C50.2958594,0.8 50.2816016,1.43428571 50.2816016,2.19714286 C50.27875,2.96857143 50.2930078,3.66571429 50.3215234,4.28857143 Z" id="Path"></path>
                </g>
            </g>
        </g>
    </g>
</svg>