<?xml version="1.0" encoding="UTF-8"?>
<svg width="264px" height="49px" viewBox="0 0 264 49" version="1.1" xmlns="http://www.w3.org/2000/svg" xmlns:xlink="http://www.w3.org/1999/xlink">
    <!-- Generator: Sketch 58 (84663) - https://sketch.com -->
    <title>logo/completo</title>
    <desc>Created with Sketch.</desc>
    <defs>
        <polygon id="path-1" points="3.40425532e-05 0.0877584906 47.9279433 0.0877584906 47.9279433 37.3372302 3.40425532e-05 37.3372302"></polygon>
        <polygon id="path-3" points="0.0605276596 0.0518716981 5.79579007 0.0518716981 5.79579007 5.77358491 0.0605276596 5.77358491"></polygon>
        <polygon id="path-5" points="0.0159659574 0.0518716981 5.75122837 0.0518716981 5.75122837 5.77358491 0.0159659574 5.77358491"></polygon>
        <polygon id="path-7" points="0.0578086957 0.107408696 18.2987362 0.107408696 18.2987362 24.115942 0.0578086957 24.115942"></polygon>
        <polygon id="path-9" points="0.080742029 0.107408696 18.3216232 0.107408696 18.3216232 24.115942 0.080742029 24.115942"></polygon>
    </defs>
    <g id="Page-1" stroke="none" stroke-width="1" fill="none" fill-rule="evenodd">
        <g id="Desktop-HD-Copy-3" transform="translate(-165.000000, -4186.000000)">
            <g id="Group-24" transform="translate(0.000000, 3822.000000)">
                <g id="footer" transform="translate(0.000000, 161.000000)">
                    <g id="logo/completo/naranja" transform="translate(165.000000, 203.492644)">
                        <g id="logo/iso/naranja">
                            <g id="Group-12">
                                <g id="Group-3" transform="translate(0.000000, 0.056151)">
                                    <mask id="mask-2" fill="white">
                                        <use xlink:href="#path-1"></use>
                                    </mask>
                                    <g id="Clip-2"></g>
                                    <path d="M45.5870979,37.3372302 L13.5523745,37.3372302 C11.5123177,37.3372302 9.59662979,36.5425132 8.15787801,35.099683 C6.71912624,33.6567396 5.93274326,31.7412679 5.9435234,29.7061358 L6.02783546,8.13568302 C6.02783546,6.87873962 5.79089929,6.00036226 5.32349504,5.53406038 C4.68099858,4.89307925 3.34687092,4.75847547 2.34091348,4.75847547 C1.04809078,4.75847547 3.40425532e-05,3.71289057 3.40425532e-05,2.42311698 C3.40425532e-05,1.1333434 1.04809078,0.0877584906 2.34091348,0.0877584906 C5.12979291,0.0877584906 7.18823262,0.788966038 8.63413333,2.2313434 C10.0306723,3.62470189 10.7097078,5.55896604 10.7097078,8.14485283 L10.6252823,29.7275321 C10.6210837,30.5136453 10.9236085,31.2505132 11.4771404,31.805683 C12.0305589,32.3607396 12.7675801,32.6664 13.5523745,32.6664 L45.5870979,32.6664 C46.8799206,32.6664 47.9279773,33.7119849 47.9279773,35.0018717 C47.9279773,36.2916453 46.8799206,37.3372302 45.5870979,37.3372302" id="Fill-1" fill="#F06A00" mask="url(#mask-2)"></path>
                                </g>
                                <g id="Group-6" transform="translate(35.063830, 42.169358)">
                                    <mask id="mask-4" fill="white">
                                        <use xlink:href="#path-3"></use>
                                    </mask>
                                    <g id="Clip-5"></g>
                                    <path d="M5.79579007,2.91273962 C5.79579007,4.49277736 4.51193191,5.77360755 2.92815887,5.77360755 C1.34438582,5.77360755 0.0605276596,4.49277736 0.0605276596,2.91273962 C0.0605276596,1.33270189 1.34438582,0.0518716981 2.92815887,0.0518716981 C4.51193191,0.0518716981 5.79579007,1.33270189 5.79579007,2.91273962" id="Fill-4" fill="#F06A00" mask="url(#mask-4)"></path>
                                </g>
                                <g id="Group-9" transform="translate(17.134752, 42.169358)">
                                    <mask id="mask-6" fill="white">
                                        <use xlink:href="#path-5"></use>
                                    </mask>
                                    <g id="Clip-8"></g>
                                    <path d="M5.75122837,2.91273962 C5.75122837,4.49277736 4.46737021,5.77360755 2.88359716,5.77360755 C1.29982411,5.77360755 0.0159659574,4.49277736 0.0159659574,2.91273962 C0.0159659574,1.33270189 1.29982411,0.0518716981 2.88359716,0.0518716981 C4.46737021,0.0518716981 5.75122837,1.33270189 5.75122837,2.91273962" id="Fill-7" fill="#F06A00" mask="url(#mask-6)"></path>
                                </g>
                                <path d="M39.5571518,27.9079358 L17.7909106,27.9079358 C16.4980879,27.9079358 15.4500312,26.8623509 15.4500312,25.5725774 C15.4500312,24.2828038 16.4980879,23.2372189 17.7909106,23.2372189 L39.5571518,23.2372189 C40.2753362,23.2372189 40.8596199,22.6542 40.8596199,21.9378226 L40.8596199,17.5304264 C40.8596199,16.8139358 40.2753362,16.2310302 39.5571518,16.2310302 L21.4343716,16.2310302 C18.1345135,16.2310302 15.4500312,13.552766 15.4500312,10.2608038 L15.4500312,5.97023774 C15.4500312,2.67827547 18.1345135,1.13207547e-05 21.4343716,1.13207547e-05 L40.8596199,1.13207547e-05 C42.152556,1.13207547e-05 43.2004993,1.04559623 43.2004993,2.33536981 C43.2004993,3.6252566 42.152556,4.67084151 40.8596199,4.67084151 L21.4343716,4.67084151 C20.7161872,4.67084151 20.1317901,5.25374717 20.1317901,5.97023774 L20.1317901,10.2608038 C20.1317901,10.9772943 20.7161872,11.5602 21.4343716,11.5602 L39.5571518,11.5602 C42.8568965,11.5602 45.5414922,14.2384642 45.5414922,17.5304264 L45.5414922,21.9378226 C45.5414922,25.2296717 42.8568965,27.9079358 39.5571518,27.9079358" id="Fill-10" fill="#F06A00"></path>
                            </g>
                        </g>
                        <g id="logo/texto/naranja" transform="translate(68.000000, 8.000000)">
                            <g id="Group-23">
                                <path d="M4.82947246,25.1031188 C3.25405217,24.674829 1.96848696,24.066829 0.972776812,23.278887 C0.625414493,23.0245101 0.37613913,22.7522783 0.225878261,22.4624232 C0.0749217391,22.1730319 2.31884058e-05,21.8082783 2.31884058e-05,21.3681623 C2.31884058e-05,20.7893797 0.179037681,20.2794667 0.538457971,19.8393507 C0.897414493,19.3994667 1.30831304,19.1791768 1.77184928,19.1791768 C2.02645797,19.1791768 2.27573333,19.2197565 2.51897971,19.3006841 C2.76222609,19.3823072 3.05741449,19.5265391 3.4050087,19.7350029 C4.40048696,20.3603942 5.40825507,20.8181333 6.42784928,21.1075246 C7.44674783,21.3973797 8.5699942,21.5418435 9.79805217,21.5418435 C11.3268638,21.5418435 12.4960232,21.2870029 13.3071536,20.7773217 C14.1175884,20.2681043 14.5231536,19.5383652 14.5231536,18.5885681 C14.5231536,17.870887 14.1465739,17.2914087 13.3941101,16.8512928 C12.6411826,16.4116406 11.3034435,15.9944812 9.38112464,15.6005101 C7.22692174,15.160858 5.50703768,14.6275246 4.22147246,14.0021333 C2.93590725,13.376742 1.99770435,12.600858 1.40709565,11.6742493 C0.816486957,10.7481043 0.521066667,9.6243942 0.521066667,8.30404638 C0.521066667,6.8448 0.94355942,5.53048116 1.78924058,4.3603942 C2.63468986,3.19123478 3.80454493,2.27598841 5.29857391,1.61558261 C6.7926029,0.95564058 8.47770435,0.625437681 10.3538783,0.625437681 C13.6426899,0.625437681 16.3527188,1.44793043 18.4841971,3.09245217 C18.8315594,3.37024928 19.0801391,3.65430725 19.2310957,3.94369855 C19.3815884,4.23355362 19.4569507,4.58624928 19.4569507,5.0034087 C19.4569507,5.58265507 19.2772406,6.09233623 18.9185159,6.53222029 C18.5590957,6.97233623 18.1481971,7.19216232 17.6848928,7.19216232 C17.4298203,7.19216232 17.1926029,7.15737971 16.9727768,7.08804638 C16.7522551,7.01848116 16.4454725,6.86822029 16.0519652,6.63633623 C15.1019362,6.03436522 14.2279652,5.58265507 13.4286609,5.2812058 C12.6295884,4.98045217 11.6160232,4.82949565 10.3886609,4.82949565 C8.97555942,4.82949565 7.86367536,5.1021913 7.05324058,5.64595942 C6.24211014,6.19065507 5.8370087,6.93755362 5.8370087,7.88711884 C5.8370087,8.44294493 5.99353043,8.90068406 6.30611014,9.2594087 C6.61892174,9.61906087 7.13996522,9.93697391 7.86970435,10.2150029 C8.59921159,10.4930319 9.63573333,10.782887 10.9792696,11.0836406 C14.1291826,11.7785971 16.3935304,12.6704232 17.7718493,13.758887 C19.1497043,14.8480464 19.8390957,16.3420754 19.8390957,18.2409739 C19.8390957,19.7236406 19.4277333,21.0326261 18.6057043,22.1672348 C17.7832116,23.3023072 16.6251826,24.1823072 15.1313855,24.8076986 C13.6373565,25.4330899 11.9054145,25.7459014 9.93695072,25.7459014 C8.10692174,25.7459014 6.40442899,25.5314087 4.82947246,25.1031188" id="Fill-1" fill="#F06A00"></path>
                                <path d="M40.060058,15.1487536 L40.060058,23.1747246 C40.060058,23.9392464 39.8223768,24.5416812 39.3477101,24.9815652 C38.8728116,25.4216812 38.230029,25.6415072 37.4195942,25.6415072 C36.6084638,25.6415072 35.9714783,25.4216812 35.5084058,24.9815652 C35.0448696,24.5416812 34.8136812,23.9392464 34.8136812,23.1747246 L34.8136812,15.0791884 C34.8136812,14.0602899 34.5991884,13.3017971 34.1708986,12.8034783 C33.741913,12.3056232 33.0764058,12.0565797 32.1729855,12.0565797 C31.084058,12.0565797 30.2098551,12.403942 29.549913,13.0988986 C28.8897391,13.7936232 28.5595362,14.7204638 28.5595362,15.8782609 L28.5595362,23.1747246 C28.5595362,23.9392464 28.3278841,24.5416812 27.8645797,24.9815652 C27.4010435,25.4216812 26.7642899,25.6415072 25.9538551,25.6415072 C25.1427246,25.6415072 24.499942,25.4216812 24.0255072,24.9815652 C23.5503768,24.5416812 23.3131594,23.9392464 23.3131594,23.1747246 L23.3131594,3.16197101 C23.3131594,2.44405797 23.5617391,1.86481159 24.060058,1.42446377 C24.557913,0.984811594 25.212058,0.764521739 26.0231884,0.764521739 C26.7874783,0.764521739 27.4010435,0.972985507 27.8645797,1.38991304 C28.3278841,1.80684058 28.5595362,2.36266667 28.5595362,3.05762319 L28.5595362,10.6318841 C29.1615072,9.75188406 29.9373913,9.08591304 30.8874203,8.6342029 C31.8369855,8.18249275 32.914087,7.95663768 34.1187246,7.95663768 C38.0795362,7.95663768 40.060058,10.354087 40.060058,15.1487536" id="Fill-3" fill="#F06A00"></path>
                                <path d="M44.7328,25.0162783 C44.2344812,24.5993507 43.9856696,23.9857855 43.9856696,23.174887 L43.9856696,10.4929159 C43.9856696,9.68248116 44.2402783,9.06845217 44.7501913,8.65152464 C45.2594087,8.2345971 45.8848,8.02613333 46.6263652,8.02613333 C47.3674667,8.02613333 47.986829,8.2345971 48.4851478,8.65152464 C48.9830029,9.06845217 49.2322783,9.68248116 49.2322783,10.4929159 L49.2322783,23.174887 C49.2322783,23.9857855 48.9830029,24.5993507 48.4851478,25.0162783 C47.986829,25.4332058 47.3674667,25.6416696 46.6263652,25.6416696 C45.8620754,25.6416696 45.2306551,25.4332058 44.7328,25.0162783 M44.4373797,4.5341913 C43.9042783,4.05975652 43.6383072,3.41697391 43.6383072,2.60584348 C43.6383072,1.7954087 43.9042783,1.15865507 44.4373797,0.694886957 C44.9700174,0.231814493 45.6995246,0.000162318841 46.6263652,0.000162318841 C47.5297855,0.000162318841 48.2534957,0.237843478 48.7979594,0.712278261 C49.3419594,1.1874087 49.6144232,1.8185971 49.6144232,2.60584348 C49.6144232,3.41697391 49.3477565,4.05975652 48.8153507,4.5341913 C48.2822493,5.00932174 47.5525101,5.24653913 46.6263652,5.24653913 C45.6995246,5.24653913 44.9700174,5.00932174 44.4373797,4.5341913" id="Fill-5" fill="#F06A00"></path>
                                <path d="M68.5154087,9.74601739 C69.5111188,10.9392928 70.0094377,12.7401043 70.0094377,15.1486841 L70.0094377,23.174887 C70.0094377,23.9391768 69.7715246,24.5418435 69.2970899,24.9814957 C68.8221913,25.4218435 68.1794087,25.6416696 67.368742,25.6416696 C66.5578435,25.6416696 65.920858,25.4218435 65.4577855,24.9814957 C64.9942493,24.5418435 64.7630609,23.9391768 64.7630609,23.174887 L64.7630609,15.3919304 C64.7630609,14.2339014 64.5485681,13.3886841 64.1202783,12.8555826 C63.6912928,12.3229449 63.0257855,12.0565101 62.1223652,12.0565101 C61.0334377,12.0565101 60.1592348,12.4038725 59.4990609,13.098829 C58.8391188,13.7937855 58.5089159,14.7203942 58.5089159,15.8784232 L58.5089159,23.174887 C58.5089159,23.9391768 58.2770319,24.5418435 57.8139594,24.9814957 C57.3504232,25.4218435 56.7136696,25.6416696 55.9030029,25.6416696 C55.0921043,25.6416696 54.4493217,25.4218435 53.9746551,24.9814957 C53.4997565,24.5418435 53.2625391,23.9391768 53.2625391,23.174887 L53.2625391,10.4233507 C53.2625391,9.70590145 53.5111188,9.12665507 54.0094377,8.68630725 C54.5072928,8.24642319 55.1500754,8.02613333 55.9377855,8.02613333 C56.6554667,8.02613333 57.240742,8.24062609 57.6924522,8.66891594 C58.1441623,9.09790145 58.3700174,9.64769855 58.3700174,10.3192348 L58.3700174,10.8057275 C58.9719884,9.87958261 59.7536696,9.17256812 60.7152928,8.68630725 C61.6762203,8.19981449 62.7591188,7.95656812 63.9637565,7.95656812 C66.0017855,7.95656812 67.5192348,8.5532058 68.5154087,9.74601739" id="Fill-7" fill="#F06A00"></path>
                                <g id="Group-11" transform="translate(73.043478, 7.849275)">
                                    <mask id="mask-8" fill="white">
                                        <use xlink:href="#path-7"></use>
                                    </mask>
                                    <g id="Clip-10"></g>
                                    <path d="M12.0619826,11.9205101 C12.7448812,11.1332638 13.0869101,10.0329739 13.0869101,8.61987246 C13.0869101,7.20723478 12.7448812,6.10068406 12.0619826,5.30161159 C11.3783884,4.50253913 10.4230261,4.1030029 9.19566377,4.1030029 C7.9676058,4.1030029 7.00667826,4.50253913 6.31172174,5.30161159 C5.6169971,6.10068406 5.2694029,7.20723478 5.2694029,8.61987246 C5.2694029,10.0329739 5.6169971,11.1332638 6.31172174,11.9205101 C7.00667826,12.7082203 7.9676058,13.1017275 9.19566377,13.1017275 C10.4230261,13.1017275 11.3783884,12.7082203 12.0619826,11.9205101 M17.5863884,0.854307246 C18.0608232,1.30601739 18.2987362,1.90265507 18.2987362,2.64375652 L18.2987362,15.7424232 C18.2987362,18.4985971 17.4994319,20.5832348 15.901287,21.9965681 C14.303142,23.4089739 11.9632,24.1159884 8.88285217,24.1159884 C6.28853333,24.1159884 4.15751884,23.6522203 2.4898087,22.7260754 C2.07288116,22.4944232 1.74824348,22.2103652 1.51705507,21.874829 C1.28517101,21.538829 1.16946087,21.1624812 1.16946087,20.7457855 C1.16946087,20.1665391 1.3085913,19.6914087 1.58638841,19.3210899 C1.86441739,18.9503072 2.23473623,18.7652638 2.69827246,18.7652638 C2.95288116,18.7652638 3.25433043,18.8174377 3.60169275,18.9215536 C3.94905507,19.0259014 4.30801159,19.1474087 4.6787942,19.2863072 C5.41989565,19.5643362 6.10325797,19.7841623 6.72864928,19.9464812 C7.35404058,20.1083362 8.02557681,20.1897275 8.74395362,20.1897275 C10.2259246,20.1897275 11.3264464,19.8537275 12.0445913,19.1821913 C12.7622725,18.5099594 13.1216928,17.4915246 13.1216928,16.1245681 L13.1216928,14.2483942 C12.6352,15.128858 11.9056928,15.8238145 10.9327072,16.3330319 C9.95995362,16.8429449 8.87102609,17.0975536 7.66685217,17.0975536 C6.18418551,17.0975536 4.86986667,16.7499594 3.7232,16.0552348 C2.57676522,15.3602783 1.67867826,14.3699014 1.03056232,13.0845681 C0.381750725,11.7990029 0.0578086957,10.3110029 0.0578086957,8.61987246 C0.0578086957,6.9292058 0.381750725,5.44074203 1.03056232,4.15517681 C1.67867826,2.86961159 2.57676522,1.87390145 3.7232,1.16688696 C4.86986667,0.4608 6.18418551,0.107408696 7.66685217,0.107408696 C8.84806957,0.107408696 9.91937391,0.356452174 10.8807652,0.854307246 C11.8416928,1.35262609 12.577229,2.04155362 13.0869101,2.92155362 L13.0869101,2.5741913 C13.0869101,1.83332174 13.3241275,1.24851014 13.799258,0.819524638 C14.2736928,0.391234783 14.905113,0.176742029 15.6928232,0.176742029 C16.4800696,0.176742029 17.1114899,0.402597101 17.5863884,0.854307246" id="Fill-9" fill="#F06A00" mask="url(#mask-8)"></path>
                                </g>
                                <path d="M109.200232,25.1031188 C107.624812,24.674829 106.339246,24.066829 105.343536,23.278887 C104.996174,23.0245101 104.746899,22.7522783 104.596638,22.4624232 C104.445681,22.1730319 104.370783,21.8082783 104.370783,21.3681623 C104.370783,20.7893797 104.549797,20.2794667 104.909217,19.8393507 C105.268174,19.3994667 105.679072,19.1791768 106.142609,19.1791768 C106.397217,19.1791768 106.646493,19.2197565 106.889739,19.3006841 C107.132986,19.3823072 107.428174,19.5265391 107.775768,19.7350029 C108.771246,20.3603942 109.779014,20.8181333 110.798609,21.1075246 C111.817507,21.3973797 112.940754,21.5418435 114.168812,21.5418435 C115.697623,21.5418435 116.866783,21.2870029 117.677913,20.7773217 C118.488348,20.2681043 118.893913,19.5383652 118.893913,18.5885681 C118.893913,17.870887 118.517333,17.2914087 117.76487,16.8512928 C117.011942,16.4116406 115.674203,15.9944812 113.751884,15.6005101 C111.597681,15.160858 109.877797,14.6275246 108.592232,14.0021333 C107.306667,13.376742 106.368464,12.600858 105.777855,11.6742493 C105.187246,10.7481043 104.891826,9.6243942 104.891826,8.30404638 C104.891826,6.8448 105.314319,5.53048116 106.16,4.3603942 C107.005449,3.19123478 108.175304,2.27598841 109.669333,1.61558261 C111.163362,0.95564058 112.848464,0.625437681 114.724638,0.625437681 C118.013449,0.625437681 120.723478,1.44793043 122.854957,3.09245217 C123.202319,3.37024928 123.450899,3.65430725 123.601855,3.94369855 C123.752348,4.23355362 123.82771,4.58624928 123.82771,5.0034087 C123.82771,5.58265507 123.648,6.09233623 123.289275,6.53222029 C122.929855,6.97233623 122.518957,7.19216232 122.055652,7.19216232 C121.80058,7.19216232 121.563362,7.15737971 121.343536,7.08804638 C121.123014,7.01848116 120.816232,6.86822029 120.422725,6.63633623 C119.472696,6.03436522 118.598725,5.58265507 117.79942,5.2812058 C117.000348,4.98045217 115.986783,4.82949565 114.75942,4.82949565 C113.346319,4.82949565 112.234435,5.1021913 111.424,5.64595942 C110.61287,6.19065507 110.207768,6.93755362 110.207768,7.88711884 C110.207768,8.44294493 110.36429,8.90068406 110.67687,9.2594087 C110.989681,9.61906087 111.510725,9.93697391 112.240464,10.2150029 C112.969971,10.4930319 114.006493,10.782887 115.350029,11.0836406 C118.499942,11.7785971 120.76429,12.6704232 122.142609,13.758887 C123.520464,14.8480464 124.209855,16.3420754 124.209855,18.2409739 C124.209855,19.7236406 123.798493,21.0326261 122.976464,22.1672348 C122.153971,23.3023072 120.995942,24.1823072 119.502145,24.8076986 C118.008116,25.4330899 116.276174,25.7459014 114.30771,25.7459014 C112.477681,25.7459014 110.775188,25.5314087 109.200232,25.1031188" id="Fill-12" fill="#F06A00"></path>
                                <path d="M144.430817,15.1487536 L144.430817,23.1747246 C144.430817,23.9392464 144.193136,24.5416812 143.71847,24.9815652 C143.243571,25.4216812 142.600788,25.6415072 141.790354,25.6415072 C140.979223,25.6415072 140.342238,25.4216812 139.879165,24.9815652 C139.415629,24.5416812 139.184441,23.9392464 139.184441,23.1747246 L139.184441,15.0791884 C139.184441,14.0602899 138.969948,13.3017971 138.541658,12.8034783 C138.112672,12.3056232 137.447165,12.0565797 136.543745,12.0565797 C135.454817,12.0565797 134.580614,12.403942 133.920672,13.0988986 C133.260499,13.7936232 132.930296,14.7204638 132.930296,15.8782609 L132.930296,23.1747246 C132.930296,23.9392464 132.698643,24.5416812 132.235339,24.9815652 C131.771803,25.4216812 131.135049,25.6415072 130.324614,25.6415072 C129.513484,25.6415072 128.870701,25.4216812 128.396267,24.9815652 C127.921136,24.5416812 127.683919,23.9392464 127.683919,23.1747246 L127.683919,3.16197101 C127.683919,2.44405797 127.932499,1.86481159 128.430817,1.42446377 C128.928672,0.984811594 129.582817,0.764521739 130.393948,0.764521739 C131.158238,0.764521739 131.771803,0.972985507 132.235339,1.38991304 C132.698643,1.80684058 132.930296,2.36266667 132.930296,3.05762319 L132.930296,10.6318841 C133.532267,9.75188406 134.308151,9.08591304 135.25818,8.6342029 C136.207745,8.18249275 137.284846,7.95663768 138.489484,7.95663768 C142.450296,7.95663768 144.430817,10.354087 144.430817,15.1487536" id="Fill-14" fill="#F06A00"></path>
                                <path d="M149.103536,25.0162783 C148.605217,24.5993507 148.356406,23.9857855 148.356406,23.174887 L148.356406,10.4929159 C148.356406,9.68248116 148.611014,9.06845217 149.120928,8.65152464 C149.630145,8.2345971 150.255536,8.02613333 150.997101,8.02613333 C151.738203,8.02613333 152.357565,8.2345971 152.855884,8.65152464 C153.353739,9.06845217 153.603014,9.68248116 153.603014,10.4929159 L153.603014,23.174887 C153.603014,23.9857855 153.353739,24.5993507 152.855884,25.0162783 C152.357565,25.4332058 151.738203,25.6416696 150.997101,25.6416696 C150.232812,25.6416696 149.601391,25.4332058 149.103536,25.0162783 M148.808116,4.5341913 C148.275014,4.05975652 148.009043,3.41697391 148.009043,2.60584348 C148.009043,1.7954087 148.275014,1.15865507 148.808116,0.694886957 C149.340754,0.231814493 150.070261,0.000162318841 150.997101,0.000162318841 C151.900522,0.000162318841 152.624232,0.237843478 153.168696,0.712278261 C153.712696,1.1874087 153.985159,1.8185971 153.985159,2.60584348 C153.985159,3.41697391 153.718493,4.05975652 153.186087,4.5341913 C152.652986,5.00932174 151.923246,5.24653913 150.997101,5.24653913 C150.070261,5.24653913 149.340754,5.00932174 148.808116,4.5341913" id="Fill-16" fill="#F06A00"></path>
                                <path d="M172.886214,9.74601739 C173.881925,10.9392928 174.380243,12.7401043 174.380243,15.1486841 L174.380243,23.174887 C174.380243,23.9391768 174.14233,24.5418435 173.667896,24.9814957 C173.192997,25.4218435 172.550214,25.6416696 171.739548,25.6416696 C170.928649,25.6416696 170.291664,25.4218435 169.828591,24.9814957 C169.365055,24.5418435 169.133867,23.9391768 169.133867,23.174887 L169.133867,15.3919304 C169.133867,14.2339014 168.919374,13.3886841 168.491084,12.8555826 C168.062099,12.3229449 167.396591,12.0565101 166.493171,12.0565101 C165.404243,12.0565101 164.530041,12.4038725 163.869867,13.098829 C163.209925,13.7937855 162.879722,14.7203942 162.879722,15.8784232 L162.879722,23.174887 C162.879722,23.9391768 162.647838,24.5418435 162.184765,24.9814957 C161.721229,25.4218435 161.084475,25.6416696 160.273809,25.6416696 C159.46291,25.6416696 158.820128,25.4218435 158.345461,24.9814957 C157.870562,24.5418435 157.633345,23.9391768 157.633345,23.174887 L157.633345,10.4233507 C157.633345,9.70590145 157.881925,9.12665507 158.380243,8.68630725 C158.878099,8.24642319 159.520881,8.02613333 160.308591,8.02613333 C161.026272,8.02613333 161.611548,8.24062609 162.063258,8.66891594 C162.514968,9.09790145 162.740823,9.64769855 162.740823,10.3192348 L162.740823,10.8057275 C163.342794,9.87958261 164.124475,9.17256812 165.086099,8.68630725 C166.047026,8.19981449 167.129925,7.95656812 168.334562,7.95656812 C170.372591,7.95656812 171.890041,8.5532058 172.886214,9.74601739" id="Fill-18" fill="#F06A00"></path>
                                <g id="Group-22" transform="translate(177.391304, 7.849275)">
                                    <mask id="mask-10" fill="white">
                                        <use xlink:href="#path-9"></use>
                                    </mask>
                                    <g id="Clip-21"></g>
                                    <path d="M12.0849159,11.9205101 C12.7678145,11.1332638 13.1098435,10.0329739 13.1098435,8.61987246 C13.1098435,7.20723478 12.7678145,6.10068406 12.0849159,5.30161159 C11.4013217,4.50253913 10.4459594,4.1030029 9.2185971,4.1030029 C7.99053913,4.1030029 7.02961159,4.50253913 6.33465507,5.30161159 C5.63993043,6.10068406 5.29233623,7.20723478 5.29233623,8.61987246 C5.29233623,10.0329739 5.63993043,11.1332638 6.33465507,11.9205101 C7.02961159,12.7082203 7.99053913,13.1017275 9.2185971,13.1017275 C10.4459594,13.1017275 11.4013217,12.7082203 12.0849159,11.9205101 M17.6093217,0.854307246 C18.0837565,1.30601739 18.3216696,1.90265507 18.3216696,2.64375652 L18.3216696,15.7424232 C18.3216696,18.4985971 17.5223652,20.5832348 15.9242203,21.9965681 C14.3260754,23.4089739 11.9861333,24.1159884 8.90578551,24.1159884 C6.31146667,24.1159884 4.18045217,23.6522203 2.51274203,22.7260754 C2.09581449,22.4944232 1.77117681,22.2103652 1.53998841,21.874829 C1.30810435,21.538829 1.1923942,21.1624812 1.1923942,20.7457855 C1.1923942,20.1665391 1.33152464,19.6914087 1.60932174,19.3210899 C1.88735072,18.9503072 2.25766957,18.7652638 2.7212058,18.7652638 C2.97581449,18.7652638 3.27726377,18.8174377 3.62462609,18.9215536 C3.97198841,19.0259014 4.33094493,19.1474087 4.70172754,19.2863072 C5.44282899,19.5643362 6.1261913,19.7841623 6.75158261,19.9464812 C7.37697391,20.1083362 8.04851014,20.1897275 8.76688696,20.1897275 C10.248858,20.1897275 11.3493797,19.8537275 12.0675246,19.1821913 C12.7852058,18.5099594 13.1446261,17.4915246 13.1446261,16.1245681 L13.1446261,14.2483942 C12.6581333,15.128858 11.9286261,15.8238145 10.9556406,16.3330319 C9.98288696,16.8429449 8.89395942,17.0975536 7.68978551,17.0975536 C6.20711884,17.0975536 4.8928,16.7499594 3.74613333,16.0552348 C2.59969855,15.3602783 1.70161159,14.3699014 1.05349565,13.0845681 C0.404684058,11.7990029 0.080742029,10.3110029 0.080742029,8.61987246 C0.080742029,6.9292058 0.404684058,5.44074203 1.05349565,4.15517681 C1.70161159,2.86961159 2.59969855,1.87390145 3.74613333,1.16688696 C4.8928,0.4608 6.20711884,0.107408696 7.68978551,0.107408696 C8.8710029,0.107408696 9.94230725,0.356452174 10.9036986,0.854307246 C11.8646261,1.35262609 12.6001623,2.04155362 13.1098435,2.92155362 L13.1098435,2.5741913 C13.1098435,1.83332174 13.3470609,1.24851014 13.8221913,0.819524638 C14.2966261,0.391234783 14.9280464,0.176742029 15.7157565,0.176742029 C16.5030029,0.176742029 17.1344232,0.402597101 17.6093217,0.854307246" id="Fill-20" fill="#F06A00" mask="url(#mask-10)"></path>
                                </g>
                            </g>
                        </g>
                    </g>
                </g>
            </g>
        </g>
    </g>
</svg>