<?xml version="1.0" encoding="UTF-8"?>
<svg width="160px" height="160px" viewBox="0 0 160 160" version="1.1" xmlns="http://www.w3.org/2000/svg" xmlns:xlink="http://www.w3.org/1999/xlink">
    <!-- Generator: Sketch 58 (84663) - https://sketch.com -->
    <title>3</title>
    <desc>Created with Sketch.</desc>
    <defs>
        <polygon id="path-1" points="0.000498701299 0.684883117 43.2083117 0.684883117 43.2083117 63.1682494 0.000498701299 63.1682494"></polygon>
    </defs>
    <g id="Page-1" stroke="none" stroke-width="1" fill="none" fill-rule="evenodd">
        <g id="Desktop-HD-Copy-3" transform="translate(-783.000000, -2069.000000)">
            <g id="3" transform="translate(783.000000, 2069.000000)">
                <circle id="Oval-Copy-12" fill-opacity="0.5" fill="#FFFFFF" opacity="0.40297154" cx="80" cy="80" r="80"></circle>
                <g id="Group-18" transform="translate(58.000000, 48.000000)">
                    <path d="M24.6226286,14.3744831 L18.7229922,14.3744831 C17.5751481,14.3744831 16.6450701,13.4444052 16.6450701,12.296561 C16.6450701,11.1487169 17.5751481,10.218639 18.7229922,10.218639 L24.6226286,10.218639 C25.7704727,10.218639 26.7005506,11.1487169 26.7005506,12.296561 C26.7005506,13.4444052 25.7704727,14.3744831 24.6226286,14.3744831" id="Fill-1" fill="#FFFFFF"></path>
                    <path d="M32.1656519,24.3634701 L11.0431584,24.3634701 C9.89531429,24.3634701 8.96523636,23.4333922 8.96523636,22.2855481 C8.96523636,21.1377039 9.89531429,20.207626 11.0431584,20.207626 L32.1656519,20.207626 C33.3134961,20.207626 34.243574,21.1377039 34.243574,22.2855481 C34.243574,23.4333922 33.3134961,24.3634701 32.1656519,24.3634701" id="Fill-3" fill="#FFFFFF"></path>
                    <path d="M32.1656519,34.2121558 L11.0431584,34.2121558 C9.89531429,34.2121558 8.96523636,33.2820779 8.96523636,32.1342338 C8.96523636,30.9863896 9.89531429,30.0563117 11.0431584,30.0563117 L32.1656519,30.0563117 C33.3134961,30.0563117 34.243574,30.9863896 34.243574,32.1342338 C34.243574,33.2820779 33.3134961,34.2121558 32.1656519,34.2121558" id="Fill-5" fill="#FFFFFF"></path>
                    <path d="M32.1656519,44.296561 L11.0431584,44.296561 C9.89531429,44.296561 8.96523636,43.3664831 8.96523636,42.218639 C8.96523636,41.0707948 9.89531429,40.1407169 11.0431584,40.1407169 L32.1656519,40.1407169 C33.3134961,40.1407169 34.243574,41.0707948 34.243574,42.218639 C34.243574,43.3664831 33.3134961,44.296561 32.1656519,44.296561" id="Fill-7" fill="#FFFFFF"></path>
                    <path d="M32.0268468,54.2852156 L30.600561,54.2852156 C29.4527169,54.2852156 28.522639,53.3551377 28.522639,52.2072935 C28.522639,51.0594494 29.4527169,50.1293714 30.600561,50.1293714 L32.0268468,50.1293714 C33.1746909,50.1293714 34.1047688,51.0594494 34.1047688,52.2072935 C34.1047688,53.3551377 33.1746909,54.2852156 32.0268468,54.2852156" id="Fill-9" fill="#FFFFFF"></path>
                    <path d="M12.745226,54.2852156 L11.3189403,54.2852156 C10.1710961,54.2852156 9.24101818,53.3551377 9.24101818,52.2072935 C9.24101818,51.0594494 10.1710961,50.1293714 11.3189403,50.1293714 L12.745226,50.1293714 C13.8930701,50.1293714 14.8231481,51.0594494 14.8231481,52.2072935 C14.8231481,53.3551377 13.8930701,54.2852156 12.745226,54.2852156" id="Fill-11" fill="#FFFFFF"></path>
                    <path d="M22.3864519,54.2852156 L20.9593351,54.2852156 C19.8114909,54.2852156 18.881413,53.3551377 18.881413,52.2072935 C18.881413,51.0594494 19.8114909,50.1293714 20.9593351,50.1293714 L22.3864519,50.1293714 C23.5342961,50.1293714 24.464374,51.0594494 24.464374,52.2072935 C24.464374,53.3551377 23.5342961,54.2852156 22.3864519,54.2852156" id="Fill-13" fill="#FFFFFF"></path>
                    <g id="Group-17" transform="translate(0.000000, 0.146701)">
                        <mask id="mask-2" fill="white">
                            <use xlink:href="#path-1"></use>
                        </mask>
                        <g id="Clip-16"></g>
                        <path d="M38.9798234,0.684301299 L4.22865455,0.684301299 C1.89307013,0.684301299 0.000498701299,2.5777039 0.000498701299,4.91328831 L0.000498701299,58.9392623 C0.000498701299,61.2756779 1.89307013,63.1682494 4.22865455,63.1682494 L38.9798234,63.1682494 C41.3154078,63.1682494 43.2088104,61.2756779 43.2088104,58.9392623 L43.2088104,4.91328831 C43.2088104,2.5777039 41.3154078,0.684301299 38.9798234,0.684301299 M38.9798234,4.84014545 C39.0197195,4.84014545 39.0529662,4.87339221 39.0529662,4.91328831 L39.0529662,58.9392623 C39.0529662,58.9799896 39.0197195,59.0124052 38.9798234,59.0124052 L4.22865455,59.0124052 C4.18875844,59.0124052 4.15634286,58.9799896 4.15634286,58.9392623 L4.15634286,4.91328831 C4.15634286,4.87339221 4.18875844,4.84014545 4.22865455,4.84014545 L38.9798234,4.84014545" id="Fill-15" fill="#FFFFFF" mask="url(#mask-2)"></path>
                    </g>
                </g>
            </g>
        </g>
    </g>
</svg>