<?xml version="1.0" encoding="UTF-8"?>
<svg width="160px" height="160px" viewBox="0 0 160 160" version="1.1" xmlns="http://www.w3.org/2000/svg" xmlns:xlink="http://www.w3.org/1999/xlink">
    <!-- Generator: Sketch 58 (84663) - https://sketch.com -->
    <title>4</title>
    <desc>Created with Sketch.</desc>
    <defs>
        <polygon id="path-1" points="0 0.415501299 62.4839481 0.415501299 62.4839481 55.6882286 0 55.6882286"></polygon>
        <polygon id="path-3" points="0.571428571 0.414753247 31.835013 0.414753247 31.835013 4.57018182 0.571428571 4.57018182"></polygon>
    </defs>
    <g id="Page-1" stroke="none" stroke-width="1" fill="none" fill-rule="evenodd">
        <g id="Desktop-HD-Copy-3" transform="translate(-1067.000000, -2069.000000)">
            <g id="4" transform="translate(1067.000000, 2069.000000)">
                <g id="Group-22-Copy-3" fill="#FFFFFF" fill-opacity="0.5" opacity="0.40297154">
                    <circle id="Oval-Copy-12" cx="80" cy="80" r="80"></circle>
                </g>
                <g id="Group-7" transform="translate(48.000000, 48.000000)">
                    <g id="Group-3" transform="translate(0.000000, 7.897351)">
                        <mask id="mask-2" fill="white">
                            <use xlink:href="#path-1"></use>
                        </mask>
                        <g id="Clip-2"></g>
                        <path d="M58.3287688,24.1769558 L48.9415481,24.1769558 L48.9415481,16.797839 C48.9415481,16.2933195 48.7578597,15.8054234 48.4253922,15.4264104 L38.8927169,4.57134545 L45.1190026,4.57134545 L58.3287688,18.0288 L58.3287688,24.1769558 Z M52.7416519,51.5323844 L46.8627948,51.5323844 L46.8627948,36.1906701 C46.8627948,33.8692156 44.9810286,31.9874494 42.659574,31.9874494 L19.8240416,31.9874494 C17.5034182,31.9874494 15.6208208,33.8692156 15.6208208,36.1906701 L15.6208208,51.5323844 L9.88908052,51.5323844 L9.88908052,28.3328 L52.7416519,28.3328 L52.7416519,51.5323844 Z M29.1638857,51.4542545 L19.7766649,51.4542545 L19.7766649,36.1906701 C19.7766649,36.1649039 19.7982753,36.1432935 19.8240416,36.1432935 L29.1638857,36.1432935 L29.1638857,51.4542545 Z M42.7069506,51.4542545 L33.3197299,51.4542545 L33.3197299,36.1432935 L42.659574,36.1432935 C42.6861714,36.1432935 42.7069506,36.1649039 42.7069506,36.1906701 L42.7069506,51.4542545 Z M4.15567792,18.0288 L17.3654442,4.57134545 L23.7089247,4.57134545 L14.1762494,15.4264104 C13.8437818,15.8054234 13.6600935,16.2933195 13.6600935,16.797839 L13.6600935,24.1769558 L4.15567792,24.1769558 L4.15567792,18.0288 Z M44.7857039,24.1769558 L17.8159377,24.1769558 L17.8159377,17.5799688 L29.2395221,4.57134545 L33.3621195,4.57134545 L44.7857039,17.5799688 L44.7857039,24.1769558 Z M62.484613,16.3298909 L46.8627948,0.415501299 L15.6208208,0.415501299 L-0.000166233766,16.3298909 L-0.000166233766,28.3328 L5.73323636,28.3328 L5.73323636,53.6103065 C5.73323636,54.7581506 6.66331429,55.6882286 7.81115844,55.6882286 L54.819574,55.6882286 C55.9674182,55.6882286 56.8974961,54.7581506 56.8974961,53.6103065 L56.8974961,28.3328 L62.484613,28.3328 L62.484613,16.3298909 Z" id="Fill-1" fill="#FFFFFF" mask="url(#mask-2)"></path>
                    </g>
                    <g id="Group-6" transform="translate(14.961039, 0.416831)">
                        <mask id="mask-4" fill="white">
                            <use xlink:href="#path-3"></use>
                        </mask>
                        <g id="Clip-5"></g>
                        <path d="M2.64935065,4.57018182 L29.7570909,4.57018182 C30.9049351,4.57018182 31.835013,3.6401039 31.835013,2.49225974 C31.835013,1.34441558 30.9049351,0.414337662 29.7570909,0.414337662 L2.64935065,0.414337662 C1.50150649,0.414337662 0.571428571,1.34441558 0.571428571,2.49225974 C0.571428571,3.6401039 1.50150649,4.57018182 2.64935065,4.57018182" id="Fill-4" fill="#FFFFFF" mask="url(#mask-4)"></path>
                    </g>
                </g>
            </g>
        </g>
    </g>
</svg>