<svg width="24" height="24" viewBox="0 0 24 24" fill="none" xmlns="http://www.w3.org/2000/svg">
<g clip-path="url(#clip0)">
<path d="M8.3834 21.752H2.24601V2.248H8.3834C8.80228 2.248 9.1314 1.91844 9.1314 1.499C9.1314 1.07956 8.80228 0.75 8.3834 0.75H1.49801C1.07912 0.75 0.75 1.07956 0.75 1.499V22.501C0.75 22.9204 1.07912 23.25 1.49801 23.25H8.3834C8.80228 23.25 9.1314 22.9204 9.1314 22.501C9.1314 22.0816 8.80228 21.752 8.3834 21.752Z" fill="black"/>
<path d="M23.0106 11.5356L15.8298 4.31522C15.5306 4.01562 15.0519 4.01562 14.7826 4.31522C14.4834 4.61482 14.4834 5.09418 14.7826 5.36382L20.7068 11.2959H5.17818C4.7593 11.2959 4.43018 11.6255 4.43018 12.0449C4.43018 12.4644 4.7593 12.7939 5.17818 12.7939H20.6769L14.7527 18.756C14.4534 19.0556 14.4534 19.5349 14.7527 19.8046C15.0519 20.1042 15.5306 20.1042 15.7999 19.8046L23.0106 12.5842C23.1602 12.4344 23.2201 12.2546 23.2201 12.0449C23.2201 11.8352 23.1602 11.6854 23.0106 11.5356Z" fill="black"/>
</g>
<defs>
<clipPath id="clip0">
<rect x="0.75" y="0.75" width="22.5" height="22.5" fill="white"/>
</clipPath>
</defs>
</svg>
