<?xml version="1.0" encoding="UTF-8"?>
<svg width="88px" height="97px" viewBox="0 0 88 97" version="1.1" xmlns="http://www.w3.org/2000/svg" xmlns:xlink="http://www.w3.org/1999/xlink">
    <!-- Generator: Sketch 58 (84663) - https://sketch.com -->
    <title>Group 21</title>
    <desc>Created with Sketch.</desc>
    <defs>
        <polygon id="path-1" points="0.06528 0.54656 82.82128 0.54656 82.82128 95.2 0.06528 95.2"></polygon>
        <polygon id="path-3" points="0 0.61296 68.0965285 0.61296 68.0965285 23.10576 0 23.10576"></polygon>
    </defs>
    <g id="Page-1" stroke="none" stroke-width="1" fill="none" fill-rule="evenodd">
        <g id="Desktop-HD-Copy-3" transform="translate(-318.000000, -880.000000)">
            <g id="Group-21" transform="translate(318.000000, 880.000000)">
                <path d="M84.55768,3.93056 C84.75128,3.95056 84.93848,3.96976 85.11768,3.98976 C84.85208,4.93776 84.58968,5.81376 84.50328,6.08256 C84.48328,6.13136 84.46568,6.18016 84.44968,6.23056 C84.48408,5.52176 84.52008,4.75616 84.55768,3.93056 M81.49768,22.46416 C81.50968,21.57456 81.53848,20.76736 81.58248,20.48816 C81.68808,20.05296 82.54968,18.11856 82.96488,17.18816 C83.36728,16.28416 83.60088,15.75776 83.71768,15.43456 C83.72808,15.40656 83.74008,15.37456 83.75208,15.33216 C83.65048,16.53856 83.56248,17.42176 83.50168,17.76496 C83.39448,18.02976 83.13368,18.61616 82.89928,19.14096 C82.19608,20.72096 81.75208,21.74656 81.49768,22.46416 M78.62088,35.06256 C78.79608,33.94896 78.89128,33.32976 78.91208,32.92176 C79.03928,32.49056 79.61928,31.34736 79.87368,30.84736 C80.03608,30.52816 80.17688,30.24896 80.27128,30.04816 C80.62008,29.30096 80.89928,28.62416 81.10728,28.01856 C81.11768,28.55776 81.13768,29.01856 81.16568,29.31696 C81.11448,29.56416 80.91208,30.18416 80.18968,31.73376 C80.08968,31.94736 79.97048,32.18176 79.83448,32.44976 C79.17688,33.74256 78.77848,34.58816 78.58968,35.26256 C78.60088,35.19296 78.61128,35.12576 78.62088,35.06256 M76.68888,51.96656 C76.62568,52.37616 76.56008,52.73616 76.50248,52.89456 C76.43688,53.05056 76.16488,53.57376 75.86168,54.14896 C76.14488,53.39696 76.45048,52.58816 76.68888,51.96656 M20.74728,90.55776 C21.00728,90.38016 21.24808,90.18576 21.46168,89.97936 C22.18168,89.45616 25.62648,88.10256 26.34808,87.96416 C26.47288,87.94416 26.62488,87.91616 26.79848,87.88256 C25.83528,88.33936 24.87528,88.92576 23.98408,89.47136 C23.34808,89.86016 22.40648,90.43616 22.01848,90.57776 C21.90968,90.57616 21.07368,90.56176 20.74728,90.55776 M7.09368,93.11616 L7.43688,93.02736 C8.55368,92.74016 10.24088,92.30656 11.41368,91.91536 C11.49688,91.88816 11.87288,91.78496 13.00168,91.72336 C11.69608,92.17456 10.11608,92.71616 9.44888,92.89456 C8.89128,93.04336 8.02488,93.28496 7.13928,93.57296 C7.12488,93.42416 7.10968,93.27216 7.09368,93.11616" id="Fill-1" fill="#333333"></path>
                <g id="Group-5" transform="translate(4.800000, 1.200000)">
                    <mask id="mask-2" fill="white">
                        <use xlink:href="#path-1"></use>
                    </mask>
                    <g id="Clip-4"></g>
                    <path d="M77.90768,0.54656 C77.85888,0.82416 77.83248,0.99616 77.83248,0.99616 C77.83248,0.99616 77.32448,12.75936 77.03728,13.55296 C76.75008,14.34576 74.95328,18.09616 74.80928,18.96176 C74.66528,19.82656 74.65488,23.86176 74.75968,24.54256 C74.86448,25.22416 74.02528,27.21616 73.65888,28.00256 C73.29088,28.78896 72.11728,30.89696 72.11728,31.56336 C72.11728,32.23136 71.32768,36.23536 71.38848,37.38816 C71.44928,38.54096 71.26688,43.81856 71.08528,45.03136 C70.90288,46.24496 70.72128,48.30736 70.41808,49.03616 C70.11488,49.76336 68.59728,53.82816 68.29488,54.61696 C67.99088,55.40576 67.80608,56.60816 67.78608,57.45616 C67.73088,59.86496 66.96928,61.38656 66.69728,63.43936 C66.60208,64.15776 66.79168,66.79696 66.60208,67.25856 C66.37648,67.80896 65.18208,73.04896 65.21808,73.20176 C65.37728,73.86496 56.96528,77.13696 52.23008,77.61136 C47.49488,78.08416 44.41728,78.24336 43.47008,78.71616 C42.52208,79.18896 37.86608,81.95136 36.84048,81.95136 C36.15648,81.95136 34.13888,81.84656 32.65968,81.84656 C31.92128,81.84656 31.31568,81.87216 31.07968,81.95136 C30.36848,82.18816 26.73728,83.53056 25.86928,83.76736 C25.00128,84.00416 22.15968,84.63536 21.21248,84.79296 C20.26688,84.95056 16.00448,86.60816 15.29408,87.31856 C14.58368,88.02896 13.32128,88.50256 12.45328,88.50256 C12.10528,88.50256 11.22848,88.47696 10.21008,88.47696 C8.68128,88.47696 6.83328,88.53376 5.98128,88.81856 C4.55968,89.29216 2.20048,89.86736 1.40368,90.08096 C0.60608,90.29296 0.73888,90.24496 0.06528,90.45376 C0.49888,92.75056 0.43488,95.20016 0.62048,95.20016 C0.62768,95.20016 0.63728,95.19536 0.64688,95.18416 C0.86528,94.94416 3.99648,93.93856 5.16528,93.62656 C6.33328,93.31456 9.56368,92.15616 10.96528,91.68896 C11.80608,91.40896 13.62368,91.35296 15.13088,91.35296 C16.14048,91.35296 17.01088,91.37856 17.35488,91.37856 C18.61728,91.37856 22.17248,88.30416 24.52288,87.91296 C25.45728,87.75776 28.06448,86.83856 28.92128,86.60416 C29.77808,86.37136 32.47488,85.04656 33.76688,84.81296 C34.19808,84.73536 34.89328,84.70896 35.66768,84.70896 C37.21568,84.70896 39.07568,84.81296 39.75088,84.81296 C40.76288,84.81296 45.35888,82.08656 46.29328,81.61936 C47.22848,81.15216 50.19488,81.34096 54.86928,80.45616 C59.54368,79.57056 67.91808,76.65456 67.76128,76.17536 C67.71408,76.02896 68.90608,70.85216 69.12768,70.30816 C69.31568,69.85296 69.12768,67.24736 69.22208,66.53936 C69.49088,64.51216 70.24208,63.01136 70.29648,60.63216 C70.31648,59.79616 70.49888,58.60816 70.79808,57.82896 C71.09808,57.05136 73.25408,53.17056 73.55328,52.45136 C73.85248,51.73296 74.03088,49.69696 74.21168,48.50016 C74.39088,47.30256 74.47088,42.09216 74.41248,40.95456 C74.35248,39.81696 75.65728,35.60096 75.65728,34.94176 C75.65728,34.28336 76.81808,32.20176 77.18048,31.42656 C77.54208,30.65056 78.46768,28.68336 78.36528,28.01216 C78.26208,27.33776 78.27168,23.35536 78.41488,22.50176 C78.55648,21.64656 80.32928,17.94496 80.61408,17.16256 C80.89728,16.37936 81.55648,5.63616 81.55648,5.63616 C81.55648,5.63696 81.55648,5.63776 81.55728,5.63776 C81.57968,5.63776 82.47888,2.63376 82.82128,1.10416 C82.03728,0.95376 80.10528,0.73936 77.90768,0.54656" id="Fill-3" fill="#333333" mask="url(#mask-2)"></path>
                </g>
                <path d="M14.84752,72.6028 C13.94272,71.8268 13.25072,71.3292 12.84832,71.0596 C12.41712,70.5628 11.75152,70.1492 10.87392,70.1492 C10.16752,70.1492 9.48592,70.4236 8.84832,70.966 C8.66352,71.1228 8.46512,71.3052 8.25712,71.4988 C7.90912,71.8204 7.09872,72.5708 6.76752,72.6108 C6.76672,72.6044 6.70992,72.5756 6.61552,72.4924 C6.42432,72.3228 6.19872,72.1788 5.91312,71.9956 C5.65152,71.8284 4.92752,71.3652 4.63392,71.0276 C4.73472,70.7572 4.77632,70.4668 4.75392,70.1764 C4.66832,69.074 4.02752,68.3972 3.66752,68.026 C3.64512,66.9556 3.72192,63.7084 3.82112,60.826 C3.82832,60.6396 3.80752,60.4524 3.76272,60.2716 C3.55232,59.43 3.04352,58.77 2.38432,58.4164 C3.32432,57.5476 4.01392,56.7644 3.92192,55.3836 C3.91792,55.3236 3.91392,55.2612 3.91072,55.198 C4.25632,55.4052 4.78512,55.6428 5.42192,55.6428 C6.30512,55.6428 6.91152,55.2116 7.31312,54.9252 C7.75872,54.6084 8.31312,54.2132 10.00112,54.2132 L10.18912,54.2132 C10.72592,54.2132 11.48432,54.6396 12.27872,55.386 C12.32672,55.4516 12.38192,55.5348 12.44432,55.626 C13.07232,56.5428 13.93232,57.7988 15.36912,57.7988 L15.36992,57.7988 C16.22752,57.798 16.99232,57.326 17.41792,56.5364 C17.43072,56.5124 17.44352,56.4876 17.45552,56.4628 C17.54992,56.2692 17.63152,56.0652 17.70992,55.8628 C18.58112,56.6892 19.35472,57.3844 20.49872,57.3844 C20.60912,57.3844 20.71872,57.3772 20.82752,57.3628 C21.05552,57.3676 21.41232,57.3996 21.82272,57.4332 C22.01552,57.4492 22.21872,57.466 22.42592,57.4812 C22.85312,57.6052 23.30112,57.6684 23.76272,57.6684 C24.15872,57.6684 24.54352,57.6228 24.91232,57.5324 C24.94912,57.53 24.98592,57.5268 25.02272,57.5228 C25.31712,57.49 25.55792,57.4396 25.78112,57.3644 C26.07472,57.2668 26.45952,57.1028 26.99152,56.8748 C27.95152,56.4652 30.19872,55.5044 31.05952,55.5044 C32.02032,55.5412 32.28192,55.8036 32.61312,56.1356 C33.29632,56.8172 34.09232,57.4948 35.64912,57.6516 C35.74192,57.6604 35.83472,57.6652 35.92912,57.6652 C37.39072,57.6652 38.43552,56.5956 39.19872,55.814 C39.33552,55.674 39.45552,55.5436 39.55952,55.4588 L39.63632,55.4084 C39.73152,55.3436 39.90112,55.2276 40.03152,55.1588 C40.92832,55.9484 43.38832,57.4404 44.58832,57.7396 C44.80272,57.794 45.02992,57.8212 45.25952,57.8212 C45.77792,57.8212 46.21872,57.6812 46.60672,57.5572 C46.80272,57.4948 47.03552,57.4196 47.32672,57.354 C47.95152,57.2164 48.82112,56.8708 50.07552,56.3604 C50.47152,56.1996 50.99872,55.9852 51.23312,55.9028 C51.30192,55.8948 51.59072,55.8476 51.65712,55.838 C52.24592,57.0156 53.30512,57.1108 53.62992,57.1108 C54.27712,57.1108 54.88112,56.8156 55.30352,56.314 C55.42992,56.8012 55.73472,57.2316 56.16272,57.5052 C56.49152,57.7164 56.87072,57.8268 57.25472,57.8268 L57.26672,57.8268 C57.31152,59.926 57.40272,63.446 57.41552,63.9396 C57.40752,64.5204 57.61952,65.0852 58.00912,65.5084 C58.43312,65.9692 59.01952,66.2228 59.66032,66.2228 C59.98832,66.2228 60.32592,66.154 60.66352,66.0188 C61.20912,65.8004 62.56352,64.9556 63.71472,64.2108 C63.75712,64.2068 63.80272,64.2036 63.84992,64.2036 C63.88672,64.2036 63.91632,64.2052 63.94032,64.2076 C64.20272,64.93 64.86672,65.4772 65.62112,65.5692 C65.80112,65.6372 66.05792,65.8212 66.10592,65.922 C66.10512,65.9212 66.10432,65.9212 66.10352,65.9212 C66.09392,65.9212 66.06592,66.0116 65.98112,66.1604 C64.83472,67.5892 61.34272,69.51 58.30352,70.8196 C58.25632,70.8292 58.17232,70.8444 58.08992,70.8484 L57.70512,70.5348 C56.76912,69.766 56.04192,69.1732 55.57632,68.8412 C55.12352,68.4316 54.49872,68.1996 53.81152,68.1996 C53.26752,68.1996 52.69952,68.3388 52.07392,68.6252 C51.09552,69.074 46.16272,71.138 45.36672,71.4708 C45.34192,71.4748 45.29072,71.4836 45.23392,71.486 C45.15952,71.3852 45.09232,71.2812 45.02672,71.1828 C44.61712,70.5724 43.85632,69.4356 42.34752,69.4356 C41.77632,69.4356 41.19712,69.6156 40.62432,69.9708 C39.35632,70.7596 37.41792,71.61 36.85152,71.626 C36.51392,71.586 35.02432,70.7652 32.96832,67.6348 C32.65392,67.1244 31.93872,65.9692 30.61152,65.9692 C30.06112,65.9692 29.46672,66.226 29.08912,66.6268 C28.41632,67.3412 28.46912,68.2396 28.48672,68.5356 C28.53312,69.3124 28.54352,70.578 28.54912,71.5524 C28.08272,70.9932 27.38272,70.6548 26.60592,70.6548 C26.03152,70.6548 25.49632,70.834 25.06592,71.1444 C24.43232,70.198 23.57632,70.0388 23.06592,70.0388 L23.04992,70.0388 C22.96992,69.9236 22.83712,69.6844 22.69632,69.2364 C22.65472,69.1052 22.59952,68.9788 22.53232,68.8588 C22.05392,68.0076 21.23312,67.5196 20.28192,67.5196 C19.78832,67.5196 19.35152,67.6524 18.98032,67.7956 C17.81152,68.1276 15.90032,69.194 15.42752,71.3316 C15.23552,72.1892 15.13472,72.39 15.11632,72.4212 C15.07632,72.47 15.02112,72.5196 14.95952,72.5796 C14.93472,72.6036 14.91392,72.6244 14.89552,72.642 C14.88032,72.63 14.86432,72.6172 14.84752,72.6028" id="Fill-6" fill="#333333"></path>
                <g id="Group-10" transform="translate(0.000000, 51.600000)">
                    <mask id="mask-4" fill="white">
                        <use xlink:href="#path-3"></use>
                    </mask>
                    <g id="Clip-9"></g>
                    <path d="M9.99984,0.61296 C6.57584,0.61296 6.18384,2.04336 5.42144,2.04336 C5.22544,2.04336 5.00464,1.94816 4.70144,1.71056 C4.33184,1.44976 3.97824,1.35056 3.65344,1.35056 C2.60384,1.35056 1.85824,2.39136 1.85824,2.39136 C1.85824,2.39136 1.88384,3.29456 1.92624,3.91616 C1.96784,4.53776 1.61824,4.81056 0.48624,5.83936 C-0.56976,6.80016 0.33264,8.59456 0.94624,8.59456 C0.99024,8.59456 1.03264,8.58496 1.07264,8.56576 C1.13584,8.54176 1.19504,8.53056 1.24944,8.53056 C1.66544,8.53056 1.82224,9.15776 1.82224,9.15776 C1.82224,9.15776 1.56144,16.72416 1.71104,17.02256 C1.82624,17.69376 2.70144,17.97376 2.75984,18.73056 C1.77184,20.56176 4.82624,21.97936 5.29824,22.39776 C5.80064,22.83696 6.29104,23.01136 6.76304,23.01136 C8.09024,23.01136 9.26944,21.63296 10.14384,20.88976 C10.44224,20.63536 10.68384,20.54896 10.87424,20.54896 C11.27664,20.54896 11.44864,20.93696 11.44864,20.93696 C11.44864,20.93696 12.24064,21.40176 13.54544,22.52096 C14.04864,22.95136 14.50944,23.10576 14.91264,23.10576 C15.55664,23.10576 16.05424,22.71296 16.34144,22.42656 C16.80704,21.96176 17.01984,21.77776 17.37984,20.16416 C17.73744,18.54896 19.60864,18.09776 19.60864,18.09776 C19.86784,17.99296 20.09184,17.92016 20.28224,17.92016 C20.49104,17.92016 20.65904,18.00816 20.78864,18.23856 C21.43904,20.29696 22.40304,20.44256 22.87664,20.44256 C22.95424,20.44256 23.01824,20.43856 23.06704,20.43856 C23.40304,20.43856 23.51664,20.86256 23.60064,21.05936 C23.68544,21.25776 23.37584,21.99136 24.80944,22.04736 C24.85984,22.04976 24.90944,22.05056 24.95584,22.05056 C26.23264,22.05056 26.10144,21.34256 26.10144,21.34256 C26.15904,21.17056 26.38224,21.05456 26.60624,21.05456 C26.82064,21.05456 27.03824,21.16096 27.11424,21.42656 C27.54144,21.91856 28.05744,22.11696 28.55904,22.11696 C29.60224,22.11696 30.57984,21.25696 30.55184,20.38256 C30.54544,19.33296 30.54064,17.77216 30.48304,16.81696 C30.46464,16.49376 30.51824,16.36976 30.61184,16.36976 C30.77744,16.36976 31.06784,16.76256 31.29664,17.13216 C33.52944,20.53296 35.55904,22.02656 36.85424,22.02656 C38.15024,22.02656 40.78944,20.62336 41.67904,20.07056 C41.94464,19.90576 42.16144,19.83536 42.34784,19.83536 C42.97504,19.83536 43.24464,20.63536 43.80304,21.30096 C44.19504,21.76896 44.74224,21.88816 45.19504,21.88816 C45.66224,21.88816 46.03024,21.76176 46.03024,21.76176 C46.03024,21.76176 51.80384,19.34896 52.90784,18.84336 C53.31264,18.65776 53.60384,18.59936 53.81184,18.59936 C54.17184,18.59936 54.27904,18.77536 54.27904,18.77536 C54.75184,19.08016 56.24464,20.32736 56.98144,20.92576 C57.28864,21.17696 57.68864,21.24896 58.04944,21.24896 C58.54864,21.24896 58.97104,21.10976 58.97104,21.10976 C59.69664,20.79936 65.75104,18.18736 67.63424,15.69296 C69.16624,13.24016 66.45024,11.98336 65.84944,11.98336 C65.84784,11.98336 65.84624,11.98336 65.84384,11.98336 C65.48144,10.84256 64.55744,10.60336 63.85024,10.60336 C63.34064,10.60336 62.94224,10.72736 62.94224,10.72736 C62.94224,10.72736 60.45984,12.34576 59.91904,12.56256 C59.81184,12.60496 59.72624,12.62256 59.65984,12.62256 C59.39344,12.62256 59.41664,12.34576 59.41664,12.34576 C59.41664,12.34576 59.27824,7.02976 59.24864,5.22256 C59.13264,4.32656 58.44464,4.14496 57.90624,4.14496 C57.53984,4.14496 57.24304,4.22896 57.24304,4.22896 C57.24304,4.22896 57.13264,3.44976 56.82304,3.06656 C56.32304,2.61776 55.85504,2.46016 55.44544,2.46016 C54.48224,2.46016 53.83584,3.32976 53.83584,3.32976 C53.83584,3.32976 53.74704,3.51136 53.62944,3.51136 C53.56384,3.51136 53.48864,3.45456 53.41584,3.27696 C53.11584,2.40896 52.44224,2.22176 51.85824,2.22176 C51.41664,2.22176 51.02624,2.32976 50.89024,2.32976 C50.57344,2.32976 47.83824,3.59296 46.89024,3.80256 C46.08224,3.98336 45.63424,4.22176 45.25904,4.22176 C45.19504,4.22176 45.13264,4.21456 45.07184,4.19936 C44.21424,3.98576 41.89344,2.57136 41.36624,2.06656 C40.93744,1.65616 40.50944,1.51136 40.11104,1.51136 C39.38384,1.51136 38.75504,1.99296 38.39984,2.23056 C37.86224,2.58816 36.83104,4.06496 35.92864,4.06496 C35.90224,4.06496 35.87584,4.06416 35.84944,4.06176 C34.92944,3.96896 34.53984,3.63216 34.02784,3.12176 C33.51584,2.60976 32.81264,1.97136 31.14944,1.90576 C31.11984,1.90496 31.08944,1.90416 31.05824,1.90416 C29.36384,1.90416 26.01424,3.57936 25.14704,3.86816 C25.05424,3.89856 24.93664,3.92016 24.79824,3.93536 C24.79904,3.91376 24.79984,3.89216 24.79984,3.86976 C24.49904,3.99536 24.15424,4.06816 23.76224,4.06816 C23.40784,4.06816 23.09264,4.00816 22.81344,3.90496 C21.97744,3.84496 21.16544,3.76256 20.78304,3.76256 C20.70464,3.76256 20.64544,3.76576 20.60624,3.77376 C20.57024,3.78016 20.53504,3.78416 20.49904,3.78416 C20.08224,3.78416 19.61664,3.31456 18.83744,2.57536 C18.46304,2.22096 18.05104,2.10176 17.66944,2.10176 C17.18624,2.10176 16.75264,2.29296 16.50384,2.44176 C16.05744,2.71056 15.93904,3.40816 15.65664,3.98816 C15.57744,4.13616 15.47984,4.19776 15.37024,4.19776 C14.82784,4.19776 14.00464,2.66896 13.73424,2.41056 C12.92864,1.63696 11.62464,0.61296 10.18864,0.61296 C10.16864,0.61296 10.14864,0.61296 10.12784,0.61376 C10.08464,0.61296 10.04224,0.61296 9.99984,0.61296 M9.99984,4.61296 L10.06064,4.61296 C10.15584,4.65696 10.39264,4.78416 10.76304,5.11136 C10.77344,5.12656 10.78384,5.14176 10.79424,5.15696 C11.52304,6.22016 12.87904,8.19776 15.37024,8.19776 C16.40464,8.19776 17.38704,7.81856 18.15904,7.15536 C18.81584,7.52736 19.58064,7.78416 20.49904,7.78416 C20.62784,7.78416 20.75664,7.77856 20.88464,7.76736 C21.07664,7.77936 21.40304,7.80576 21.65424,7.82656 C21.79264,7.83776 21.93664,7.84896 22.08304,7.86096 C22.62464,7.99856 23.18704,8.06816 23.76224,8.06816 C24.26224,8.06816 24.75024,8.01616 25.22384,7.91296 C25.23264,7.91216 25.24064,7.91136 25.24944,7.91056 C25.68144,7.86096 26.06384,7.77936 26.41104,7.66336 C26.78544,7.53856 27.20144,7.36016 27.77824,7.11376 C28.49024,6.80976 30.35424,6.01296 31.08384,5.90816 C31.11664,5.91056 31.14304,5.91296 31.16544,5.91616 C31.17824,5.92816 31.18944,5.94096 31.20144,5.95296 C32.16304,6.91216 33.34304,7.82976 35.45024,8.04176 C35.60944,8.05776 35.76864,8.06496 35.92864,8.06496 C37.83424,8.06496 39.23104,6.97376 40.13104,6.11056 C41.39024,6.93616 43.01984,7.81056 44.10144,8.07936 C44.47744,8.17376 44.86704,8.22176 45.25904,8.22176 C46.08864,8.22176 46.73904,8.01456 47.21424,7.86336 C47.40784,7.80176 47.57584,7.74816 47.75664,7.70736 C48.53744,7.53456 49.47984,7.16256 50.82624,6.61376 C50.87664,6.59376 50.92784,6.57296 50.98144,6.55136 C51.71424,7.16496 52.63424,7.51136 53.62944,7.51136 C53.98704,7.51136 54.33664,7.46496 54.67264,7.37776 C54.77504,7.46256 54.88304,7.54336 54.99504,7.62016 C55.09504,7.68816 55.19744,7.75136 55.30224,7.80816 C55.34704,9.72016 55.40304,11.88496 55.41584,12.36096 C55.41344,13.43376 55.81344,14.47616 56.53904,15.26336 C57.23584,16.02096 58.19664,16.49536 59.22384,16.60016 C58.97344,16.72176 58.71664,16.84256 58.45424,16.96256 C57.71664,16.36096 57.21504,15.96016 56.83424,15.68176 C56.02784,14.98976 54.96464,14.59936 53.81184,14.59936 C52.98544,14.59936 52.11984,14.80416 51.24224,15.20656 C50.62224,15.49056 48.08544,16.56256 45.92304,17.46976 C45.21024,16.68816 44.06784,15.83536 42.34784,15.83536 C41.39904,15.83536 40.46464,16.11616 39.56704,16.67376 C38.87744,17.10176 37.80464,17.62496 37.11264,17.88656 C36.62224,17.49616 35.75104,16.62096 34.66784,14.97856 C34.23264,14.27776 32.99584,12.36976 30.61184,12.36976 C29.48864,12.36976 28.40384,12.83856 27.63344,13.65536 C27.05584,14.26736 26.38944,15.35456 26.49024,17.05456 L26.49024,17.05616 C26.15344,17.06416 25.82384,17.10816 25.50624,17.18416 C25.15584,16.94896 24.80144,16.78736 24.47104,16.67616 C24.41344,16.53936 24.34784,16.40576 24.27504,16.27696 C23.44464,14.80096 21.95104,13.92016 20.28224,13.92016 C19.51344,13.92016 18.86384,14.10416 18.35264,14.29456 C16.79824,14.75216 14.98704,15.88256 14.01504,17.78736 C13.17424,17.00656 12.05824,16.54896 10.87424,16.54896 C10.05264,16.54896 8.81024,16.77376 7.55264,17.84176 C7.34864,18.01616 7.12864,18.21776 6.89744,18.43136 C6.85504,18.47056 6.80784,18.51456 6.75744,18.56096 C6.75664,18.56016 6.75664,18.56016 6.75584,18.56016 C6.75424,18.51376 6.75104,18.46736 6.74864,18.42176 C6.65104,17.17456 6.13104,16.26896 5.66384,15.66816 C5.67344,14.25136 5.74144,11.58096 5.81984,9.29536 C5.83264,8.92176 5.79344,8.54816 5.70224,8.18576 C5.57184,7.66256 5.36944,7.18016 5.10864,6.74976 C5.25504,6.52896 5.38864,6.29376 5.50304,6.04256 C6.98224,6.01696 7.98544,5.30096 8.47344,4.95456 C8.74064,4.76336 8.95184,4.61296 9.99984,4.61296" id="Fill-8" fill="#333333" mask="url(#mask-4)"></path>
                </g>
                <path d="M39.21784,54.63216 C36.37624,57.08816 34.52904,58.79856 33.16024,63.51056 C32.95544,64.21216 32.80904,64.86416 32.71304,65.46656 L28.91064,63.06576 C28.74984,62.96576 28.68744,62.65536 28.91704,62.50976 C31.65624,60.94256 34.02584,58.47456 33.52424,56.09856 C32.98664,53.55376 29.42104,54.72416 26.51864,56.20496 C25.12424,56.91776 24.06184,57.80976 23.46504,58.17856 C22.59064,58.84016 23.30904,60.71776 24.22584,60.05936 C24.58904,59.82976 24.95144,59.60016 25.31544,59.37056 C25.30584,59.86016 25.31784,60.14256 25.30744,60.63136 C24.81784,60.97376 22.50744,62.15376 21.98264,62.47376 C21.78264,62.59856 21.60904,62.59856 21.40984,62.42576 C20.40824,60.01936 19.48664,57.61376 18.48424,55.20896 C18.14744,54.42496 16.92904,54.60736 16.80344,55.35776 C16.80344,55.35776 14.43304,66.31296 13.78664,66.81856 C13.13944,67.32256 12.30424,67.88896 12.30424,67.88896 C11.81304,68.33536 11.89064,69.40576 12.47304,69.52656 C12.54104,69.45856 12.84664,69.45616 12.65864,69.86816 C12.58344,70.16736 12.28584,71.44336 12.28584,71.44336 C11.96744,72.66656 13.68024,72.60656 13.92984,71.77536 C14.36664,70.80256 14.63944,69.87696 15.07704,68.90576 C15.07704,68.83136 15.25464,68.35536 15.69144,68.20576 C16.17624,67.94336 19.95144,65.82896 19.95144,65.82896 C20.19384,65.63616 20.36824,65.64816 20.47464,65.86576 C21.07304,67.48656 21.67224,69.10736 22.27064,70.72816 C22.83464,71.97696 24.87464,70.60656 24.26184,69.41936 C23.63784,67.92336 23.11784,66.42736 22.49464,64.93056 C22.36744,64.58176 22.35304,64.41696 22.64344,64.29536 C24.19464,63.52016 25.28584,62.58256 25.39944,63.01056 C25.39384,65.47776 25.38824,67.94256 25.38184,70.40976 C25.39544,71.66896 27.33624,71.64016 27.33624,70.41296 C27.31624,68.53456 27.34344,66.72736 27.32424,64.84896 C27.45384,64.56976 27.56744,64.65696 27.76104,64.82496 L32.60904,68.12416 C32.80264,69.87696 33.56744,70.87776 34.37864,71.20736 C36.46504,71.94496 40.20584,68.86896 42.59784,66.85456 C42.56984,68.04896 42.54904,69.24736 42.53144,70.45376 C42.50264,70.81456 42.83944,71.28336 43.70504,70.94256 C47.28504,69.53216 50.63304,68.12976 54.21224,66.71936 C54.39464,66.63776 54.55224,66.53776 54.68424,66.42656 L54.77384,69.56496 C54.89704,70.56016 55.98184,70.79616 56.58584,70.37536 C59.13144,69.12576 61.77624,67.66736 64.60184,65.76336 C65.88184,64.93056 64.38584,62.82736 63.17464,63.67536 C61.27064,64.79216 59.36744,65.90896 57.46504,67.02576 C56.98904,67.26576 56.82504,67.03856 56.80584,66.58656 C56.69624,63.10896 56.66184,59.63136 56.55144,56.15376 C56.34104,54.67936 54.37784,55.20576 54.38904,56.20896 C54.46744,58.94896 54.60744,61.63216 54.56184,64.32816 C54.30584,64.23376 54.04104,64.23776 53.65224,64.38896 C50.91864,65.56016 48.06104,66.68016 45.32744,67.85136 C44.80104,68.05856 44.72584,68.10496 44.68504,67.86816 C44.70184,66.95696 44.71864,66.04416 44.73464,65.13216 C44.74504,64.79296 44.84664,64.65456 45.13304,64.53616 C47.48824,63.50736 50.89784,61.98736 52.08584,61.41216 C53.27384,60.83616 52.57304,58.49136 50.86904,59.41456 C49.06264,60.39296 47.17624,61.25456 45.36984,62.23376 C44.97304,62.44736 44.69784,62.46336 44.67304,62.00096 L44.67304,60.19376 C44.67464,59.97536 44.76424,59.88496 45.07144,59.79616 C47.42584,59.03376 49.64984,58.27056 52.00424,57.50816 C53.47384,57.00016 52.99064,54.19376 51.15704,54.92016 C49.32424,55.64896 47.24584,56.44896 45.25704,57.19536 C44.94024,57.37696 44.80984,57.31296 44.72184,57.11456 C44.70504,57.01616 44.71864,56.82976 44.70264,56.73216 C44.68984,56.29216 43.10904,56.51776 43.13144,57.35936 L43.13144,57.90576 C43.14024,58.24016 43.06504,58.29296 42.83384,58.40336 C42.36824,58.70176 41.90344,58.90656 41.43944,59.20416 C40.55624,59.73856 41.17464,61.61216 41.83704,61.24176 C42.05384,61.12576 42.18424,61.05696 42.39864,60.94016 C42.63464,60.82816 42.79704,60.78416 42.79704,60.94016 C42.75064,61.91616 42.71144,62.88576 42.68024,63.85376 L37.23224,67.89856 C36.47224,68.38176 35.83464,68.38976 35.17384,68.18336 C34.25064,68.07456 34.42024,64.92976 36.54664,61.05136 C37.53544,59.03696 39.02424,57.45136 40.84904,56.15536 C42.06904,55.12256 40.84024,53.32496 39.21784,54.63216 M27.11144,58.43536 L27.11144,60.81056 C28.86504,59.88656 32.23064,57.49376 31.68824,57.00736 C31.14584,56.52176 28.45384,57.88736 27.11144,58.43536 M17.62584,59.76016 C17.73064,59.03216 18.05944,59.05376 18.29624,59.72656 C18.53304,60.40176 19.16904,61.76176 19.51784,62.77936 C19.73784,63.25216 19.61464,63.48016 19.42344,63.59856 C18.78024,64.04816 17.97384,64.48256 17.33224,64.93056 C16.79224,65.22816 16.62744,65.03456 16.74264,64.47056 C17.03704,62.94016 17.33224,61.29136 17.62584,59.76016 M4.93864,57.63056 C4.95304,59.09376 4.88024,60.62256 4.89384,62.08576 C5.05784,62.20256 5.30904,62.17536 5.64504,62.00656 C8.46104,60.03456 11.73864,56.90896 10.88984,56.05696 C10.04184,55.20416 6.70744,56.14736 4.93864,57.63056 M2.99224,54.92016 C3.01944,55.38736 2.92504,55.85376 2.95224,56.32176 C2.89544,56.51536 2.83784,56.70816 2.78184,56.90176 C2.32664,57.26576 1.86984,57.63136 1.41544,57.99536 C0.96104,58.31376 1.21064,59.99376 2.11144,59.69856 C2.23544,59.58496 2.45224,59.54336 2.57704,59.42976 C2.80104,59.28976 2.92504,59.31216 2.95224,59.49856 C2.85944,62.38256 2.72584,65.61216 2.71064,67.78016 C2.69544,69.94816 4.92104,69.38256 4.91384,68.19936 C4.90664,67.01536 4.94584,65.96976 4.96344,64.85456 C4.96744,64.64736 5.13064,64.44256 5.42744,64.26576 C7.38744,63.20576 9.30424,62.15216 11.40104,61.43376 C12.16744,61.11056 12.44184,61.67216 12.26424,62.29856 C12.08664,62.92256 7.35784,68.32736 4.88104,69.48176 C2.40424,70.63456 4.07944,73.04976 6.33224,71.54256 C8.58264,70.03456 13.10344,65.22256 14.06024,63.60256 C15.01464,61.98016 14.87944,59.19616 12.28904,59.39696 C11.99304,59.39696 11.97384,59.33936 12.16424,58.94016 C13.27224,57.64016 13.10504,56.09136 12.38824,54.76816 C11.67064,53.44576 10.55384,53.20736 9.09384,53.58816 C7.63224,53.96896 6.42424,54.31696 5.22984,55.14256 C4.77384,55.42336 4.63624,55.30816 4.61784,54.84416 C4.57384,53.62976 3.06264,53.92416 2.99224,54.92016" id="Fill-11" fill="#FFFFFF"></path>
                <path d="M25.74672,13.06224 C26.53632,12.74544 27.38112,12.53104 28.32592,12.41104 C28.02032,12.65104 27.74112,12.89424 27.48192,13.13584 L25.74672,13.06224 Z M39.91472,13.79584 C39.87632,12.93424 39.60112,12.06784 38.97552,11.45424 C38.70032,11.18384 38.26272,10.80944 37.71952,10.53584 C38.54912,10.82944 39.20592,11.21744 39.70592,11.81264 C40.01232,12.17664 40.07872,12.86544 39.91472,13.79584 L39.91472,13.79584 Z M42.22992,23.71744 C42.21232,23.74944 42.19552,23.78224 42.17872,23.81584 C42.03552,23.81904 41.89232,23.82064 41.74592,23.82224 C41.90352,23.78784 42.06512,23.75264 42.22992,23.71744 L42.22992,23.71744 Z M49.02512,26.38144 C48.76192,25.39024 48.16432,24.53104 47.27232,23.91344 C47.19312,23.85904 47.11392,23.80544 47.03472,23.75344 C47.41392,23.89264 47.76112,24.07184 48.07472,24.29024 C48.79152,24.78944 49.10992,25.25424 49.02512,26.38144 L49.02512,26.38144 Z M21.83872,37.10304 C21.68592,36.81344 21.46192,36.56384 21.18352,36.37824 C20.85152,36.15664 20.46432,36.04224 20.07312,36.04224 C19.91152,36.04224 19.74912,36.06144 19.58992,36.10144 L19.53392,36.11504 C19.57472,36.08064 19.61472,36.04464 19.65312,36.00704 C20.07792,35.58784 20.29792,35.00144 20.24512,34.40704 L20.21392,34.05984 L21.05872,33.56064 C21.68592,33.18944 22.06192,32.50544 22.03872,31.77664 L21.55712,16.55104 C21.54112,16.06144 21.34752,15.60304 21.02432,15.25424 C21.02512,15.24384 21.02672,15.23264 21.02832,15.22144 L21.05232,15.13984 C21.08832,15.02064 21.13472,14.86544 21.17232,14.68064 C21.23232,14.50224 21.26352,14.34304 21.28352,14.22384 C21.37312,13.97904 21.41472,13.71904 21.40432,13.45584 L20.99392,2.87904 L23.14912,2.64304 L22.74992,11.21904 C22.71792,11.90704 23.04192,12.56304 23.60832,12.95584 C23.86592,13.13424 24.15792,13.24704 24.45952,13.29104 C23.87952,13.60544 23.46912,14.19824 23.41712,14.90144 L23.40352,15.07664 C22.87632,15.42384 22.52512,16.01264 22.50272,16.68304 C22.44272,18.52544 22.36592,20.44784 22.29072,22.37104 C22.21232,24.33264 22.13472,26.29504 22.07312,28.17344 C22.04672,29.00064 22.53152,29.75904 23.29392,30.08064 C23.54512,30.18704 23.80992,30.23904 24.07152,30.23904 C24.60432,30.23904 25.12752,30.02624 25.51232,29.62704 C25.91392,29.21104 26.31952,28.77664 26.73232,28.33424 C28.14112,26.82624 29.59552,25.27024 31.22992,24.06144 C31.39312,24.04304 31.63632,24.02544 31.93232,24.02544 C31.93232,24.02544 32.07472,24.02704 32.08512,24.02704 C32.97872,24.02704 33.76512,23.43344 34.00912,22.57104 C34.04512,22.44464 34.08752,22.31264 34.13552,22.17024 C34.21632,22.17984 34.29712,22.18464 34.37872,22.18464 C34.44752,22.18464 34.51632,22.18144 34.58512,22.17424 C34.12992,22.86384 34.14352,23.77184 34.63552,24.45024 C34.84432,24.73824 35.11872,24.95664 35.42672,25.09664 C35.26112,25.24224 35.11792,25.41584 35.00592,25.61184 C34.96352,25.60944 34.91952,25.60784 34.87552,25.60784 L34.32992,25.60784 C33.70272,25.60784 33.12592,25.89984 32.75392,26.37744 C32.56352,26.42224 32.37072,26.46784 32.17792,26.51264 C31.64832,26.63744 31.11872,26.76224 30.64192,26.88624 C30.25632,26.98624 29.90912,27.19984 29.64592,27.49984 C29.28752,27.90704 28.99952,28.30464 28.74672,28.65584 C28.70672,28.71184 28.66672,28.76624 28.62752,28.82064 C28.56992,28.81984 28.51232,28.81904 28.45552,28.81744 C28.17152,28.81184 27.88832,28.80704 27.61552,28.80704 C27.45792,28.80704 27.30272,28.80864 27.15312,28.81264 C26.57392,28.82944 26.03072,29.09584 25.66352,29.54304 C25.06032,30.27824 24.49712,31.02784 23.95392,31.75264 C23.41312,32.47264 22.90272,33.15264 22.35632,33.81904 C22.07552,34.16064 21.91632,34.58464 21.90272,35.02704 L21.83872,37.10304 Z M43.06752,38.79584 C43.14432,38.78064 43.22032,38.76224 43.29552,38.73904 L43.29152,38.75344 C43.21472,38.81584 43.13952,38.87584 43.06432,38.93504 C43.06512,38.88784 43.06592,38.84144 43.06752,38.79584 L43.06752,38.79584 Z" id="Fill-13" fill="#333333"></path>
                <path d="M32.44912,13.71536 C33.47792,13.41216 34.54192,13.10816 35.84672,12.80576 C35.96672,12.62416 35.95312,12.41856 36.07472,12.23616 C36.14912,12.19616 36.23232,12.17776 36.32032,12.17776 C36.72192,12.17776 37.23872,12.55216 37.57472,12.88176 C37.98352,13.28256 38.00912,14.24176 37.77152,14.92816 C37.37392,15.26496 36.91072,15.37696 36.20992,15.59616 C36.39232,16.28176 36.34672,16.84096 36.11152,17.22496 C35.76752,17.24576 35.42352,17.26656 35.07952,17.28656 C34.81872,17.50896 34.77632,17.64096 34.99712,17.86416 C35.15872,18.04576 35.32032,18.20496 35.48272,18.38656 C35.25552,18.83216 35.07392,19.71056 34.37312,20.18736 C34.37312,20.18736 33.99072,19.82176 33.56592,19.57936 C33.43232,19.50256 33.32272,19.47616 33.23472,19.47616 C33.04512,19.47616 32.96112,19.60016 32.96112,19.60016 C32.55152,20.70336 32.26992,21.37216 32.08592,22.02656 C32.03392,22.02576 31.98272,22.02576 31.93232,22.02576 C31.21152,22.02576 30.60512,22.10736 30.38992,22.20176 C27.94912,23.91536 25.96352,26.27776 24.07152,28.23856 C24.19392,24.51856 24.37952,20.46896 24.50272,16.74896 C24.76432,16.72896 25.02752,16.70736 25.29072,16.68736 C25.33152,16.14176 25.37072,15.59616 25.41152,15.04976 C26.36192,15.08976 27.31312,15.13136 28.26352,15.17136 C29.00752,14.40896 29.82032,13.65856 31.11472,12.98816 C31.55792,13.07056 32.00272,13.26736 32.44912,13.71536 M25.25632,0.40016 C23.14432,0.63136 21.03312,0.86336 18.92272,1.09456 C19.08352,5.24016 19.24432,9.38656 19.40592,13.53376 C19.30432,13.67456 19.33552,13.99296 19.23392,14.13376 C19.21392,14.41776 19.06272,14.70016 19.04192,14.98336 C18.37712,15.63936 17.70592,15.65216 17.11712,16.03216 C17.16432,16.49696 17.11712,17.10096 17.65152,17.53776 C18.16112,17.36256 18.89392,17.02496 19.55792,16.61456 C19.71872,21.68896 19.87952,26.76496 20.03952,31.83936 C19.39712,32.22016 18.75392,32.59936 18.10912,32.98096 C18.15792,33.51536 18.20512,34.04896 18.25312,34.58416 C17.84912,34.54336 17.44512,34.50256 17.04032,34.46256 L17.04032,36.46416 C16.55472,36.32336 16.06912,36.18176 15.58432,36.04016 C15.54352,36.76816 15.50352,37.49616 15.46272,38.22416 C16.57472,38.68816 17.68752,39.15376 18.79952,39.61936 C18.98112,39.15376 19.16272,38.68816 19.34512,38.22416 C19.58752,38.16336 19.83072,38.10256 20.07312,38.04176 C20.16432,38.64736 20.26672,39.02336 20.37632,39.62336 C20.35632,39.92736 20.33552,40.52896 20.31632,40.83296 C20.41392,40.83056 20.51072,40.82496 20.60432,40.82496 C21.03552,40.82496 21.37632,40.92736 21.22592,41.80336 C21.01472,42.01216 20.55712,42.04656 20.26592,42.04656 C20.24352,42.04656 20.22192,42.04656 20.20192,42.04576 C20.19952,42.04176 20.19712,42.03936 20.19552,42.03936 C20.16272,42.03936 20.28512,42.66496 20.54592,43.02496 C20.56912,43.05776 20.59872,43.06896 20.63152,43.06896 C20.70592,43.06896 20.79872,43.00736 20.87632,43.00736 C20.91712,43.00736 20.95472,43.02416 20.98272,43.07696 C20.82112,43.50176 20.80272,44.14256 20.64112,44.56736 C20.74272,45.17376 20.70032,45.56496 20.80112,46.17136 C20.85472,46.87856 20.81792,47.63216 20.86992,48.33936 C20.87712,48.44016 20.72832,48.85936 20.73552,48.96096 C20.75232,49.02176 20.81792,49.03696 20.89952,49.03696 C20.97872,49.03696 21.07312,49.02256 21.15312,49.02256 C21.23312,49.02256 21.29872,49.03776 21.31552,49.09856 C21.36592,49.28096 21.32592,49.50736 21.37712,49.68896 C21.46672,50.10096 21.46752,50.51216 21.55872,50.92416 C21.46992,51.07776 21.29312,51.25296 21.20432,51.40656 C21.24832,51.97616 21.26992,52.52176 21.31392,53.09136 C21.42272,53.30976 21.64512,53.52976 21.75552,53.74816 C21.37952,53.98816 20.86112,54.36016 20.78672,54.66096 C20.93952,55.14176 21.27312,55.49936 21.42672,55.98096 C21.58032,56.54976 21.74032,57.23936 21.69792,57.83536 C22.20112,57.73136 22.50112,57.14416 23.00432,56.81536 C22.96832,56.33776 23.32432,55.52576 23.28832,55.04736 C23.49232,48.31936 23.69712,41.81456 23.90192,35.08736 C25.05232,33.68576 26.05952,32.21296 27.20912,30.81216 C27.33872,30.80816 27.47312,30.80736 27.61072,30.80736 C28.13232,30.80736 28.69552,30.82816 29.21552,30.82816 C29.34592,30.82816 29.47312,30.82656 29.59792,30.82336 C30.18352,30.15536 30.56032,29.48736 31.14672,28.82096 C32.07792,28.57856 33.21712,28.33536 34.14752,28.09216 C34.20752,27.93136 34.26832,27.76976 34.32992,27.60736 L34.87552,27.60736 C35.11792,27.83056 35.28912,28.08896 35.53232,28.31056 C36.12672,27.86096 36.53232,27.24256 36.74512,26.60016 C37.10912,26.62016 37.54512,26.60496 37.90912,26.62576 C38.40192,26.87296 38.59872,27.23216 38.75152,27.23216 L38.75632,27.23216 C38.90912,27.22256 39.09232,26.73216 39.13232,25.92176 C40.68992,25.76016 42.25552,25.89056 43.81232,25.72896 C43.89312,25.44576 43.89552,24.97936 43.97472,24.69536 C44.72752,24.72656 45.27872,24.96656 46.13392,25.55856 C46.98992,26.15056 47.37632,27.12336 47.08352,28.36416 C46.66432,28.49056 46.54672,28.42736 46.12832,28.52496 C46.15632,28.82176 46.17712,29.63536 46.78912,29.78976 C46.78272,30.41456 46.77632,31.04016 46.76992,31.66416 C46.39872,31.66416 46.02752,31.46736 45.65552,31.46736 C45.66752,31.93536 45.68032,32.60256 45.69152,33.07136 C45.21312,33.10656 44.73312,33.14256 44.25472,33.17856 C44.12032,34.03216 43.98752,34.88416 43.85312,35.73696 C43.54512,36.13296 43.31072,36.56256 42.70112,36.82896 C42.17472,36.84816 41.60672,36.98416 41.08032,37.00496 C41.06112,37.69136 41.08352,38.26416 41.06352,38.95136 C40.61792,39.65936 40.17312,40.36736 39.72992,41.07456 C39.30432,41.11536 38.69952,41.12656 38.27472,41.31056 C37.76992,41.95776 37.40752,42.56336 36.90192,43.20976 C36.43472,42.85616 36.08272,42.70096 35.87552,42.70096 C35.86592,42.70096 35.85632,42.70176 35.84672,42.70256 C35.54832,43.96016 35.60272,43.73456 35.62592,44.47216 C35.48432,44.65456 35.13072,44.76816 34.98912,44.94976 C34.62512,45.01136 34.12832,45.14176 33.76352,45.20256 C33.07792,45.94976 32.67632,46.69616 32.08592,47.44496 C31.84272,47.49216 31.55312,47.51536 31.21552,47.51536 C31.08752,47.51536 30.95312,47.51216 30.81072,47.50576 C30.82352,48.06176 30.64752,48.55696 30.38592,49.02256 C30.31552,49.02736 30.24912,49.03136 30.18592,49.03136 C29.93152,49.03136 29.73472,48.96576 29.59792,48.62016 C28.84432,49.39456 29.08592,49.68096 28.92832,50.08976 C29.37952,50.37216 29.77952,50.54096 30.31792,50.54096 C30.50352,50.54096 30.70592,50.52016 30.93232,50.47776 C31.89792,49.43136 32.66992,48.69216 33.72672,47.91856 C33.97632,47.85376 34.49952,47.82496 34.75152,47.76096 C34.81152,47.35616 34.83712,46.74736 34.89872,46.34416 C35.56272,46.43056 36.22672,46.51776 36.89072,46.60496 C37.11712,46.51776 37.34512,46.43056 37.57152,46.34416 C37.83312,46.27376 38.09712,46.20416 38.35792,46.13456 C38.53072,45.57376 38.44032,45.01536 38.43152,44.45616 C39.54192,43.81536 40.73232,43.34496 41.66112,43.25056 C41.62592,42.88416 41.59072,42.51696 41.55632,42.14976 C41.80032,42.14976 42.14672,42.09856 42.39152,42.09856 C43.68912,40.89056 44.11472,40.72336 45.08992,39.84416 C45.17712,39.45936 45.31232,38.90336 45.40112,38.51936 C45.91072,38.09296 45.87792,38.12176 46.92832,36.94016 C47.26432,36.85856 47.94192,36.63856 48.27792,36.55696 C48.24832,36.43216 48.26592,36.22736 48.17872,36.15456 C47.66592,35.72896 47.45312,35.54336 47.50272,35.20496 C47.50912,35.19136 47.52672,35.18496 47.55232,35.18496 C47.67392,35.18496 47.99232,35.31696 48.28912,35.42336 C48.55072,34.89376 48.74512,34.36736 48.89792,33.84096 C49.04992,33.31536 49.14832,32.77056 49.19872,32.16576 C49.75472,32.13376 50.43952,32.15776 50.99632,32.12416 C50.89152,32.00816 50.61472,31.42976 50.31072,31.08816 C50.41552,30.16336 50.61792,29.27056 50.72272,28.34736 C51.25632,25.96496 51.32432,24.11536 49.21792,22.64896 C47.88432,21.72016 46.30272,21.38736 44.77472,21.38736 C43.89072,21.38736 43.02272,21.49856 42.23152,21.67056 C40.07152,22.13936 38.46112,22.46896 36.25472,23.27616 C36.98112,22.35136 38.28112,21.76576 38.99552,21.06656 C38.75632,20.63056 38.55312,20.08256 38.31392,19.64656 C38.49872,19.62416 38.68432,19.60256 38.86912,19.58176 C39.02032,19.89616 39.17872,20.11136 39.46272,20.20256 C39.57152,19.59776 39.48672,18.82896 39.57072,18.42496 C40.13632,17.81376 40.58272,17.27936 41.14992,16.66736 C42.03232,14.37616 42.47312,11.99776 41.23712,10.52576 C40.00032,9.05456 38.26992,8.50416 36.31232,8.10016 C36.00912,8.42096 35.69552,8.82656 35.56672,9.27776 C35.35632,8.97056 34.86432,8.64976 33.96272,8.17056 C33.38192,8.62336 33.01712,9.08976 33.02352,9.73936 C32.83232,9.81456 32.48112,9.84416 32.09392,9.85456 C31.63152,9.48576 31.12272,9.06096 30.51552,9.06096 C30.42752,9.06096 30.33632,9.06976 30.24432,9.08976 C30.04912,9.30976 30.20112,9.64736 30.11072,10.29536 C27.89392,10.31696 26.20352,10.68656 24.74752,11.31216 C24.91712,7.67456 25.08752,4.03696 25.25632,0.40016" id="Fill-15" fill="#333333"></path>
                <path d="M82.71392,73.504 C83.17952,73.504 83.61952,73.5888 84.03072,73.7576 C84.44192,73.928 84.80592,74.1736 85.12272,74.4968 C85.43632,74.8104 85.67712,75.172 85.84432,75.584 C86.01312,75.9952 86.09712,76.428 86.09712,76.8872 C86.09712,77.3488 86.01472,77.7816 85.84912,78.1848 C85.68512,78.588 85.44272,78.9464 85.12272,79.2592 C84.79392,79.5856 84.42192,79.836 84.00512,80.0096 C83.58992,80.1848 83.15952,80.2712 82.71392,80.2712 C82.26032,80.2712 81.83072,80.1864 81.42352,80.0144 C81.01552,79.844 80.65152,79.5952 80.33072,79.2688 C80.00832,78.9496 79.76272,78.5856 79.59232,78.1752 C79.42432,77.7656 79.33872,77.3376 79.33872,76.8872 C79.33872,76.444 79.42592,76.0136 79.59952,75.5976 C79.77312,75.18 80.02432,74.8064 80.34992,74.4776 C80.66112,74.1608 81.01632,73.92 81.42032,73.7528 C81.82352,73.5872 82.25552,73.504 82.71392,73.504 L82.71392,73.504 Z M85.72832,76.9008 C85.72832,76.4896 85.65392,76.1008 85.50512,75.7352 C85.35952,75.3696 85.14672,75.0464 84.86912,74.7672 C84.57952,74.4808 84.25152,74.2616 83.88272,74.1104 C83.51552,73.9576 83.12512,73.8824 82.71392,73.8824 C82.31312,73.8824 81.93312,73.956 81.57392,74.1024 C81.21712,74.2512 80.89552,74.4664 80.61152,74.7488 C80.32032,75.0464 80.09712,75.3784 79.94032,75.7456 C79.78432,76.1128 79.70752,76.496 79.70752,76.8912 C79.70752,77.288 79.78272,77.668 79.93552,78.0304 C80.08912,78.3928 80.30752,78.7192 80.59472,79.0072 C80.88272,79.2944 81.20912,79.5128 81.57312,79.6648 C81.93472,79.8176 82.31632,79.8928 82.71392,79.8928 C83.11392,79.8928 83.49792,79.816 83.86992,79.6632 C84.24032,79.5088 84.57232,79.288 84.86912,78.9984 C85.14992,78.7256 85.36272,78.4104 85.50832,78.0552 C85.65552,77.7016 85.72832,77.3168 85.72832,76.9008 L85.72832,76.9008 Z M82.81472,74.884 C83.36112,74.884 83.76752,74.972 84.03072,75.1472 C84.29392,75.3216 84.42512,75.5928 84.42512,75.96 C84.42512,76.2344 84.34112,76.4624 84.17552,76.6472 C84.00832,76.8328 83.78672,76.9448 83.50592,76.9848 L84.37392,78.7808 L83.70432,78.7808 L82.88352,77.068 L81.97472,77.068 L81.97472,78.7808 L81.38912,78.7808 L81.38912,74.884 L82.81472,74.884 Z M82.70352,75.2808 L81.97472,75.2808 L81.97472,76.68 L82.70352,76.68 C83.11552,76.68 83.40512,76.628 83.57072,76.5256 C83.73552,76.4216 83.81952,76.2472 83.81952,76.0016 C83.81952,75.7456 83.73072,75.5616 83.55712,75.4496 C83.38192,75.3376 83.09712,75.2808 82.70352,75.2808 L82.70352,75.2808 Z" id="Fill-17" fill="#333333"></path>
                <path d="M81.97488,76.68016 L81.97488,75.28096 L82.70448,75.28096 C83.09648,75.28096 83.38208,75.33776 83.55728,75.44976 C83.73088,75.56176 83.82048,75.74576 83.82048,76.00096 C83.82048,76.24656 83.73568,76.42176 83.57088,76.52576 C83.40528,76.62816 83.11568,76.68016 82.70448,76.68016 L81.97488,76.68016 Z M82.81408,74.88416 L81.38928,74.88416 L81.38928,78.78016 L81.97488,78.78016 L81.97488,77.06736 L82.88448,77.06736 L83.70448,78.78016 L84.37408,78.78016 L83.50608,76.98416 C83.78688,76.94496 84.00928,76.83296 84.17568,76.64656 C84.34128,76.46336 84.42528,76.23456 84.42528,75.96016 C84.42528,75.59296 84.29328,75.32176 84.03088,75.14736 C83.76768,74.97216 83.36048,74.88416 82.81408,74.88416 L82.81408,74.88416 Z M82.71408,79.89296 C82.31728,79.89296 81.93568,79.81696 81.57328,79.66416 C81.20928,79.51296 80.88288,79.29456 80.59408,79.00736 C80.30768,78.71936 80.08928,78.39296 79.93568,78.03056 C79.78288,77.66816 79.70768,77.28816 79.70768,76.89136 C79.70768,76.49616 79.78448,76.11296 79.94048,75.74576 C80.09648,75.37856 80.32048,75.04656 80.61168,74.74816 C80.89488,74.46656 81.21728,74.25056 81.57488,74.10256 C81.93328,73.95616 82.31328,73.88176 82.71408,73.88176 C83.12448,73.88176 83.51568,73.95776 83.88288,74.11056 C84.25168,74.26176 84.57968,74.48016 84.86848,74.76736 C85.14688,75.04656 85.35888,75.36896 85.50528,75.73456 C85.65408,76.10016 85.72768,76.48976 85.72768,76.90096 C85.72768,77.31696 85.65568,77.70096 85.50848,78.05536 C85.36208,78.41056 85.15008,78.72576 84.86848,78.99776 C84.57248,79.28816 84.24048,79.50896 83.87008,79.66336 C83.49808,79.81536 83.11408,79.89296 82.71408,79.89296 L82.71408,79.89296 Z M82.71408,73.50416 C82.25568,73.50416 81.82368,73.58736 81.42048,73.75296 C81.01728,73.91936 80.66048,74.16096 80.35008,74.47776 C80.02448,74.80656 79.77328,75.18016 79.59968,75.59776 C79.42528,76.01376 79.33888,76.44416 79.33888,76.88656 C79.33888,77.33696 79.42368,77.76576 79.59168,78.17536 C79.76208,78.58496 80.00848,78.94896 80.33088,79.26896 C80.65168,79.59536 81.01568,79.84416 81.42368,80.01376 C81.83088,80.18576 82.25968,80.27136 82.71408,80.27136 C83.15888,80.27136 83.59008,80.18416 84.00528,80.00976 C84.42208,79.83616 84.79328,79.58576 85.12288,79.25936 C85.44208,78.94656 85.68528,78.58816 85.84928,78.18496 C86.01488,77.78176 86.09648,77.34816 86.09648,76.88656 C86.09648,76.42816 86.01328,75.99536 85.84448,75.58336 C85.67728,75.17216 85.43568,74.80976 85.12288,74.49696 C84.80608,74.17376 84.44208,73.92816 84.03088,73.75776 C83.61968,73.58896 83.17968,73.50416 82.71408,73.50416 L82.71408,73.50416 Z" id="Fill-19" fill="#333333"></path>
            </g>
        </g>
    </g>
</svg>