<?xml version="1.0" encoding="UTF-8"?>
<svg width="88px" height="57px" viewBox="0 0 88 57" version="1.1" xmlns="http://www.w3.org/2000/svg" xmlns:xlink="http://www.w3.org/1999/xlink">
    <!-- Generator: Sketch 58 (84663) - https://sketch.com -->
    <title>Group 61</title>
    <desc>Created with Sketch.</desc>
    <defs>
        <polygon id="path-1" points="0.0552788732 0.519571831 3.87870593 0.519571831 3.87870593 23.5492958 0.0552788732 23.5492958"></polygon>
        <polygon id="path-3" points="0.279926761 0.169802817 40.2816901 0.169802817 40.2816901 27.2632676 0.279926761 27.2632676"></polygon>
    </defs>
    <g id="Page-1" stroke="none" stroke-width="1" fill="none" fill-rule="evenodd">
        <g id="Desktop-HD-Copy-3" transform="translate(-469.000000, -900.000000)">
            <g id="Group-61" transform="translate(469.000000, 900.000000)">
                <path d="M39.2202986,13.6460113 C39.9385521,14.0376732 41.2504958,14.3252225 42.0152282,13.7904056 C43.0123549,13.0932225 43.5155662,11.686462 43.3965803,8.94792676 C43.3092,6.89789859 42.8741577,6.53350423 42.8741577,6.53350423 C42.8741577,6.53350423 45.9820451,11.0611662 43.5273408,14.5594761 C42.5023268,16.0207718 39.7427211,15.146969 39.2202986,13.6460113" id="Fill-1" fill="#333333"></path>
                <path d="M47.2051831,32.1431775 C47.6371268,33.2927549 48.0033803,34.2619944 48.1818592,34.7249239 C48.3683944,33.4154592 48.4873803,32.1326423 48.4582535,31.2557408 C48.3938028,29.2329803 47.8063099,25.2519099 47.6104789,23.4906704 C47.4146479,21.7288113 47.2188169,18.7275155 48.0021408,12.5935437 C48.7854648,6.46019155 53.1575775,0.000247887324 53.1575775,0.000247887324 C53.1575775,0.000247887324 50.6130141,2.41467042 48.2630423,8.54802254 C45.9136901,14.6813746 46.1095211,17.5525296 45.9136901,20.2929239 C45.7178592,23.0333183 46.4361127,26.2961352 46.8277746,28.5153465 C47.0471549,29.7578817 47.1847324,30.8981634 47.2051831,32.1431775" id="Fill-3" fill="#333333"></path>
                <path d="M46.8063944,36.836738 C46.3800282,39.3317239 45.6400845,42.1793296 45.2608169,43.5879493 C44.8047042,45.2841183 44.5431831,48.5469352 44.5431831,48.5469352 C44.6745634,47.4370197 45.326507,46.3934141 45.5874085,45.0232169 C45.8489296,43.6530197 46.7623944,40.8469352 47.2841972,39.1501465 C47.4558592,38.5942592 47.6473521,37.7706535 47.8264507,36.8441746 L46.8063944,36.836738 Z" id="Fill-5" fill="#333333"></path>
                <path d="M28.9501408,15.6607155 C32.3437183,17.030293 33.3873239,16.638631 35.9981972,17.7485465 C38.6084507,18.8572225 39.5219155,20.9456732 40.240169,23.0335042 C40.9584225,25.1213352 40.5016901,28.3841521 40.1744789,30.8636451 C40.0753239,31.6178423 40.0251268,32.3720394 40.0189296,33.1163211 C40.5766761,31.9258423 41.3190986,30.2513634 42.3050704,27.9218423 C42.3689014,26.938969 42.376338,25.9350254 42.2629296,24.9911944 C41.872507,21.7289972 40.3052394,19.1844338 38.6084507,17.8136169 C36.9122817,16.4434197 34.823831,16.1825183 30.2546479,15.2690535 C25.6873239,14.354969 22.2280563,11.354293 22.8812394,12.0068563 C23.5338028,12.6581803 25.5565634,14.2905183 28.9501408,15.6607155" id="Fill-7" fill="#333333"></path>
                <g id="Group-11" transform="translate(40.281690, 33.444276)">
                    <mask id="mask-2" fill="white">
                        <use xlink:href="#path-1"></use>
                    </mask>
                    <g id="Clip-10"></g>
                    <path d="M3.61308169,13.2758535 C3.54801127,10.6656 3.74322254,10.078107 2.76468732,6.62007887 C1.8363493,3.34052958 1.55375775,2.64210704 1.47133521,0.519571831 L1.43787042,0.519571831 C0.940856338,1.64621972 0.554152113,2.50576901 0.432687324,2.74931831 C0.335391549,2.94452958 0.231278873,3.12300845 0.0552788732,3.2531493 C0.138940845,3.6900507 0.236856338,4.11765634 0.34964507,4.53224789 C0.937757746,6.6851493 2.11150423,9.75151549 2.30795493,11.2518535 C2.5031662,12.7540507 2.54344789,13.389262 2.73989859,16.4556282 C2.93572958,19.5226141 3.68249014,23.5495437 3.68249014,23.5495437 C3.68249014,23.5495437 4.02085634,22.5462197 3.80891268,20.7787831 C3.61308169,19.1483042 3.67753239,15.8854873 3.61308169,13.2758535" id="Fill-9" fill="#333333" mask="url(#mask-2)"></path>
                </g>
                <g id="Group-14" transform="translate(47.718310, 8.655544)">
                    <mask id="mask-4" fill="white">
                        <use xlink:href="#path-3"></use>
                    </mask>
                    <g id="Clip-13"></g>
                    <path d="M1.7164338,0.169802817 C1.30370141,1.42349296 0.976490141,2.72490141 0.812884507,4.00523944 C0.496828169,6.48101408 0.340039437,8.43684507 0.279926761,10.016507 C2.36465915,8.73183099 4.66071549,7.65042254 6.33023662,7.15340845 C8.89587042,6.38929577 10.5629127,13.2037183 12.0211099,12.7110423 C12.8955324,12.4154366 15.5640394,11.5701408 17.2837577,10.9981408 C19.0164901,10.4211831 23.8255042,12.6180845 24.3708563,12.8944789 C25.1380676,13.283662 25.8928845,13.6393803 26.6315887,13.9641127 C26.5925465,13.8197183 26.6117577,13.6647887 26.6948,13.536507 C26.7927155,13.3846761 26.9612789,13.2929577 27.1422366,13.2929577 L37.6371662,13.2929577 C37.8181239,13.2929577 37.9860676,13.3846761 38.0846028,13.536507 C38.183138,13.688338 38.2246592,13.8953239 38.1230254,14.0452958 C37.6210535,14.784 37.0571099,14.8472113 35.866631,14.8472113 C35.2853352,14.8472113 34.502631,14.8682817 33.8655606,14.8372958 L33.8655606,16.4225352 C34.2727155,16.5216901 34.6662366,16.6109296 35.0424056,16.6902535 C35.6838141,16.7547042 36.7013915,17.3589296 37.875138,18.2500845 C38.4682085,20.0609014 38.5171662,21.9343099 37.9464056,23.828169 C37.5906873,25.0062535 37.0100113,26.1545915 36.2291662,27.2632676 C38.2023493,25.1909296 39.5198704,22.9692394 40.0379549,20.6583099 C40.0769972,20.484169 40.1098423,20.3112676 40.1377296,20.1396056 C40.138969,20.1402254 40.1395887,20.1408451 40.1402085,20.1414648 C42.0142366,9.20033803 25.0785746,0.384225352 1.7164338,0.169802817" id="Fill-12" fill="#333333" mask="url(#mask-4)"></path>
                </g>
                <path d="M9.45628169,23.1381746 C9.46929577,23.1332169 9.48169014,23.1276394 9.49470423,23.122062 C9.48169014,23.1226817 9.46929577,23.1233014 9.45628169,23.1239211 L9.45628169,23.1381746 Z" id="Fill-15" fill="#333333"></path>
                <path d="M38.1509127,49.5200789 C15.0806592,47.8022197 -1.07663662,36.8468394 2.11739155,26.2601915 C2.14775775,26.1604169 2.18122254,26.0618817 2.21468732,25.9627268 C3.33018028,25.3578817 4.38246197,24.8057127 5.31389859,24.3310085 C5.68572958,24.2925859 6.0724338,24.2231775 6.46967324,24.1326986 L6.46967324,23.5600789 C6.46967324,23.3915155 6.46533521,23.2756282 6.45851831,23.1963042 C6.02719437,23.1758535 5.26989859,23.0419944 5.03068732,22.1632338 C4.98730704,22.0070648 5.01891268,21.8391211 5.1143493,21.7077408 C5.21102535,21.5769803 5.3616169,21.4964169 5.52460282,21.4908394 C7.33046197,21.421431 8.17699718,21.4133746 9.55401127,21.4133746 C10.6564901,21.4133746 11.7298423,21.4623324 12.6662366,21.645769 C15.2523211,20.349938 17.6927718,18.9822197 19.3164338,18.5180507 C20.3588,17.9063887 22.274969,20.9677972 23.810631,20.9169803 C27.418631,20.7961352 27.779307,23.2644732 28.5397014,22.9682479 C31.0247718,21.9996282 34.2510254,19.7165859 36.042631,18.3532056 C35.9602085,18.3141634 35.8759268,18.2757408 35.7891662,18.2391775 C34.5838141,17.7266704 33.7471944,17.5512901 32.7779549,17.3486423 C31.7374479,17.1311211 30.5581239,16.8844732 28.7504056,16.1550648 C25.178969,14.7123606 23.2039268,13.0360225 22.6492789,12.5222761 C14.3060113,15.0736563 7.55975775,18.7783324 3.66420845,23.1064451 L3.67474366,23.0903324 C3.62826479,23.1423887 3.58426479,23.1944451 3.53778592,23.2458817 C3.51609577,23.2706704 3.49440563,23.2954592 3.47271549,23.3202479 C3.36240563,23.445431 3.25519437,23.5718535 3.14984225,23.6988958 C3.13868732,23.7125296 3.12629296,23.7267831 3.11513803,23.7404169 C2.7519831,24.1810366 2.41795493,24.6278535 2.11491268,25.0802479 C2.11429296,25.0814873 2.11305352,25.0827268 2.1124338,25.0839662 C2.01141972,25.2345577 1.91350423,25.3863887 1.81930704,25.5382197 C1.81868732,25.5394592 1.81744789,25.5413183 1.81682817,25.5425577 C1.06449014,26.7565859 0.530912676,28.0077972 0.243983099,29.2868958 C-2.29252394,40.5979944 15.2405465,49.7729239 39.406462,49.7803606 C40.4351944,49.7803606 41.4583493,49.7630085 42.4759268,49.7307831 L42.4759268,49.7283042 C41.0443775,49.6966986 39.6016732,49.6279099 38.1509127,49.5200789" id="Fill-17" fill="#333333"></path>
                <path d="M10.0245014,35.8354592 C9.14326197,35.8354592 8.92326197,35.5311775 8.92326197,34.8649803 L8.92326197,22.6280225 C11.6518817,22.3714592 13.1608958,23.1157408 13.1608958,25.0040225 C13.1683324,26.5260507 12.1017972,27.8026704 9.41717746,27.7121915 C9.49216338,28.2736563 9.86647324,28.3833465 10.5208958,28.4087549 C13.620107,28.5314592 14.7139099,29.7727549 14.7139099,31.8723606 C14.7139099,34.3543324 12.9786986,35.8354592 10.0245014,35.8354592 M11.6518817,27.9148394 C14.1586423,27.4320789 15.2257972,26.1945014 15.2257972,24.8286423 C15.2257972,22.7798535 13.6746423,21.9469521 9.55413521,21.9469521 C8.16968451,21.9469521 7.32810704,21.9550085 5.54455775,22.0231775 C5.71126197,22.6329803 6.2504169,22.6670648 6.64517746,22.6670648 C6.9172338,22.6670648 7.00275493,22.7947268 7.00275493,23.5600789 L7.00275493,33.8672338 C7.00275493,34.9523606 6.93768451,35.9829521 6.23430423,36.157093 L6.23430423,36.3231775 C7.55864225,36.4483606 9.20337465,36.4917408 10.1843887,36.4917408 C14.6928394,36.4917408 16.8816845,34.4435718 16.8816845,31.7205296 C16.8816845,29.0935437 14.3619099,27.9823887 11.6518817,27.9148394" id="Fill-19" fill="#333333"></path>
                <path d="M23.0107606,36.0415155 C20.9142535,36.0415155 19.7225352,33.6531211 19.6295775,30.967262 C19.5372394,28.2807831 20.6979718,26.3144169 22.6730141,26.3144169 C24.5891831,26.3144169 25.955662,28.547262 26.0535775,31.3886704 C26.1477746,34.0751493 24.9771268,36.0415155 23.0107606,36.0415155 M22.8421972,25.7777408 C19.6686197,25.7777408 17.6334648,28.1363887 17.6334648,31.1773465 C17.6334648,34.3645577 19.8055775,36.5775718 22.8421972,36.5775718 C25.8949296,36.5775718 28.0503099,34.2269803 28.0503099,31.1773465 C28.0503099,28.0744169 26.004,25.7777408 22.8421972,25.7777408" id="Fill-21" fill="#333333"></path>
                <path d="M61.0151099,36.0415155 C58.9186028,36.0415155 57.7275042,33.6531211 57.6345465,30.967262 C57.5415887,28.2807831 58.7023211,26.3144169 60.6779831,26.3144169 C62.5941521,26.3144169 63.9593915,28.547262 64.0585465,31.3886704 C64.1521239,34.0751493 62.9814761,36.0415155 61.0151099,36.0415155 M60.8465465,25.7777408 C57.672969,25.7777408 55.6378141,28.1363887 55.6378141,31.1773465 C55.6378141,34.3645577 57.8105465,36.5775718 60.8465465,36.5775718 C63.8992789,36.5775718 66.0552789,34.2269803 66.0552789,31.1773465 C66.0552789,28.0744169 64.008969,25.7777408 60.8465465,25.7777408" id="Fill-23" fill="#333333"></path>
                <path d="M37.4386085,26.4948789 L37.4386085,33.8905972 C37.0308338,33.3731324 34.0803549,29.4980338 32.4095944,27.2936958 C31.3913972,25.9507662 29.9951718,25.2591606 27.8515662,25.9681183 L27.8515662,26.0635549 C28.1477915,26.0734704 28.4210873,26.1478366 28.6925239,26.2885127 C29.0612563,26.4800056 29.1938761,26.6789352 29.1938761,27.3519493 L29.1938761,34.8170761 C29.1938761,35.6307662 28.9559042,36.1593859 28.5059887,36.1593859 L28.5059887,36.3223718 L30.8181577,36.3223718 L30.8181577,36.1550479 C30.2622704,36.1550479 30.0782141,35.6958366 30.0782141,34.5896394 L30.0782141,27.5217521 C30.3762986,27.8706535 30.7004113,28.2840056 31.0672845,28.7692451 C32.1567493,30.2063718 34.5761296,33.3756113 35.3520169,34.4105408 C36.1285239,35.4460901 37.0048056,36.3930197 38.3347211,36.636569 L38.3347211,30.9940338 C38.3347211,27.5886817 38.4245803,26.3665972 38.5280732,25.7512169 C37.7212,25.9098648 37.4386085,26.1255268 37.4386085,26.4948789" id="Fill-25" fill="#333333"></path>
                <path d="M75.4992282,26.4948789 L75.4992282,33.8905972 C75.0920732,33.3731324 72.1403549,29.4980338 70.4695944,27.2936958 C69.4513972,25.9507662 68.0551718,25.2591606 65.9115662,25.9681183 L65.9115662,26.0635549 C66.2077915,26.0734704 66.4810873,26.1478366 66.7525239,26.2885127 C67.1212563,26.4800056 67.2538761,26.6789352 67.2538761,27.3519493 L67.2538761,34.8170761 C67.2538761,35.6307662 67.0165239,36.1593859 66.5659887,36.1593859 L66.5659887,36.3223718 L68.8781577,36.3223718 L68.8781577,36.1550479 C68.3222704,36.1550479 68.1382141,35.6958366 68.1382141,34.5896394 L68.1382141,27.5217521 C68.4369183,27.8706535 68.761031,28.2840056 69.1279042,28.7692451 C70.2167493,30.2063718 72.6367493,33.3756113 73.4126366,34.4105408 C74.1885239,35.4460901 75.0648056,36.3930197 76.3953408,36.636569 L76.3953408,30.9940338 C76.3953408,27.5886817 76.4852,26.3665972 76.5880732,25.7512169 C75.7818197,25.9098648 75.4992282,26.1255268 75.4992282,26.4948789" id="Fill-27" fill="#333333"></path>
                <path d="M41.6967549,32.6896451 C42.3493183,31.1936451 43.0403042,29.5817577 43.3693746,28.7494761 C43.5943324,29.2824338 44.3088676,31.0449127 44.9471775,32.6896451 L41.6967549,32.6896451 Z M47.7606986,35.1121239 C47.346107,34.0666592 44.1105577,25.3937014 44.1105577,25.3937014 L43.9438535,25.3937014 C43.265262,26.9925746 39.5754592,36.0714479 38.7685859,36.3149972 C39.9696,36.4612507 40.0445859,36.3422648 40.2373183,35.9555606 C40.3693183,35.6903211 40.8316282,34.6591099 41.3720225,33.4308282 L42.4608676,33.4308282 C43.7746704,33.4308282 44.329938,33.3583211 45.1107831,33.1129127 C45.3066141,33.6217014 45.4900507,34.1075606 45.6425014,34.5277296 C46.1221634,35.8452507 46.1017127,35.8043493 46.1506704,35.928293 C46.1506704,35.928293 46.2101634,36.3032225 46.7065577,36.3032225 L48.8012056,36.3180958 L48.8012056,36.156969 C48.4306141,36.156969 48.1195155,36.016293 47.7606986,35.1121239 L47.7606986,35.1121239 Z" id="Fill-29" fill="#333333"></path>
                <path d="M52.0661296,26.707938 C52.0661296,26.707938 53.5268056,26.8504732 54.6912563,26.8504732 C55.5966648,26.8504732 56.0893408,26.5406141 56.3211155,25.9971211 C55.1380732,25.9971211 50.6246648,25.9729521 49.1162704,26.0020789 C49.2588056,26.5245014 49.7204958,26.5523887 50.0576225,26.5523887 C50.2893972,26.5523887 50.3631437,26.6614592 50.3631437,27.315262 L50.3631437,34.8169521 C50.3631437,35.6306423 49.9008338,36.159262 49.451538,36.159262 L49.451538,36.3222479 L52.806693,36.3222479 L52.806693,36.1549239 C52.2514254,36.1549239 52.0661296,35.6957127 52.0661296,34.5895155 L52.0661296,31.1339662 C53.6408338,31.2814592 54.3832563,31.123431 54.7600451,30.4336845 L52.0661296,30.4336845 L52.0661296,26.707938 Z" id="Fill-31" fill="#333333"></path>
                <path d="M74.6344113,22.233138 L85.7379042,22.233138 C85.7379042,22.233138 85.6846085,23.1695324 84.1861296,23.1695324 L81.1625239,23.1695324 L81.1625239,34.9150535 C81.1625239,34.9150535 81.1625239,36.1458141 82.0722704,36.1458141 L82.0722704,36.2796732 L78.4872,36.2796732 L78.4872,36.1191662 C78.4872,36.1191662 79.3436507,36.0119549 79.3436507,34.9683493 L79.3436507,23.0356732 L75.9451155,23.0356732 C75.9451155,23.0356732 75.0378479,23.1280113 74.6344113,22.233138" id="Fill-33" fill="#333333"></path>
                <path d="M23.306738,41.8576958 C23.1827944,42.2989352 22.3201465,42.0020901 21.8417239,42.0888507 C21.6911324,42.2214704 21.6750197,42.488569 21.6874141,42.7829352 C21.9718648,42.9614141 22.5860056,42.8102028 22.9981183,42.8604 C22.8276958,43.1776958 22.1032451,42.9415831 21.6874141,43.0147099 C21.4382873,44.0552169 22.5866254,44.0397239 23.306738,43.8624845 C23.0675268,44.4636113 21.6843155,44.1525127 21.4562592,43.7856394 C21.3168225,43.2223155 21.3118648,42.2301465 21.6099493,41.8576958 L23.306738,41.8576958 Z" id="Fill-35" fill="#333333"></path>
                <path d="M24.3095042,41.8576958 L24.4631944,41.8576958 C24.9509127,42.0386535 24.578462,43.0797803 24.694969,43.6313296 C24.7897859,44.0893014 25.8278141,43.8835549 26.083138,43.9399493 C25.7540676,44.4189915 24.6144056,44.1295831 24.3863493,43.7856394 C24.2964901,43.2074423 24.3002085,42.5350479 24.3095042,41.8576958" id="Fill-37" fill="#333333"></path>
                <path d="M28.7050423,43.3228958 C29.1177746,43.2726986 29.7319155,43.4245296 30.0163662,43.245431 C29.7529859,42.8915718 29.6860563,42.3418817 29.3222817,42.0890366 C29.0477465,42.4317408 28.8543944,42.8556282 28.7050423,43.3228958 M30.5561408,44.1712901 C30.1657183,44.1756282 30.2029014,43.7529803 30.0932113,43.4772056 L28.7050423,43.4772056 C28.4410423,43.5726423 28.6294366,44.1217127 28.3195775,44.1712901 C28.0561972,43.4474592 28.8277465,42.4862761 29.1679718,41.8578817 C30.1737746,42.0853183 30.2208732,43.2726986 30.5561408,44.1712901" id="Fill-39" fill="#333333"></path>
                <path d="M33.7953465,42.2432225 C32.0043606,40.9027718 30.8163606,44.4382648 33.409262,43.8625465 C33.6336,43.804293 33.3398535,43.2273352 33.5635718,43.1690817 C33.9756845,43.0655887 33.7290366,43.6208563 33.7953465,43.8625465 C32.6972056,44.6948282 31.1348958,43.7336451 31.5587831,42.5518423 C31.7825014,41.9265465 33.2307831,41.4475042 33.7953465,42.2432225" id="Fill-41" fill="#333333"></path>
                <path d="M34.8750197,41.8576958 L35.0293296,41.8576958 C35.5647662,42.0157239 35.0466817,43.227893 35.3373296,43.6313296 C35.4606535,43.9938648 36.1851042,44.000062 36.5711887,43.8624845 C37.1258366,43.6201746 36.7149634,42.4123437 36.9566535,41.8576958 C37.4257803,42.0591042 37.1326535,43.252062 37.1109634,43.7087944 C36.022738,44.8521746 34.2943437,43.7912169 34.8750197,41.8576958" id="Fill-43" fill="#333333"></path>
                <path d="M38.6538141,43.3228958 L39.9645183,43.3228958 C39.8145465,42.8302197 39.6478423,42.3548958 39.2704338,42.0890366 C39.0281239,42.4639662 38.836631,42.889093 38.6538141,43.3228958 M40.504293,44.1712901 C40.1095324,44.1805859 40.1814197,43.7232338 40.0419831,43.4772056 L38.7306592,43.4772056 C38.396631,43.5286423 38.6370817,44.1545577 38.2683493,44.1712901 C38.1078423,43.2584451 38.7895324,42.5383324 39.1161239,41.8578817 C40.1206873,42.0871775 40.2111662,43.2311775 40.504293,44.1712901" id="Fill-45" fill="#333333"></path>
                <path d="M48.2939662,41.8576958 L48.6800507,41.8576958 C48.6800507,42.3144282 48.6930648,43.0890761 48.6930648,43.7087944 C48.8969521,43.9430479 49.5811211,43.8624845 49.9901352,43.8624845 C50.0700789,44.4127944 48.5257408,44.1754423 48.3708113,43.7856394 C48.2561634,43.2316113 48.3001634,42.5195549 48.2939662,41.8576958" id="Fill-47" fill="#333333"></path>
                <path d="M50.8509239,41.8576958 L51.2376282,41.8576958 C51.2376282,42.2351042 51.2277127,43.491893 51.2277127,44.1680056 C51.0281634,44.1680056 50.9618535,44.1711042 50.8509239,44.1711042 L50.8509239,41.8576958 Z" id="Fill-49" fill="#333333"></path>
                <path d="M54.9262535,42.2432225 C54.399493,41.824293 53.4184789,42.052969 53.0751549,42.4743775 C52.6816338,43.5031099 53.5554366,44.2213634 54.5407887,43.8625465 C54.6969577,43.7677296 54.5469859,43.1622648 54.6393239,43.1269408 C55.0675493,43.0333634 54.9262535,43.6598986 54.9262535,43.9400113 C53.8683944,44.5814197 52.223662,43.8346592 52.7671549,42.3975324 C53.024338,41.9215887 54.6132958,41.4778704 54.9262535,42.2432225" id="Fill-51" fill="#333333"></path>
                <path d="M58.1967549,41.8449915 L58.1967549,42.0352451 C57.8893746,42.0352451 57.1661634,42.0185127 56.7769803,42.0891606 C56.5160789,42.1362592 56.4547268,42.5682028 56.6133746,42.8222873 L57.8255437,42.8222873 L57.8255437,43.082569 C57.3997972,43.082569 56.9703324,43.0776113 56.5978817,43.0776113 C56.3939944,44.0734986 57.6154592,43.8274704 58.1651493,43.8206535 C58.1651493,43.9061746 58.1725859,44.0784563 58.073431,44.1236958 C55.9403606,44.5581183 55.6639662,42.7621746 56.5644169,41.7303437 C57.1296,41.7303437 58.1967549,41.6163155 58.1967549,41.8449915" id="Fill-53" fill="#333333"></path>
                <path d="M59.8059775,42.0477634 C59.8059775,42.2318197 59.8127944,42.5305239 59.8127944,42.8032 C60.4579211,42.831707 60.992738,42.8918197 60.992738,42.3904676 C60.992738,42.0223549 60.5930197,41.9907493 59.8059775,42.0477634 M61.3608507,42.5367211 C61.3608507,42.7926648 61.060907,43.0052282 60.7101465,43.0145239 C61.1265972,43.2407211 61.2443437,43.7656225 61.5585408,44.0940732 C60.7857521,44.275031 60.9251887,42.8341859 59.8189915,43.091369 C59.8189915,43.4824113 59.8127944,43.6726648 59.8127944,44.1170028 C59.6789352,44.1170028 59.4762873,44.1232 59.3870479,44.1232 C59.3870479,43.5394254 59.3833296,42.4604958 59.3833296,41.8420169 C60.0966254,41.742862 61.3608507,41.4832 61.3608507,42.5367211" id="Fill-55" fill="#333333"></path>
                <path d="M63.1012056,43.3228958 L64.3350648,43.3228958 C64.1844732,42.8302197 64.017769,42.3548958 63.6409803,42.0890366 C63.4463887,42.4850366 63.1495437,42.7800225 63.1012056,43.3228958 M64.8748394,44.1712901 C64.4800789,44.1805859 64.5513465,43.7232338 64.4119099,43.4772056 L63.1012056,43.4772056 C62.7820507,43.5435155 62.9692056,44.1167549 62.6382761,44.1712901 C62.477769,43.2584451 63.1637972,42.5426704 63.4866704,41.8578817 C64.4906141,42.0871775 64.5817127,43.2311775 64.8748394,44.1712901" id="Fill-57" fill="#333333"></path>
                <path d="M82.8275211,35.4057465 L83.0010423,35.4057465 C83.0840845,35.4057465 83.1410986,35.3933521 83.1714648,35.3685634 C83.2012113,35.3437746 83.2167042,35.3109296 83.2167042,35.2706479 C83.2167042,35.244 83.2092676,35.2210704 83.1943944,35.2 C83.1795211,35.1789296 83.1596901,35.1634366 83.133662,35.1535211 C83.1082535,35.1436056 83.0599155,35.1380282 82.990507,35.1380282 L82.8275211,35.1380282 L82.8275211,35.4057465 Z M82.6849859,35.9046197 L82.6849859,35.0184225 L82.9892676,35.0184225 C83.0933803,35.0184225 83.1689859,35.0264789 83.2154648,35.0432113 C83.2619437,35.0593239 83.2991268,35.087831 83.3270141,35.1287324 C83.3542817,35.1690141 83.3679155,35.2123944 83.3679155,35.2582535 C83.3679155,35.3233239 83.3449859,35.3797183 83.2991268,35.4274366 C83.2526479,35.4757746 83.1912958,35.5024225 83.1150704,35.5086197 C83.1460563,35.5216338 83.1714648,35.5371268 83.1900563,35.5557183 C83.226,35.5904225 83.2693803,35.6492958 83.3214366,35.7310986 L83.4292676,35.9046197 L83.254507,35.9046197 L83.1758028,35.7651831 C83.113831,35.6548732 83.0642535,35.5867042 83.025831,35.5588169 C82.9998028,35.5383662 82.962,35.5284507 82.9118028,35.5284507 L82.8275211,35.5284507 L82.8275211,35.9046197 L82.6849859,35.9046197 Z M83.0462817,34.7612394 C82.9303944,34.7612394 82.8176056,34.7909859 82.7079155,34.8504789 C82.5988451,34.9099718 82.5127042,34.9948732 82.4513521,35.1051831 C82.3887606,35.2148732 82.3577746,35.3301408 82.3577746,35.4497465 C82.3577746,35.5681127 82.3881408,35.6821408 82.449493,35.7905915 C82.5096056,35.899662 82.5951268,35.9845634 82.7041972,36.0452958 C82.8138873,36.1060282 82.9272958,36.1363944 83.0462817,36.1363944 C83.1646479,36.1363944 83.2786761,36.1060282 83.3877465,36.0452958 C83.4968169,35.9845634 83.5817183,35.899662 83.641831,35.7905915 C83.7025634,35.6821408 83.7329296,35.5681127 83.7329296,35.4497465 C83.7329296,35.3301408 83.7019437,35.2148732 83.6405915,35.1051831 C83.5792394,34.9948732 83.4930986,34.9099718 83.3834085,34.8504789 C83.2737183,34.7909859 83.1609296,34.7612394 83.0462817,34.7612394 L83.0462817,34.7612394 Z M83.0462817,34.6249014 C83.1838592,34.6249014 83.3195775,34.6602254 83.4509577,34.731493 C83.5829577,34.8027606 83.685831,34.9037746 83.7589577,35.0363944 C83.8327042,35.1683944 83.8692676,35.3059718 83.8692676,35.4497465 C83.8692676,35.591662 83.8333239,35.728 83.7608169,35.8587606 C83.6883099,35.9901408 83.5866761,36.0917746 83.4565352,36.1642817 C83.3251549,36.2367887 83.1888169,36.2727324 83.0462817,36.2727324 C82.9031268,36.2727324 82.766169,36.2367887 82.6354085,36.1642817 C82.5046479,36.0917746 82.4030141,35.9901408 82.330507,35.8587606 C82.258,35.728 82.2214366,35.591662 82.2214366,35.4497465 C82.2214366,35.3059718 82.2586197,35.1683944 82.3323662,35.0363944 C82.4061127,34.9037746 82.5089859,34.8027606 82.6409859,34.731493 C82.7723662,34.6602254 82.9080845,34.6249014 83.0462817,34.6249014 L83.0462817,34.6249014 Z" id="Fill-59" fill="#333333"></path>
            </g>
        </g>
    </g>
</svg>