<?xml version="1.0" encoding="UTF-8"?>
<svg width="64px" height="64px" viewBox="0 0 64 64" version="1.1" xmlns="http://www.w3.org/2000/svg" xmlns:xlink="http://www.w3.org/1999/xlink">
    <!-- Generator: Sketch 58 (84663) - https://sketch.com -->
    <title>Group 27</title>
    <desc>Created with Sketch.</desc>
    <g id="Page-1" stroke="none" stroke-width="1" fill="none" fill-rule="evenodd">
        <g id="Desktop-HD-Copy-3" transform="translate(-1070.000000, -897.000000)">
            <g id="Group-27" transform="translate(1070.000000, 897.000000)">
                <path d="M48.8426843,56.8332694 C48.5025851,57.1733686 47.9927008,57.3436826 47.4822876,57.4304264 C46.8846017,57.3436826 46.3741884,57.1733686 46.0340893,56.8332694 C45.6072463,56.4096 45.4369322,55.8991868 45.4369322,55.3893025 C45.4369322,54.7921455 45.6072463,54.3647736 46.0340893,53.9416331 C46.3741884,53.601005 46.8846017,53.3439471 47.4822876,53.3439471 C47.9927008,53.3439471 48.5025851,53.601005 48.8426843,53.9416331 C49.2663537,54.3647736 49.4361388,54.7921455 49.4361388,55.3893025 C49.4361388,55.8991868 49.2663537,56.4096 48.8426843,56.8332694 M62.2848,23.7346909 C61.0941884,20.7557818 59.3095934,18.4576 57.0114116,16.8396165 L56.0741554,16.1594182 C53.6056595,14.7984926 50.8007669,14.1177653 47.5648,14.2880793 C43.312238,14.4583934 38.5455603,16.0758479 33.1854281,18.884443 C33.3557421,19.5651702 33.6085686,20.1586248 33.9491967,20.7557818 C35.227081,21.8596496 35.824238,22.8841785 35.824238,23.7346909 L37.0978909,25.0956165 C38.8861884,23.7346909 41.0140562,22.6271207 43.3958083,22.0299636 C45.9468165,21.4365091 48.162486,21.3492364 50.2866512,21.8596496 C52.5848331,22.4568066 54.3731306,23.7346909 55.4807008,25.6890711 C56.7543537,27.9042116 57.1817256,30.8825917 56.7543537,34.6252694 C56.6713124,36.8361785 56.0741554,39.1348893 54.8835438,41.6864264 C53.7759736,44.3247074 52.1616926,46.7932033 50.1163372,48.9216 C47.9054281,51.3895669 45.353362,53.3439471 42.4585521,54.7085752 C39.2257587,56.2398149 35.7374942,57.0030545 31.9942876,57.0030545 C27.7385521,57.0030545 23.8260893,56.0695008 20.3367669,54.4520463 C17.271643,52.9208066 14.6365355,50.7924099 12.421924,47.9838149 C10.4633124,45.6025917 9.01934545,42.8807405 7.91177521,39.8150876 C6.97822149,37.0932364 6.46780826,34.4549554 6.46780826,31.9034182 C6.46780826,28.3273521 7.23104793,24.9253025 8.84956033,21.4365091 C10.6336264,17.6901289 13.1021223,14.6281785 16.2508165,12.0766413 C19.8268826,9.18130248 24.0794446,7.39670744 28.8455934,6.62923636 C34.2892959,5.69198017 40.2465851,6.11935207 46.8015603,7.90712066 L45.9468165,5.77925289 L44.3330645,4.5013686 L42.885395,3.14044298 L41.7778248,2.88338512 L40.1635438,1.18236033 C35.3138248,-0.178565289 30.2937917,-0.348350413 25.4403702,0.588905785 C20.7604364,1.5224595 16.4206017,3.48054215 12.5917091,6.37270744 C8.7622876,9.26804628 5.70033719,12.9271537 3.48889917,17.1797157 C1.19071736,21.6893355 0.000105785124,26.6263273 0.000105785124,31.9034182 C0.000105785124,36.5828231 0.933659504,41.0056992 2.80870083,45.0921785 C4.50972562,48.8343273 6.97822149,52.1533355 10.1232132,55.0486744 C13.1021223,57.6837818 16.5073455,59.8116496 20.3367669,61.2598479 C24.1661884,62.7075174 28.0786512,63.470757 31.9942876,63.470757 C36.4176926,63.3877157 40.673957,62.5372033 44.756205,60.6626909 C48.5025851,58.8780959 51.8215934,56.4926413 54.8005025,53.3439471 C57.6048661,50.365038 59.9030479,46.9629884 61.4342876,43.2208397 C62.9692298,39.4749884 63.8192132,35.7323107 63.8192132,31.9864595 C63.8192132,29.0948231 63.3093289,26.2862281 62.2848,23.7346909" id="Fill-1" fill="#333333"></path>
                <path d="M47.480595,53.6858446 C47.9063802,53.6858446 48.3311074,53.8556298 48.6717355,54.1962579 C48.9266777,54.536886 49.0975207,54.8769851 49.1821488,55.3873983 C49.0975207,55.8131835 48.9266777,56.2384397 48.6717355,56.5790678 C48.3311074,56.9191669 47.9063802,57.089481 47.480595,57.089481 C46.9696529,57.089481 46.5443967,56.9191669 46.2037686,56.5790678 C45.9488264,56.2384397 45.7785124,55.8131835 45.7785124,55.3873983 C45.7785124,54.8769851 45.9488264,54.536886 46.2037686,54.1962579 C46.5443967,53.8556298 46.9696529,53.6858446 47.480595,53.6858446 M47.480595,53.3452165 C46.8844959,53.3452165 46.3740826,53.6006876 46.0339835,53.9407868 C45.6081983,54.3665719 45.4384132,54.7918281 45.4384132,55.3873983 C45.4384132,55.8983405 45.6081983,56.4087537 46.0339835,56.8340099 C46.3740826,57.174638 46.8844959,57.3449521 47.480595,57.4301091 C47.9910083,57.3449521 48.5019504,57.174638 48.8415207,56.8340099 C49.2673058,56.4087537 49.4376198,55.8983405 49.4376198,55.3873983 C49.4376198,54.7918281 49.2673058,54.3665719 48.8415207,53.9407868 C48.5019504,53.6006876 47.9910083,53.3452165 47.480595,53.3452165" id="Fill-3" fill="#FFFFFF"></path>
                <path d="M48.2461091,54.3666248 C48.4164231,54.4517818 48.5015802,54.6215669 48.5015802,54.877038 C48.5015802,55.2176661 48.2461091,55.4726083 47.7356959,55.4726083 L48.5015802,56.4934347 L48.161481,56.4934347 L47.4807537,55.4726083 L46.9698116,55.4726083 L46.9698116,56.4934347 L46.7143405,56.4934347 L46.7143405,54.2814678 L47.7356959,54.2814678 L48.2461091,54.3666248 Z M48.6718942,54.1963107 C48.3312661,53.8556826 47.9060099,53.6858975 47.4807537,53.6858975 C46.9698116,53.6858975 46.5445554,53.8556826 46.2039273,54.1963107 C45.9489851,54.5369388 45.7786711,54.877038 45.7786711,55.3874512 C45.7786711,55.8132364 45.9489851,56.2384926 46.2039273,56.5791207 C46.5445554,56.9192198 46.9698116,57.0895339 47.4807537,57.0895339 C47.9060099,57.0895339 48.3312661,56.9192198 48.6718942,56.5791207 C48.9268364,56.2384926 49.0971504,55.8132364 49.1823074,55.3874512 C49.0971504,54.877038 48.9268364,54.5369388 48.6718942,54.1963107 L48.6718942,54.1963107 Z" id="Fill-5" fill="#333333"></path>
                <path d="M46.9697587,55.2176132 L46.9697587,54.4517289 L47.650486,54.4517289 C47.991114,54.4517289 48.1614281,54.622043 48.1614281,54.8769851 C48.1614281,55.0472992 48.0762711,55.1324562 47.906486,55.2176132 L46.9697587,55.2176132 Z M48.5015273,54.8769851 C48.5015273,54.622043 48.4163702,54.4517289 48.2460562,54.3665719 L47.735643,54.2814149 L46.7148165,54.2814149 L46.7148165,56.4939107 L46.9697587,56.4939107 L46.9697587,55.4725554 L47.4807008,55.4725554 L48.1614281,56.4939107 L48.5015273,56.4939107 L47.735643,55.4725554 C48.2460562,55.4725554 48.5015273,55.2176132 48.5015273,54.8769851 L48.5015273,54.8769851 Z" id="Fill-7" fill="#FFFFFF"></path>
                <path d="M46.9697587,54.4515702 L46.9697587,55.2174545 L47.906486,55.2174545 C48.0762711,55.1322975 48.1614281,55.0471405 48.1614281,54.8773554 C48.1614281,54.6218843 47.991114,54.4515702 47.650486,54.4515702 L46.9697587,54.4515702 Z" id="Fill-9" fill="#333333"></path>
                <path d="M43.1407603,30.2854876 C43.1407603,29.3492893 42.8001322,28.583405 42.119405,27.9026777 C41.4386777,27.2219504 40.6733223,26.8818512 39.736595,26.8818512 C38.8009256,26.8818512 38.0355702,27.2219504 37.354314,27.9026777 C36.6735868,28.583405 36.3334876,29.3492893 36.3334876,30.2854876 C36.3334876,31.306314 36.6735868,32.0716694 37.354314,32.7529256 C38.0355702,33.4336529 38.8009256,33.774281 39.736595,33.774281 C40.6733223,33.774281 41.4386777,33.4336529 42.119405,32.7529256 C42.8001322,32.0716694 43.1407603,31.306314 43.1407603,30.2854876" id="Fill-11" fill="#333333"></path>
                <path d="M53.0116231,29.7749157 C52.0754248,28.7535603 50.9694413,28.3283041 49.6074579,28.3283041 C48.2460033,28.3283041 47.0548628,28.7535603 46.1191934,29.7749157 C45.182995,30.711114 44.6720529,31.9017256 44.6720529,33.2631802 C44.6720529,34.6251636 45.182995,35.7311471 46.1191934,36.7519736 C47.0548628,37.6881719 48.2460033,38.113957 49.6074579,38.113957 C50.9694413,38.113957 52.0754248,37.6881719 53.0116231,36.7519736 C54.0329785,35.7311471 54.4582347,34.6251636 54.4582347,33.2631802 C54.4582347,31.9017256 54.0329785,30.711114 53.0116231,29.7749157" id="Fill-13" fill="#333333"></path>
                <path d="M48.5017917,41.5171702 C45.4382545,46.027319 41.6939901,48.9205421 37.0986843,50.1968397 C32.9296926,51.3885091 28.8453289,51.133038 24.6758083,49.5166413 C22.7187835,48.7502281 20.9315438,47.7294017 19.3146182,46.4531041 C17.6130645,45.0911207 16.251081,43.5593521 15.2307835,41.8577983 C12.7628165,38.1986909 11.9117752,34.1994843 12.6776595,29.8596496 C21.3573289,38.1135339 33.2697917,41.9429554 48.5017917,41.5171702 M47.8210645,46.5377322 C49.7780893,44.4103934 51.2241719,41.8577983 52.1603702,38.7947901 C34.9718744,40.6666579 21.3573289,36.1565091 11.315676,25.2648727 C10.4651636,28.8388231 10.2096926,32.2424595 10.6349488,35.3906248 C11.0607339,38.369005 11.9964033,41.007286 13.4435438,43.474724 C14.8049983,45.6872198 16.6768661,47.6437157 18.889362,49.1760132 C21.0167008,50.7077818 23.3995107,51.8137653 26.0372628,52.4944926 C28.5898579,53.1752198 31.1429818,53.430162 33.7807339,53.2603769 C36.503114,53.0900628 39.0567669,52.4093355 41.438519,51.3033521 C43.906486,50.1968397 46.0338248,48.580443 47.8210645,46.5377322" id="Fill-15" fill="#333333"></path>
                <path d="M37.0988959,50.1969455 C41.6942017,48.920119 45.4384661,46.0274248 48.5020033,41.517276 C33.2700033,41.9430612 21.3570116,38.1136397 12.6773421,29.8597554 C11.9119868,34.1995901 12.7624992,38.1987967 15.2304661,41.8579041 C16.2512926,43.5594579 17.6127471,45.0912264 19.3148298,46.452681 C20.9317554,47.7289785 22.718995,48.7503339 24.6760198,49.5162182 C28.8455405,51.1331438 32.9293752,51.388086 37.0988959,50.1969455" id="Fill-17" fill="#FFFFFF"></path>
                <path d="M33.3551074,35.5608331 C33.4402645,35.8157752 33.6957355,36.0717752 33.9506777,36.1564033 L34.801719,36.0717752 C35.1418182,35.9014612 35.3121322,35.7311471 35.3967603,35.390519 C35.4819174,35.0504198 35.4819174,34.8801058 35.3121322,34.5400066 C33.6957355,31.4764694 31.3129256,30.711114 28.1647603,32.1571967 C27.8241322,32.3275107 27.6543471,32.4972959 27.5691901,32.7527669 C27.4835041,33.0928661 27.4835041,33.3483372 27.6543471,33.6038083 C27.7389752,33.8592793 27.9944463,34.1142215 28.2499174,34.1993785 C28.5048595,34.2845355 28.7598017,34.2845355 29.0152727,34.1993785 C30.9728264,33.3483372 32.3337521,33.7741223 33.3551074,35.5608331" id="Fill-19" fill="#333333"></path>
                <path d="M14.1242182,19.6488992 C13.1028628,20.5845686 12.6776066,21.776238 12.6776066,23.0525355 C12.6776066,24.4139901 13.1028628,25.6051306 14.1242182,26.5413289 C15.0604165,27.4775273 16.2510281,27.9879405 17.6130116,27.9879405 C18.9744661,27.9879405 20.0809785,27.4775273 21.101805,26.5413289 C22.0380033,25.6051306 22.4632595,24.4139901 22.4632595,23.0525355 C22.4632595,21.776238 22.0380033,20.5845686 21.101805,19.6488992 C20.0809785,18.6275438 18.9744661,18.1171306 17.6130116,18.1171306 C16.2510281,18.1171306 15.0604165,18.6275438 14.1242182,19.6488992" id="Fill-21" fill="#333333"></path>
                <path d="M23.6546645,26.3712793 C23.5695074,27.3074777 23.9096066,28.073362 24.6760198,28.7535603 C25.2715901,29.4348165 26.1221025,29.7749157 27.0588298,29.7749157 C27.9944992,29.7749157 28.7598545,29.4348165 29.4411107,28.7535603 C30.121838,28.073362 30.4619372,27.3074777 30.4619372,26.3712793 C30.4619372,25.435081 30.121838,24.5845686 29.4411107,23.9884694 C28.7598545,23.2225851 27.9944992,22.967114 27.0588298,22.967114 C26.1221025,22.967114 25.2715901,23.2225851 24.6760198,23.9884694 C23.9096066,24.5845686 23.5695074,25.435081 23.6546645,26.3712793" id="Fill-23" fill="#333333"></path>
                <path d="M52.5859967,9.01199339 L47.3956496,8.16148099 C39.3115504,7.39506777 31.7383934,8.58673719 24.5053355,11.8200595 L25.2712198,13.9473983 C25.6118479,13.5221421 26.1222612,14.0325554 26.8029884,15.4791669 C26.8881455,16.5005223 27.2287736,17.0960926 27.9095008,17.1812496 L27.7386579,17.9471339 C37.0990545,13.7770843 46.2039802,12.5859438 55.0539636,14.5434975 L58.7130711,15.4791669 C58.1169719,14.7132826 57.6917157,14.1177124 57.5214017,13.6072992 C57.0109884,12.1606876 56.3302612,11.6497455 55.3945917,11.9052165 C55.6495339,10.7987041 55.0539636,10.2031339 53.6073521,10.1179769 L52.5859967,9.01199339 Z" id="Fill-25" fill="#333333"></path>
            </g>
        </g>
    </g>
</svg>