<?xml version="1.0" encoding="UTF-8"?>
<svg width="88px" height="33px" viewBox="0 0 88 33" version="1.1" xmlns="http://www.w3.org/2000/svg" xmlns:xlink="http://www.w3.org/1999/xlink">
    <!-- Generator: Sketch 58 (84663) - https://sketch.com -->
    <title>Group 16</title>
    <desc>Created with Sketch.</desc>
    <defs>
        <polygon id="path-1" points="0 0.466341333 15.9119253 0.466341333 15.9119253 21.236688 0 21.236688"></polygon>
    </defs>
    <g id="Page-1" stroke="none" stroke-width="1" fill="none" fill-rule="evenodd">
        <g id="Desktop-HD-Copy-3" transform="translate(-919.000000, -912.000000)">
            <g id="Group-16" transform="translate(919.000000, 912.000000)">
                <path d="M19.212512,18.5435947 L19.212512,18.7371947 C20.145312,18.1739947 21.852512,16.395808 21.852512,15.251808 C21.852512,15.067008 21.782112,14.952608 21.518112,14.952608 C20.479712,14.952608 19.291712,17.2059947 19.212512,18.5435947 M28.3122987,15.806208 L28.2770987,15.991008 C31.6210987,12.902208 33.9184853,8.85362133 33.9184853,8.33442133 C33.9184853,8.10562133 33.7776853,7.95602133 33.6280853,7.95602133 C32.9944853,7.95602133 31.5424853,9.59282133 30.3192853,11.379808 C29.2010987,13.051808 28.6114987,14.319008 28.3122987,15.806208 M37.500672,15.093408 L37.4648853,15.207808 C40.580672,12.198208 43.4852587,8.07042133 43.4852587,6.88242133 C43.4852587,6.65362133 43.3708587,6.50402133 43.2212587,6.50402133 C41.812672,6.50402133 38.574272,11.819808 37.500672,15.093408 M16.1055253,20.2507947 L16.1055253,20.0307947 C16.1055253,16.7219947 19.335712,12.154208 22.538912,12.154208 C23.682912,12.154208 24.4314987,12.937408 24.4314987,14.090208 C24.4314987,16.607008 22.609312,18.9835947 19.854912,20.7699947 C20.048512,21.0339947 20.233312,21.1043947 20.567712,21.1043947 C21.676512,21.1043947 23.4282987,20.0659947 24.730112,19.0627947 L24.7658987,18.9131947 C25.2498987,15.691808 26.4378987,12.488608 28.7792853,9.37282133 C31.1546987,6.21362133 34.0240853,4.12743467 35.8808853,4.12743467 C36.9544853,4.12743467 37.588672,4.87602133 37.588672,5.72962133 C37.588672,9.22322133 32.1584853,15.4635947 28.3298987,18.9835947 L28.3738987,19.1771947 C28.5146987,19.8019947 28.9634987,20.1803947 29.5970987,20.1803947 C30.9346987,20.1803947 32.1232853,19.5115947 33.7600853,18.2795947 L33.7952853,18.1299947 C34.4288853,14.759008 35.7312853,11.635008 38.442272,8.03522133 C41.1180587,4.46242133 44.2332587,1.97143467 45.9410453,1.97143467 C46.9788587,1.97143467 47.5068587,2.64023467 47.5068587,3.49383467 C47.5068587,6.58322133 42.5348587,14.389408 37.034272,18.9131947 L37.034272,19.0627947 C37.104672,19.9867947 37.887872,20.6203947 38.706272,20.6203947 C39.111072,20.6203947 39.375072,20.5499947 39.929472,20.2155947 C40.0004587,20.3651947 40.0004587,20.4707947 40.0004587,20.6643947 C40.0004587,22.7411947 38.107872,24.3433813 36.620672,24.3433813 C34.8776853,24.3433813 34.059872,23.2251947 33.7600853,21.5531947 L33.6104853,21.6675947 C30.8642987,23.4099947 29.8528853,24.0435947 27.9602987,24.0435947 C26.5522987,24.0435947 25.583712,23.1113813 25.020512,21.7731947 L24.9154987,21.8529813 C22.609312,23.4099947 21.526912,24.0435947 19.5199253,24.0435947 C18.0327253,24.0435947 17.4431253,23.5601813 16.6599253,22.5563947 L16.5543253,22.5915947 C16.070912,22.7763947 15.5863253,22.8561813 15.1375253,22.8561813 C14.3983253,22.8561813 13.8791253,22.4067947 13.8791253,21.8529813 C13.8791253,21.2891947 13.8791253,21.2891947 16.1055253,20.2507947" id="Fill-1" fill="#333333"></path>
                <path d="M66.8866293,26.1473227 L66.9570293,26.0417227 C65.1354293,26.9657227 62.8650293,28.1537227 62.8650293,29.3423093 C62.8650293,29.5711093 63.0586293,29.7207093 63.2428427,29.7207093 C63.7268427,29.7207093 65.8042293,28.1537227 66.8866293,26.1473227 L66.8866293,26.1473227 Z M82.6491893,15.8325493 L78.1430027,19.581936 C78.4070027,19.537936 78.6270027,19.502736 78.7766027,19.502736 C80.1582027,19.502736 79.4107893,21.069136 80.3430027,21.069136 C81.6371893,21.069136 82.5347893,18.499536 82.6491893,16.0173493 L82.6491893,15.8325493 Z M68.6026293,23.0321227 L69.386416,21.773136 L69.2714293,21.8441227 C67.5202293,22.996336 67.2298293,23.1817227 66.2970293,23.1817227 C64.7740427,23.1817227 63.7708427,22.213136 63.7708427,20.761136 C63.7708427,16.897936 69.122416,12.5237493 73.064816,12.5237493 C73.689616,12.5237493 74.288016,12.7085493 74.288016,13.3069493 C74.288016,14.4157493 67.9338293,15.903536 67.9338293,18.798736 C67.9338293,19.168336 68.189616,19.502736 68.752816,19.502736 C71.278416,19.502736 72.281616,14.2661493 74.508016,14.2661493 C75.220816,14.2661493 75.6614027,14.7501493 75.6614027,15.2693493 C75.6614027,16.1317493 75.0278027,17.346736 73.100016,20.391536 L73.170416,20.356336 C78.7854027,16.8621493 82.7987893,11.5199627 86.4419893,11.5199627 C87.445776,11.5199627 87.9995893,12.0749493 87.9995893,13.1221493 C87.9995893,15.1989493 85.3683893,13.1221493 85.3683893,16.352336 C85.3683893,16.827536 85.4035893,17.4605493 85.4035893,17.945136 C85.4035893,21.174736 82.6139893,24.9681227 79.3046027,24.9681227 C77.4126027,24.9681227 76.1102027,23.9209227 76.1102027,22.213136 C76.1102027,21.9145227 76.1806027,21.509136 76.408816,20.840336 L76.2950027,20.910736 C75.0278027,21.808336 72.616016,23.5513227 70.979216,24.2553227 C70.680016,24.7041227 69.905616,26.1209227 69.2714293,27.0449227 C68.6378293,27.9783093 67.969616,28.8319093 67.265616,29.5711093 C65.4786293,31.4719093 63.3226293,32.7743093 61.7650293,32.7743093 C60.6820427,32.7743093 59.713456,31.8415093 59.713456,30.6183093 C59.713456,29.1663093 60.8316427,27.2297227 63.0668427,25.7073227 C64.5540427,24.6689227 65.7426293,24.4489227 68.6026293,23.0321227 L68.6026293,23.0321227 Z" id="Fill-3" fill="#333333"></path>
                <path d="M54.5127733,26.59624 L54.5919733,26.48184 C53.2895733,26.88664 50.5697867,28.3040267 50.5697867,29.3424267 C50.5697867,29.5712267 50.7633867,29.7560267 51.0185867,29.7560267 C51.6879733,29.7560267 53.1751733,28.4888267 54.5127733,26.59624 M54.7327733,15.9740533 L54.6265867,15.9740533 C52.9111733,15.9740533 52.2769867,15.6742667 51.7225867,15.6742667 C50.8689867,15.6742667 51.7225867,17.6372533 49.2321867,21.2452533 C47.6388,23.58664 45.9673867,24.5188533 44.1452,24.5188533 C41.954,24.5188533 40.8012,23.0668533 40.8012,21.0604533 C40.8012,17.3814667 44.4796,12.9286667 48.0441867,12.9286667 C48.7129867,12.9286667 49.2321867,13.2982667 49.2321867,13.8526667 C49.2321867,14.4862667 44.9196,16.5630667 44.9196,19.3884533 C44.9196,19.9780533 45.3337867,20.4268533 46.002,20.4268533 C49.0473867,20.4268533 48.3785867,13.3774667 50.7985867,13.3774667 C51.7583733,13.3774667 52.9897867,14.1166667 54.5831733,14.1166667 C56.9239733,14.1166667 59.01016,12.6998667 60.26856,12.6998667 C61.05176,12.6998667 61.46536,12.9638667 61.46536,13.5182667 C61.46536,14.6710667 55.9647733,16.4140533 55.9647733,19.3444533 C55.9647733,19.7228533 56.2199733,19.9780533 56.7391733,19.9780533 C59.59976,19.9780533 60.23336,13.0782667 63.57736,13.0782667 C64.0971467,13.0782667 64.62456,13.4830667 64.62456,14.2662667 C64.62456,15.0494667 64.1763467,16.1230667 62.7595467,18.3412533 C61.50056,20.3916533 61.23656,20.5412533 60.31256,22.16984 C61.4207733,21.7996533 62.42456,20.3916533 62.9091467,20.3916533 C63.09336,20.3916533 63.20776,20.6116533 63.20776,20.8756533 C63.20776,22.6180533 60.31256,24.66024 58.3759733,25.44344 C55.9999733,28.6824267 52.9897867,32.6952267 49.3817867,32.6952267 C48.2641867,32.6952267 47.3049867,31.8328267 47.3049867,30.6448267 C47.3049867,26.93064 52.0223733,25.18824 56.4399733,23.58664 L57.5223733,21.8348533 L57.40856,21.91464 C56.3343733,22.6180533 54.9169867,23.1372533 54.0633867,23.1372533 C52.6119733,23.1372533 51.7225867,22.2132533 51.7225867,20.7260533 C51.7225867,19.1244533 52.6119733,18.0068533 54.7327733,15.9740533" id="Fill-5" fill="#333333"></path>
                <path d="M10.7900907,14.266208 C11.0188907,14.785408 11.123904,15.049408 11.123904,15.498208 C11.123904,17.1619947 8.96849067,19.8723947 8.96849067,23.4369813 C8.96849067,25.5577813 10.3500907,27.3089813 12.5060907,27.3089813 C13.6940907,27.3089813 14.8826773,26.5609813 14.9964907,25.7073813 C13.9498773,25.7073813 13.3948907,24.8889813 13.3948907,23.9209813 C13.3948907,21.7291947 14.9172907,17.9803947 14.9172907,15.753408 C14.9172907,14.935008 14.7330773,14.530208 14.3634773,13.826208 L14.2836907,13.711808 C18.3762773,11.555808 21.2010773,9.24962133 23.542464,7.05842133 C25.768864,4.97282133 26.7374507,3.52903467 26.7374507,2.04183467 C26.7374507,0.704234667 26.068064,0.000234666667 24.880064,0.000234666667 C21.606464,0.000234666667 18.5962773,8.95042133 12.1716907,12.039808 L10.7900907,14.266208 Z" id="Fill-7" fill="#333333"></path>
                <g id="Group-11" transform="translate(0.000000, 3.441211)">
                    <mask id="mask-2" fill="white">
                        <use xlink:href="#path-1"></use>
                    </mask>
                    <g id="Clip-10"></g>
                    <path d="M9.55773867,6.785328 C9.55773867,8.158128 5.31613867,12.5059147 4.690752,13.0515147 C0.967765333,16.4753013 -0.000234666667,17.4081013 -0.000234666667,19.2649013 C-0.000234666667,20.4177013 0.818752,21.236688 1.936352,21.236688 C4.356352,21.236688 5.764352,19.1153013 9.67213867,11.9867147 C15.0935253,2.05914133 15.9119253,2.47274133 15.9119253,1.20554133 C15.9119253,0.721541333 15.5775253,0.466341333 15.2079253,0.466341333 C13.7911253,0.466341333 12.6383253,1.95354133 7.28733867,4.734928 C2.490752,7.225328 0.713152,8.52831467 0.713152,10.3851147 C0.713152,11.4323147 1.346752,12.2067147 2.305952,12.2067147 C5.174752,12.2067147 7.43693867,6.556528 9.33773867,6.556528 C9.47853867,6.556528 9.55773867,6.635728 9.55773867,6.785328" id="Fill-9" fill="#333333" mask="url(#mask-2)"></path>
                </g>
                <path d="M77.359568,9.25859733 C77.359568,10.5521973 78.5129547,10.4465973 78.5129547,11.2209973 C78.5129547,11.8193973 77.8089547,12.3033973 77.8089547,12.7081973 C77.8089547,12.937584 78.0729547,13.0865973 78.3721547,13.0865973 C80.184368,13.0865973 81.9009547,10.4113973 81.9009547,8.99459733 C81.9009547,7.84121067 80.8977547,6.91721067 79.744368,6.91721067 C78.4425547,6.91721067 77.359568,8.02601067 77.359568,9.25859733" id="Fill-12" fill="#333333"></path>
                <path d="M86.530224,22.5565707 L86.530224,22.8733707 L86.820624,22.8733707 C86.917424,22.8733707 87.014224,22.8557707 87.014224,22.7149707 C87.014224,22.5741707 86.9092107,22.5565707 86.847024,22.5565707 L86.530224,22.5565707 Z M86.530224,22.9877707 L86.530224,23.3837707 L86.407024,23.3837707 L86.407024,22.4509707 L86.838224,22.4509707 C86.987824,22.4509707 87.137424,22.5037707 87.137424,22.7061707 C87.137424,22.8381707 87.067024,22.8909707 87.014224,22.9261707 C87.067024,22.9525707 87.119824,22.9701707 87.119824,23.1021707 L87.1292107,23.2693707 C87.1292107,23.3221707 87.137424,23.3397707 87.181424,23.3661707 L87.181424,23.3837707 L87.023024,23.3837707 C87.0060107,23.3309707 87.0060107,23.1901707 87.0060107,23.1555573 C87.0060107,23.0757707 86.987824,22.9877707 86.838224,22.9877707 L86.530224,22.9877707 Z M86.732624,22.1869707 C86.292624,22.1869707 85.949424,22.5213707 85.949424,22.9261707 C85.949424,23.3397707 86.292624,23.6741707 86.732624,23.6741707 C87.1028107,23.6741707 87.5164107,23.3755573 87.5164107,22.9261707 C87.5164107,22.5213707 87.146224,22.1869707 86.732624,22.1869707 L86.732624,22.1869707 Z M86.741424,22.0373707 C87.2260107,22.0373707 87.674224,22.4069707 87.674224,22.9261707 C87.674224,23.4453707 87.190224,23.8243573 86.741424,23.8243573 C86.257424,23.8243573 85.817424,23.4453707 85.817424,22.9261707 C85.817424,22.4069707 86.257424,22.0373707 86.741424,22.0373707 L86.741424,22.0373707 Z" id="Fill-14" fill="#333333"></path>
            </g>
        </g>
    </g>
</svg>