<?xml version="1.0" encoding="UTF-8"?>
<svg width="88px" height="29px" viewBox="0 0 88 29" version="1.1" xmlns="http://www.w3.org/2000/svg" xmlns:xlink="http://www.w3.org/1999/xlink">
    <!-- Generator: Sketch 58 (84663) - https://sketch.com -->
    <title>Group 3</title>
    <desc>Created with Sketch.</desc>
    <defs>
        <polygon id="path-1" points="0.000123346587 0.000117333333 88 0.000117333333 88 28.9584811 0.000123346587 28.9584811"></polygon>
    </defs>
    <g id="Page-1" stroke="none" stroke-width="1" fill="none" fill-rule="evenodd">
        <g id="Desktop-HD-Copy-3" transform="translate(-769.000000, -914.000000)">
            <g id="Group-3" transform="translate(769.000000, 914.000000)">
                <mask id="mask-2" fill="white">
                    <use xlink:href="#path-1"></use>
                </mask>
                <g id="Clip-2"></g>
                <path d="M44.5190827,12.271952 C44.4774293,12.0900853 44.4891627,11.898832 44.5102827,11.798512 C44.576576,11.504592 44.7742827,11.1854453 45.340416,11.1854453 C45.8713493,11.1854453 46.179936,11.5145653 46.179936,12.0102987 L46.179936,12.569392 L48.4421227,12.569392 L48.4421227,11.9310987 C48.4421227,9.95520533 46.6703893,9.64544533 45.3873493,9.64544533 C43.774016,9.64544533 42.454016,10.1787253 42.2140693,11.6641653 C42.1501227,12.0683787 42.135456,12.4280053 42.235776,12.8856053 C42.628256,14.7400587 45.8549227,15.2786187 46.3230827,16.4496053 C46.4058027,16.6707787 46.3829227,16.9541387 46.340096,17.1219253 C46.2702827,17.4264053 46.063776,17.7338187 45.4559893,17.7338187 C44.886336,17.7338187 44.5425493,17.4052853 44.5425493,16.9101387 L44.541376,16.0307253 L42.1084693,16.0307253 L42.1084693,16.7306187 C42.1084693,18.7563787 43.696576,19.3688587 45.4061227,19.3688587 C47.0435093,19.3688587 48.395776,18.8097653 48.6134293,17.2920587 C48.7166827,16.5088587 48.6380693,15.9984587 48.5975893,15.806032 C48.2174293,13.9040587 44.7778027,13.3326453 44.5190827,12.271952 L44.5190827,12.271952 Z M65.3363627,17.2674187 L63.1786027,9.88656533 L59.7765227,9.88656533 L59.7765227,18.958192 L62.0246293,18.958192 L61.8943893,11.3414987 L64.2134827,18.958192 L67.4771093,18.958192 L67.4771093,9.88656533 L65.2114027,9.88656533 L65.3363627,17.2674187 Z M22.080256,9.88656533 L20.3812693,19.054992 L22.8575893,19.054992 L24.1388693,10.5659253 L25.387296,19.054992 L27.846016,19.054992 L26.1552427,9.88656533 L22.080256,9.88656533 Z M35.9291093,9.88656533 L34.7722027,17.052112 L33.6158827,9.88656533 L29.8747093,9.88656533 L29.6775893,19.054992 L31.9685227,19.054992 L32.0301227,10.5659253 L33.606496,19.054992 L35.9308693,19.054992 L37.510176,10.5659253 L37.5723627,19.054992 L39.8691627,19.054992 L39.664416,9.88656533 L35.9291093,9.88656533 Z M57.234496,9.88656533 L54.913056,9.88656533 L54.913056,16.6696053 C54.9177493,16.7869387 54.913056,16.9195253 54.8942827,17.0163253 C54.8450027,17.2451253 54.6514027,17.6833653 54.0131093,17.6833653 C53.3812693,17.6833653 53.1841493,17.2451253 53.1401493,17.0163253 C53.1155093,16.9195253 53.1131627,16.7869387 53.1155093,16.6696053 L53.1155093,9.88656533 L50.7975893,9.88656533 L50.7975893,16.4578187 C50.7952427,16.6285387 50.808736,16.974672 50.8169493,17.0650187 C50.977696,18.7757387 52.3264427,19.3336587 54.0131093,19.3336587 C55.7021227,19.3336587 57.0491093,18.7757387 57.2145493,17.0650187 C57.2251093,16.974672 57.2427093,16.6285387 57.234496,16.4578187 L57.234496,9.88656533 Z M87.9629227,7.011312 C87.367456,3.14752533 80.4846827,0.685872 70.198656,0.102138667 C57.274976,-0.630608 31.3038293,2.569072 14.3972693,9.70645867 C14.7615893,9.62901867 15.1587627,9.59381867 15.575296,9.59381867 C16.8718293,9.59381867 18.669376,9.911792 18.669376,11.9052853 L18.669376,12.5506187 L16.3843093,12.5506187 L16.3843093,11.983312 C16.3843093,11.4828853 16.068096,11.150832 15.5318827,11.150832 C14.9534293,11.150832 14.755136,11.4770187 14.6923627,11.768592 C14.6677227,11.868912 14.6571627,12.0636853 14.7011627,12.2484853 C14.9622293,13.3232587 18.4399893,13.892912 18.826016,15.8171787 C18.862976,16.011952 18.9462827,16.5264587 18.8371627,17.317872 C18.614816,18.8520053 17.2537493,19.4169653 15.5970027,19.4169653 C13.8745493,19.4169653 12.2641493,18.8003787 12.2641493,16.7499787 L12.2641493,16.0494987 L14.725216,16.0494987 L14.726976,16.9318453 C14.726976,17.4328587 15.0695893,17.766672 15.6433493,17.766672 C16.256416,17.766672 16.4635093,17.4539787 16.5374293,17.147152 C16.5831893,16.974672 16.6095893,16.691312 16.5198293,16.469552 C16.046976,15.2844853 12.7886293,14.7418187 12.3908693,12.866832 C12.294656,12.4045387 12.3058027,12.043152 12.3732693,11.6307253 C12.4735893,11.0141387 12.7581227,10.5600587 13.1717227,10.239152 C8.948896,12.1211787 5.35790933,14.2619253 2.776576,16.6625653 C0.789536,18.5099787 -0.219530667,20.278192 0.0403626667,21.964272 C0.503242667,24.972112 3.954016,26.656432 8.95652267,27.7593653 C17.1563627,29.5680587 30.938336,29.312272 44.838816,27.1163787 C55.4334293,25.4426187 66.080256,22.668272 74.199136,19.1388853 C73.8641493,19.204592 73.5068693,19.234512 73.1402027,19.234512 C71.5180693,19.234512 70.0678293,18.6419787 69.9182293,16.9699787 C69.887136,16.6619787 69.8806827,16.5317387 69.8806827,16.3651253 L69.8806827,12.5101387 C69.8806827,12.3417653 69.9088427,12.060752 69.927616,11.9029387 C70.1288427,10.1886987 71.5180693,9.638992 73.1460693,9.638992 C74.7705493,9.638992 76.1873493,10.1840053 76.3615893,11.9029387 C76.3891627,12.196272 76.3786027,12.5101387 76.3786027,12.5101387 L76.3786027,12.8110987 L74.0694827,12.8110987 L74.0694827,12.301872 C74.0694827,12.301872 74.0694827,12.080112 74.040736,11.9486987 C74.0014293,11.7486453 73.8271893,11.2840053 73.127296,11.2840053 C72.456736,11.2840053 72.2584427,11.7251787 72.2144427,11.9486987 C72.1815893,12.0707253 72.1727893,12.2338187 72.1727893,12.3816587 L72.1727893,16.5722187 C72.1727893,16.691312 72.1792427,16.818032 72.1974293,16.9206987 C72.236736,17.1688587 72.467296,17.5894987 73.1314027,17.5894987 C73.7966827,17.5894987 74.031936,17.1688587 74.0694827,16.9206987 C74.0888427,16.818032 74.0958827,16.691312 74.093536,16.5722187 L74.093536,15.2451787 L73.153696,15.2451787 L73.153696,13.9075787 L76.3967893,13.9075787 L76.3967893,16.3651253 C76.392096,16.5317387 76.3891627,16.6619787 76.363936,16.9699787 C76.3017493,17.6475787 76.027776,18.1480053 75.6165227,18.5035253 C79.0579093,16.909552 81.9789227,15.1730187 84.157216,13.3232587 C86.5250027,11.3133387 88.2803093,9.06933867 87.9629227,7.011312 L87.9629227,7.011312 Z" id="Fill-1" fill="#333333" mask="url(#mask-2)"></path>
            </g>
        </g>
    </g>
</svg>