<?xml version="1.0" encoding="UTF-8"?>
<svg width="48px" height="49px" viewBox="0 0 48 49" version="1.1" xmlns="http://www.w3.org/2000/svg" xmlns:xlink="http://www.w3.org/1999/xlink">
    <!-- Generator: Sketch 58 (84663) - https://sketch.com -->
    <title>Fill 1</title>
    <desc>Created with Sketch.</desc>
    <g id="Page-1" stroke="none" stroke-width="1" fill="none" fill-rule="evenodd">
        <g id="Desktop-HD-Copy-3" transform="translate(-1223.000000, -4186.000000)" fill="#2993FF">
            <g id="Group-24" transform="translate(0.000000, 3822.000000)">
                <g id="footer" transform="translate(0.000000, 161.000000)">
                    <path d="M1270.48603,232.612608 C1268.43299,242.430531 1260.44676,250.041818 1250.468,251.492644 L1250.468,236.341099 L1256.624,236.341099 L1257.548,229.163416 L1250.468,229.163416 L1250.468,224.579349 C1250.468,222.504456 1251.044,221.093046 1254.008,221.093046 L1257.788,221.080983 L1257.788,214.66329 C1257.14,214.578847 1254.896,214.385833 1252.28,214.385833 C1246.832,214.385833 1243.1,217.727377 1243.1,223.867613 L1243.1,229.163416 L1236.932,229.163416 L1236.932,236.341099 L1243.1,236.341099 L1243.1,251.420264 C1231.7,249.550448 1223,239.610262 1223,227.619309 C1223,214.289327 1233.752,203.492644 1247,203.492644 C1260.26,203.492644 1271,214.289327 1271,227.619309 C1271,229.331502 1270.82287,231.001756 1270.48603,232.612608 Z" id="Fill-1"></path>
                </g>
            </g>
        </g>
    </g>
</svg>