<?xml version="1.0" encoding="utf-8"?>
<!-- Generator: Adobe Illustrator 23.0.3, SVG Export Plug-In . SVG Version: 6.00 Build 0)  -->
<svg version="1.1" id="Capa_1" xmlns="http://www.w3.org/2000/svg" xmlns:xlink="http://www.w3.org/1999/xlink" x="0px" y="0px"
	 viewBox="0 0 205.3 42.9" style="enable-background:new 0 0 205.3 42.9;" xml:space="preserve">
<style type="text/css">
	.st0{fill-rule:evenodd;clip-rule:evenodd;fill:#FFFFFF;}
	.st1{fill:#FFFFFF;}
</style>
<title>logo-ss-seccion-panel</title>
<path class="st0" d="M28.2,40.9c0,1.1-0.9,2-2,2s-2-0.9-2-2s0.9-2,2-2S28.2,39.8,28.2,40.9"/>
<path class="st0" d="M15.8,40.9c0,1.1-0.9,2-2,2s-2-0.9-2-2s0.9-2,2-2S15.8,39.8,15.8,40.9"/>
<path class="st1" d="M53.1,33.1c-1.1-0.3-2.1-0.8-3-1.5c-0.4-0.3-0.6-0.8-0.6-1.3c0-0.4,0.1-0.7,0.3-1c0.2-0.3,0.5-0.4,0.8-0.4
	c0.4,0,0.8,0.2,1.1,0.4c0.7,0.5,1.6,0.9,2.4,1.2c0.9,0.3,1.9,0.4,2.8,0.4c1,0.1,2.1-0.2,3-0.7c0.7-0.4,1-1.2,1-2
	c0-0.7-0.4-1.3-1-1.6c-1-0.5-2.1-0.9-3.3-1.1c-1.3-0.3-2.6-0.7-3.8-1.2c-0.9-0.4-1.7-1-2.2-1.7c-0.5-0.8-0.7-1.7-0.7-2.6
	c0-1.1,0.3-2.1,0.9-3c0.7-0.9,1.6-1.6,2.6-2.1c3.4-1.3,7.2-0.8,10.1,1.3c0.2,0.2,0.4,0.4,0.5,0.6c0.3,0.6,0.2,1.2-0.2,1.7
	c-0.2,0.3-0.5,0.4-0.8,0.4c-0.2,0-0.3,0-0.5-0.1c-0.2-0.1-0.4-0.2-0.6-0.3c-0.7-0.5-1.4-0.9-2.1-1.2C59,17.1,58.2,17,57.3,17
	c-1-0.1-2,0.2-2.9,0.7c-0.7,0.5-1.1,1.2-1.1,2.1c0,0.7,0.4,1.4,1,1.7c1,0.5,2.1,0.9,3.2,1.1c1.3,0.3,2.6,0.7,3.9,1.2
	c0.9,0.4,1.7,0.9,2.3,1.7c0.5,0.7,0.8,1.6,0.7,2.5c0,1.1-0.3,2.1-0.9,3c-0.7,0.9-1.6,1.6-2.6,2c-1.2,0.5-2.5,0.7-3.9,0.7
	C55.7,33.7,54.4,33.5,53.1,33.1"/>
<path class="st1" d="M79.7,25.3V32c0,0.4-0.1,0.9-0.4,1.2c-0.3,0.3-0.8,0.5-1.2,0.4c-0.5,0-0.9-0.1-1.2-0.4
	c-0.3-0.3-0.5-0.7-0.5-1.2v-6.7c0.1-0.7-0.1-1.5-0.6-2.1c-0.5-0.5-1.1-0.7-1.8-0.7c-0.9,0-1.7,0.3-2.3,0.9c-0.6,0.7-0.9,1.6-0.9,2.5
	v6c0,0.4-0.1,0.9-0.5,1.2c-0.3,0.3-0.8,0.5-1.2,0.4c-0.5,0-0.9-0.1-1.2-0.4c-0.3-0.3-0.5-0.7-0.4-1.2V15.9c0-0.4,0.2-0.8,0.5-1.1
	c0.3-0.3,0.8-0.5,1.2-0.4c0.4,0,0.9,0.1,1.2,0.4c0.3,0.3,0.5,0.7,0.5,1.1v6.3c0.4-0.7,1.1-1.2,1.8-1.6c0.8-0.4,1.7-0.6,2.6-0.5
	C78.2,19.9,79.7,21.7,79.7,25.3"/>
<path class="st1" d="M83.3,17.1c-0.4-0.3-0.6-0.8-0.5-1.3c0-0.5,0.2-1,0.5-1.3c0.9-0.7,2-0.7,2.9,0c0.4,0.3,0.6,0.8,0.6,1.3
	c0,0.5-0.2,1-0.5,1.3c-0.4,0.3-0.9,0.5-1.5,0.5C84.3,17.6,83.8,17.4,83.3,17.1 M83.6,33.2c-0.3-0.3-0.5-0.7-0.5-1.2V21.6
	c0-0.4,0.1-0.9,0.5-1.2c0.3-0.3,0.8-0.4,1.2-0.4c0.4,0,0.9,0.1,1.2,0.4c0.3,0.3,0.5,0.7,0.5,1.2V32c0,0.5-0.1,0.9-0.5,1.2
	c-0.3,0.3-0.8,0.4-1.2,0.4C84.4,33.6,83.9,33.5,83.6,33.2"/>
<path class="st1" d="M101.2,21.3c0.9,1.2,1.3,2.6,1.2,4.1V32c0,0.4-0.1,0.9-0.4,1.2c-0.7,0.6-1.7,0.6-2.5,0C99.1,32.9,99,32.4,99,32
	v-6.5c0.1-0.8-0.1-1.6-0.6-2.2c-0.5-0.5-1.1-0.8-1.8-0.7c-0.9,0-1.7,0.3-2.3,0.9c-0.6,0.7-1,1.6-0.9,2.5v6c0,0.4-0.1,0.9-0.4,1.2
	c-0.3,0.3-0.8,0.5-1.2,0.4c-0.5,0-0.9-0.1-1.2-0.4C90.1,32.9,90,32.4,90,32V21.5c0-0.4,0.1-0.8,0.4-1.1c0.3-0.3,0.8-0.4,1.2-0.4
	c0.4,0,0.8,0.1,1.2,0.4c0.3,0.3,0.5,0.7,0.4,1.1v0.7c0.4-0.7,1.1-1.3,1.8-1.7c0.8-0.4,1.7-0.6,2.6-0.6
	C98.9,19.8,100.2,20.3,101.2,21.3"/>
<path class="st1" d="M118.1,20.4c0.3,0.3,0.5,0.7,0.5,1.1v10.6c0.1,1.7-0.5,3.4-1.7,4.7c-1.4,1.1-3.3,1.7-5.1,1.6
	c-1.7,0.1-3.4-0.3-4.9-1.1c-0.6-0.3-1-0.8-1-1.4c0-0.3,0.1-0.7,0.3-0.9c0.2-0.2,0.5-0.4,0.7-0.3c0.2,0,0.4,0,0.6,0.1
	c0.2,0.1,0.5,0.2,0.7,0.3c0.6,0.2,1.1,0.4,1.7,0.6c0.6,0.2,1.2,0.2,1.8,0.2c2.4,0,3.5-1.2,3.5-3.5v-1.7c-0.4,0.7-1,1.3-1.7,1.7
	c-0.8,0.4-1.7,0.6-2.6,0.6c-2.2,0.1-4.2-1.2-5.2-3.1c-0.5-1.1-0.8-2.2-0.8-3.4c0-1.2,0.2-2.4,0.7-3.4c0.5-1,1.2-1.8,2.1-2.3
	c0.9-0.6,2-0.8,3.1-0.8c0.9,0,1.8,0.2,2.6,0.6c0.7,0.4,1.3,1,1.7,1.7v-0.7c0-0.4,0.1-0.8,0.5-1.1C116.4,19.8,117.4,19.8,118.1,20.4
	 M114.3,29.4c0.6-0.8,1-1.8,0.9-2.9c0.1-1-0.3-2.1-0.9-2.9c-1.4-1.4-3.6-1.4-5,0c-0.6,0.8-1,1.9-0.9,2.9c-0.1,1,0.3,2.1,0.9,2.9
	C110.7,30.8,112.9,30.8,114.3,29.4"/>
<path class="st1" d="M132.3,33.1c-1.1-0.3-2.1-0.8-3-1.5c-0.4-0.3-0.6-0.8-0.6-1.3c0-0.4,0.1-0.7,0.3-1c0.2-0.3,0.5-0.4,0.8-0.4
	c0.4,0,0.8,0.2,1.1,0.4c0.7,0.5,1.6,0.9,2.4,1.2c0.9,0.3,1.9,0.4,2.8,0.4c1,0.1,2.1-0.2,3-0.7c0.7-0.4,1.1-1.2,1.1-2
	c0-0.7-0.4-1.3-1-1.6c-1-0.5-2.1-0.9-3.3-1.1c-1.3-0.3-2.6-0.7-3.9-1.2c-0.9-0.4-1.7-1-2.2-1.7c-0.5-0.8-0.8-1.7-0.7-2.6
	c0-1.1,0.3-2.1,0.9-3c0.7-0.9,1.6-1.6,2.6-2.1c3.4-1.3,7.2-0.8,10.1,1.3c0.2,0.2,0.4,0.4,0.5,0.6c0.1,0.2,0.2,0.5,0.1,0.7
	c0,0.4-0.1,0.7-0.3,1c-0.2,0.3-0.5,0.4-0.8,0.4c-0.2,0-0.3,0-0.5-0.1c-0.2-0.1-0.4-0.2-0.6-0.3c-0.7-0.5-1.4-0.9-2.1-1.2
	c-0.8-0.3-1.7-0.4-2.6-0.4c-1-0.1-2,0.2-2.9,0.7c-0.7,0.5-1.1,1.2-1.1,2.1c0,0.7,0.3,1.3,0.9,1.7c1,0.5,2.1,0.9,3.2,1.1
	c1.3,0.3,2.6,0.7,3.9,1.2c0.9,0.4,1.7,0.9,2.3,1.7c0.5,0.7,0.8,1.6,0.8,2.6c0,1.1-0.3,2.1-0.9,3c-0.7,0.9-1.6,1.6-2.6,2
	c-1.2,0.5-2.5,0.7-3.9,0.7C134.9,33.7,133.6,33.5,132.3,33.1"/>
<path class="st1" d="M158.9,25.3V32c0,0.4-0.1,0.9-0.4,1.2c-0.3,0.3-0.8,0.5-1.2,0.4c-0.5,0-0.9-0.1-1.2-0.4
	c-0.3-0.3-0.5-0.7-0.5-1.2v-6.7c0.1-0.7-0.1-1.5-0.6-2.1c-0.5-0.5-1.1-0.7-1.8-0.7c-0.9,0-1.7,0.3-2.3,0.9c-0.6,0.7-0.9,1.6-0.9,2.5
	v6c0,0.4-0.1,0.9-0.4,1.2c-0.3,0.3-0.8,0.5-1.2,0.4c-0.5,0-0.9-0.1-1.2-0.4c-0.3-0.3-0.5-0.7-0.4-1.2V15.9c0-0.4,0.2-0.8,0.5-1.1
	c0.3-0.3,0.8-0.5,1.2-0.4c0.4,0,0.9,0.1,1.2,0.4c0.3,0.3,0.5,0.7,0.4,1.1v6.3c0.4-0.7,1.1-1.2,1.8-1.6c0.8-0.4,1.7-0.6,2.5-0.5
	C157.3,19.9,158.9,21.7,158.9,25.3"/>
<path class="st1" d="M162.5,17.1c-0.4-0.3-0.5-0.8-0.5-1.3c0-0.5,0.2-1,0.5-1.3c0.9-0.7,2-0.7,2.9,0c0.4,0.3,0.6,0.8,0.6,1.3
	c0,0.5-0.2,1-0.5,1.3c-0.4,0.3-0.9,0.5-1.4,0.5C163.4,17.6,162.9,17.4,162.5,17.1 M162.8,33.2c-0.3-0.3-0.5-0.7-0.5-1.2V21.6
	c0-0.4,0.1-0.9,0.5-1.2c0.3-0.3,0.8-0.4,1.2-0.4c0.4,0,0.9,0.1,1.2,0.4c0.3,0.3,0.5,0.7,0.5,1.2V32c0,0.5-0.2,0.9-0.5,1.2
	c-0.3,0.3-0.8,0.4-1.2,0.4C163.6,33.6,163.1,33.5,162.8,33.2"/>
<path class="st1" d="M180.3,21.3c0.9,1.2,1.3,2.6,1.2,4.1V32c0,0.4-0.1,0.9-0.4,1.2c-0.3,0.3-0.8,0.5-1.2,0.4
	c-0.5,0-0.9-0.1-1.2-0.4c-0.3-0.3-0.5-0.7-0.5-1.2v-6.5c0.1-0.8-0.1-1.6-0.6-2.2c-0.5-0.5-1.1-0.8-1.8-0.7c-0.9,0-1.7,0.3-2.3,0.9
	c-0.6,0.7-0.9,1.6-0.9,2.5v6c0,0.4-0.1,0.9-0.5,1.2c-0.3,0.3-0.8,0.5-1.2,0.4c-0.4,0-0.9-0.1-1.2-0.4c-0.3-0.3-0.5-0.7-0.4-1.2V21.5
	c0-0.4,0.2-0.8,0.5-1.1c0.3-0.3,0.8-0.5,1.2-0.4c0.4,0,0.8,0.1,1.1,0.4c0.3,0.3,0.5,0.7,0.4,1.1v0.7c0.4-0.7,1.1-1.3,1.8-1.7
	c0.8-0.4,1.7-0.6,2.6-0.6C178.1,19.8,179.4,20.3,180.3,21.3"/>
<path class="st1" d="M197.3,20.4c0.3,0.3,0.5,0.7,0.5,1.1v10.6c0.1,1.7-0.5,3.4-1.7,4.7c-1.4,1.1-3.3,1.7-5.1,1.6
	c-1.7,0.1-3.4-0.3-4.9-1.1c-0.6-0.2-0.9-0.8-1-1.4c0-0.3,0.1-0.7,0.3-0.9c0.2-0.2,0.5-0.4,0.8-0.3c0.2,0,0.4,0,0.6,0.1
	c0.2,0.1,0.5,0.2,0.7,0.3c0.6,0.2,1.1,0.5,1.7,0.6c0.6,0.2,1.2,0.2,1.8,0.2c2.4,0,3.5-1.2,3.5-3.5v-1.8c-0.4,0.7-1,1.3-1.7,1.7
	c-0.8,0.4-1.7,0.6-2.6,0.6c-2.2,0.1-4.2-1.2-5.1-3.1c-0.5-1.1-0.8-2.2-0.8-3.4c0-1.2,0.2-2.4,0.8-3.4c0.5-1,1.2-1.8,2.1-2.3
	c0.9-0.6,2-0.8,3.1-0.8c0.9,0,1.8,0.2,2.6,0.6c0.7,0.4,1.3,1,1.7,1.7v-0.7c0-0.4,0.1-0.8,0.4-1.1C195.5,19.8,196.6,19.8,197.3,20.4
	 M193.5,29.4c0.6-0.8,1-1.8,0.9-2.9c0.1-1-0.3-2.1-0.9-2.9c-1.4-1.4-3.6-1.4-5,0c0,0,0,0,0,0c-0.7,0.8-1,1.9-0.9,2.9
	c-0.1,1,0.3,2.1,0.9,2.9C189.8,30.8,192.1,30.8,193.5,29.4C193.5,29.4,193.5,29.4,193.5,29.4"/>
<path class="st0" d="M31.4,35.6H9.4c-1.4,0-2.7-0.6-3.7-1.5c-1-1-1.5-2.3-1.5-3.7l0.1-14.9c0.1-0.6-0.1-1.3-0.5-1.8
	c-0.6-0.4-1.3-0.6-2.1-0.5c-0.9,0-1.6-0.7-1.6-1.6c0-0.9,0.7-1.6,1.6-1.6c1.6-0.1,3.2,0.4,4.4,1.5c1,1.1,1.5,2.6,1.4,4.1L7.3,30.4
	c0,1.1,0.9,2,2,2h22.1c0.9,0,1.6,0.7,1.6,1.6S32.3,35.6,31.4,35.6"/>
<path class="st0" d="M27.3,29.1h-15c-0.9,0-1.6-0.7-1.6-1.6c0-0.9,0.7-1.6,1.6-1.6h15c0.5,0,0.9-0.4,0.9-0.9v-3
	c0-0.5-0.4-0.9-0.9-0.9c0,0,0,0,0,0H14.8c-2.3,0-4.1-1.8-4.1-4.1v-3c0-2.3,1.8-4.1,4.1-4.1h13.4c0.9,0,1.6,0.7,1.6,1.6
	c0,0.9-0.7,1.6-1.6,1.6l0,0H14.8c-0.5,0-0.9,0.4-0.9,0.9c0,0,0,0,0,0v3c0,0.5,0.4,0.9,0.9,0.9h12.5c2.3,0,4.1,1.8,4.1,4.1v3
	C31.4,27.3,29.6,29.1,27.3,29.1"/>
<path class="st1" d="M170.4,9.7c-0.2-0.2-0.4-0.6-0.3-0.9V1.3c0-0.3,0.1-0.6,0.3-0.9c0.2-0.2,0.6-0.3,0.9-0.3h3.6
	c0.9-0.1,1.8,0.2,2.6,0.8c0.6,0.6,1,1.5,0.9,2.3c0,0.9-0.3,1.7-0.9,2.3c-0.7,0.6-1.6,0.9-2.5,0.8h-2.2v2.4c0,0.3-0.1,0.7-0.4,0.9
	c-0.3,0.2-0.6,0.4-0.9,0.3C171,10,170.6,9.9,170.4,9.7z M174.4,4.4c0.4,0,0.8-0.1,1.1-0.3c0.2-0.2,0.4-0.6,0.3-0.9
	c0-0.8-0.5-1.2-1.4-1.2h-1.8v2.4L174.4,4.4z"/>
<path class="st1" d="M184.7,3.7c0.6,0.6,0.8,1.5,0.8,2.3v2.9c0,0.3-0.1,0.6-0.3,0.8c-0.2,0.2-0.6,0.3-0.9,0.3
	c-0.3,0-0.6-0.1-0.8-0.3c-0.2-0.2-0.3-0.5-0.3-0.7c-0.1,0.3-0.4,0.6-0.6,0.8c-0.3,0.2-0.7,0.3-1.1,0.3c-0.4,0-0.9-0.1-1.3-0.3
	c-0.4-0.2-0.7-0.5-0.9-0.8c-0.2-0.3-0.3-0.7-0.3-1.2c0-0.4,0.1-0.8,0.4-1.2c0.3-0.3,0.8-0.6,1.2-0.6c0.7-0.1,1.5-0.2,2.3-0.2h0.4
	V5.6c0-0.3-0.1-0.5-0.2-0.7c-0.2-0.2-0.5-0.2-0.8-0.2c-0.6,0-1.1,0.2-1.7,0.4c-0.2,0.1-0.4,0.1-0.6,0.1c-0.2,0-0.4-0.1-0.6-0.2
	c-0.1-0.2-0.2-0.4-0.2-0.7c0-0.2,0-0.4,0.1-0.5c0.1-0.1,0.2-0.3,0.4-0.3c0.4-0.2,0.8-0.3,1.2-0.4c0.5-0.1,1-0.2,1.5-0.2
	C183.2,2.8,184,3.1,184.7,3.7z M182.8,8c0.2-0.3,0.3-0.6,0.3-0.9V6.9h-0.2c-0.4,0-0.9,0-1.3,0.2c-0.2,0.1-0.4,0.3-0.4,0.5
	c0,0.2,0.1,0.4,0.2,0.5c0.1,0.1,0.3,0.2,0.5,0.2C182.2,8.4,182.6,8.3,182.8,8z"/>
<path class="st1" d="M193.3,3.6c0.4,0.7,0.7,1.4,0.6,2.2v3c0,0.3-0.1,0.6-0.3,0.8c-0.3,0.2-0.6,0.3-0.9,0.3c-0.3,0-0.7-0.1-0.9-0.3
	c-0.2-0.2-0.4-0.5-0.3-0.8V6c0-0.3,0-0.6-0.2-0.9c-0.2-0.2-0.4-0.3-0.6-0.3c-0.3,0-0.7,0.1-0.9,0.4c-0.2,0.3-0.3,0.6-0.3,0.9v2.7
	c0,0.3-0.1,0.6-0.3,0.8c-0.3,0.2-0.6,0.3-0.9,0.3c-0.3,0-0.7-0.1-0.9-0.3c-0.2-0.2-0.4-0.5-0.3-0.8V4c0-0.3,0.1-0.6,0.4-0.8
	c0.3-0.2,0.6-0.3,0.9-0.3c0.3,0,0.6,0.1,0.9,0.3c0.2,0.2,0.3,0.5,0.3,0.8c0.2-0.3,0.6-0.6,0.9-0.8c0.4-0.2,0.8-0.3,1.3-0.3
	C192.2,2.8,192.9,3.1,193.3,3.6z"/>
<path class="st1" d="M201.4,8c0.1,0.2,0.2,0.4,0.2,0.7c0,0.4-0.2,0.7-0.6,0.9c-0.4,0.2-0.7,0.3-1.1,0.4c-0.4,0.1-0.8,0.2-1.2,0.2
	c-0.7,0-1.4-0.1-2-0.4c-0.6-0.3-1-0.7-1.3-1.2c-0.3-0.6-0.5-1.2-0.5-1.9c0-0.6,0.1-1.3,0.4-1.9c0.3-0.5,0.7-1,1.2-1.3
	c0.5-0.3,1.2-0.5,1.8-0.5c0.6,0,1.2,0.1,1.7,0.4c0.5,0.3,0.9,0.7,1.1,1.2c0.3,0.6,0.4,1.2,0.4,1.8c0,0.2,0,0.4-0.1,0.5
	c-0.1,0.1-0.3,0.2-0.4,0.2h-3.7c0,0.4,0.2,0.7,0.4,1c0.3,0.2,0.6,0.3,1,0.3c0.2,0,0.4,0,0.6-0.1c0.2-0.1,0.4-0.1,0.7-0.2l0.4-0.2
	c0.1,0,0.2-0.1,0.4-0.1C201.1,7.8,201.3,7.8,201.4,8z M197.7,4.9c-0.2,0.3-0.3,0.6-0.4,0.9h2.2c-0.1-0.8-0.4-1.2-1.1-1.2
	C198.2,4.6,197.9,4.7,197.7,4.9L197.7,4.9z"/>
<path class="st1" d="M203.2,9.7c-0.3-0.2-0.4-0.5-0.4-0.9V1.2c0-0.3,0.1-0.7,0.4-0.9c0.3-0.2,0.6-0.3,0.9-0.3c0.3,0,0.6,0.1,0.9,0.3
	c0.2,0.2,0.4,0.5,0.4,0.9v7.7c0,0.3-0.1,0.6-0.4,0.9c-0.3,0.2-0.6,0.3-0.9,0.3C203.7,10,203.4,9.9,203.2,9.7z"/>
</svg>
