<svg id="Capa_1" data-name="Capa 1" xmlns="http://www.w3.org/2000/svg" viewBox="0 0 213.75 42.91"><defs><style>.cls-1,.cls-2{fill:#fff;}.cls-1{fill-rule:evenodd;}</style></defs><title>logo-ss-seccion-admin-negro</title><path class="cls-1" d="M28.18,40.94a2,2,0,1,1-2-2,2,2,0,0,1,2,2"/><path class="cls-1" d="M15.78,40.94a2,2,0,1,1-2-2,2,2,0,0,1,2,2"/><path class="cls-2" d="M53.13,33.11a8.6,8.6,0,0,1-3-1.5,1.48,1.48,0,0,1-.62-1.29,1.53,1.53,0,0,1,.33-1,1,1,0,0,1,.8-.42,2.2,2.2,0,0,1,1.1.38,8.25,8.25,0,0,0,2.43,1.21,9.82,9.82,0,0,0,2.8.38,5.51,5.51,0,0,0,3-.69,2.26,2.26,0,0,0,1-2,1.72,1.72,0,0,0-1-1.57,12.94,12.94,0,0,0-3.28-1.07,20,20,0,0,1-3.85-1.18,5.51,5.51,0,0,1-2.24-1.73A4.48,4.48,0,0,1,49.94,20a5,5,0,0,1,.94-3,6.29,6.29,0,0,1,2.63-2.06,10.41,10.41,0,0,1,10.06,1.31,2.13,2.13,0,0,1,.5.58,1.67,1.67,0,0,1-.19,1.7,1,1,0,0,1-.79.41,1.35,1.35,0,0,1-.5-.08,3.89,3.89,0,0,1-.61-.29,9.14,9.14,0,0,0-2.14-1.2A7.27,7.27,0,0,0,57.29,17a4.93,4.93,0,0,0-2.89.74,2.37,2.37,0,0,0-1.07,2.06,1.9,1.9,0,0,0,1,1.7,11,11,0,0,0,3.2,1.1,21.77,21.77,0,0,1,3.9,1.2,5.84,5.84,0,0,1,2.29,1.68A4.07,4.07,0,0,1,64.46,28,4.87,4.87,0,0,1,63.53,31a6.06,6.06,0,0,1-2.61,2,10,10,0,0,1-3.87.71,13.56,13.56,0,0,1-3.92-.55"/><path class="cls-2" d="M79.71,25.34V32a1.6,1.6,0,0,1-.44,1.19,1.69,1.69,0,0,1-1.23.43,1.73,1.73,0,0,1-1.24-.43A1.54,1.54,0,0,1,76.34,32V25.34a3.09,3.09,0,0,0-.58-2.09,2.29,2.29,0,0,0-1.82-.66,3.08,3.08,0,0,0-2.33.91A3.42,3.42,0,0,0,70.74,26v6a1.57,1.57,0,0,1-.46,1.19,1.73,1.73,0,0,1-1.24.43,1.69,1.69,0,0,1-1.23-.43A1.6,1.6,0,0,1,67.37,32V15.85a1.49,1.49,0,0,1,.47-1.13,1.72,1.72,0,0,1,1.23-.43,1.77,1.77,0,0,1,1.21.4,1.42,1.42,0,0,1,.46,1.11v6.28a4.42,4.42,0,0,1,1.79-1.61,5.76,5.76,0,0,1,2.55-.55c3.08,0,4.63,1.81,4.63,5.42"/><path class="cls-2" d="M83.35,17.08a1.7,1.7,0,0,1-.54-1.31,1.64,1.64,0,0,1,.54-1.29,2.38,2.38,0,0,1,2.89,0,1.62,1.62,0,0,1,.56,1.29,1.7,1.7,0,0,1-.54,1.31,2.09,2.09,0,0,1-1.46.5,2.06,2.06,0,0,1-1.45-.5m.25,16.08a1.51,1.51,0,0,1-.47-1.2V21.56a1.48,1.48,0,0,1,.47-1.18A1.8,1.8,0,0,1,84.8,20a1.85,1.85,0,0,1,1.22.41,1.45,1.45,0,0,1,.48,1.18V32a1.48,1.48,0,0,1-.48,1.2,1.81,1.81,0,0,1-1.22.42,1.76,1.76,0,0,1-1.2-.42"/><path class="cls-2" d="M101.16,21.27a6.1,6.1,0,0,1,1.16,4.07V32a1.57,1.57,0,0,1-.45,1.19,2,2,0,0,1-2.46,0A1.54,1.54,0,0,1,99,32V25.52a3.5,3.5,0,0,0-.58-2.23,2.22,2.22,0,0,0-1.82-.7,3.07,3.07,0,0,0-2.33.91A3.42,3.42,0,0,0,93.34,26v6a1.57,1.57,0,0,1-.45,1.19,1.73,1.73,0,0,1-1.24.43,1.69,1.69,0,0,1-1.23-.43A1.56,1.56,0,0,1,90,32V21.54a1.48,1.48,0,0,1,.45-1.13A1.74,1.74,0,0,1,91.67,20a1.61,1.61,0,0,1,1.15.42,1.45,1.45,0,0,1,.44,1.09v.73a4.55,4.55,0,0,1,1.81-1.7,5.49,5.49,0,0,1,2.56-.59,4.4,4.4,0,0,1,3.53,1.35"/><path class="cls-2" d="M118.1,20.41a1.48,1.48,0,0,1,.46,1.15V32.21a6.09,6.09,0,0,1-1.72,4.69,7.32,7.32,0,0,1-5.09,1.58,9.88,9.88,0,0,1-4.91-1.1,1.69,1.69,0,0,1-1-1.43,1.45,1.45,0,0,1,.29-.94.88.88,0,0,1,.74-.35,1.87,1.87,0,0,1,.59.12c.23.08.48.17.73.28a14.92,14.92,0,0,0,1.73.62,6.4,6.4,0,0,0,1.77.22q3.53,0,3.53-3.45V30.72a4.13,4.13,0,0,1-1.72,1.72,5.47,5.47,0,0,1-2.59.6,5.57,5.57,0,0,1-5.15-3.12,7.5,7.5,0,0,1-.75-3.43,7.56,7.56,0,0,1,.74-3.43,5.48,5.48,0,0,1,2.09-2.32,5.76,5.76,0,0,1,3.07-.82,5.36,5.36,0,0,1,2.59.61,4.05,4.05,0,0,1,1.72,1.71v-.7a1.45,1.45,0,0,1,.46-1.13,1.92,1.92,0,0,1,2.42,0m-3.78,9a4.29,4.29,0,0,0,.9-2.89,4.35,4.35,0,0,0-.9-2.91,3.54,3.54,0,0,0-5,0,4.3,4.3,0,0,0-.91,2.91,4.24,4.24,0,0,0,.91,2.89,3.54,3.54,0,0,0,5,0"/><path class="cls-2" d="M132.29,33.11a8.74,8.74,0,0,1-3-1.5,1.51,1.51,0,0,1-.62-1.29,1.54,1.54,0,0,1,.34-1,1,1,0,0,1,.8-.42,2.2,2.2,0,0,1,1.1.38,8.13,8.13,0,0,0,2.43,1.21,9.77,9.77,0,0,0,2.8.38,5.47,5.47,0,0,0,3-.69,2.24,2.24,0,0,0,1.06-2,1.71,1.71,0,0,0-1-1.57,12.69,12.69,0,0,0-3.27-1.07,19.76,19.76,0,0,1-3.85-1.18,5.44,5.44,0,0,1-2.24-1.73A4.48,4.48,0,0,1,129.1,20a5,5,0,0,1,.94-3,6.23,6.23,0,0,1,2.63-2.06,10.41,10.41,0,0,1,10.06,1.31,2.13,2.13,0,0,1,.5.58,1.52,1.52,0,0,1,.15.71,1.56,1.56,0,0,1-.34,1,1,1,0,0,1-.8.41,1.29,1.29,0,0,1-.49-.08,3.51,3.51,0,0,1-.61-.29,9.14,9.14,0,0,0-2.14-1.2,7.27,7.27,0,0,0-2.55-.39,4.93,4.93,0,0,0-2.89.74,2.37,2.37,0,0,0-1.07,2.06,1.91,1.91,0,0,0,.94,1.7,11.23,11.23,0,0,0,3.21,1.1,21.38,21.38,0,0,1,3.89,1.2,5.77,5.77,0,0,1,2.29,1.68,4.07,4.07,0,0,1,.8,2.56,4.87,4.87,0,0,1-.93,2.95,6.06,6.06,0,0,1-2.61,2,10,10,0,0,1-3.87.71,13.56,13.56,0,0,1-3.92-.55"/><path class="cls-2" d="M158.87,25.34V32a1.57,1.57,0,0,1-.45,1.19,1.65,1.65,0,0,1-1.22.43,1.72,1.72,0,0,1-1.24-.43A1.54,1.54,0,0,1,155.5,32V25.34a3.14,3.14,0,0,0-.58-2.09,2.3,2.3,0,0,0-1.82-.66,3.07,3.07,0,0,0-2.33.91,3.43,3.43,0,0,0-.88,2.46v6a1.57,1.57,0,0,1-.45,1.19,1.73,1.73,0,0,1-1.24.43,1.69,1.69,0,0,1-1.23-.43,1.6,1.6,0,0,1-.44-1.19V15.85a1.45,1.45,0,0,1,.47-1.13,1.72,1.72,0,0,1,1.22-.43,1.78,1.78,0,0,1,1.22.4,1.42,1.42,0,0,1,.45,1.11v6.28a4.44,4.44,0,0,1,1.8-1.61,5.75,5.75,0,0,1,2.54-.55q4.64,0,4.64,5.42"/><path class="cls-2" d="M162.5,17.08a1.72,1.72,0,0,1-.53-1.31,1.67,1.67,0,0,1,.53-1.29,2.39,2.39,0,0,1,2.9,0,1.62,1.62,0,0,1,.55,1.29,1.7,1.7,0,0,1-.54,1.31,2.06,2.06,0,0,1-1.45.5,2.09,2.09,0,0,1-1.46-.5m.26,16.08a1.51,1.51,0,0,1-.47-1.2V21.56a1.48,1.48,0,0,1,.47-1.18A1.76,1.76,0,0,1,164,20a1.83,1.83,0,0,1,1.21.41,1.46,1.46,0,0,1,.49,1.18V32a1.49,1.49,0,0,1-.49,1.2,1.78,1.78,0,0,1-1.21.42,1.72,1.72,0,0,1-1.2-.42"/><path class="cls-2" d="M180.31,21.27a6,6,0,0,1,1.16,4.07V32a1.6,1.6,0,0,1-.44,1.19,1.69,1.69,0,0,1-1.23.43,1.73,1.73,0,0,1-1.24-.43A1.57,1.57,0,0,1,178.1,32V25.52a3.44,3.44,0,0,0-.58-2.23,2.2,2.2,0,0,0-1.81-.7,3.07,3.07,0,0,0-2.33.91A3.38,3.38,0,0,0,172.5,26v6a1.54,1.54,0,0,1-.46,1.19,1.72,1.72,0,0,1-1.24.43,1.65,1.65,0,0,1-1.22-.43,1.57,1.57,0,0,1-.45-1.19V21.54a1.48,1.48,0,0,1,.46-1.13,1.74,1.74,0,0,1,1.24-.44,1.63,1.63,0,0,1,1.15.42,1.45,1.45,0,0,1,.44,1.09v.73a4.59,4.59,0,0,1,1.8-1.7,5.52,5.52,0,0,1,2.56-.59,4.4,4.4,0,0,1,3.53,1.35"/><path class="cls-2" d="M197.26,20.41a1.48,1.48,0,0,1,.46,1.15V32.21A6.09,6.09,0,0,1,196,36.9a7.3,7.3,0,0,1-5.09,1.58,9.84,9.84,0,0,1-4.9-1.1A1.69,1.69,0,0,1,185,36a1.44,1.44,0,0,1,.28-.94.9.9,0,0,1,.75-.35,1.92,1.92,0,0,1,.59.12c.23.08.47.17.73.28a14.29,14.29,0,0,0,1.73.62,6.3,6.3,0,0,0,1.77.22q3.53,0,3.53-3.45V30.72a4.16,4.16,0,0,1-1.73,1.72,5.4,5.4,0,0,1-2.58.6,5.57,5.57,0,0,1-5.15-3.12,7.5,7.5,0,0,1-.76-3.43,7.56,7.56,0,0,1,.75-3.43A5.48,5.48,0,0,1,187,20.74a5.71,5.71,0,0,1,3.07-.82,5.29,5.29,0,0,1,2.58.61,4.08,4.08,0,0,1,1.73,1.71v-.7a1.48,1.48,0,0,1,.45-1.13,1.93,1.93,0,0,1,2.43,0m-3.79,9a4.24,4.24,0,0,0,.91-2.89,4.3,4.3,0,0,0-.91-2.91,3.53,3.53,0,0,0-5,0,4.3,4.3,0,0,0-.92,2.91,4.25,4.25,0,0,0,.92,2.89,3.53,3.53,0,0,0,5,0"/><path class="cls-1" d="M31.44,35.63H9.35a5.23,5.23,0,0,1-3.72-1.54A5.17,5.17,0,0,1,4.1,30.37l.06-14.88a2.54,2.54,0,0,0-.49-1.79,3.1,3.1,0,0,0-2.06-.54,1.61,1.61,0,1,1,0-3.22A5.8,5.8,0,0,1,6,11.42,5.43,5.43,0,0,1,7.39,15.5L7.33,30.38a2,2,0,0,0,2,2H31.44a1.61,1.61,0,1,1,0,3.22"/><path class="cls-1" d="M27.28,29.09h-15a1.61,1.61,0,0,1,0-3.22h15a.9.9,0,0,0,.9-.9v-3a.89.89,0,0,0-.9-.89H14.78a4.13,4.13,0,0,1-4.12-4.12V14a4.13,4.13,0,0,1,4.12-4.12h13.4a1.61,1.61,0,1,1,0,3.22H14.78a.89.89,0,0,0-.89.9v3a.89.89,0,0,0,.89.89h12.5a4.13,4.13,0,0,1,4.13,4.12v3a4.13,4.13,0,0,1-4.13,4.12"/><path class="cls-2" d="M180.35,9.38a1,1,0,0,1-.37.79,1.24,1.24,0,0,1-.85.32,1,1,0,0,1-.59-.17,1.1,1.1,0,0,1-.42-.5l-.63-1.42h-4.55l-.65,1.42a1.12,1.12,0,0,1-.43.5,1,1,0,0,1-.6.17,1.3,1.3,0,0,1-.86-.32,1,1,0,0,1-.39-.79,1.29,1.29,0,0,1,.13-.52l3.71-7.61a1.27,1.27,0,0,1,.54-.58,1.53,1.53,0,0,1,.79-.21,1.56,1.56,0,0,1,.79.21,1.34,1.34,0,0,1,.55.58l3.7,7.61A1.14,1.14,0,0,1,180.35,9.38Zm-6.54-2.92h2.81l-1.41-3.13Z"/><path class="cls-2" d="M188.22.79a1,1,0,0,1,.36.81V9.38a1.11,1.11,0,0,1-.33.85,1.33,1.33,0,0,1-.9.31,1.3,1.3,0,0,1-.85-.28,1.05,1.05,0,0,1-.38-.75,2,2,0,0,1-.86.77,2.77,2.77,0,0,1-1.26.28,2.86,2.86,0,0,1-1.58-.45,3.22,3.22,0,0,1-1.09-1.29,4.37,4.37,0,0,1-.39-1.89,4.27,4.27,0,0,1,.39-1.88A2.86,2.86,0,0,1,184,3.37a2.76,2.76,0,0,1,1.22.27,2.18,2.18,0,0,1,.86.71V1.56a1,1,0,0,1,.33-.79,1.52,1.52,0,0,1,1.81,0Zm-2.45,7.46a2,2,0,0,0,.35-1.3,2,2,0,0,0-.35-1.27,1.22,1.22,0,0,0-1-.44,1.2,1.2,0,0,0-1,.44,2,2,0,0,0-.35,1.25,2.07,2.07,0,0,0,.36,1.3,1.18,1.18,0,0,0,1,.46A1.19,1.19,0,0,0,185.77,8.25Z"/><path class="cls-2" d="M200.62,4.05a3.42,3.42,0,0,1,.62,2.3v3a1,1,0,0,1-.36.87,1.4,1.4,0,0,1-.89.29,1.36,1.36,0,0,1-.89-.29,1,1,0,0,1-.36-.87V6.29a1.2,1.2,0,0,0-.2-.78.72.72,0,0,0-.58-.23,1,1,0,0,0-.78.35,1.46,1.46,0,0,0-.3,1V9.38a1,1,0,0,1-.35.87,1.37,1.37,0,0,1-.9.29,1.4,1.4,0,0,1-.89-.29,1,1,0,0,1-.36-.87V6.29a1.2,1.2,0,0,0-.19-.78.75.75,0,0,0-.58-.23,1,1,0,0,0-.78.35,1.52,1.52,0,0,0-.29,1V9.38a1,1,0,0,1-.36.87,1.36,1.36,0,0,1-.89.29,1.4,1.4,0,0,1-.89-.29,1,1,0,0,1-.36-.87V4.52a1,1,0,0,1,.37-.83,1.45,1.45,0,0,1,.9-.29,1.32,1.32,0,0,1,.82.26.92.92,0,0,1,.34.75,2.36,2.36,0,0,1,2.11-1,2,2,0,0,1,2,1.22,2.59,2.59,0,0,1,.94-.89,2.68,2.68,0,0,1,1.33-.33A2.27,2.27,0,0,1,200.62,4.05Z"/><path class="cls-2" d="M202.89,2.09a1.12,1.12,0,0,1-.37-.88,1.07,1.07,0,0,1,.37-.87,1.45,1.45,0,0,1,1-.33,1.47,1.47,0,0,1,1,.33,1.08,1.08,0,0,1,.38.87,1.15,1.15,0,0,1-.37.88,1.48,1.48,0,0,1-1,.33A1.45,1.45,0,0,1,202.89,2.09Zm.11,8.16a1,1,0,0,1-.36-.87V4.55a1,1,0,0,1,.36-.86,1.4,1.4,0,0,1,.89-.29,1.36,1.36,0,0,1,.89.29,1,1,0,0,1,.36.86V9.38a1,1,0,0,1-.36.87,1.36,1.36,0,0,1-.89.29A1.4,1.4,0,0,1,203,10.25Z"/><path class="cls-2" d="M213.08,4.11a3.5,3.5,0,0,1,.6,2.24v3a1.09,1.09,0,0,1-.34.85,1.3,1.3,0,0,1-.91.31,1.32,1.32,0,0,1-.91-.31,1.09,1.09,0,0,1-.34-.85V6.46a1.45,1.45,0,0,0-.22-.9.78.78,0,0,0-.65-.28,1.15,1.15,0,0,0-.89.36,1.37,1.37,0,0,0-.33,1V9.38a1.09,1.09,0,0,1-.34.85,1.32,1.32,0,0,1-.91.31,1.3,1.3,0,0,1-.91-.31,1.09,1.09,0,0,1-.34-.85V4.52a1,1,0,0,1,.35-.8,1.27,1.27,0,0,1,.91-.32,1.22,1.22,0,0,1,.85.29,1,1,0,0,1,.32.78,2.4,2.4,0,0,1,.94-.82,3,3,0,0,1,1.28-.28A2.25,2.25,0,0,1,213.08,4.11Z"/></svg>