<?xml version="1.0" encoding="UTF-8"?>
<svg width="220px" height="40px" viewBox="0 0 220 40" version="1.1" xmlns="http://www.w3.org/2000/svg" xmlns:xlink="http://www.w3.org/1999/xlink">
    <!-- Generator: Sketch 58 (84663) - https://sketch.com -->
    <title>logo/completo</title>
    <desc>Created with Sketch.</desc>
    <defs>
        <polygon id="path-1" points="2.83687943e-05 0.0731320755 39.9399527 0.0731320755 39.9399527 31.1143585 2.83687943e-05 31.1143585"></polygon>
        <polygon id="path-3" points="0.0504397163 0.0432264151 4.82982506 0.0432264151 4.82982506 4.81132075 0.0504397163 4.81132075"></polygon>
        <polygon id="path-5" points="0.0133049645 0.0432264151 4.79269031 0.0432264151 4.79269031 4.81132075 0.0133049645 4.81132075"></polygon>
        <polygon id="path-7" points="0.0480755989 0.090626087 15.2178266 0.090626087 15.2178266 20.3478261 0.0480755989 20.3478261"></polygon>
        <polygon id="path-9" points="0.0671477078 0.090626087 15.2368601 0.090626087 15.2368601 20.3478261 0.0671477078 20.3478261"></polygon>
    </defs>
    <g id="Symbols" stroke="none" stroke-width="1" fill="none" fill-rule="evenodd">
        <g id="header/desktop" transform="translate(-165.000000, -32.000000)">
            <g id="logo/completo/blanco" transform="translate(165.000000, 32.000000)">
                <g id="logo/iso/blanco">
                    <g id="Group-12">
                        <g id="Group-3" transform="translate(0.000000, 0.046792)">
                            <mask id="mask-2" fill="white">
                                <use xlink:href="#path-1"></use>
                            </mask>
                            <g id="Clip-2"></g>
                            <path d="M37.9892482,31.1143585 L11.2936454,31.1143585 C9.59359811,31.1143585 7.99719149,30.4520943 6.79823168,29.2497358 C5.59927187,28.047283 4.94395272,26.4510566 4.95293617,24.7551132 L5.02319622,6.77973585 C5.02319622,5.73228302 4.82574941,5.00030189 4.43624586,4.61171698 C3.90083215,4.07756604 2.7890591,3.96539623 1.95076123,3.96539623 C0.873408983,3.96539623 2.83687943e-05,3.09407547 2.83687943e-05,2.01926415 C2.83687943e-05,0.94445283 0.873408983,0.0731320755 1.95076123,0.0731320755 C4.27482742,0.0731320755 5.99019385,0.657471698 7.19511111,1.85945283 C8.35889362,3.02058491 8.9247565,4.6324717 8.9247565,6.78737736 L8.85440189,24.7729434 C8.85090307,25.4280377 9.10300709,26.0420943 9.56428369,26.5047358 C10.0254657,26.967283 10.6396501,27.222 11.2936454,27.222 L37.9892482,27.222 C39.0666005,27.222 39.9399811,28.0933208 39.9399811,29.1682264 C39.9399811,30.2430377 39.0666005,31.1143585 37.9892482,31.1143585" id="Fill-1" fill="#FFFFFF" mask="url(#mask-2)"></path>
                        </g>
                        <g id="Group-6" transform="translate(29.219858, 35.141132)">
                            <mask id="mask-4" fill="white">
                                <use xlink:href="#path-3"></use>
                            </mask>
                            <g id="Clip-5"></g>
                            <path d="M4.82982506,2.42728302 C4.82982506,3.74398113 3.75994326,4.81133962 2.44013239,4.81133962 C1.12032151,4.81133962 0.0504397163,3.74398113 0.0504397163,2.42728302 C0.0504397163,1.11058491 1.12032151,0.0432264151 2.44013239,0.0432264151 C3.75994326,0.0432264151 4.82982506,1.11058491 4.82982506,2.42728302" id="Fill-4" fill="#FFFFFF" mask="url(#mask-4)"></path>
                        </g>
                        <g id="Group-9" transform="translate(14.278960, 35.141132)">
                            <mask id="mask-6" fill="white">
                                <use xlink:href="#path-5"></use>
                            </mask>
                            <g id="Clip-8"></g>
                            <path d="M4.79269031,2.42728302 C4.79269031,3.74398113 3.72280851,4.81133962 2.40299764,4.81133962 C1.08318676,4.81133962 0.0133049645,3.74398113 0.0133049645,2.42728302 C0.0133049645,1.11058491 1.08318676,0.0432264151 2.40299764,0.0432264151 C3.72280851,0.0432264151 4.79269031,1.11058491 4.79269031,2.42728302" id="Fill-7" fill="#FFFFFF" mask="url(#mask-6)"></path>
                        </g>
                        <path d="M32.9642931,23.2566132 L14.8257589,23.2566132 C13.7484066,23.2566132 12.875026,22.3852925 12.875026,21.3104811 C12.875026,20.2356698 13.7484066,19.3643491 14.8257589,19.3643491 L32.9642931,19.3643491 C33.5627801,19.3643491 34.0496832,18.8785 34.0496832,18.2815189 L34.0496832,14.6086887 C34.0496832,14.0116132 33.5627801,13.5258585 32.9642931,13.5258585 L17.8619764,13.5258585 C15.1120946,13.5258585 12.875026,11.2939717 12.875026,8.55066981 L12.875026,4.97519811 C12.875026,2.23189623 15.1120946,9.43396226e-06 17.8619764,9.43396226e-06 L34.0496832,9.43396226e-06 C35.12713,9.43396226e-06 36.0004161,0.871330189 36.0004161,1.94614151 C36.0004161,3.02104717 35.12713,3.89236792 34.0496832,3.89236792 L17.8619764,3.89236792 C17.2634894,3.89236792 16.7764917,4.37812264 16.7764917,4.97519811 L16.7764917,8.55066981 C16.7764917,9.14774528 17.2634894,9.6335 17.8619764,9.6335 L32.9642931,9.6335 C35.7140804,9.6335 37.9512435,11.8653868 37.9512435,14.6086887 L37.9512435,18.2815189 C37.9512435,21.0247264 35.7140804,23.2566132 32.9642931,23.2566132" id="Fill-10" fill="#FFFFFF"></path>
                    </g>
                </g>
                <g id="logo/texto/blanco" transform="translate(56.666667, 6.666667)">
                    <g id="Group-23">
                        <path d="M4.016347,21.1807565 C2.70617604,20.819387 1.63705803,20.306387 0.808992961,19.6415609 C0.520115114,19.4269304 0.312809583,19.1972348 0.187847737,18.9526696 C0.0623073647,18.7084957 1.92842354e-05,18.4007348 1.92842354e-05,18.029387 C1.92842354e-05,17.5410391 0.148893582,17.1108 0.447799231,16.7394522 C0.746319196,16.3683 1.08803585,16.1824304 1.47352771,16.1824304 C1.68526862,16.1824304 1.89257415,16.2166696 2.09486578,16.2849522 C2.29715741,16.3538217 2.54264573,16.4755174 2.83171642,16.6514087 C3.65958864,17.1790826 4.49768151,17.5653 5.34560935,17.8094739 C6.19295865,18.0540391 7.12708702,18.1759304 8.14838012,18.1759304 C9.41978977,18.1759304 10.3921009,17.9609087 11.0666635,17.5308652 C11.7406475,17.101213 12.0779288,16.4854957 12.0779288,15.6841043 C12.0779288,15.0785609 11.7647528,14.5896261 11.1389794,14.2182783 C10.5128202,13.8473217 9.40031269,13.4953435 7.80164957,13.1629304 C6.0101441,12.7919739 4.57983236,12.3419739 3.51071434,11.8143 C2.44159633,11.2866261 1.66135617,10.6319739 1.17018669,9.85014783 C0.679017214,9.06871304 0.433336054,8.12058261 0.433336054,7.00653913 C0.433336054,5.7753 0.784694824,4.66634348 1.48799089,3.67908261 C2.19109411,2.69260435 3.16398379,1.92036522 4.40646708,1.36314783 C5.64895037,0.806321739 7.05033576,0.527713043 8.61062325,0.527713043 C11.3457064,0.527713043 13.599455,1.2216913 15.3720619,2.60925652 C15.6609397,2.84364783 15.8676667,3.08332174 15.9932071,3.32749565 C16.1183618,3.57206087 16.1810356,3.86964783 16.1810356,4.22162609 C16.1810356,4.71036522 16.0315827,5.1404087 15.7332556,5.51156087 C15.43435,5.8829087 15.0926333,6.06838696 14.7073343,6.06838696 C14.4952077,6.06838696 14.29793,6.03903913 14.1151154,5.98053913 C13.9317223,5.92184348 13.6765919,5.79506087 13.3493384,5.5994087 C12.5592633,5.09149565 11.8324405,4.71036522 11.1677129,4.45601739 C10.5031781,4.20225652 9.66026418,4.07488696 8.6395496,4.07488696 C7.46436829,4.07488696 6.5396892,4.30497391 5.86570518,4.76377826 C5.19114262,5.22336522 4.85424703,5.85356087 4.85424703,6.65475652 C4.85424703,7.12373478 4.98441562,7.50995217 5.24436711,7.81262609 C5.50451145,8.11608261 5.93782822,8.38432174 6.54470311,8.6189087 C7.15138515,8.85349565 8.01339048,9.09806087 9.13071908,9.35182174 C11.7502896,9.9381913 13.6333952,10.6906696 14.7796502,11.6090609 C15.9255194,12.5280391 16.4988398,13.7886261 16.4988398,15.3908217 C16.4988398,16.6418217 16.1567374,17.7462783 15.4731113,18.7036043 C14.7890994,19.6613217 13.8260447,20.4038217 12.5837543,20.9314957 C11.341271,21.4591696 9.90093144,21.7231043 8.26389269,21.7231043 C6.74198083,21.7231043 5.32613227,21.5421261 4.016347,21.1807565" id="Fill-1" fill="#FFFFFF"></path>
                        <path d="M33.3152523,12.7817609 L33.3152523,19.5536739 C33.3152523,20.1987391 33.1175889,20.7070435 32.7228406,21.0781957 C32.3278994,21.4495435 31.7933404,21.6350217 31.1193564,21.6350217 C30.4447938,21.6350217 29.9150559,21.4495435 29.5299497,21.0781957 C29.1444579,20.7070435 28.952194,20.1987391 28.952194,19.5536739 L28.952194,12.7230652 C28.952194,11.8633696 28.7738148,11.2233913 28.417635,10.8029348 C28.0608767,10.3828696 27.5074191,10.1727391 26.7561053,10.1727391 C25.8505176,10.1727391 25.1235019,10.4658261 24.5746726,11.0521957 C24.0256504,11.6383696 23.7510429,12.4203913 23.7510429,13.3972826 L23.7510429,19.5536739 C23.7510429,20.1987391 23.5583934,20.7070435 23.1730944,21.0781957 C22.7876025,21.4495435 22.2580574,21.6350217 21.5840734,21.6350217 C20.9095108,21.6350217 20.3749518,21.4495435 19.9803963,21.0781957 C19.5852623,20.7070435 19.3879846,20.1987391 19.3879846,19.5536739 L19.3879846,2.66791304 C19.3879846,2.06217391 19.5947116,1.57343478 20.0091298,1.2018913 C20.4231624,0.830934783 20.9671707,0.645065217 21.6417332,0.645065217 C22.2773416,0.645065217 22.7876025,0.820956522 23.1730944,1.17273913 C23.5583934,1.52452174 23.7510429,1.9935 23.7510429,2.57986957 L23.7510429,8.97065217 C24.2516616,8.22815217 24.8969122,7.66623913 25.6869873,7.2851087 C26.4766767,6.90397826 27.3724295,6.71341304 28.3742455,6.71341304 C31.6681857,6.71341304 33.3152523,8.73626087 33.3152523,12.7817609" id="Fill-3" fill="#FFFFFF"></path>
                        <path d="M37.2012571,21.1074848 C36.7868389,20.7557022 36.5799191,20.2380065 36.5799191,19.5538109 L36.5799191,8.85339783 C36.5799191,8.16959348 36.79166,7.65150652 37.2157203,7.29972391 C37.6392021,6.9479413 38.159298,6.77205 38.7760078,6.77205 C39.392332,6.77205 39.9074139,6.9479413 40.3218321,7.29972391 C40.7358647,7.65150652 40.9431702,8.16959348 40.9431702,8.85339783 L40.9431702,19.5538109 C40.9431702,20.2380065 40.7358647,20.7557022 40.3218321,21.1074848 C39.9074139,21.4592674 39.392332,21.6351587 38.7760078,21.6351587 C38.1403994,21.6351587 37.6152897,21.4592674 37.2012571,21.1074848 M36.955576,3.82572391 C36.5122314,3.42541957 36.2910412,2.88307174 36.2910412,2.19868043 C36.2910412,1.51487609 36.5122314,0.977615217 36.955576,0.58631087 C37.3985349,0.195593478 38.0052169,0.000136956522 38.7760078,0.000136956522 C39.5273216,0.000136956522 40.1291826,0.200680435 40.5819765,0.600984783 C41.0343846,1.00187609 41.2609744,1.5344413 41.2609744,2.19868043 C41.2609744,2.88307174 41.0392057,3.42541957 40.5964396,3.82572391 C40.1530951,4.22661522 39.5462202,4.42676739 38.7760078,4.42676739 C38.0052169,4.42676739 37.3985349,4.22661522 36.955576,3.82572391" id="Fill-5" fill="#FFFFFF"></path>
                        <path d="M56.9796511,8.22320217 C57.8077162,9.23002826 58.2221344,10.749463 58.2221344,12.7817022 L58.2221344,19.5538109 C58.2221344,20.1986804 58.0242781,20.7071804 57.6297227,21.078137 C57.2347815,21.4496804 56.7002225,21.6351587 56.0260457,21.6351587 C55.351676,21.6351587 54.821938,21.4496804 54.4368318,21.078137 C54.05134,20.7071804 53.8590761,20.1986804 53.8590761,19.5538109 L53.8590761,12.9869413 C53.8590761,12.0098543 53.680697,11.2967022 53.3245171,10.8468978 C52.9677588,10.3974848 52.4143012,10.1726804 51.6629874,10.1726804 C50.7573997,10.1726804 50.030384,10.4657674 49.4813618,11.052137 C48.9325325,11.6385065 48.657925,12.4203326 48.657925,13.3974196 L48.657925,19.5538109 C48.657925,20.1986804 48.4650826,20.7071804 48.0799765,21.078137 C47.6944846,21.4496804 47.1649395,21.6351587 46.4907626,21.6351587 C45.8163929,21.6351587 45.2818339,21.4496804 44.8870856,21.078137 C44.4921445,20.7071804 44.2948667,20.1986804 44.2948667,19.5538109 L44.2948667,8.79470217 C44.2948667,8.18935435 44.5015937,7.70061522 44.9160119,7.32907174 C45.3300445,6.95791957 45.8646035,6.77205 46.519689,6.77205 C47.1165361,6.77205 47.6032702,6.95302826 47.9789271,7.31439783 C48.354584,7.67635435 48.5424124,8.14024565 48.5424124,8.70685435 L48.5424124,9.11733261 C49.0430312,8.33589783 49.6931028,7.73935435 50.49282,7.32907174 C51.2919587,6.91859348 52.1925325,6.71335435 53.1943485,6.71335435 C54.88924,6.71335435 56.1512004,7.21676739 56.9796511,8.22320217" id="Fill-7" fill="#FFFFFF"></path>
                        <g id="Group-11" transform="translate(60.745342, 6.622826)">
                            <mask id="mask-8" fill="white">
                                <use xlink:href="#path-7"></use>
                            </mask>
                            <g id="Clip-10"></g>
                            <path d="M10.0311386,10.0579304 C10.5990593,9.3936913 10.8835018,8.46532174 10.8835018,7.27301739 C10.8835018,6.08110435 10.5990593,5.14745217 10.0311386,4.47323478 C9.46263934,3.79901739 8.66812884,3.4619087 7.64741426,3.4619087 C6.62612115,3.4619087 5.82698243,3.79901739 5.2490339,4.47323478 C4.6712782,5.14745217 4.38220751,6.08110435 4.38220751,7.27301739 C4.38220751,8.46532174 4.6712782,9.3936913 5.2490339,10.0579304 C5.82698243,10.7225609 6.62612115,11.0545826 7.64741426,11.0545826 C8.66812884,11.0545826 9.46263934,10.7225609 10.0311386,10.0579304 M14.6254148,0.720821739 C15.0199703,1.10195217 15.2178266,1.60536522 15.2178266,2.23066957 L15.2178266,13.2826696 C15.2178266,15.6081913 14.553099,17.3671043 13.2240295,18.5596043 C11.89496,19.7513217 9.94898776,20.3478652 7.38726992,20.3478652 C5.22974966,20.3478652 3.45752842,19.9565609 2.07060621,19.1751261 C1.72387566,18.9796696 1.45389636,18.7399957 1.26163253,18.456887 C1.06879018,18.173387 0.972561846,17.8558435 0.972561846,17.5042565 C0.972561846,17.0155174 1.08826726,16.6146261 1.3192924,16.3021696 C1.55051038,15.9893217 1.85847962,15.8331913 2.24397149,15.8331913 C2.45571239,15.8331913 2.70640745,15.877213 2.9952853,15.9650609 C3.28416315,16.0531043 3.58268311,16.1556261 3.89103804,16.2728217 C4.5073622,16.5074087 5.07566862,16.692887 5.59576445,16.8298435 C6.11586028,16.9664087 6.67433174,17.0350826 7.27175735,17.0350826 C8.50421284,17.0350826 9.41944265,16.7515826 10.0166754,16.1849739 C10.6135225,15.6177783 10.9124282,14.7584739 10.9124282,13.6051043 L10.9124282,12.0220826 C10.5078449,12.7649739 9.90116285,13.3513435 9.09199633,13.7809957 C8.28302266,14.2112348 7.37743496,14.4260609 6.37600461,14.4260609 C5.1429706,14.4260609 4.04994014,14.1327783 3.09633469,13.5466043 C2.14292209,12.9602348 1.39604366,12.1246043 0.857049275,11.0401043 C0.317476368,9.9554087 0.0480755989,8.6999087 0.0480755989,7.27301739 C0.0480755989,5.84651739 0.317476368,4.59062609 0.857049275,3.50593043 C1.39604366,2.42123478 2.14292209,1.58110435 3.09633469,0.98456087 C4.04994014,0.3888 5.1429706,0.090626087 6.37600461,0.090626087 C7.35834357,0.090626087 8.24927524,0.300756522 9.04879965,0.720821739 C9.84793836,1.14127826 10.4596343,1.72256087 10.8835018,2.46506087 L10.8835018,2.17197391 C10.8835018,1.54686522 11.0807795,1.05343043 11.4759135,0.691473913 C11.870469,0.330104348 12.3955787,0.149126087 13.0506642,0.149126087 C13.705364,0.149126087 14.2304737,0.339691304 14.6254148,0.720821739" id="Fill-9" fill="#FFFFFF" mask="url(#mask-8)"></path>
                        </g>
                        <path d="M90.8144786,21.1807565 C89.5043076,20.819387 88.4351896,20.306387 87.6071245,19.6415609 C87.3182467,19.4269304 87.1109411,19.1972348 86.9859793,18.9526696 C86.8604389,18.7084957 86.7981508,18.4007348 86.7981508,18.029387 C86.7981508,17.5410391 86.9470251,17.1108 87.2459308,16.7394522 C87.5444508,16.3683 87.8861674,16.1824304 88.2716593,16.1824304 C88.4834002,16.1824304 88.6907057,16.2166696 88.8929973,16.2849522 C89.095289,16.3538217 89.3407773,16.4755174 89.629848,16.6514087 C90.4577202,17.1790826 91.2958131,17.5653 92.1437409,17.8094739 C92.9910902,18.0540391 93.9252186,18.1759304 94.9465117,18.1759304 C96.2179213,18.1759304 97.1902325,17.9609087 97.864795,17.5308652 C98.5387791,17.101213 98.8760603,16.4854957 98.8760603,15.6841043 C98.8760603,15.0785609 98.5628844,14.5896261 97.9371109,14.2182783 C97.3109518,13.8473217 96.1984442,13.4953435 94.5997811,13.1629304 C92.8082757,12.7919739 91.3779639,12.3419739 90.3088459,11.8143 C89.2397279,11.2866261 88.4594877,10.6319739 87.9683182,9.85014783 C87.4771488,9.06871304 87.2314676,8.12058261 87.2314676,7.00653913 C87.2314676,5.7753 87.5828264,4.66634348 88.2861224,3.67908261 C88.9892257,2.69260435 89.9621154,1.92036522 91.2045986,1.36314783 C92.4470819,0.806321739 93.8484673,0.527713043 95.4087548,0.527713043 C98.1438379,0.527713043 100.397587,1.2216913 102.170193,2.60925652 C102.459071,2.84364783 102.665798,3.08332174 102.791339,3.32749565 C102.916493,3.57206087 102.979167,3.86964783 102.979167,4.22162609 C102.979167,4.71036522 102.829714,5.1404087 102.531387,5.51156087 C102.232482,5.8829087 101.890765,6.06838696 101.505466,6.06838696 C101.293339,6.06838696 101.096062,6.03903913 100.913247,5.98053913 C100.729854,5.92184348 100.474723,5.79506087 100.14747,5.5994087 C99.3573949,5.09149565 98.630572,4.71036522 97.9658444,4.45601739 C97.3013097,4.20225652 96.4583957,4.07488696 95.4376812,4.07488696 C94.2624999,4.07488696 93.3378208,4.30497391 92.6638367,4.76377826 C91.9892742,5.22336522 91.6523786,5.85356087 91.6523786,6.65475652 C91.6523786,7.12373478 91.7825472,7.50995217 92.0424987,7.81262609 C92.302643,8.11608261 92.7359598,8.38432174 93.3428347,8.6189087 C93.9495167,8.85349565 94.811522,9.09806087 95.9288506,9.35182174 C98.5484212,9.9381913 100.431527,10.6906696 101.577782,11.6090609 C102.723651,12.5280391 103.296971,13.7886261 103.296971,15.3908217 C103.296971,16.6418217 102.954869,17.7462783 102.271243,18.7036043 C101.587231,19.6613217 100.624176,20.4038217 99.3818858,20.9314957 C98.1394025,21.4591696 96.699063,21.7231043 95.0620243,21.7231043 C93.5401124,21.7231043 92.1242638,21.5421261 90.8144786,21.1807565" id="Fill-12" fill="#FFFFFF"></path>
                        <path d="M120.113384,12.7817609 L120.113384,19.5536739 C120.113384,20.1987391 119.91572,20.7070435 119.520972,21.0781957 C119.126031,21.4495435 118.591472,21.6350217 117.917488,21.6350217 C117.242925,21.6350217 116.713187,21.4495435 116.328081,21.0781957 C115.942589,20.7070435 115.750326,20.1987391 115.750326,19.5536739 L115.750326,12.7230652 C115.750326,11.8633696 115.571946,11.2233913 115.215767,10.8029348 C114.859008,10.3828696 114.305551,10.1727391 113.554237,10.1727391 C112.648649,10.1727391 111.921633,10.4658261 111.372804,11.0521957 C110.823782,11.6383696 110.549174,12.4203913 110.549174,13.3972826 L110.549174,19.5536739 C110.549174,20.1987391 110.356525,20.7070435 109.971226,21.0781957 C109.585734,21.4495435 109.056189,21.6350217 108.382205,21.6350217 C107.707642,21.6350217 107.173083,21.4495435 106.778528,21.0781957 C106.383394,20.7070435 106.186116,20.1987391 106.186116,19.5536739 L106.186116,2.66791304 C106.186116,2.06217391 106.392843,1.57343478 106.807261,1.2018913 C107.221294,0.830934783 107.765302,0.645065217 108.439865,0.645065217 C109.075473,0.645065217 109.585734,0.820956522 109.971226,1.17273913 C110.356525,1.52452174 110.549174,1.9935 110.549174,2.57986957 L110.549174,8.97065217 C111.049793,8.22815217 111.695044,7.66623913 112.485119,7.2851087 C113.274808,6.90397826 114.170561,6.71341304 115.172377,6.71341304 C118.466317,6.71341304 120.113384,8.73626087 120.113384,12.7817609" id="Fill-14" fill="#FFFFFF"></path>
                        <path d="M123.999369,21.1074848 C123.584951,20.7557022 123.378031,20.2380065 123.378031,19.5538109 L123.378031,8.85339783 C123.378031,8.16959348 123.589772,7.65150652 124.013833,7.29972391 C124.437314,6.9479413 124.95741,6.77205 125.57412,6.77205 C126.190444,6.77205 126.705526,6.9479413 127.119944,7.29972391 C127.533977,7.65150652 127.741282,8.16959348 127.741282,8.85339783 L127.741282,19.5538109 C127.741282,20.2380065 127.533977,20.7557022 127.119944,21.1074848 C126.705526,21.4592674 126.190444,21.6351587 125.57412,21.6351587 C124.938512,21.6351587 124.413402,21.4592674 123.999369,21.1074848 M123.753688,3.82572391 C123.310344,3.42541957 123.089154,2.88307174 123.089154,2.19868043 C123.089154,1.51487609 123.310344,0.977615217 123.753688,0.58631087 C124.196647,0.195593478 124.803329,0.000136956522 125.57412,0.000136956522 C126.325434,0.000136956522 126.927295,0.200680435 127.380089,0.600984783 C127.832497,1.00187609 128.059087,1.5344413 128.059087,2.19868043 C128.059087,2.88307174 127.837318,3.42541957 127.394552,3.82572391 C126.951207,4.22661522 126.344332,4.42676739 125.57412,4.42676739 C124.803329,4.42676739 124.196647,4.22661522 123.753688,3.82572391" id="Fill-16" fill="#FFFFFF"></path>
                        <path d="M143.777821,8.22320217 C144.605886,9.23002826 145.020305,10.749463 145.020305,12.7817022 L145.020305,19.5538109 C145.020305,20.1986804 144.822448,20.7071804 144.427893,21.078137 C144.032952,21.4496804 143.498393,21.6351587 142.824216,21.6351587 C142.149846,21.6351587 141.620108,21.4496804 141.235002,21.078137 C140.84951,20.7071804 140.657246,20.1986804 140.657246,19.5538109 L140.657246,12.9869413 C140.657246,12.0098543 140.478867,11.2967022 140.122687,10.8468978 C139.765929,10.3974848 139.212471,10.1726804 138.461158,10.1726804 C137.55557,10.1726804 136.828554,10.4657674 136.279532,11.052137 C135.730703,11.6385065 135.456095,12.4203326 135.456095,13.3974196 L135.456095,19.5538109 C135.456095,20.1986804 135.263253,20.7071804 134.878147,21.078137 C134.492655,21.4496804 133.96311,21.6351587 133.288933,21.6351587 C132.614563,21.6351587 132.080004,21.4496804 131.685256,21.078137 C131.290315,20.7071804 131.093037,20.1986804 131.093037,19.5538109 L131.093037,8.79470217 C131.093037,8.18935435 131.299764,7.70061522 131.714182,7.32907174 C132.128215,6.95791957 132.662774,6.77205 133.317859,6.77205 C133.914706,6.77205 134.40144,6.95302826 134.777097,7.31439783 C135.152754,7.67635435 135.340583,8.14024565 135.340583,8.70685435 L135.340583,9.11733261 C135.841201,8.33589783 136.491273,7.73935435 137.29099,7.32907174 C138.090129,6.91859348 138.990703,6.71335435 139.992519,6.71335435 C141.68741,6.71335435 142.94937,7.21676739 143.777821,8.22320217" id="Fill-18" fill="#FFFFFF"></path>
                        <g id="Group-22" transform="translate(147.524401, 6.622826)">
                            <mask id="mask-10" fill="white">
                                <use xlink:href="#path-9"></use>
                            </mask>
                            <g id="Clip-21"></g>
                            <path d="M10.0502107,10.0579304 C10.6181314,9.3936913 10.9025739,8.46532174 10.9025739,7.27301739 C10.9025739,6.08110435 10.6181314,5.14745217 10.0502107,4.47323478 C9.48171145,3.79901739 8.68720095,3.4619087 7.66648636,3.4619087 C6.64519326,3.4619087 5.84605454,3.79901739 5.268106,4.47323478 C4.69035031,5.14745217 4.40127962,6.08110435 4.40127962,7.27301739 C4.40127962,8.46532174 4.69035031,9.3936913 5.268106,10.0579304 C5.84605454,10.7225609 6.64519326,11.0545826 7.66648636,11.0545826 C8.68720095,11.0545826 9.48171145,10.7225609 10.0502107,10.0579304 M14.644487,0.720821739 C15.0390424,1.10195217 15.2368987,1.60536522 15.2368987,2.23066957 L15.2368987,13.2826696 C15.2368987,15.6081913 14.5721711,17.3671043 13.2431016,18.5596043 C11.9140321,19.7513217 9.96805986,20.3478652 7.40634203,20.3478652 C5.24882177,20.3478652 3.47660053,19.9565609 2.08967832,19.1751261 C1.74294777,18.9796696 1.47296847,18.7399957 1.28070464,18.456887 C1.08786229,18.173387 0.991633954,17.8558435 0.991633954,17.5042565 C0.991633954,17.0155174 1.10733937,16.6146261 1.33836451,16.3021696 C1.56958249,15.9893217 1.87755173,15.8331913 2.2630436,15.8331913 C2.4747845,15.8331913 2.72547956,15.877213 3.01435741,15.9650609 C3.30323526,16.0531043 3.60175522,16.1556261 3.91011014,16.2728217 C4.52643431,16.5074087 5.09474073,16.692887 5.61483656,16.8298435 C6.13493239,16.9664087 6.69340385,17.0350826 7.29082946,17.0350826 C8.52328495,17.0350826 9.43851476,16.7515826 10.0357475,16.1849739 C10.6325946,15.6177783 10.9315003,14.7584739 10.9315003,13.6051043 L10.9315003,12.0220826 C10.526917,12.7649739 9.92023496,13.3513435 9.11106844,13.7809957 C8.30209476,14.2112348 7.39650707,14.4260609 6.39507672,14.4260609 C5.16204271,14.4260609 4.06901224,14.1327783 3.1154068,13.5466043 C2.1619942,12.9602348 1.41511576,12.1246043 0.876121384,11.0401043 C0.336548477,9.9554087 0.0671477078,8.6999087 0.0671477078,7.27301739 C0.0671477078,5.84651739 0.336548477,4.59062609 0.876121384,3.50593043 C1.41511576,2.42123478 2.1619942,1.58110435 3.1154068,0.98456087 C4.06901224,0.3888 5.16204271,0.090626087 6.39507672,0.090626087 C7.37741568,0.090626087 8.26834735,0.300756522 9.06787175,0.720821739 C9.86701047,1.14127826 10.4787064,1.72256087 10.9025739,2.46506087 L10.9025739,2.17197391 C10.9025739,1.54686522 11.0998516,1.05343043 11.4949856,0.691473913 C11.8895411,0.330104348 12.4146508,0.149126087 13.0697363,0.149126087 C13.7244361,0.149126087 14.2495458,0.339691304 14.644487,0.720821739" id="Fill-20" fill="#FFFFFF" mask="url(#mask-10)"></path>
                        </g>
                    </g>
                </g>
            </g>
        </g>
    </g>
</svg>