<?xml version="1.0" encoding="utf-8"?>
<!-- Generator: Adobe Illustrator 23.0.3, SVG Export Plug-In . SVG Version: 6.00 Build 0)  -->
<svg version="1.1" id="Capa_1" xmlns="http://www.w3.org/2000/svg" xmlns:xlink="http://www.w3.org/1999/xlink" x="0px" y="0px"
	 viewBox="0 0 74.8 74.8" style="enable-background:new 0 0 74.8 74.8;" xml:space="preserve">
<style type="text/css">
	.st0{clip-path:url(#SVGID_2_);fill-rule:evenodd;clip-rule:evenodd;fill:#FF6600;}
</style>
<g>
	<defs>
		<rect id="SVGID_1_" y="0" width="74.8" height="74.8"/>
	</defs>
	<clipPath id="SVGID_2_">
		<use xlink:href="#SVGID_1_"  style="overflow:visible;"/>
	</clipPath>
	<path class="st0" d="M71.2,58.4h-50c-3.2,0-6.2-1.2-8.4-3.5c-2.2-2.3-3.5-5.2-3.5-8.4l0.1-33.7c0-2-0.4-3.3-1.1-4.1
		c-1-1-3.1-1.2-4.7-1.2C1.6,7.5,0,5.9,0,3.9c0-2,1.6-3.6,3.7-3.6c4.4,0,7.6,1.1,9.8,3.3c2.2,2.2,3.2,5.2,3.2,9.2l-0.1,33.7
		c0,1.2,0.5,2.4,1.3,3.2c0.9,0.9,2,1.3,3.2,1.3h50c2,0,3.7,1.6,3.7,3.6C74.8,56.7,73.2,58.4,71.2,58.4"/>
	<path class="st0" d="M63.8,70.4c0,2.5-2,4.5-4.5,4.5c-2.5,0-4.5-2-4.5-4.5c0-2.5,2-4.5,4.5-4.5C61.8,65.9,63.8,67.9,63.8,70.4"/>
	<path class="st0" d="M35.7,70.4c0,2.5-2,4.5-4.5,4.5c-2.5,0-4.5-2-4.5-4.5c0-2.5,2-4.5,4.5-4.5C33.7,65.9,35.7,67.9,35.7,70.4"/>
	<path class="st0" d="M61.7,43.6h-34c-2,0-3.7-1.6-3.7-3.6c0-2,1.6-3.6,3.7-3.6h34c1.1,0,2-0.9,2-2v-6.9c0-1.1-0.9-2-2-2H33.5
		c-5.2,0-9.3-4.2-9.3-9.3V9.3c0-5.1,4.2-9.3,9.3-9.3h30.3c2,0,3.7,1.6,3.7,3.6c0,2-1.6,3.6-3.7,3.6H33.5c-1.1,0-2,0.9-2,2V16
		c0,1.1,0.9,2,2,2h28.3c5.2,0,9.3,4.2,9.3,9.3v6.9C71.1,39.4,66.9,43.6,61.7,43.6"/>
</g>
</svg>
