<?xml version="1.0" encoding="UTF-8"?>
<svg width="49px" height="49px" viewBox="0 0 49 49" version="1.1" xmlns="http://www.w3.org/2000/svg" xmlns:xlink="http://www.w3.org/1999/xlink">
    <!-- Generator: Sketch 58 (84663) - https://sketch.com -->
    <title>Fill 1</title>
    <desc>Created with Sketch.</desc>
    <g id="Page-1" stroke="none" stroke-width="1" fill="none" fill-rule="evenodd">
        <g id="Desktop-HD-Copy-3" transform="translate(-1142.000000, -4186.000000)" fill="#2993FF">
            <g id="Group-24" transform="translate(0.000000, 3822.000000)">
                <g id="footer" transform="translate(0.000000, 161.000000)">
                    <g id="Group-3" transform="translate(1142.000000, 203.492644)">
                        <path d="M36.6154175,19.1008584 C36.6277962,19.3422747 36.6401748,19.5957618 36.6401748,19.8371781 C36.6401748,27.3452253 30.7727149,36 20.0652197,36 C16.7725102,36 13.7149942,35.0584764 11.1402439,33.4409871 C11.5982524,33.5013412 12.0562608,33.5254828 12.5266479,33.5254828 C15.2623201,33.5254828 17.7627988,32.6201717 19.7557545,31.0871781 C17.2057614,31.0509657 15.0642624,29.4093348 14.321546,27.1520923 C14.6805256,27.2124464 15.0395052,27.2486588 15.4108634,27.2486588 C15.9431435,27.2486588 16.463045,27.1762339 16.9458107,27.0555258 C14.2844101,26.5244099 12.2790758,24.2309549 12.2790758,21.478809 L12.2790758,21.4063841 C13.058928,21.8409335 13.9625663,22.0944206 14.9157191,22.1185622 C13.3560146,21.1046137 12.3285902,19.3664163 12.3285902,17.3988734 C12.3285902,16.3487124 12.6132982,15.3830472 13.1084424,14.5380901 C15.9926579,17.9782725 20.275656,20.235515 25.1156914,20.4769313 C25.0166626,20.0544528 24.9671482,19.6199034 24.9671482,19.1732833 C24.9671482,16.0469421 27.5790343,13.5 30.7974722,13.5 C32.4685841,13.5 33.9787742,14.1880365 35.0433344,15.2985515 C36.3678454,15.0329936 37.6180847,14.5622318 38.744538,13.9104077 C38.3112867,15.2381974 37.3828912,16.3487124 36.1821663,17.0608906 C37.358134,16.9160408 38.4845872,16.6142704 39.5243902,16.1676502 C38.744538,17.3023069 37.7542494,18.3041845 36.6154175,19.1008584 M24.5853659,0 C11.3912195,0 0.682926829,10.74 0.682926829,24 C0.682926829,37.26 11.3912195,48 24.5853659,48 C37.7914634,48 48.4878049,37.26 48.4878049,24 C48.4878049,10.74 37.7914634,0 24.5853659,0" id="Fill-1"></path>
                    </g>
                </g>
            </g>
        </g>
    </g>
</svg>