<svg xmlns="http://www.w3.org/2000/svg" viewBox="0 0 223.68 44.9"><defs><style>.cls-1,.cls-2,.cls-3{fill:#fff;}.cls-2{fill-rule:evenodd;}.cls-3{font-size:14px;font-family:Nunito-Black, Nunito;font-weight:800;}.cls-4{letter-spacing:-0.01em;}</style></defs><title>Recurso 8</title><g id="Capa_2" data-name="Capa 2"><g id="Capa_1-2" data-name="Capa 1"><path class="cls-1" d="M53.13,35.1a8.43,8.43,0,0,1-3-1.49,1.51,1.51,0,0,1-.62-1.29,1.55,1.55,0,0,1,.33-1,1,1,0,0,1,.8-.42,2.2,2.2,0,0,1,1.1.38,8,8,0,0,0,2.43,1.21,9.82,9.82,0,0,0,2.8.38,5.51,5.51,0,0,0,3-.69,2.23,2.23,0,0,0,1-2,1.73,1.73,0,0,0-1-1.58,13,13,0,0,0-3.28-1.06,19.24,19.24,0,0,1-3.85-1.19,5.49,5.49,0,0,1-2.24-1.72A4.48,4.48,0,0,1,49.94,22a5,5,0,0,1,.94-3,6.21,6.21,0,0,1,2.63-2.06,9.17,9.17,0,0,1,3.78-.74,9.41,9.41,0,0,1,6.28,2,2.28,2.28,0,0,1,.5.58,1.54,1.54,0,0,1,.15.72,1.5,1.5,0,0,1-.34,1,1,1,0,0,1-.79.42,1.59,1.59,0,0,1-.5-.08,5.47,5.47,0,0,1-.61-.3,9.14,9.14,0,0,0-2.14-1.2A7.27,7.27,0,0,0,57.29,19a5,5,0,0,0-2.89.74,2.38,2.38,0,0,0-1.07,2.06,1.89,1.89,0,0,0,1,1.7,11,11,0,0,0,3.2,1.11,21.85,21.85,0,0,1,3.9,1.19,6,6,0,0,1,2.29,1.69A4,4,0,0,1,64.46,30a4.91,4.91,0,0,1-.93,3,6,6,0,0,1-2.61,2,9.78,9.78,0,0,1-3.87.72,13.56,13.56,0,0,1-3.92-.56"/><path class="cls-1" d="M79.71,27.33V34a1.58,1.58,0,0,1-.44,1.18,1.7,1.7,0,0,1-1.23.44,1.74,1.74,0,0,1-1.24-.44A1.52,1.52,0,0,1,76.34,34V27.33a3.11,3.11,0,0,0-.58-2.09,2.29,2.29,0,0,0-1.82-.66,3.09,3.09,0,0,0-2.33.92A3.41,3.41,0,0,0,70.74,28v6a1.55,1.55,0,0,1-.46,1.18,1.74,1.74,0,0,1-1.24.44,1.7,1.7,0,0,1-1.23-.44A1.58,1.58,0,0,1,67.37,34V17.85a1.46,1.46,0,0,1,.47-1.13,1.73,1.73,0,0,1,1.23-.44,1.77,1.77,0,0,1,1.21.41,1.42,1.42,0,0,1,.46,1.1v6.28a4.39,4.39,0,0,1,1.79-1.6,5.63,5.63,0,0,1,2.55-.55c3.08,0,4.63,1.8,4.63,5.41"/><path class="cls-1" d="M83.35,19.07a1.83,1.83,0,0,1,0-2.6,2.42,2.42,0,0,1,2.89,0,1.66,1.66,0,0,1,.56,1.3,1.69,1.69,0,0,1-.54,1.3,2,2,0,0,1-1.46.5,2,2,0,0,1-1.45-.5m.25,16.09a1.54,1.54,0,0,1-.47-1.2V23.56a1.5,1.5,0,0,1,.47-1.19,1.79,1.79,0,0,1,1.2-.4,1.85,1.85,0,0,1,1.22.4,1.47,1.47,0,0,1,.48,1.19V34a1.51,1.51,0,0,1-.48,1.2,1.81,1.81,0,0,1-1.22.42,1.76,1.76,0,0,1-1.2-.42"/><path class="cls-1" d="M101.16,23.26a6.14,6.14,0,0,1,1.16,4.07V34a1.54,1.54,0,0,1-.45,1.18,1.94,1.94,0,0,1-2.46,0A1.52,1.52,0,0,1,99,34V27.52a3.54,3.54,0,0,0-.58-2.24,2.25,2.25,0,0,0-1.82-.7,3.07,3.07,0,0,0-2.33.92A3.42,3.42,0,0,0,93.34,28v6a1.54,1.54,0,0,1-.45,1.18,1.74,1.74,0,0,1-1.24.44,1.7,1.7,0,0,1-1.23-.44A1.54,1.54,0,0,1,90,34V23.53a1.51,1.51,0,0,1,.45-1.13A1.73,1.73,0,0,1,91.67,22a1.61,1.61,0,0,1,1.15.42,1.45,1.45,0,0,1,.44,1.09v.73a4.49,4.49,0,0,1,1.81-1.7,5.37,5.37,0,0,1,2.56-.6,4.4,4.4,0,0,1,3.53,1.35"/><path class="cls-1" d="M118.1,22.4a1.5,1.5,0,0,1,.46,1.16V34.2a6.06,6.06,0,0,1-1.72,4.69,7.27,7.27,0,0,1-5.09,1.59,9.88,9.88,0,0,1-4.91-1.11,1.67,1.67,0,0,1-1-1.42,1.48,1.48,0,0,1,.29-1,.91.91,0,0,1,.74-.35,1.87,1.87,0,0,1,.59.12c.23.08.48.18.73.29a17.05,17.05,0,0,0,1.73.62,6.82,6.82,0,0,0,1.77.21q3.53,0,3.53-3.45V32.72a4.05,4.05,0,0,1-1.72,1.71,5.47,5.47,0,0,1-2.59.61,5.79,5.79,0,0,1-3.06-.82,5.71,5.71,0,0,1-2.09-2.31,7.49,7.49,0,0,1-.75-3.42,7.6,7.6,0,0,1,.74-3.44,5.51,5.51,0,0,1,2.09-2.31,5.76,5.76,0,0,1,3.07-.82,5.47,5.47,0,0,1,2.59.6,4.17,4.17,0,0,1,1.72,1.71v-.7a1.48,1.48,0,0,1,.46-1.13,1.92,1.92,0,0,1,2.42,0m-3.78,9a4.28,4.28,0,0,0,.9-2.88,4.33,4.33,0,0,0-.9-2.91,3.54,3.54,0,0,0-5,0,4.28,4.28,0,0,0-.91,2.91,4.23,4.23,0,0,0,.91,2.88,3.54,3.54,0,0,0,5,0"/><path class="cls-1" d="M132.29,35.1a8.56,8.56,0,0,1-3-1.49,1.53,1.53,0,0,1-.62-1.29,1.56,1.56,0,0,1,.34-1,1,1,0,0,1,.8-.42,2.2,2.2,0,0,1,1.1.38,7.9,7.9,0,0,0,2.43,1.21,9.77,9.77,0,0,0,2.8.38,5.47,5.47,0,0,0,3-.69,2.22,2.22,0,0,0,1.06-2,1.72,1.72,0,0,0-1-1.58,12.77,12.77,0,0,0-3.27-1.06,19,19,0,0,1-3.85-1.19,5.43,5.43,0,0,1-2.24-1.72A4.48,4.48,0,0,1,129.1,22a5,5,0,0,1,.94-3,6.15,6.15,0,0,1,2.63-2.06,9.17,9.17,0,0,1,3.78-.74,9.43,9.43,0,0,1,6.28,2,2.28,2.28,0,0,1,.5.58,1.54,1.54,0,0,1,.15.72,1.56,1.56,0,0,1-.34,1,1,1,0,0,1-.8.42,1.53,1.53,0,0,1-.49-.08,4.73,4.73,0,0,1-.61-.3,9.14,9.14,0,0,0-2.14-1.2,7.27,7.27,0,0,0-2.55-.39,5,5,0,0,0-2.89.74,2.38,2.38,0,0,0-1.07,2.06,1.9,1.9,0,0,0,.94,1.7,11.18,11.18,0,0,0,3.21,1.11,21.45,21.45,0,0,1,3.89,1.19,5.88,5.88,0,0,1,2.29,1.69,4,4,0,0,1,.8,2.56,4.91,4.91,0,0,1-.93,3,6,6,0,0,1-2.61,2,9.82,9.82,0,0,1-3.87.72,13.56,13.56,0,0,1-3.92-.56"/><path class="cls-1" d="M158.87,27.33V34a1.54,1.54,0,0,1-.45,1.18,1.66,1.66,0,0,1-1.22.44,1.72,1.72,0,0,1-1.24-.44A1.52,1.52,0,0,1,155.5,34V27.33a3.16,3.16,0,0,0-.58-2.09,2.3,2.3,0,0,0-1.82-.66,3.07,3.07,0,0,0-2.33.92,3.42,3.42,0,0,0-.88,2.45v6a1.54,1.54,0,0,1-.45,1.18,1.74,1.74,0,0,1-1.24.44,1.7,1.7,0,0,1-1.23-.44,1.58,1.58,0,0,1-.44-1.18V17.85a1.42,1.42,0,0,1,.47-1.13,1.72,1.72,0,0,1,1.22-.44,1.78,1.78,0,0,1,1.22.41,1.41,1.41,0,0,1,.45,1.1v6.28a4.42,4.42,0,0,1,1.8-1.6,5.61,5.61,0,0,1,2.54-.55q4.64,0,4.64,5.41"/><path class="cls-1" d="M162.5,19.07a1.86,1.86,0,0,1,0-2.6,2.43,2.43,0,0,1,2.9,0,1.65,1.65,0,0,1,.55,1.3,1.69,1.69,0,0,1-.54,1.3,2,2,0,0,1-1.45.5,2,2,0,0,1-1.46-.5m.26,16.09a1.54,1.54,0,0,1-.47-1.2V23.56a1.5,1.5,0,0,1,.47-1.19A1.76,1.76,0,0,1,164,22a1.82,1.82,0,0,1,1.21.4,1.48,1.48,0,0,1,.49,1.19V34a1.52,1.52,0,0,1-.49,1.2,1.78,1.78,0,0,1-1.21.42,1.72,1.72,0,0,1-1.2-.42"/><path class="cls-1" d="M180.31,23.26a6.08,6.08,0,0,1,1.16,4.07V34a1.58,1.58,0,0,1-.44,1.18,1.7,1.7,0,0,1-1.23.44,1.74,1.74,0,0,1-1.24-.44A1.55,1.55,0,0,1,178.1,34V27.52a3.48,3.48,0,0,0-.58-2.24,2.23,2.23,0,0,0-1.81-.7,3.07,3.07,0,0,0-2.33.92A3.38,3.38,0,0,0,172.5,28v6a1.52,1.52,0,0,1-.46,1.18,1.72,1.72,0,0,1-1.24.44,1.66,1.66,0,0,1-1.22-.44,1.54,1.54,0,0,1-.45-1.18V23.53a1.51,1.51,0,0,1,.46-1.13,1.73,1.73,0,0,1,1.24-.43,1.63,1.63,0,0,1,1.15.42,1.45,1.45,0,0,1,.44,1.09v.73a4.52,4.52,0,0,1,1.8-1.7,5.4,5.4,0,0,1,2.56-.6,4.4,4.4,0,0,1,3.53,1.35"/><path class="cls-1" d="M197.26,22.4a1.5,1.5,0,0,1,.46,1.16V34.2A6.06,6.06,0,0,1,196,38.89a7.26,7.26,0,0,1-5.09,1.59,9.84,9.84,0,0,1-4.9-1.11A1.67,1.67,0,0,1,185,38a1.47,1.47,0,0,1,.28-1,.93.93,0,0,1,.75-.35,1.92,1.92,0,0,1,.59.12c.23.08.47.18.73.29a16.23,16.23,0,0,0,1.73.62,6.71,6.71,0,0,0,1.77.21q3.53,0,3.53-3.45V32.72a4.08,4.08,0,0,1-1.73,1.71,5.4,5.4,0,0,1-2.58.61,5.76,5.76,0,0,1-3.06-.82,5.64,5.64,0,0,1-2.09-2.31,7.49,7.49,0,0,1-.76-3.42,7.6,7.6,0,0,1,.75-3.44A5.51,5.51,0,0,1,187,22.74a5.71,5.71,0,0,1,3.07-.82,5.4,5.4,0,0,1,2.58.6,4.19,4.19,0,0,1,1.73,1.71v-.7a1.51,1.51,0,0,1,.45-1.13,1.93,1.93,0,0,1,2.43,0m-3.79,9a4.23,4.23,0,0,0,.91-2.88,4.28,4.28,0,0,0-.91-2.91,3.53,3.53,0,0,0-5,0,4.28,4.28,0,0,0-.92,2.91,4.24,4.24,0,0,0,.92,2.88,3.53,3.53,0,0,0,5,0"/><path class="cls-2" d="M31.44,37.63H9.35a5.19,5.19,0,0,1-3.72-1.55A5.14,5.14,0,0,1,4.1,32.36l.06-14.87a2.57,2.57,0,0,0-.49-1.8,3.16,3.16,0,0,0-2.06-.53,1.61,1.61,0,1,1,0-3.22A5.83,5.83,0,0,1,6,13.41a5.45,5.45,0,0,1,1.44,4.08L7.33,32.38a2,2,0,0,0,.59,1.43,2,2,0,0,0,1.43.6H31.44a1.61,1.61,0,1,1,0,3.22"/><path class="cls-2" d="M28.18,42.93a2,2,0,1,1-2-2,2,2,0,0,1,2,2"/><path class="cls-2" d="M15.78,42.93a2,2,0,1,1-2-2,2,2,0,0,1,2,2"/><path class="cls-2" d="M27.28,31.08h-15a1.61,1.61,0,1,1,0-3.22h15a.89.89,0,0,0,.9-.89v-3a.9.9,0,0,0-.9-.9H14.78a4.13,4.13,0,0,1-4.12-4.12V16a4.13,4.13,0,0,1,4.12-4.12h13.4a1.62,1.62,0,1,1,0,3.23H14.78a.89.89,0,0,0-.89.89v3a.89.89,0,0,0,.89.9h12.5a4.13,4.13,0,0,1,4.13,4.12v3a4.12,4.12,0,0,1-4.13,4.11"/><text class="cls-3" transform="translate(169.13 11.94)">H<tspan class="cls-4" x="10.86" y="0">o</tspan><tspan x="19.11" y="0">w Do</tspan></text></g></g></svg>