<svg id="Capa_1" data-name="Capa 1" xmlns="http://www.w3.org/2000/svg" xmlns:xlink="http://www.w3.org/1999/xlink" viewBox="0 0 192 192"><defs><style>.cls-1,.cls-8{opacity:0.35;}.cls-1{fill:url(#Degradado_sin_nombre_16);}.cls-2{fill:#ba4b00;}.cls-3{fill:#ffa366;}.cls-4{fill:#fff;}.cls-5{fill:none;stroke:aqua;stroke-miterlimit:10;stroke-width:1.01px;}.cls-6{fill:#f60;}.cls-7{fill:#ffe0cc;}.cls-8{fill:url(#Degradado_sin_nombre_16-2);}.cls-9{fill:url(#Degradado_sin_nombre_3);}</style><linearGradient id="Degradado_sin_nombre_16" x1="90.67" y1="208.85" x2="90.67" y2="-86.89" gradientUnits="userSpaceOnUse"><stop offset="0" stop-opacity="0"/><stop offset="1"/></linearGradient><linearGradient id="Degradado_sin_nombre_16-2" x1="165.68" y1="192.77" x2="165.68" y2="126.09" gradientTransform="translate(163.09 -69.6) rotate(44.94)" xlink:href="#Degradado_sin_nombre_16"/><linearGradient id="Degradado_sin_nombre_3" x1="99.14" y1="119.74" x2="168.74" y2="119.74" gradientUnits="userSpaceOnUse"><stop offset="0" stop-color="#ffe0cc" stop-opacity="0"/><stop offset="0.23" stop-color="#ffe0cc" stop-opacity="0.22"/><stop offset="0.77" stop-color="#ffe0cc" stop-opacity="0.76"/><stop offset="1" stop-color="#ffe0cc"/></linearGradient></defs><title>sm-info-correo</title><path class="cls-1" d="M108.58,161c24.41-11.4,98.27-83.7,60.17-132.39C111.57-44.44-40.82,44,13.31,102.69c9,9.8,17.07,13.53,12.26,21.57C13,145.25-10.33,190.11,25,191S108.58,161,108.58,161Z"/><polygon class="cls-2" points="168.75 84.8 30.42 84.8 98.65 122.94 168.75 84.8"/><polygon class="cls-3" points="30.42 84.8 98.65 50.52 168.75 84.8 30.42 84.8"/><path class="cls-4" d="M47.33,150.71a1.66,1.66,0,0,1-1.22-2.79c8.46-9.12,32.15-38.5,6.11-57.85-29.09-21.62,3-50.93,7.31-54.7A1.62,1.62,0,0,1,60.62,35h93.12a1.67,1.67,0,0,1,1.17,2.86c-8.59,8.33-30.21,33.25-4.65,52.25,29.09,21.62-3.88,55.76-8.36,60.17a1.68,1.68,0,0,1-1.16.47Z"/><path class="cls-5" d="M52.59,76.44a21,21,0,0,1-1.52-9.14"/><path class="cls-5" d="M62.66,44a62.64,62.64,0,0,0-6.82,9.14"/><path class="cls-3" d="M130.41,76.44H52.59a21,21,0,0,1-1.52-9.14h77.82A21,21,0,0,0,130.41,76.44Z"/><path class="cls-6" d="M151.4,99.73h-80A40.85,40.85,0,0,0,64,90.59h78.88A34.17,34.17,0,0,1,151.4,99.73Z"/><path class="cls-7" d="M62.66,44h49.11A62.64,62.64,0,0,0,105,53.15H55.84A62.64,62.64,0,0,1,62.66,44Z"/><path class="cls-7" d="M140.48,44a61.93,61.93,0,0,0-6.82,9.14H115.25A61.88,61.88,0,0,1,122.06,44Z"/><ellipse class="cls-8" cx="165.68" cy="162.34" rx="30.73" ry="14.98" transform="translate(-66.27 164.47) rotate(-44.94)"/><path class="cls-6" d="M30.42,84.8v61.3a8.6,8.6,0,0,0,8.6,8.59H160.15a8.6,8.6,0,0,0,8.6-8.59V84.8L99.58,119.74Z"/><path class="cls-3" d="M30.42,84.8v61.3a8.6,8.6,0,0,0,8.6,8.59H160.15a8.6,8.6,0,0,0,8.6-8.59V84.8L99.58,119.74Z"/><path class="cls-9" d="M168.74,84.79V146.1a8.59,8.59,0,0,1-8.59,8.59h-61V119.52l.44.22Z"/></svg>