<?xml version="1.0" encoding="UTF-8"?>
<svg width="173px" height="178px" viewBox="0 0 173 178" version="1.1" xmlns="http://www.w3.org/2000/svg" xmlns:xlink="http://www.w3.org/1999/xlink">
    <!-- Generator: Sketch 59.1 (86144) - https://sketch.com -->
    <title>img/mailSend</title>
    <desc>Created with Sketch.</desc>
    <defs>
        <linearGradient x1="49.9994181%" y1="109.397281%" x2="49.9994181%" y2="-46.2567373%" id="linearGradient-1">
            <stop stop-color="#FF3A08" stop-opacity="0" offset="0%"></stop>
            <stop stop-color="#E84005" stop-opacity="0.1073" offset="10.81%"></stop>
            <stop stop-color="#CF4602" stop-opacity="0.2518" offset="25.35%"></stop>
            <stop stop-color="#BF4A01" stop-opacity="0.3836" offset="38.62%"></stop>
            <stop stop-color="#BA4B00" stop-opacity="0.49" offset="49.33%"></stop>
            <stop stop-color="#801D04" offset="100%"></stop>
        </linearGradient>
        <linearGradient x1="49.9953962%" y1="112.982658%" x2="49.9953962%" y2="-25.0009434%" id="linearGradient-2">
            <stop stop-color="#FF3A08" stop-opacity="0" offset="0%"></stop>
            <stop stop-color="#E84005" stop-opacity="0.1073" offset="10.81%"></stop>
            <stop stop-color="#CF4602" stop-opacity="0.2518" offset="25.35%"></stop>
            <stop stop-color="#BF4A01" stop-opacity="0.3836" offset="38.62%"></stop>
            <stop stop-color="#BA4B00" stop-opacity="0.49" offset="49.33%"></stop>
            <stop stop-color="#801D04" offset="100%"></stop>
        </linearGradient>
        <linearGradient x1="0.00193616888%" y1="50.0007454%" x2="165.876085%" y2="50.0007454%" id="linearGradient-3">
            <stop stop-color="#FFFFFF" stop-opacity="0" offset="0%"></stop>
            <stop stop-color="#FFFFFF" offset="100%"></stop>
        </linearGradient>
    </defs>
    <g id="–-Usuario" stroke="none" stroke-width="1" fill="none" fill-rule="evenodd">
        <g id="Web/Login/Marca/Solicitar-Cuenta/Desktop-Copy-4" transform="translate(-633.000000, -325.000000)">
            <g id="img/280x180/mailSend" transform="translate(580.000000, 324.000000)">
                <g id="Group-2">
                    <rect id="Rectangle" x="0" y="0" width="280" height="180"></rect>
                    <g id="ilustraciones-06" transform="translate(53.000000, 1.000000)" fill-rule="nonzero">
                        <path d="M99.8055416,149.797985 C122.577884,139.153854 191.464332,71.6393955 155.92262,26.1664484 C102.594358,-42.0653904 -39.5455919,40.5140554 10.9490176,95.3219144 C19.387204,104.481965 26.8703778,107.956776 22.382267,115.466851 C10.6755164,135.06927 -11.1059446,176.955315 21.8397481,177.771335 C54.7809572,178.591839 99.8055416,149.797985 99.8055416,149.797985 Z" id="Path" fill="url(#linearGradient-1)"></path>
                        <path d="M160.012241,147.156685 C148.81214,158.356786 135.307455,163.010791 129.850881,157.554217 C124.394306,152.097642 129.048311,138.592957 140.248412,127.392857 C151.448513,116.192756 164.953198,111.538751 170.409772,116.995325 C175.866347,122.456383 171.207858,135.956584 160.012241,147.156685 Z" id="Path" fill="url(#linearGradient-2)"></path>
                        <g id="Group" transform="translate(25.026611, 30.122004)">
                            <polygon id="Path" fill="#FE6F01" points="126.812918 45.7409684 9.9475983e-14 45.7409684 62.5475955 80.7491294"></polygon>
                            <polygon id="Path" fill="#FFA366" points="4.26325641e-14 45.7409686 62.5475963 14.2798545 126.81292 45.7409686"></polygon>
                            <path d="M15.5073719,106.240045 C14.1722474,106.240045 13.4747943,104.653837 14.3834761,103.677402 C22.1431402,95.315936 43.863823,68.3464202 19.9870137,50.5793002 C-6.68359358,30.7317771 22.6931318,3.83798488 26.6865491,0.370646515 C26.9655303,0.127534285 27.3162496,-4.97379915e-14 27.6868961,-4.97379915e-14 L113.059143,-4.97379915e-14 C114.430137,-4.97379915e-14 115.111648,1.66591659 114.131228,2.61843828 C106.259972,10.2704954 86.4363614,33.1469577 109.866801,50.5793002 C136.541393,70.4268232 106.311783,101.760403 102.206773,105.805631 C101.919821,106.088598 101.537218,106.240045 101.138673,106.240045 L15.5073719,106.240045 Z" id="Path" fill="#FFFFFF"></path>
                            <path d="M91.6652703,38.0729698 L20.3257767,38.0729698 C19.1819536,35.2433028 18.7873943,32.4335629 18.9348559,29.6836048 L90.2743494,29.6836048 C90.1268879,32.4335629 90.5214471,35.2433028 91.6652703,38.0729698 Z" id="Path" fill="#FFA366"></path>
                            <path d="M110.910991,59.4469189 L37.5827599,59.4469189 C35.9766249,56.6531209 33.7647021,53.8513519 30.819457,51.0575539 L103.13937,51.0575539 C106.630622,53.7596866 109.157395,56.5773974 110.910991,59.4469189 Z" id="Path" fill="#FF6600"></path>
                            <path d="M29.5560708,8.30567031 L74.5796607,8.30567031 C72.4036068,10.7646908 70.1797277,13.6023288 68.3304805,16.6950353 L23.3068906,16.6950353 C25.1521523,13.6023288 27.380017,10.7646908 29.5560708,8.30567031 Z" id="Path" fill="#FFE0CC"></path>
                            <path d="M100.895562,8.30567031 C98.7195083,10.7646908 96.4956291,13.6023288 94.6463819,16.6950353 L77.7640302,16.6950353 C79.6132774,13.6023288 81.8371566,10.7646908 84.0132104,8.30567031 L100.895562,8.30567031 Z" id="Path" fill="#FFE0CC"></path>
                            <path d="M0,45.7409684 L0,102.007501 C0,106.363594 3.53110551,109.890714 7.88321298,109.890714 L118.929706,109.890714 C123.285799,109.890714 126.812919,106.359608 126.812919,102.007501 L126.812919,45.7409684 L63.4084522,77.815841 L0,45.7409684 Z" id="Path" fill="#FF6600"></path>
                            <path d="M0,45.7409684 L0,102.007501 C0,106.363594 3.53110551,109.890714 7.88321298,109.890714 L118.929706,109.890714 C123.285799,109.890714 126.812919,106.359608 126.812919,102.007501 L126.812919,45.7409684 L63.4084522,77.815841 L0,45.7409684 Z" id="Path" fill="#FFA366"></path>
                            <path d="M126.808934,45.7369829 L126.808934,102.011486 C126.808934,106.359608 123.285799,109.894699 118.925721,109.894699 L62.9979513,109.894699 L62.9979513,77.6125832 L63.4004814,77.8198264 L126.808934,45.7369829 Z" id="Path" fill="url(#linearGradient-3)"></path>
                        </g>
                    </g>
                </g>
            </g>
        </g>
    </g>
</svg>