<?xml version="1.0" encoding="UTF-8"?>
<svg width="252px" height="178px" viewBox="0 0 252 178" version="1.1" xmlns="http://www.w3.org/2000/svg" xmlns:xlink="http://www.w3.org/1999/xlink">
    <!-- Generator: Sketch 59.1 (86144) - https://sketch.com -->
    <title>img/forgetPass Copy</title>
    <desc>Created with Sketch.</desc>
    <defs>
        <linearGradient x1="49.9985458%" y1="104.675403%" x2="49.9985458%" y2="13.9979757%" id="linearGradient-1">
            <stop stop-color="#CCCCCC" stop-opacity="0" offset="0%"></stop>
            <stop stop-color="#CCCCCC" offset="100%"></stop>
        </linearGradient>
        <linearGradient x1="36.5612047%" y1="49.9983991%" x2="135.755498%" y2="49.9983991%" id="linearGradient-2">
            <stop stop-color="#FF3A08" stop-opacity="0" offset="0%"></stop>
            <stop stop-color="#E84005" stop-opacity="0.1073" offset="8.96%"></stop>
            <stop stop-color="#CF4602" stop-opacity="0.2518" offset="21.02%"></stop>
            <stop stop-color="#BF4A01" stop-opacity="0.3836" offset="32.02%"></stop>
            <stop stop-color="#BA4B00" stop-opacity="0.49" offset="40.9%"></stop>
            <stop stop-color="#801D04" offset="100%"></stop>
        </linearGradient>
        <linearGradient x1="86.0076592%" y1="50.0042525%" x2="-10.3998496%" y2="50.0042525%" id="linearGradient-3">
            <stop stop-color="#FFE0CC" stop-opacity="0" offset="0%"></stop>
            <stop stop-color="#FFE0CC" stop-opacity="0.49" offset="100%"></stop>
            <stop stop-color="#FFE0CC" offset="100%"></stop>
        </linearGradient>
        <linearGradient x1="7.97362913%" y1="50%" x2="155.3018%" y2="50%" id="linearGradient-4">
            <stop stop-color="#FFFFFF" stop-opacity="0" offset="0%"></stop>
            <stop stop-color="#FFFFFF" stop-opacity="0.4546" offset="43.32%"></stop>
            <stop stop-color="#FFFFFF" stop-opacity="0.49" offset="46.7%"></stop>
            <stop stop-color="#FFFFFF" offset="73.28%"></stop>
        </linearGradient>
        <linearGradient x1="49.9998646%" y1="22.158185%" x2="49.9998646%" y2="156.228981%" id="linearGradient-5">
            <stop stop-color="#FF3A08" stop-opacity="0" offset="0%"></stop>
            <stop stop-color="#E84005" stop-opacity="0.1073" offset="8.96%"></stop>
            <stop stop-color="#CF4602" stop-opacity="0.2518" offset="21.02%"></stop>
            <stop stop-color="#BF4A01" stop-opacity="0.3836" offset="32.02%"></stop>
            <stop stop-color="#BA4B00" stop-opacity="0.49" offset="40.9%"></stop>
            <stop stop-color="#801D04" offset="100%"></stop>
        </linearGradient>
        <linearGradient x1="43.8494837%" y1="49.9978737%" x2="-43.2498119%" y2="49.9978737%" id="linearGradient-6">
            <stop stop-color="#FFE0CC" stop-opacity="0" offset="0%"></stop>
            <stop stop-color="#FFE0CC" stop-opacity="0.49" offset="100%"></stop>
            <stop stop-color="#FFE0CC" offset="100%"></stop>
        </linearGradient>
        <linearGradient x1="31.6270613%" y1="96.9981652%" x2="92.0892891%" y2="-57.7140788%" id="linearGradient-7">
            <stop stop-color="#CCCCCC" stop-opacity="0" offset="0%"></stop>
            <stop stop-color="#CCCCCC" offset="100%"></stop>
        </linearGradient>
    </defs>
    <g id="–-Marca" stroke="none" stroke-width="1" fill="none" fill-rule="evenodd">
        <g id="Web/Login/Marca/Solicitar-Cuenta/Desktop-Copy-2" transform="translate(-588.000000, -233.000000)">
            <g id="img/280x180/orgetPass" transform="translate(580.000000, 232.000000)">
                <g id="Group">
                    <rect id="Rectangle" x="0" y="0" width="280" height="180"></rect>
                    <g id="ilustraciones-07" transform="translate(8.000000, 1.000000)" fill-rule="nonzero">
                        <path d="M190.619335,56.1086957 C191.352275,71.0816368 200.848645,75.6295141 218.798875,82.8633248 C236.749105,90.0971355 251.776675,120.375345 212.111355,154.664246 C172.446036,188.953146 114.566445,180.599437 87.6251662,160.596061 C45.9294629,129.63954 44.4408184,78.870844 66.315243,43.0659847 C101.400818,-14.3720205 186.981944,-17.9638875 190.619335,56.1086957 Z" id="Path" fill="url(#linearGradient-1)"></path>
                        <ellipse id="Oval" fill="#FFA366" transform="translate(110.757965, 11.891093) rotate(-45.000000) translate(-110.757965, -11.891093) " cx="110.757965" cy="11.8910929" rx="4.30655716" ry="6.6055121"></ellipse>
                        <path d="M100.158005,161.001228 C99.7847059,161.001228 99.4023018,160.914731 99.0472123,160.737187 C97.8271611,160.122609 97.3354987,158.633964 97.9500767,157.413913 L111.35243,130.44532 C111.967008,129.225269 113.455652,128.733606 114.675703,129.348184 C115.895754,129.962762 116.387417,131.451407 115.772839,132.671458 L102.370486,159.640051 C101.938005,160.50046 101.063939,161.001228 100.158005,161.001228 Z" id="Path" fill="#BA4B00"></path>
                        <path d="M78.6978517,161.001228 C78.3245524,161.001228 77.9421483,160.914731 77.5870588,160.737187 C76.3670077,160.122609 75.8753453,158.633964 76.4899233,157.413913 L89.8922762,130.44532 C90.5068542,129.225269 91.9954987,128.733606 93.2155499,129.348184 C94.435601,129.962762 94.9272634,131.451407 94.3126854,132.671458 L80.9103325,159.640051 C80.4778517,160.50046 79.6037852,161.001228 78.6978517,161.001228 Z" id="Path" fill="#BA4B00"></path>
                        <path d="M187.459949,129.084143 C187.08665,129.084143 186.704246,129.170639 186.349156,129.348184 C185.129105,129.962762 184.637442,131.451407 185.25202,132.671458 L198.654373,159.640051 C199.268951,160.860102 200.757596,161.351765 201.977647,160.737187 C203.197698,160.122609 203.689361,158.633964 203.074783,157.413913 L189.67243,130.44532 C189.239949,129.580358 188.365882,129.084143 187.459949,129.084143 Z" id="Path" fill="#BA4B00"></path>
                        <path d="M169.291202,129.084143 C168.917903,129.084143 168.535499,129.170639 168.180409,129.348184 C166.960358,129.962762 166.468696,131.451407 167.083274,132.671458 L180.485627,159.640051 C181.100205,160.860102 182.588849,161.351765 183.8089,160.737187 C185.028951,160.122609 185.520614,158.633964 184.906036,157.413913 L171.503683,130.44532 C171.06665,129.580358 170.197136,129.084143 169.291202,129.084143 Z" id="Path" fill="#BA4B00"></path>
                        <path d="M197.215806,48.5880818 L197.215806,132.293606 C197.215806,133.18133 196.496522,133.900614 195.617903,133.900614 L83.9422506,133.900614 C83.0545269,133.900614 82.335243,133.18133 82.335243,132.293606 L82.335243,48.5880818 L197.215806,48.5880818 Z" id="Path" fill="#FF6600"></path>
                        <path d="M197.215806,48.5880818 L197.215806,132.293606 C197.215806,133.18133 196.496522,133.900614 195.617903,133.900614 L83.9422506,133.900614 C83.0545269,133.900614 82.335243,133.18133 82.335243,132.293606 L82.335243,48.5880818 L197.215806,48.5880818 Z" id="Path" fill="url(#linearGradient-2)"></path>
                        <path d="M202.906343,43.0659847 L75.310844,43.0659847 C74.6188747,43.0659847 74.0589258,43.6259335 74.0589258,44.3179028 L74.0589258,47.3361637 C74.0589258,48.028133 74.6188747,48.5880818 75.310844,48.5880818 L202.910895,48.5880818 C203.602864,48.5880818 204.162813,48.028133 204.162813,47.3361637 L204.162813,44.3179028 C204.158261,43.6259335 203.598312,43.0659847 202.906343,43.0659847 Z" id="Path" fill="#FF6600"></path>
                        <path d="M188.711867,54.2012276 L123.011202,54.2012276 C121.959591,54.2012276 121.103734,55.052532 121.103734,56.1086957 L121.103734,76.2805115 C121.103734,77.3321228 121.955038,78.1879795 123.011202,78.1879795 L188.711867,78.1879795 C189.763478,78.1879795 190.619335,77.3366752 190.619335,76.2805115 L190.619335,56.1086957 C190.619335,55.0570844 189.768031,54.2012276 188.711867,54.2012276 Z" id="Path" fill="#BA4B00"></path>
                        <path d="M218.798875,54.3514578 L218.798875,78.0696164 C218.798875,79.2077238 217.879284,80.1273146 216.750281,80.1273146 L151.340972,80.1273146 C150.202864,80.1273146 149.283274,79.2077238 149.283274,78.0696164 L149.283274,54.3514578 C149.283274,53.2224552 150.202864,52.2937596 151.340972,52.2937596 L216.750281,52.2937596 C217.879284,52.298312 218.798875,53.2270077 218.798875,54.3514578 Z" id="Path" fill="#FFE0CC"></path>
                        <path d="M218.798875,54.3514578 L218.798875,78.0696164 C218.798875,79.2077238 217.879284,80.1273146 216.750281,80.1273146 L154.277289,80.1273146 C153.148286,80.1273146 152.228696,79.2077238 152.228696,78.0696164 L152.228696,54.3514578 C152.228696,53.2224552 153.148286,52.2937596 154.277289,52.2937596 L216.754834,52.2937596 C217.879284,52.298312 218.798875,53.2270077 218.798875,54.3514578 Z" id="Path" fill="#FF6600"></path>
                        <path d="M218.798875,54.3514578 L218.798875,78.0696164 C218.798875,79.2077238 217.879284,80.1273146 216.750281,80.1273146 L154.277289,80.1273146 C153.148286,80.1273146 152.228696,79.2077238 152.228696,78.0696164 L152.228696,54.3514578 C152.228696,53.2224552 153.148286,52.2937596 154.277289,52.2937596 L216.754834,52.2937596 C217.879284,52.298312 218.798875,53.2270077 218.798875,54.3514578 Z" id="Path" fill="url(#linearGradient-3)"></path>
                        <path d="M190.614783,93.1518159 L190.614783,113.319079 C190.614783,114.370691 189.763478,115.221995 188.711867,115.221995 L123.015754,115.221995 C121.964143,115.221995 121.103734,114.370691 121.103734,113.319079 L121.103734,93.1518159 C121.103734,92.1002046 121.964143,91.2397954 123.015754,91.2397954 L188.711867,91.2397954 C189.763478,91.2397954 190.614783,92.1002046 190.614783,93.1518159 Z" id="Path" fill="#BA4B00"></path>
                        <circle id="Oval" fill="#FF6600" cx="100.640563" cy="24.760665" r="13.8211765"></circle>
                        <circle id="Oval" fill="#FFA366" cx="103.531355" cy="24.760665" r="8.04869565"></circle>
                        <path d="M103.531355,16.7119693 C102.534373,16.7119693 101.582916,16.9031714 100.704297,17.2309463 L100.704297,32.2858312 C101.587468,32.6181586 102.534373,32.8048082 103.531355,32.8048082 C107.974527,32.8048082 111.580051,29.1992839 111.580051,24.7561125 C111.580051,20.3129412 107.974527,16.7119693 103.531355,16.7119693 Z" id="Path" fill="url(#linearGradient-4)"></path>
                        <ellipse id="Oval" fill="#FFA366" transform="translate(90.786779, 12.051048) rotate(-45.000000) translate(-90.786779, -12.051048) " cx="90.7867786" cy="12.051048" rx="6.6055121" ry="4.30655716"></ellipse>
                        <path d="M94.0167775,6.76946292 L93.206445,6.25959079 C94.82711,3.68746803 97.6040921,2.15329923 100.640563,2.15329923 C103.563223,2.15329923 106.285575,3.60097187 107.919898,6.02286445 L107.127775,6.56005115 C105.670997,4.40219949 103.244552,3.10930946 100.640563,3.10930946 C97.9364194,3.11386189 95.4598977,4.47959079 94.0167775,6.76946292 Z" id="Path" fill="#FFA366"></path>
                        <polygon id="Path" fill="#BA4B00" points="93.1153964 36.3511509 89.8740665 43.0659847 94.5858312 43.0659847 96.9166752 38.0674169"></polygon>
                        <polygon id="Path" fill="#BA4B00" points="108.338721 36.3511509 111.580051 43.0659847 106.868286 43.0659847 104.537442 38.0674169"></polygon>
                        <path d="M158.60665,37.8534527 L121.422404,37.8534527 C120.653043,37.8534527 120.029361,38.4771355 120.029361,39.2464962 L120.029361,41.6774936 C120.029361,42.4468542 120.653043,43.0705371 121.422404,43.0705371 L158.60665,43.0705371 C159.37601,43.0705371 159.999693,42.4468542 159.999693,41.6774936 L159.999693,39.2464962 C159.999693,38.4771355 159.37601,37.8534527 158.60665,37.8534527 Z" id="Path" fill="#BA4B00"></path>
                        <path d="M179.575141,37.6850128 L136.472737,26.7 C135.657852,26.4905882 134.833862,26.9822506 134.62445,27.7971355 L134.087263,29.9003581 C133.877852,30.715243 134.369514,31.5392327 135.184399,31.7486445 L178.286803,42.7336573 C179.101688,42.9430691 179.925678,42.4514066 180.13509,41.6365217 L180.672276,39.5332992 C180.877136,38.7184143 180.385473,37.8944246 179.575141,37.6850128 Z" id="Path" fill="#801D04"></path>
                        <circle id="Oval" fill="#FFA366" cx="190.619335" cy="39.4331458" r="3.63283887"></circle>
                        <path d="M149.283274,91.2397954 L149.283274,95.2186189 L121.099182,95.2186189 L121.099182,93.1518159 C121.099182,92.1002046 121.959591,91.2397954 123.011202,91.2397954 L149.283274,91.2397954 L149.283274,91.2397954 Z" id="Path" fill="#801D04"></path>
                        <path d="M149.283274,54.2012276 L149.283274,58.1800512 L121.099182,58.1800512 L121.099182,56.1132481 C121.099182,55.0616368 121.959591,54.2012276 123.011202,54.2012276 L149.283274,54.2012276 L149.283274,54.2012276 Z" id="Path" fill="#801D04"></path>
                        <path d="M112.485985,48.5880818 L112.485985,133.900614 L83.9422506,133.900614 C83.0545269,133.900614 82.335243,133.18133 82.335243,132.293606 L82.335243,48.5880818 L112.485985,48.5880818 Z" id="Path" fill="#FFA366"></path>
                        <path d="M128.442251,58.1800512 C131.028031,58.1800512 133.122148,60.2741688 133.122148,62.8599488 L133.122148,78.1834271 C133.122148,80.7692072 135.216266,82.8633248 137.802046,82.8633248 C140.387826,82.8633248 142.481944,80.7692072 142.481944,78.1834271 L142.481944,62.8599488 C142.481944,60.2741688 144.576061,58.1800512 147.161841,58.1800512 L128.442251,58.1800512 Z" id="Path" fill="#FFE0CC"></path>
                        <path d="M85.4035806,43.0659847 C88.5811765,43.0659847 91.1624041,45.6426598 91.1624041,48.8248082 L91.1624041,87.4703836 C91.1624041,90.6479795 93.7390793,93.2292072 96.9212276,93.2292072 C100.098824,93.2292072 102.680051,90.652532 102.680051,87.4703836 L102.680051,48.8248082 C102.680051,45.6472123 105.256726,43.0659847 108.438875,43.0659847 L85.4035806,43.0659847 Z" id="Path" fill="#801D04"></path>
                        <path d="M128.442251,95.2186189 C131.028031,95.2186189 133.122148,97.3127366 133.122148,99.8985166 L133.122148,105.661893 C133.122148,108.247673 135.216266,110.34179 137.802046,110.34179 C140.387826,110.34179 142.481944,108.247673 142.481944,105.661893 L142.481944,99.8985166 C142.481944,97.3127366 144.576061,95.2186189 147.161841,95.2186189 L128.442251,95.2186189 Z" id="Path" fill="#FFA366"></path>
                        <path d="M97.2808696,141.366598 C97.2808696,151.991969 88.6722251,160.596061 78.0605115,160.596061 C72.3244501,160.596061 67.1756522,158.08312 63.656624,154.095192 L63.656624,128.64711 C67.1756522,124.659182 72.3198977,122.146239 78.0605115,122.146239 C88.6722251,122.141688 97.2808696,130.750332 97.2808696,141.366598 Z" id="Path" fill="#FF6600"></path>
                        <path d="M97.2808696,141.366598 C97.2808696,151.991969 88.6722251,160.596061 78.0605115,160.596061 C72.3244501,160.596061 67.1756522,158.08312 63.656624,154.095192 L63.656624,128.64711 C67.1756522,124.659182 72.3198977,122.146239 78.0605115,122.146239 C88.6722251,122.141688 97.2808696,130.750332 97.2808696,141.366598 Z" id="Path" fill="url(#linearGradient-5)"></path>
                        <path d="M0.182097187,141.371151 C0.182097187,143.897749 14.3902302,145.946343 31.9216368,145.946343 C49.4530435,145.946343 63.6611765,141.371151 63.6611765,141.371151 C63.6611765,141.371151 49.4530435,136.795959 31.9216368,136.795959 C14.3902302,136.795959 0.182097187,138.84 0.182097187,141.371151 Z" id="Path" fill="#FFA366"></path>
                        <path d="M23.7045013,155.838772 C24.4419949,157.728031 33.9838875,156.025422 45.0144246,152.028389 C56.0449616,148.031355 63.656624,141.371151 63.656624,141.371151 C63.656624,141.371151 53.3772379,141.184501 42.3467008,145.181535 C31.3161637,149.178568 22.9670077,153.949514 23.7045013,155.838772 Z" id="Path" fill="#FFE0CC"></path>
                        <path d="M42.6426087,160.637033 C44.0857289,162.102916 49.9629156,158.975396 55.7672634,153.653606 C61.5716113,148.331816 63.656624,141.371151 63.656624,141.371151 C63.656624,141.371151 56.3363171,143.032788 50.5319693,148.354578 C44.7276215,153.676368 41.1994885,159.171151 42.6426087,160.637033 Z" id="Path" fill="#FFA366"></path>
                        <path d="M23.7045013,126.898977 C24.4419949,125.009719 33.9838875,126.712327 45.0144246,130.709361 C56.0449616,134.706394 63.656624,141.366598 63.656624,141.366598 C63.656624,141.366598 53.3772379,141.553248 42.3467008,137.556215 C31.3161637,133.559182 22.9670077,128.788235 23.7045013,126.898977 Z" id="Path" fill="#FFE0CC"></path>
                        <path d="M42.6426087,122.105269 C44.0857289,120.639386 49.9629156,123.766905 55.7672634,129.088696 C61.5716113,134.410486 63.656624,141.371151 63.656624,141.371151 C63.656624,141.371151 56.3363171,139.709514 50.5319693,134.387724 C44.7276215,129.065934 41.1994885,123.566598 42.6426087,122.105269 Z" id="Path" fill="#FFA366"></path>
                        <path d="M204.527008,52.298312 C200.489003,52.298312 197.215806,55.571509 197.215806,59.6095141 L197.215806,64.1892583 C197.215806,69.7022506 192.74532,74.1727366 187.232327,74.1727366 C181.719335,74.1727366 177.248849,69.7022506 177.248849,64.1892583 L177.298926,59.6095141 C177.298926,55.571509 174.025729,52.298312 169.987724,52.298312 L204.527008,52.298312 Z" id="Path" fill="#801D04"></path>
                        <path d="M218.798875,91.3718159 L218.798875,115.089974 C218.798875,116.228082 217.879284,117.147673 216.750281,117.147673 L151.340972,117.147673 C150.202864,117.147673 149.283274,116.228082 149.283274,115.089974 L149.283274,91.3718159 C149.283274,90.2428133 150.202864,89.3141176 151.340972,89.3141176 L216.750281,89.3141176 C217.879284,89.3141176 218.798875,90.2428133 218.798875,91.3718159 Z" id="Path" fill="#FFE0CC"></path>
                        <path d="M218.798875,91.3718159 L218.798875,115.089974 C218.798875,116.228082 217.879284,117.147673 216.750281,117.147673 L154.277289,117.147673 C153.148286,117.147673 152.228696,116.228082 152.228696,115.089974 L152.228696,91.3718159 C152.228696,90.2428133 153.148286,89.3141176 154.277289,89.3141176 L216.754834,89.3141176 C217.879284,89.3141176 218.798875,90.2428133 218.798875,91.3718159 Z" id="Path" fill="#FF6600"></path>
                        <path d="M218.798875,91.3718159 L218.798875,115.089974 C218.798875,116.228082 217.879284,117.147673 216.750281,117.147673 L154.277289,117.147673 C153.148286,117.147673 152.228696,116.228082 152.228696,115.089974 L152.228696,91.3718159 C152.228696,90.2428133 153.148286,89.3141176 154.277289,89.3141176 L216.754834,89.3141176 C217.879284,89.3141176 218.798875,90.2428133 218.798875,91.3718159 Z" id="Path" fill="url(#linearGradient-6)"></path>
                        <path d="M176.03335,102.775652 C176.03335,105.848542 173.543171,108.338721 170.470281,108.338721 C167.397391,108.338721 164.907212,105.848542 164.907212,102.775652 L164.907212,89.3141176 L197.215806,89.3141176 L197.215806,121.008133 C197.215806,125.164501 193.847008,128.533299 189.690639,128.533299 C185.534271,128.533299 182.165473,125.164501 182.165473,121.008133 L182.165473,102.7711 C182.165473,101.077596 180.790639,99.7073146 179.101688,99.7073146 C177.412737,99.7073146 176.03335,101.082148 176.03335,102.775652 L176.03335,102.775652 Z" id="Path" fill="#FFE0CC"></path>
                        <path d="M212.525627,89.3141176 C212.525627,92.3824552 210.030895,94.8817391 206.958005,94.8817391 C203.889668,94.8817391 201.390384,92.3870077 201.390384,89.3141176 L212.525627,89.3141176 Z" id="Path" fill="#801D04"></path>
                        <path d="M167.005882,159.016368 C161.834322,157.104348 156.057289,158.961739 150.872072,157.1089 C146.12844,155.410844 141.990281,152.597442 136.72312,153.075448 C134.219284,153.303069 132.079642,154.227212 130.12665,155.788696 C128.119028,157.395703 126.703223,159.016368 124.053708,159.476164 C119.42844,160.277391 114.680256,159.289514 110.132379,160.828235 C106.053402,162.207621 102.757442,166.49601 105.780256,170.584092 C107.282558,172.614476 109.877442,173.097033 112.240153,173.083376 C115.68179,173.060614 143.574527,173.083376 143.574527,173.083376 C145.541176,173.1289 147.312072,171.189565 147.87202,169.796522 C149.342455,169.823836 150.808338,169.851151 152.278772,169.873913 C155.306138,169.928542 158.333504,169.983171 161.36087,170.037801 C163.655294,170.078772 166.063529,170.292737 168.14399,169.131867 C172.596266,166.650793 171.53555,160.68711 167.005882,159.016368 Z" id="Path" fill="#FE6F01" opacity="0.5"></path>
                        <ellipse id="Oval" fill="#FFA366" opacity="0.3" cx="233.334783" cy="161.542967" rx="18.1232225" ry="3.50081841"></ellipse>
                        <path d="M237.869003,24.0004092 C247.315294,33.4467008 250.17422,45.9067008 244.256061,51.8248593 C238.337903,57.7430179 225.877903,54.8840921 216.431611,45.4378005 C206.98532,35.991509 204.126394,23.531509 210.044552,17.6133504 C215.962711,11.6951918 228.422711,14.5541176 237.869003,24.0004092 Z" id="Path" fill="url(#linearGradient-7)"></path>
                    </g>
                </g>
            </g>
        </g>
    </g>
</svg>