<svg id="Capa_1" data-name="Capa 1" xmlns="http://www.w3.org/2000/svg" xmlns:xlink="http://www.w3.org/1999/xlink" viewBox="0 0 192 192"><defs><style>.cls-1,.cls-2{opacity:0.25;}.cls-1{fill:url(#Degradado_sin_nombre_16);}.cls-2{fill:url(#Degradado_sin_nombre_16-2);}.cls-3{fill-rule:evenodd;fill:url(#Degradado_sin_nombre_46);}</style><linearGradient id="Degradado_sin_nombre_16" x1="53.74" y1="211.65" x2="105.1" y2="56.95" gradientUnits="userSpaceOnUse"><stop offset="0" stop-opacity="0"/><stop offset="1"/></linearGradient><linearGradient id="Degradado_sin_nombre_16-2" x1="165.44" y1="40.66" x2="175.72" y2="9.72" xlink:href="#Degradado_sin_nombre_16"/><linearGradient id="Degradado_sin_nombre_46" x1="25.17" y1="197.18" x2="152.19" y2="-31.08" gradientUnits="userSpaceOnUse"><stop offset="0" stop-color="#1b73ff" stop-opacity="0"/><stop offset="0.11" stop-color="#1b73ff" stop-opacity="0.21"/><stop offset="0.38" stop-color="#1b73ff" stop-opacity="0.74"/><stop offset="0.5" stop-color="#1b73ff"/><stop offset="0.55" stop-color="#1a6ff5"/><stop offset="0.64" stop-color="#1864d9"/><stop offset="0.76" stop-color="#1551ac"/><stop offset="0.9" stop-color="#10396e"/><stop offset="1" stop-color="#0d2640"/></linearGradient></defs><title>sm-info-payPal</title><circle class="cls-1" cx="90.09" cy="102.17" r="88.83"/><circle class="cls-2" cx="172.71" cy="18.77" r="17.77"/><path class="cls-3" d="M148.67,57.86c-.15,1-.34,2.1-.54,3.18-7,36.87-31.16,49.63-62,49.63H70.48A7.66,7.66,0,0,0,63,117.25l.26-1.69L72.12,58A6.8,6.8,0,0,1,75.84,53a6.49,6.49,0,0,1,2.88-.67h41.9a86.31,86.31,0,0,1,13.82,1c1.21.2,2.39.44,3.53.69s2.26.55,3.32.86l1.59.51a36.2,36.2,0,0,1,5.79,2.5c2.1-13.64,0-22.91-7.25-31.31-8-9.25-22.36-13.21-40.76-13.21H47.21a7.7,7.7,0,0,0-7.56,6.57L17.4,163.71a4.65,4.65,0,0,0,4.53,5.41h33l-2.27,14.72a4.06,4.06,0,0,0,4,4.72h27.8A6.72,6.72,0,0,0,91,182.81l.28-1.44,5.23-33.85.34-1.88a6.73,6.73,0,0,1,6.61-5.75h4.16c26.94,0,48-11.15,54.2-43.41,2.58-13.48,1.25-24.73-5.56-32.64A26.68,26.68,0,0,0,148.67,57.86Z"/></svg>