<svg id="Capa_1" data-name="Capa 1" xmlns="http://www.w3.org/2000/svg" xmlns:xlink="http://www.w3.org/1999/xlink" viewBox="0 0 192 192"><defs><style>.cls-1,.cls-7{opacity:0.25;}.cls-1{fill:url(#Degradado_sin_nombre_16);}.cls-2{fill:#f60;}.cls-3{fill:#702d00;}.cls-4{fill:#ba4b00;}.cls-5{fill:#f2f2f2;}.cls-6{fill:url(#Degradado_sin_nombre_2);}.cls-7{fill:url(#Degradado_sin_nombre_16-2);}</style><linearGradient id="Degradado_sin_nombre_16" x1="61.44" y1="205.55" x2="110.09" y2="59.01" gradientUnits="userSpaceOnUse"><stop offset="0" stop-opacity="0"/><stop offset="1"/></linearGradient><linearGradient id="Degradado_sin_nombre_2" x1="82.63" y1="96.37" x2="-60.01" y2="76.08" gradientUnits="userSpaceOnUse"><stop offset="0" stop-color="#fff" stop-opacity="0"/><stop offset="0.23" stop-color="#fff" stop-opacity="0.22"/><stop offset="0.77" stop-color="#fff" stop-opacity="0.76"/><stop offset="1" stop-color="#fff"/></linearGradient><linearGradient id="Degradado_sin_nombre_16-2" x1="167.13" y1="43.57" x2="176.86" y2="14.26" xlink:href="#Degradado_sin_nombre_16"/></defs><title>sm-info-tarjeta</title><ellipse class="cls-1" cx="95.87" cy="101.84" rx="84.02" ry="84.16"/><path class="cls-2" d="M190.76,64.45l-4,23.22-12.92,74.47a7.22,7.22,0,0,1-8.35,5.88L6.85,140.42A7.25,7.25,0,0,1,1,132.05L13.63,59.11l4.3-24.75a7.2,7.2,0,0,1,8.34-5.89L184.88,56.08A7.24,7.24,0,0,1,190.76,64.45Z"/><path class="cls-2" d="M190.76,64.45l-4,23.22-12.92,74.47a7.22,7.22,0,0,1-8.35,5.88L6.85,140.42A7.25,7.25,0,0,1,1,132.05L13.63,59.11l4.3-24.75a7.2,7.2,0,0,1,8.34-5.89L184.88,56.08A7.24,7.24,0,0,1,190.76,64.45Z"/><path class="cls-3" d="M190.76,64.45,186.33,90,13.63,59.11l4.3-24.75a7.2,7.2,0,0,1,8.34-5.89L184.88,56.08A7.24,7.24,0,0,1,190.76,64.45Z"/><rect class="cls-4" x="32.12" y="71.2" width="18.62" height="14.92" rx="3.34" transform="translate(14.1 -5.94) rotate(9.88)"/><rect class="cls-2" x="28.25" y="43.65" width="35.93" height="14.92" rx="4.63" transform="translate(9.45 -7.17) rotate(9.88)"/><rect class="cls-5" x="19.33" y="95.44" width="44.65" height="14.92" rx="4.31" transform="translate(18.27 -5.62) rotate(9.88)"/><rect class="cls-5" x="68.39" y="103.98" width="44.65" height="14.92" rx="4.31" transform="translate(20.46 -13.91) rotate(9.88)"/><rect class="cls-5" x="117.45" y="112.52" width="44.65" height="14.92" rx="4.31" transform="translate(22.65 -22.19) rotate(9.88)"/><path class="cls-6" d="M190.76,64.45l-4,23.22-12.92,74.47a7.22,7.22,0,0,1-8.35,5.88L6.85,140.42A7.25,7.25,0,0,1,1,132.05L13.63,59.11l4.3-24.75a7.2,7.2,0,0,1,8.34-5.89L184.88,56.08A7.24,7.24,0,0,1,190.76,64.45Z"/><ellipse class="cls-7" cx="174.02" cy="22.83" rx="16.8" ry="16.83"/></svg>