<svg id="Capa_1" data-name="Capa 1" xmlns="http://www.w3.org/2000/svg" xmlns:xlink="http://www.w3.org/1999/xlink" viewBox="0 0 192 192"><defs><style>.cls-1,.cls-2{opacity:0.2;}.cls-1{fill:url(#Degradado_sin_nombre_16);}.cls-2{fill:url(#Degradado_sin_nombre_16-2);}.cls-3{fill:#999;}.cls-4{fill:#333;}.cls-5{opacity:0.5;fill:url(#Degradado_sin_nombre_75);}.cls-6{fill:#ffa366;}.cls-7{fill:url(#Degradado_sin_nombre_75-2);}.cls-8{fill:#ffc299;}.cls-9{fill:#f60;}</style><linearGradient id="Degradado_sin_nombre_16" x1="54.86" y1="209.65" x2="105.01" y2="58.62" gradientUnits="userSpaceOnUse"><stop offset="0" stop-opacity="0"/><stop offset="1"/></linearGradient><linearGradient id="Degradado_sin_nombre_16-2" x1="164.03" y1="42.73" x2="174.06" y2="12.53" xlink:href="#Degradado_sin_nombre_16"/><linearGradient id="Degradado_sin_nombre_75" x1="53.42" y1="112.31" x2="141.08" y2="78.47" gradientUnits="userSpaceOnUse"><stop offset="0" stop-color="#fff" stop-opacity="0"/><stop offset="1" stop-color="#fff"/></linearGradient><linearGradient id="Degradado_sin_nombre_75-2" x1="121.73" y1="155.75" x2="73.14" y2="29.07" xlink:href="#Degradado_sin_nombre_75"/></defs><title>sm-info-mobile</title><ellipse class="cls-1" cx="90.35" cy="102.76" rx="86.85" ry="86.71"/><ellipse class="cls-2" cx="171.13" cy="21.35" rx="17.37" ry="17.34"/><path class="cls-3" d="M155.16,166.08l-68.11,24a15.49,15.49,0,0,1-19.76-9.44L20.3,47.93a15.49,15.49,0,0,1,9.45-19.78l68.11-24a15.49,15.49,0,0,1,19.76,9.44l47,132.74A15.5,15.5,0,0,1,155.16,166.08Z"/><path class="cls-4" d="M161.26,163.85l-68.11,24a15.49,15.49,0,0,1-19.76-9.44L26.4,45.7a15.5,15.5,0,0,1,9.45-19.78L104,1.89a15.49,15.49,0,0,1,19.76,9.44l47,132.74A15.49,15.49,0,0,1,161.26,163.85Z"/><path class="cls-5" d="M161.26,163.85l-68.11,24a15.49,15.49,0,0,1-19.76-9.44L26.4,45.7a15.5,15.5,0,0,1,9.45-19.78L104,1.89a15.49,15.49,0,0,1,19.76,9.44l47,132.74A15.49,15.49,0,0,1,161.26,163.85Z"/><path class="cls-6" d="M119.23,12.48,166.5,146A10.6,10.6,0,0,1,160,159.57l-68.87,24.3a10.65,10.65,0,0,1-13.57-6.47L30.31,43.85a10.62,10.62,0,0,1,6.48-13.54l8.91-3.14a3.65,3.65,0,0,1,4.66,2.22l.54,1.52a3.64,3.64,0,0,0,4.66,2.22L93.13,19.88a3.66,3.66,0,0,0,2.23-4.66l-.54-1.51a3.65,3.65,0,0,1,2.23-4.66l8.62-3A10.63,10.63,0,0,1,119.23,12.48Z"/><path class="cls-7" d="M119.23,12.48,166.5,146A10.6,10.6,0,0,1,160,159.57l-68.87,24.3a10.65,10.65,0,0,1-13.57-6.47L30.31,43.85a10.62,10.62,0,0,1,6.48-13.54l8.91-3.14a3.65,3.65,0,0,1,4.66,2.22l.54,1.52a3.64,3.64,0,0,0,4.66,2.22L93.13,19.88a3.66,3.66,0,0,0,2.23-4.66l-.54-1.51a3.65,3.65,0,0,1,2.23-4.66l8.62-3A10.63,10.63,0,0,1,119.23,12.48Z"/><path class="cls-8" d="M45.86,36.12,36.24,39.6a1.31,1.31,0,0,1-1.68-.8h0a1.31,1.31,0,0,1,.8-1.67L45,33.64a1.32,1.32,0,0,1,1.68.8h0A1.32,1.32,0,0,1,45.86,36.12Z"/><path class="cls-8" d="M110.28,11.35l-9.61,3.48A1.31,1.31,0,0,1,99,14h0a1.31,1.31,0,0,1,.8-1.67l9.62-3.49a1.31,1.31,0,0,1,1.67.8h0A1.31,1.31,0,0,1,110.28,11.35Z"/><ellipse class="cls-9" cx="77.73" cy="86.09" rx="8.68" ry="8.66"/><ellipse class="cls-9" cx="107.87" cy="75.26" rx="8.68" ry="8.66"/><path class="cls-9" d="M97.08,123.71a31.69,31.69,0,0,1-20.4-7.42,6.91,6.91,0,1,1,8.92-10.56,17.72,17.72,0,0,0,28.87-10.38,6.92,6.92,0,0,1,13.61,2.46,31.54,31.54,0,0,1-31,25.9Z"/></svg>