<?xml version="1.0" encoding="UTF-8"?>
<svg width="280px" height="180px" viewBox="0 0 280 180" version="1.1" xmlns="http://www.w3.org/2000/svg" xmlns:xlink="http://www.w3.org/1999/xlink">
    <!-- Generator: Sketch 59.1 (86144) - https://sketch.com -->
    <title>img/280x180/confirm@2x</title>
    <desc>Created with Sketch.</desc>
    <defs>
        <linearGradient x1="50.6269805%" y1="2.35560299%" x2="49.1845705%" y2="111.983223%" id="linearGradient-1">
            <stop stop-color="#FF6600" stop-opacity="0" offset="0%"></stop>
            <stop stop-color="#FF6600" stop-opacity="0.49" offset="40.9%"></stop>
            <stop stop-color="#FF6600" offset="100%"></stop>
        </linearGradient>
        <linearGradient x1="50.001145%" y1="14.0624674%" x2="50.001145%" y2="102.514096%" id="linearGradient-2">
            <stop stop-color="#FF3A08" stop-opacity="0" offset="0%"></stop>
            <stop stop-color="#E84005" stop-opacity="0.1073" offset="10.81%"></stop>
            <stop stop-color="#CF4602" stop-opacity="0.2518" offset="25.35%"></stop>
            <stop stop-color="#BF4A01" stop-opacity="0.3836" offset="38.62%"></stop>
            <stop stop-color="#BA4B00" stop-opacity="0.49" offset="49.33%"></stop>
            <stop stop-color="#801D04" offset="100%"></stop>
        </linearGradient>
        <linearGradient x1="44.975584%" y1="55.2570634%" x2="134.510067%" y2="-38.4280311%" id="linearGradient-3">
            <stop stop-color="#FFFFFF" stop-opacity="0" offset="0%"></stop>
            <stop stop-color="#FFFFFF" offset="100%"></stop>
        </linearGradient>
    </defs>
    <g id="img/280x180/confirm" stroke="none" stroke-width="1" fill="none" fill-rule="evenodd">
        <g id="Group">
            <rect id="Rectangle" x="0" y="0" width="280" height="180"></rect>
            <g id="ilustraciones-08" transform="translate(69.000000, 1.000000)" fill-rule="nonzero">
                <path d="M162.825989,81.7675275 C162.825989,96.5992308 158.85522,110.511593 151.911264,122.482582 C150.42467,125.04989 148.801154,127.524286 147.050495,129.910659 C132.248132,150.033462 108.418626,163.085165 81.5181319,163.085165 C55.536978,163.085165 32.3871978,150.894121 17.5114835,131.920495 C15.1104396,128.864176 12.9294505,125.631813 10.9685165,122.252747 C4.11258242,110.335549 0.195604396,96.5160989 0.195604396,81.7675275 C0.195604396,36.8567582 36.6073626,0.445 81.5181319,0.445 C126.428901,0.445 162.825989,36.8567582 162.825989,81.7675275 Z" id="Path" fill="#FFA366"></path>
                <path d="M162.825989,81.7675275 C162.825989,96.5992308 158.85522,110.511593 151.911264,122.482582 C150.42467,125.04989 148.801154,127.524286 147.050495,129.910659 C132.248132,150.033462 108.418626,163.085165 81.5181319,163.085165 C55.536978,163.085165 32.3871978,150.894121 17.5114835,131.920495 C15.1104396,128.864176 12.9294505,125.631813 10.9685165,122.252747 C4.11258242,110.335549 0.195604396,96.5160989 0.195604396,81.7675275 C0.195604396,36.8567582 36.6073626,0.445 81.5181319,0.445 C126.428901,0.445 162.825989,36.8567582 162.825989,81.7675275 Z" id="Path" fill="url(#linearGradient-1)"></path>
                <path d="M151.911264,122.482582 C150.42467,125.04989 148.801154,127.524286 147.050495,129.910659 C132.248132,150.033462 108.418626,163.085165 81.5181319,163.085165 C55.536978,163.085165 32.3871978,150.894121 17.5114835,131.920495 C15.1104396,128.864176 12.9294505,125.631813 10.9685165,122.252747 C16.6214835,121.000879 45.0183516,114.668187 54.157967,112.086209 C64.3245055,109.225495 64.4467582,103.22533 61.4491209,101.391538 C56.5736813,98.4183516 47.6296703,91.8802747 47.6296703,72.3931868 C47.6296703,36.622033 58.8524725,22.4113736 80.3885165,22.4113736 L81.4985714,22.4113736 C103.039505,22.4113736 114.257418,36.6171429 114.257418,72.3931868 C114.257418,91.8753846 105.313407,98.4183516 100.437967,101.391538 C97.4403297,103.22533 97.5625824,109.225495 107.729121,112.086209 C117.900549,114.971374 151.911264,122.482582 151.911264,122.482582 Z" id="Path" fill="#BA4B00"></path>
                <path d="M151.911264,122.482582 C150.42467,125.04989 148.801154,127.524286 147.050495,129.910659 C132.248132,150.033462 108.418626,163.085165 81.5181319,163.085165 C55.536978,163.085165 32.3871978,150.894121 17.5114835,131.920495 C15.1104396,128.864176 12.9294505,125.631813 10.9685165,122.252747 C16.6214835,121.000879 45.0183516,114.668187 54.157967,112.086209 C64.3245055,109.225495 64.4467582,103.22533 61.4491209,101.391538 C56.5736813,98.4183516 47.6296703,91.8802747 47.6296703,72.3931868 C47.6296703,36.622033 58.8524725,22.4113736 80.3885165,22.4113736 L81.4985714,22.4113736 C103.039505,22.4113736 114.257418,36.6171429 114.257418,72.3931868 C114.257418,91.8753846 105.313407,98.4183516 100.437967,101.391538 C97.4403297,103.22533 97.5625824,109.225495 107.729121,112.086209 C117.900549,114.971374 151.911264,122.482582 151.911264,122.482582 Z" id="Path" fill="url(#linearGradient-2)"></path>
                <circle id="Oval" fill="#3399FF" cx="148.61533" cy="133.812967" r="43.9620879"></circle>
                <circle id="Oval" fill="url(#linearGradient-3)" cx="148.61533" cy="133.812967" r="43.9620879"></circle>
                <polygon id="Path" fill="#FFFFFF" points="142.214176 155.080055 123.27478 136.135769 131.128297 128.282253 142.214176 139.368132 168.591429 112.990879 176.444945 120.849286"></polygon>
            </g>
        </g>
    </g>
</svg>