<?xml version="1.0" encoding="UTF-8"?>
<svg width="200px" height="198px" viewBox="0 0 200 198" version="1.1" xmlns="http://www.w3.org/2000/svg" xmlns:xlink="http://www.w3.org/1999/xlink">
    <!-- Generator: Sketch 58 (84663) - https://sketch.com -->
    <title>Group 22</title>
    <desc>Created with Sketch.</desc>
    <defs>
        <linearGradient x1="78.3261101%" y1="76.2423876%" x2="-5.17815275%" y2="-1.12717394%" id="linearGradient-1">
            <stop stop-color="#FF3A08" stop-opacity="0" offset="0%"></stop>
            <stop stop-color="#E84005" stop-opacity="0.1073" offset="10.81%"></stop>
            <stop stop-color="#CF4602" stop-opacity="0.2518" offset="25.35%"></stop>
            <stop stop-color="#BF4A01" stop-opacity="0.3836" offset="38.62%"></stop>
            <stop stop-color="#BA4B00" stop-opacity="0.49" offset="49.33%"></stop>
            <stop stop-color="#FE6F01" offset="100%"></stop>
        </linearGradient>
        <linearGradient x1="192.724689%" y1="182.22789%" x2="-224.796625%" y2="-204.619918%" id="linearGradient-2">
            <stop stop-color="#FF3A08" stop-opacity="0" offset="0%"></stop>
            <stop stop-color="#E84005" stop-opacity="0.1073" offset="10.81%"></stop>
            <stop stop-color="#CF4602" stop-opacity="0.2518" offset="25.35%"></stop>
            <stop stop-color="#BF4A01" stop-opacity="0.3836" offset="38.62%"></stop>
            <stop stop-color="#FE6F01" offset="49.33%"></stop>
            <stop stop-color="#FE6F01" offset="100%"></stop>
        </linearGradient>
        <linearGradient x1="29.8567257%" y1="59.2778946%" x2="68.9753682%" y2="41.2635889%" id="linearGradient-3">
            <stop stop-color="#FFFFFF" stop-opacity="0" offset="0%"></stop>
            <stop stop-color="#FFFFFF" offset="100%"></stop>
        </linearGradient>
    </defs>
    <g id="Page-1" stroke="none" stroke-width="1" fill="none" fill-rule="evenodd">
        <g id="Desktop-HD-Copy-3" transform="translate(-240.000000, -1340.000000)" fill-rule="nonzero">
            <g id="Group-22" transform="translate(240.000000, 1339.000000)">
                <ellipse id="Oval" fill="url(#linearGradient-1)" cx="93.8333333" cy="107.069519" rx="93.8333333" ry="90.3208556"></ellipse>
                <ellipse id="Oval" fill-opacity="0.75" fill="url(#linearGradient-2)" cx="181.111111" cy="22.2673797" rx="18.7666667" ry="18.0641711"></ellipse>
                <g id="Group" transform="translate(16.666667, 0.000000)">
                    <path d="M147.2,173.016043 L73.6333333,198.042781 C64.9111111,201.005348 55.3444444,196.609626 52.2555556,188.213904 L1.47777778,49.9144385 C-1.6,41.5187166 2.96666667,32.3101604 11.6888889,29.3368984 L85.2555556,4.31016043 C93.9777778,1.34759358 103.544444,5.74331551 106.633333,14.1390374 L157.411111,152.438503 C160.488889,160.834225 155.922222,170.053476 147.2,173.016043 Z" id="Path" fill="#999999"></path>
                    <path d="M153.788889,170.695187 L80.2222222,195.721925 C71.5,198.684492 61.9333333,194.28877 58.8444444,185.893048 L8.06666667,47.5935829 C4.98888889,39.197861 9.55555556,29.9893048 18.2777778,27.0160428 L91.8444444,1.98930481 C100.566667,-0.973262032 110.133333,3.42245989 113.222222,11.8181818 L164,150.117647 C167.088889,158.513369 162.511111,167.73262 153.788889,170.695187 Z" id="Path" fill="#333333"></path>
                    <path d="M153.788889,170.695187 L80.2222222,195.721925 C71.5,198.684492 61.9333333,194.28877 58.8444444,185.893048 L8.06666667,47.5935829 C4.98888889,39.197861 9.55555556,29.9893048 18.2777778,27.0160428 L91.8444444,1.98930481 C100.566667,-0.973262032 110.133333,3.42245989 113.222222,11.8181818 L164,150.117647 C167.088889,158.513369 162.511111,167.73262 153.788889,170.695187 Z" id="Path" fill="url(#linearGradient-3)" opacity="0.5"></path>
                    <path d="M108.366667,13.0160428 L159.444444,152.128342 C161.555556,157.882353 158.422222,164.203209 152.444444,166.235294 L78.0333333,191.550802 C72.0555556,193.582888 65.4888889,190.566845 63.3777778,184.812834 L12.3,45.7005348 C10.1888889,39.9465241 13.3222222,33.6256684 19.3,31.5935829 L28.9222222,28.3208556 C30.9777778,27.6256684 33.2333333,28.6631016 33.9555556,30.6417112 L34.5333333,32.2245989 C35.2555556,34.2032086 37.5111111,35.2406417 39.5666667,34.5454545 L80.1555556,20.7379679 C82.2111111,20.0427807 83.2888889,17.8716578 82.5666667,15.8930481 L81.9888889,14.3101604 C81.2666667,12.3315508 82.3444444,10.1604278 84.4,9.46524064 L93.7111111,6.29946524 C99.7,4.2459893 106.255556,7.26203209 108.366667,13.0160428 Z" id="Path" fill="#FF6600"></path>
                    <path d="M29.1,37.6470588 L18.7111111,41.2834225 C17.9666667,41.540107 17.1555556,41.1657754 16.9,40.4491979 L16.9,40.4491979 C16.6333333,39.7326203 17.0222222,38.9518717 17.7666667,38.7058824 L28.1555556,35.0695187 C28.9,34.8128342 29.7111111,35.1871658 29.9666667,35.9037433 L29.9666667,35.9037433 C30.2222222,36.6096257 29.8333333,37.3903743 29.1,37.6470588 Z" id="Path" fill="#FFC299"></path>
                    <path d="M134.277778,167.379679 L103.555556,177.818182 C102.811111,178.074866 102,177.700535 101.744444,176.983957 L101.744444,176.983957 C101.477778,176.26738 101.866667,175.486631 102.611111,175.240642 L133.333333,164.802139 C134.077778,164.545455 134.888889,164.919786 135.144444,165.636364 L135.144444,165.636364 C135.411111,166.352941 135.022222,167.13369 134.277778,167.379679 Z" id="Path" fill="#FFC299"></path>
                    <path d="M98.7,11.8395722 L88.3111111,15.4759358 C87.5666667,15.7326203 86.7555556,15.3582888 86.5,14.6417112 L86.5,14.6417112 C86.2333333,13.9251337 86.6222222,13.144385 87.3666667,12.8983957 L97.7555556,9.26203209 C98.5,9.00534759 99.3111111,9.37967914 99.5666667,10.0962567 L99.5666667,10.0962567 C99.8333333,10.802139 99.4444444,11.5935829 98.7,11.8395722 Z" id="Path" fill="#FFC299"></path>
                </g>
                <g id="Group" transform="translate(60.000000, 58.823529)" fill="#FFFFFF">
                    <path d="M78.0555556,47.6256684 L34.5,61.1764706 C31.7222222,62.0427807 28.7666667,61.8074866 26.1777778,60.5240642 C23.5888889,59.2406417 21.6777778,57.0588235 20.7888889,54.3850267 L11.4,26.0534759 C10.8444444,24.4064171 10.1333333,23.3475936 9.3,22.9411765 C8.14444444,22.3743316 6.26666667,22.7593583 4.9,23.1871658 C3.14444444,23.7326203 1.25555556,22.802139 0.688888889,21.1122995 C0.122222222,19.4224599 1.08888889,17.6042781 2.84444444,17.0588235 C6.63333333,15.8823529 9.74444444,15.9251337 12.3444444,17.2085561 C14.8555556,18.4491979 16.6333333,20.6951872 17.7666667,24.0855615 L27.1555556,52.4278075 C27.5,53.4652406 28.2333333,54.2994652 29.2333333,54.7914439 C30.2333333,55.2834225 31.3666667,55.3796791 32.4333333,55.0481283 L75.9888889,41.4973262 C77.7444444,40.9518717 79.6333333,41.8823529 80.2,43.5721925 C80.7777778,45.2620321 79.8111111,47.0802139 78.0555556,47.6256684 Z" id="Path"></path>
                    <ellipse id="Oval" cx="71.1111111" cy="60.9197861" rx="4.1" ry="3.94652406"></ellipse>
                    <ellipse id="Oval" cx="46.6777778" cy="68.5240642" rx="4.1" ry="3.94652406"></ellipse>
                    <path d="M65.6777778,37.7326203 L36.0888889,46.9411765 C34.3333333,47.486631 32.4444444,46.5561497 31.8777778,44.8663102 C31.3111111,43.1764706 32.2777778,41.3582888 34.0333333,40.8128342 L63.6222222,31.6042781 C64.6,31.3048128 65.1333333,30.2887701 64.8222222,29.3475936 L62.8777778,23.5614973 C62.5666667,22.6203209 61.5111111,22.1069519 60.5333333,22.4064171 L35.9,30.0748663 C31.4111111,31.4652406 26.5888889,29.0909091 25.1333333,24.7700535 L23.2444444,19.144385 C21.8,14.8235294 24.2666667,10.1818182 28.7555556,8.78074866 L55.1666667,0.56684492 C56.9222222,0.0213903743 58.8111111,0.951871658 59.3777778,2.64171123 C59.9444444,4.3315508 58.9777778,6.14973262 57.2222222,6.69518717 L30.8111111,14.9090909 C29.8333333,15.2085561 29.3,16.2245989 29.6111111,17.1657754 L31.5,22.7914439 C31.8111111,23.7326203 32.8666667,24.2459893 33.8444444,23.9465241 L58.4777778,16.2780749 C62.9666667,14.8877005 67.7888889,17.2620321 69.2444444,21.5828877 L71.1888889,27.368984 C72.6333333,31.6898396 70.1666667,36.342246 65.6777778,37.7326203 Z" id="Path"></path>
                </g>
            </g>
        </g>
    </g>
</svg>