<?xml version="1.0" encoding="UTF-8"?>
<svg width="209px" height="202px" viewBox="0 0 209 202" version="1.1" xmlns="http://www.w3.org/2000/svg" xmlns:xlink="http://www.w3.org/1999/xlink">
    <!-- Generator: Sketch 58 (84663) - https://sketch.com -->
    <title>Group 28</title>
    <desc>Created with Sketch.</desc>
    <defs>
        <linearGradient x1="78.3261101%" y1="76.2423876%" x2="-5.17815275%" y2="-1.12717394%" id="linearGradient-1">
            <stop stop-color="#FF3A08" stop-opacity="0" offset="0%"></stop>
            <stop stop-color="#E84005" stop-opacity="0.1073" offset="10.81%"></stop>
            <stop stop-color="#CF4602" stop-opacity="0.2518" offset="25.35%"></stop>
            <stop stop-color="#BF4A01" stop-opacity="0.3836" offset="38.62%"></stop>
            <stop stop-color="#BA4B00" stop-opacity="0.49" offset="49.33%"></stop>
            <stop stop-color="#FE6F01" offset="100%"></stop>
        </linearGradient>
        <linearGradient x1="192.724689%" y1="182.22789%" x2="-224.796625%" y2="-204.619918%" id="linearGradient-2">
            <stop stop-color="#FF3A08" stop-opacity="0" offset="0%"></stop>
            <stop stop-color="#E84005" stop-opacity="0.1073" offset="10.81%"></stop>
            <stop stop-color="#CF4602" stop-opacity="0.2518" offset="25.35%"></stop>
            <stop stop-color="#BF4A01" stop-opacity="0.3836" offset="38.62%"></stop>
            <stop stop-color="#FE6F01" offset="49.33%"></stop>
            <stop stop-color="#FE6F01" offset="100%"></stop>
        </linearGradient>
        <linearGradient x1="49.9220424%" y1="95.2300195%" x2="49.9709595%" y2="66.8625452%" id="linearGradient-3">
            <stop stop-color="#FFFFFF" stop-opacity="0" offset="0%"></stop>
            <stop stop-color="#FFFFFF" offset="100%"></stop>
        </linearGradient>
        <linearGradient x1="48.1872808%" y1="284.959652%" x2="50.0106574%" y2="47.0730898%" id="linearGradient-4">
            <stop stop-color="#999999" stop-opacity="0" offset="0%"></stop>
            <stop stop-color="#999999" offset="100%"></stop>
        </linearGradient>
        <linearGradient x1="49.257435%" y1="61.8611975%" x2="50.1160205%" y2="48.0219295%" id="linearGradient-5">
            <stop stop-color="#999999" stop-opacity="0" offset="0%"></stop>
            <stop stop-color="#999999" offset="100%"></stop>
        </linearGradient>
        <linearGradient x1="49.3056798%" y1="61.1409638%" x2="50.1642652%" y2="47.3023828%" id="linearGradient-6">
            <stop stop-color="#999999" stop-opacity="0" offset="0%"></stop>
            <stop stop-color="#999999" offset="100%"></stop>
        </linearGradient>
        <linearGradient x1="49.3539245%" y1="60.4224528%" x2="50.21251%" y2="46.5838718%" id="linearGradient-7">
            <stop stop-color="#999999" stop-opacity="0" offset="0%"></stop>
            <stop stop-color="#999999" offset="100%"></stop>
        </linearGradient>
        <linearGradient x1="48.7206411%" y1="97.4318691%" x2="50.6953489%" y2="24.9644392%" id="linearGradient-8">
            <stop stop-color="#999999" stop-opacity="0" offset="0%"></stop>
            <stop stop-color="#999999" offset="100%"></stop>
        </linearGradient>
        <linearGradient x1="49.3370873%" y1="64.43583%" x2="50.5114239%" y2="38.634325%" id="linearGradient-9">
            <stop stop-color="#999999" stop-opacity="0" offset="0%"></stop>
            <stop stop-color="#999999" offset="100%"></stop>
        </linearGradient>
        <linearGradient x1="49.8204703%" y1="266.763099%" x2="50.5453354%" y2="-645.457185%" id="linearGradient-10">
            <stop stop-color="#999999" stop-opacity="0" offset="0%"></stop>
            <stop stop-color="#999999" offset="100%"></stop>
        </linearGradient>
        <linearGradient x1="49.8178211%" y1="266.851027%" x2="50.5426863%" y2="-645.369257%" id="linearGradient-11">
            <stop stop-color="#999999" stop-opacity="0" offset="0%"></stop>
            <stop stop-color="#999999" offset="100%"></stop>
        </linearGradient>
        <linearGradient x1="49.8151719%" y1="266.938954%" x2="50.5400371%" y2="-645.281329%" id="linearGradient-12">
            <stop stop-color="#999999" stop-opacity="0" offset="0%"></stop>
            <stop stop-color="#999999" offset="100%"></stop>
        </linearGradient>
        <linearGradient x1="49.8289806%" y1="267.102182%" x2="50.5538736%" y2="-645.118102%" id="linearGradient-13">
            <stop stop-color="#999999" stop-opacity="0" offset="0%"></stop>
            <stop stop-color="#999999" offset="100%"></stop>
        </linearGradient>
        <linearGradient x1="49.8264309%" y1="267.190109%" x2="50.5512961%" y2="-645.030174%" id="linearGradient-14">
            <stop stop-color="#999999" stop-opacity="0" offset="0%"></stop>
            <stop stop-color="#999999" offset="100%"></stop>
        </linearGradient>
        <linearGradient x1="49.8237817%" y1="267.278037%" x2="50.5486469%" y2="-644.942247%" id="linearGradient-15">
            <stop stop-color="#999999" stop-opacity="0" offset="0%"></stop>
            <stop stop-color="#999999" offset="100%"></stop>
        </linearGradient>
        <linearGradient x1="49.820967%" y1="267.365962%" x2="50.5458322%" y2="-644.854322%" id="linearGradient-16">
            <stop stop-color="#999999" stop-opacity="0" offset="0%"></stop>
            <stop stop-color="#999999" offset="100%"></stop>
        </linearGradient>
        <linearGradient x1="49.8183178%" y1="267.529189%" x2="50.543183%" y2="-644.691094%" id="linearGradient-17">
            <stop stop-color="#999999" stop-opacity="0" offset="0%"></stop>
            <stop stop-color="#999999" offset="100%"></stop>
        </linearGradient>
        <linearGradient x1="49.8156686%" y1="267.617117%" x2="50.5405338%" y2="-644.603167%" id="linearGradient-18">
            <stop stop-color="#999999" stop-opacity="0" offset="0%"></stop>
            <stop stop-color="#999999" offset="100%"></stop>
        </linearGradient>
        <linearGradient x1="47.2574678%" y1="298.968487%" x2="52.1654579%" y2="-145.620068%" id="linearGradient-19">
            <stop stop-color="#999999" stop-opacity="0" offset="0%"></stop>
            <stop stop-color="#999999" offset="100%"></stop>
        </linearGradient>
        <linearGradient x1="49.4116581%" y1="62.8065427%" x2="50.5859947%" y2="37.0050377%" id="linearGradient-20">
            <stop stop-color="#999999" stop-opacity="0" offset="0%"></stop>
            <stop stop-color="#999999" offset="100%"></stop>
        </linearGradient>
        <linearGradient x1="47.5680059%" y1="270.894057%" x2="52.475996%" y2="-173.694497%" id="linearGradient-21">
            <stop stop-color="#999999" stop-opacity="0" offset="0%"></stop>
            <stop stop-color="#999999" offset="100%"></stop>
        </linearGradient>
        <linearGradient x1="49.4859606%" y1="61.1772553%" x2="50.6602973%" y2="35.3757502%" id="linearGradient-22">
            <stop stop-color="#999999" stop-opacity="0" offset="0%"></stop>
            <stop stop-color="#999999" offset="100%"></stop>
        </linearGradient>
        <linearGradient x1="47.8796651%" y1="242.819629%" x2="52.7876552%" y2="-201.768926%" id="linearGradient-23">
            <stop stop-color="#999999" stop-opacity="0" offset="0%"></stop>
            <stop stop-color="#999999" offset="100%"></stop>
        </linearGradient>
        <linearGradient x1="49.5602632%" y1="59.5479678%" x2="50.7345999%" y2="33.7464628%" id="linearGradient-24">
            <stop stop-color="#999999" stop-opacity="0" offset="0%"></stop>
            <stop stop-color="#999999" offset="100%"></stop>
        </linearGradient>
        <linearGradient x1="49.8235364%" y1="53.9217348%" x2="50.997873%" y2="28.1202297%" id="linearGradient-25">
            <stop stop-color="#999999" stop-opacity="0" offset="0%"></stop>
            <stop stop-color="#999999" offset="100%"></stop>
        </linearGradient>
        <linearGradient x1="48.1902032%" y1="214.745199%" x2="53.0981933%" y2="-229.843356%" id="linearGradient-26">
            <stop stop-color="#999999" stop-opacity="0" offset="0%"></stop>
            <stop stop-color="#999999" offset="100%"></stop>
        </linearGradient>
        <linearGradient x1="49.4858622%" y1="61.1779145%" x2="50.6601989%" y2="35.3764094%" id="linearGradient-27">
            <stop stop-color="#999999" stop-opacity="0" offset="0%"></stop>
            <stop stop-color="#999999" offset="100%"></stop>
        </linearGradient>
        <linearGradient x1="47.8792537%" y1="242.830988%" x2="52.7872437%" y2="-201.757567%" id="linearGradient-28">
            <stop stop-color="#999999" stop-opacity="0" offset="0%"></stop>
            <stop stop-color="#999999" offset="100%"></stop>
        </linearGradient>
        <linearGradient x1="49.5601648%" y1="59.548627%" x2="50.7345014%" y2="33.747122%" id="linearGradient-29">
            <stop stop-color="#999999" stop-opacity="0" offset="0%"></stop>
            <stop stop-color="#999999" offset="100%"></stop>
        </linearGradient>
        <linearGradient x1="48.1897918%" y1="214.756558%" x2="53.0977818%" y2="-229.831997%" id="linearGradient-30">
            <stop stop-color="#999999" stop-opacity="0" offset="0%"></stop>
            <stop stop-color="#999999" offset="100%"></stop>
        </linearGradient>
        <linearGradient x1="48.6913222%" y1="97.4679138%" x2="50.66603%" y2="25.0041179%" id="linearGradient-31">
            <stop stop-color="#999999" stop-opacity="0" offset="0%"></stop>
            <stop stop-color="#999999" offset="100%"></stop>
        </linearGradient>
        <linearGradient x1="49.9231738%" y1="95.2290313%" x2="49.9731809%" y2="66.8590885%" id="linearGradient-32">
            <stop stop-color="#FFFFFF" stop-opacity="0" offset="0%"></stop>
            <stop stop-color="#FFFFFF" offset="100%"></stop>
        </linearGradient>
        <linearGradient x1="48.1762707%" y1="284.982452%" x2="50.0002467%" y2="47.0654403%" id="linearGradient-33">
            <stop stop-color="#999999" stop-opacity="0" offset="0%"></stop>
            <stop stop-color="#999999" offset="100%"></stop>
        </linearGradient>
        <linearGradient x1="49.2545437%" y1="61.9260492%" x2="50.1131213%" y2="48.0120337%" id="linearGradient-34">
            <stop stop-color="#999999" stop-opacity="0" offset="0%"></stop>
            <stop stop-color="#999999" offset="100%"></stop>
        </linearGradient>
        <linearGradient x1="49.3106339%" y1="61.2030535%" x2="50.1692115%" y2="47.289038%" id="linearGradient-35">
            <stop stop-color="#999999" stop-opacity="0" offset="0%"></stop>
            <stop stop-color="#999999" offset="100%"></stop>
        </linearGradient>
        <linearGradient x1="49.3392289%" y1="60.4800578%" x2="50.1978065%" y2="46.5660423%" id="linearGradient-36">
            <stop stop-color="#999999" stop-opacity="0" offset="0%"></stop>
            <stop stop-color="#999999" offset="100%"></stop>
        </linearGradient>
        <linearGradient x1="48.6709522%" y1="97.5115103%" x2="50.6460609%" y2="24.9151184%" id="linearGradient-37">
            <stop stop-color="#999999" stop-opacity="0" offset="0%"></stop>
            <stop stop-color="#999999" offset="100%"></stop>
        </linearGradient>
        <linearGradient x1="49.3515515%" y1="64.4279862%" x2="50.5259204%" y2="38.6407224%" id="linearGradient-38">
            <stop stop-color="#999999" stop-opacity="0" offset="0%"></stop>
            <stop stop-color="#999999" offset="100%"></stop>
        </linearGradient>
        <linearGradient x1="49.8296491%" y1="266.550867%" x2="50.5558428%" y2="-644.937529%" id="linearGradient-39">
            <stop stop-color="#999999" stop-opacity="0" offset="0%"></stop>
            <stop stop-color="#999999" offset="100%"></stop>
        </linearGradient>
        <linearGradient x1="49.8261607%" y1="266.608479%" x2="50.5523545%" y2="-644.879917%" id="linearGradient-40">
            <stop stop-color="#999999" stop-opacity="0" offset="0%"></stop>
            <stop stop-color="#999999" offset="100%"></stop>
        </linearGradient>
        <linearGradient x1="49.8226724%" y1="266.771577%" x2="50.5488661%" y2="-644.71682%" id="linearGradient-41">
            <stop stop-color="#999999" stop-opacity="0" offset="0%"></stop>
            <stop stop-color="#999999" offset="100%"></stop>
        </linearGradient>
        <linearGradient x1="49.819184%" y1="266.829189%" x2="50.5453777%" y2="-644.659208%" id="linearGradient-42">
            <stop stop-color="#999999" stop-opacity="0" offset="0%"></stop>
            <stop stop-color="#999999" offset="100%"></stop>
        </linearGradient>
        <linearGradient x1="49.8385246%" y1="266.992282%" x2="50.5647727%" y2="-644.496115%" id="linearGradient-43">
            <stop stop-color="#999999" stop-opacity="0" offset="0%"></stop>
            <stop stop-color="#999999" offset="100%"></stop>
        </linearGradient>
        <linearGradient x1="49.8352305%" y1="267.049894%" x2="50.5614242%" y2="-644.438503%" id="linearGradient-44">
            <stop stop-color="#999999" stop-opacity="0" offset="0%"></stop>
            <stop stop-color="#999999" offset="100%"></stop>
        </linearGradient>
        <linearGradient x1="49.8317421%" y1="267.107506%" x2="50.5579358%" y2="-644.380891%" id="linearGradient-45">
            <stop stop-color="#999999" stop-opacity="0" offset="0%"></stop>
            <stop stop-color="#999999" offset="100%"></stop>
        </linearGradient>
        <linearGradient x1="49.8280212%" y1="267.270599%" x2="50.5542149%" y2="-644.217797%" id="linearGradient-46">
            <stop stop-color="#999999" stop-opacity="0" offset="0%"></stop>
            <stop stop-color="#999999" offset="100%"></stop>
        </linearGradient>
        <linearGradient x1="49.8245328%" y1="267.328211%" x2="50.5507266%" y2="-644.160185%" id="linearGradient-47">
            <stop stop-color="#999999" stop-opacity="0" offset="0%"></stop>
            <stop stop-color="#999999" offset="100%"></stop>
        </linearGradient>
        <linearGradient x1="47.3701341%" y1="299.283362%" x2="52.2722485%" y2="-145.785184%" id="linearGradient-48">
            <stop stop-color="#999999" stop-opacity="0" offset="0%"></stop>
            <stop stop-color="#999999" offset="100%"></stop>
        </linearGradient>
        <linearGradient x1="49.3989377%" y1="62.7985596%" x2="50.5733066%" y2="37.0112958%" id="linearGradient-49">
            <stop stop-color="#999999" stop-opacity="0" offset="0%"></stop>
            <stop stop-color="#999999" offset="100%"></stop>
        </linearGradient>
        <linearGradient x1="47.5679363%" y1="271.160699%" x2="52.4700507%" y2="-173.907847%" id="linearGradient-50">
            <stop stop-color="#999999" stop-opacity="0" offset="0%"></stop>
            <stop stop-color="#999999" offset="100%"></stop>
        </linearGradient>
        <linearGradient x1="49.4843082%" y1="61.1731641%" x2="50.6586771%" y2="35.3834142%" id="linearGradient-51">
            <stop stop-color="#999999" stop-opacity="0" offset="0%"></stop>
            <stop stop-color="#999999" offset="100%"></stop>
        </linearGradient>
        <linearGradient x1="47.9227244%" y1="243.038036%" x2="52.8248388%" y2="-202.03051%" id="linearGradient-52">
            <stop stop-color="#999999" stop-opacity="0" offset="0%"></stop>
            <stop stop-color="#999999" offset="100%"></stop>
        </linearGradient>
        <linearGradient x1="49.5693025%" y1="59.5426908%" x2="50.7436714%" y2="33.755427%" id="linearGradient-53">
            <stop stop-color="#999999" stop-opacity="0" offset="0%"></stop>
            <stop stop-color="#999999" offset="100%"></stop>
        </linearGradient>
        <linearGradient x1="49.8117668%" y1="53.9202202%" x2="50.9861357%" y2="28.1329564%" id="linearGradient-54">
            <stop stop-color="#999999" stop-opacity="0" offset="0%"></stop>
            <stop stop-color="#999999" offset="100%"></stop>
        </linearGradient>
        <linearGradient x1="48.2790823%" y1="214.966882%" x2="53.1811967%" y2="-230.101664%" id="linearGradient-55">
            <stop stop-color="#999999" stop-opacity="0" offset="0%"></stop>
            <stop stop-color="#999999" offset="100%"></stop>
        </linearGradient>
        <linearGradient x1="49.484237%" y1="61.1704282%" x2="50.6586059%" y2="35.3831645%" id="linearGradient-56">
            <stop stop-color="#999999" stop-opacity="0" offset="0%"></stop>
            <stop stop-color="#999999" offset="100%"></stop>
        </linearGradient>
        <linearGradient x1="47.9239973%" y1="243.060392%" x2="52.8261117%" y2="-202.008155%" id="linearGradient-57">
            <stop stop-color="#999999" stop-opacity="0" offset="0%"></stop>
            <stop stop-color="#999999" offset="100%"></stop>
        </linearGradient>
        <linearGradient x1="49.5692314%" y1="59.5410016%" x2="50.7436003%" y2="33.7537379%" id="linearGradient-58">
            <stop stop-color="#999999" stop-opacity="0" offset="0%"></stop>
            <stop stop-color="#999999" offset="100%"></stop>
        </linearGradient>
        <linearGradient x1="48.2787854%" y1="214.937729%" x2="53.1808998%" y2="-230.130818%" id="linearGradient-59">
            <stop stop-color="#999999" stop-opacity="0" offset="0%"></stop>
            <stop stop-color="#999999" offset="100%"></stop>
        </linearGradient>
        <linearGradient x1="48.7278782%" y1="97.557127%" x2="50.7029869%" y2="24.9607351%" id="linearGradient-60">
            <stop stop-color="#999999" stop-opacity="0" offset="0%"></stop>
            <stop stop-color="#999999" offset="100%"></stop>
        </linearGradient>
    </defs>
    <g id="Page-1" stroke="none" stroke-width="1" fill="none" fill-rule="evenodd">
        <g id="Desktop-HD-Copy-3" transform="translate(-615.000000, -1345.000000)" fill-rule="nonzero">
            <g id="Group-28" transform="translate(613.833333, 1341.962567)">
                <ellipse id="Oval-Copy" fill="url(#linearGradient-1)" cx="106" cy="104.106952" rx="104" ry="100.106952"></ellipse>
                <ellipse id="Oval" fill-opacity="0.75" fill="url(#linearGradient-2)" cx="190.933333" cy="147.101604" rx="18.7666667" ry="18.0641711"></ellipse>
                <g id="Group" transform="translate(150.323423, 93.632028) rotate(10.000000) translate(-150.323423, -93.632028) translate(116.166667, 23.394190)">
                    <path d="M64.6284324,140.418004 L3.40605405,140.340973 C1.93394595,140.340973 0.750486486,139.147892 0.750486486,137.675784 L0.885189189,3.3387027 C0.885189189,1.86659459 2.07827027,0.683135135 3.55037838,0.683135135 L64.7727568,0.760108108 C66.2448649,0.760108108 67.4283243,1.95318919 67.4283243,3.4252973 L67.2936216,137.762378 C67.2936216,139.234486 66.1005405,140.427568 64.6284324,140.418004 Z" id="Path" fill="url(#linearGradient-3)"></path>
                    <path d="M64.6284324,140.418004 L3.40605405,140.340973 C1.93394595,140.340973 0.750486486,139.147892 0.750486486,137.675784 L0.885189189,3.3387027 C0.885189189,1.86659459 2.07827027,0.683135135 3.55037838,0.683135135 L64.7727568,0.760108108 C66.2448649,0.760108108 67.4283243,1.95318919 67.4283243,3.4252973 L67.2936216,137.762378 C67.2936216,139.234486 66.1005405,140.427568 64.6284324,140.418004 Z" id="Path" fill="#F2F2F2"></path>
                    <path d="M43.9034595,22.4665534 L25.3818378,22.4472432 C24.1214054,22.4472432 23.1015135,21.4177297 23.1015135,20.1572973 L23.1111351,13.8551351 C23.1111351,12.5947027 24.1406486,11.5748108 25.4010811,11.5748108 L43.9227027,11.5940541 C45.1831351,11.5940541 46.203027,12.6235676 46.203027,13.884 L46.1934054,20.1861622 C46.1837838,21.4465946 45.1638919,22.4761081 43.9034595,22.4665534 Z" id="Path" fill="url(#linearGradient-4)"></path>
                    <path d="M58.0953514,33.6756757 L11.1610811,33.6179459 C10.5741622,33.6179459 10.1027027,33.1368649 10.1027027,32.5499459 L10.1027027,31.8764324 C10.1027027,31.2895135 10.5837838,30.8180541 11.1707027,30.8180541 L58.104973,30.8757838 C58.6918919,30.8757838 59.1633514,31.3568649 59.1633514,31.9437838 L59.1633514,32.6172973 C59.1633514,33.2042162 58.6822703,33.6852973 58.0953514,33.6756757 Z" id="Path" fill="url(#linearGradient-5)"></path>
                    <path d="M58.0857297,39.7372973 L11.1514595,39.6795676 C10.5645405,39.6795676 10.0930811,39.1984865 10.0930811,38.6115676 L10.0930811,37.9380541 C10.0930811,37.3511351 10.5741622,36.8796757 11.1610811,36.8796757 L58.0953514,36.9374054 C58.6822703,36.9374054 59.1537297,37.4184865 59.1537297,38.0054054 L59.1537297,38.6789189 C59.1537297,39.2562162 58.6726486,39.7372973 58.0857297,39.7372973 Z" id="Path" fill="url(#linearGradient-6)"></path>
                    <path d="M58.0761081,45.7892973 L11.1418378,45.7315676 C10.5549189,45.7315676 10.0834595,45.2504865 10.0834595,44.6635676 L10.0834595,43.9900541 C10.0834595,43.4031351 10.5645405,42.9316757 11.1514595,42.9316757 L58.0857297,42.9894054 C58.6726486,42.9894054 59.1441081,43.4704865 59.1441081,44.0574054 L59.1441081,44.7309189 C59.1441081,45.3178378 58.663027,45.7892973 58.0761081,45.7892973 Z" id="Path" fill="url(#linearGradient-7)"></path>
                    <path d="M30.3273514,57.2197838 L11.1225946,57.1909189 C10.5356757,57.1909189 10.0642162,56.7098378 10.0642162,56.1229189 L10.0642162,55.4494054 C10.0642162,54.8624865 10.5452973,54.391027 11.1322162,54.391027 L30.336973,54.4198919 C30.9238919,54.4198919 31.3953514,54.900973 31.3953514,55.4878919 L31.3953514,56.1614054 C31.3953514,56.7483243 30.9238919,57.2294054 30.3273514,57.2197838 Z" id="Path" fill="url(#linearGradient-8)"></path>
                    <path d="M44.856,68.3327568 L11.112973,68.2846486 C10.5260541,68.2846486 10.0545946,67.8035676 10.0545946,67.2166486 L10.0545946,66.5431351 C10.0545946,65.9562162 10.5356757,65.4847568 11.1225946,65.4847568 L44.8656216,65.5328649 C45.4525405,65.5328649 45.924,66.0139459 45.924,66.6008649 L45.924,67.2743784 C45.924,67.8612973 45.4429189,68.3327568 44.856,68.3327568 Z" id="Path" fill="url(#linearGradient-9)"></path>
                    <path d="M12.816,117.42227 L12.8063784,127.399892 C12.8063784,128.169622 12.180973,128.804649 11.4016216,128.795135 L11.4016216,128.795135 C10.6318919,128.795135 9.99686486,128.169622 10.0064865,127.39027 L10.0161081,117.412649 C10.0161081,116.642919 10.6415135,116.007892 11.4208649,116.017406 L11.4208649,116.017406 C12.1905946,116.017406 12.816,116.652541 12.816,117.42227 Z" id="Path" fill="url(#linearGradient-10)"></path>
                    <path d="M18.588973,117.431892 L18.5793514,127.409514 C18.5793514,128.179243 17.9539459,128.81427 17.1745946,128.804757 L17.1745946,128.804757 C16.4048649,128.804757 15.7698378,128.179243 15.7794595,127.399892 L15.7890811,117.42227 C15.7890811,116.652541 16.4144865,116.017514 17.1938378,116.027027 L17.1938378,116.027027 C17.9635676,116.027027 18.588973,116.652541 18.588973,117.431892 Z" id="Path" fill="url(#linearGradient-11)"></path>
                    <path d="M24.3619459,117.441514 L24.3523243,127.419135 C24.3523243,128.188865 23.7269189,128.823892 22.9475676,128.814378 L22.9475676,128.814378 C22.1778378,128.814378 21.5428108,128.188865 21.5524324,127.409514 L21.5620541,117.431892 C21.5620541,116.662162 22.1874595,116.027135 22.9668108,116.036649 L22.9668108,116.036649 C23.7365405,116.036649 24.3619459,116.662162 24.3619459,117.441514 Z" id="Path" fill="url(#linearGradient-12)"></path>
                    <path d="M30.1252973,117.441514 L30.1156757,127.419135 C30.1156757,128.188865 29.4902703,128.823892 28.7109189,128.814378 L28.7109189,128.814378 C27.9411892,128.814378 27.3061622,128.188865 27.3157838,127.409514 L27.3254054,117.431892 C27.3254054,116.662162 27.9508108,116.027135 28.7301622,116.036649 L28.7301622,116.036649 C29.4998919,116.046378 30.1349189,116.671784 30.1252973,117.441514 Z" id="Path" fill="url(#linearGradient-13)"></path>
                    <path d="M35.8982703,117.451135 L35.8886486,127.428757 C35.8886486,128.198486 35.2632432,128.833514 34.4838919,128.824 L34.4838919,128.824 C33.7141622,128.824 33.0791351,128.198486 33.0887568,127.419135 L33.0983784,117.441514 C33.0983784,116.671784 33.7237838,116.036757 34.5031351,116.04627 L34.5031351,116.04627 C35.2728649,116.04627 35.8982703,116.681405 35.8982703,117.451135 Z" id="Path" fill="url(#linearGradient-14)"></path>
                    <path d="M41.6712432,117.460757 L41.6616216,127.438378 C41.6616216,128.208108 41.0362162,128.843135 40.2568649,128.833621 L40.2568649,128.833621 C39.4871351,128.833621 38.8521081,128.208108 38.8617297,127.428757 L38.8713514,117.451135 C38.8713514,116.681405 39.4967568,116.046378 40.2761081,116.055892 L40.2761081,116.055892 C41.0458378,116.055892 41.6712432,116.681405 41.6712432,117.460757 Z" id="Path" fill="url(#linearGradient-15)"></path>
                    <path d="M47.4442162,117.470378 L47.4345946,127.448 C47.4345946,128.21773 46.8091892,128.852757 46.0298378,128.843243 L46.0298378,128.843243 C45.2601081,128.843243 44.6250811,128.21773 44.6347027,127.438378 L44.6443243,117.460757 C44.6443243,116.691027 45.2697297,116.056 46.0490811,116.065514 L46.0490811,116.065514 C46.8188108,116.065514 47.4442162,116.691027 47.4442162,117.470378 Z" id="Path" fill="url(#linearGradient-16)"></path>
                    <path d="M53.2171892,117.470378 L53.2075676,127.448 C53.2075676,128.21773 52.5821622,128.852757 51.8028108,128.843243 L51.8028108,128.843243 C51.0330811,128.843243 50.3980541,128.21773 50.4076757,127.438378 L50.4172973,117.460757 C50.4172973,116.691027 51.0427027,116.056 51.8220541,116.065514 L51.8220541,116.065514 C52.5917838,116.075243 53.2171892,116.700649 53.2171892,117.470378 Z" id="Path" fill="url(#linearGradient-17)"></path>
                    <path d="M58.9901622,117.48 L58.9805405,127.457622 C58.9805405,128.227351 58.3551351,128.862378 57.5757838,128.852865 L57.5757838,128.852865 C56.8060541,128.852865 56.171027,128.227351 56.1806486,127.448 L56.1902703,117.470378 C56.1902703,116.700649 56.8156757,116.065622 57.595027,116.075135 L57.595027,116.075135 C58.3647568,116.084865 58.9901622,116.71027 58.9901622,117.48 Z" id="Path" fill="url(#linearGradient-18)"></path>
                    <path d="M58.0472432,68.352 L51.5911351,68.3423784 C51.0042162,68.3423784 50.5327568,67.8612973 50.5327568,67.2743784 L50.5327568,66.6008649 C50.5327568,66.0139459 51.0138378,65.5424865 51.6007568,65.5424865 L58.0568649,65.5521081 C58.6437838,65.5521081 59.1152432,66.0331892 59.1152432,66.6201081 L59.1152432,67.2936216 C59.1152432,67.8709189 58.6341622,68.352 58.0472432,68.352 Z" id="Path" fill="url(#linearGradient-19)"></path>
                    <path d="M44.8463784,75.6932973 L11.1033514,75.6451892 C10.5164324,75.6451892 10.044973,75.1641081 10.044973,74.5771892 L10.044973,73.9036757 C10.044973,73.3167568 10.5260541,72.8452973 11.112973,72.8452973 L44.856,72.8934054 C45.4429189,72.8934054 45.9143784,73.3744865 45.9143784,73.9614054 L45.9143784,74.6349189 C45.9143784,75.2218378 45.4332973,75.6932973 44.8463784,75.6932973 Z" id="Path" fill="url(#linearGradient-20)"></path>
                    <path d="M58.0376216,75.7125405 L51.5815135,75.7029189 C50.9945946,75.7029189 50.5231351,75.2218378 50.5231351,74.6349189 L50.5231351,73.9614054 C50.5231351,73.3744865 51.0042162,72.903027 51.5911351,72.903027 L58.0472432,72.9126486 C58.6341622,72.9126486 59.1056216,73.3937297 59.1056216,73.9806486 L59.1056216,74.6541622 C59.1056216,75.2314595 58.6245405,75.7125405 58.0376216,75.7125405 Z" id="Path" fill="url(#linearGradient-21)"></path>
                    <path d="M44.8367568,83.0538378 L11.0937297,83.0057297 C10.5068108,83.0057297 10.0353514,82.5246486 10.0353514,81.9377297 L10.0353514,81.2642162 C10.0353514,80.6772973 10.5164324,80.2058378 11.1033514,80.2058378 L44.8463784,80.2539459 C45.4332973,80.2539459 45.9047568,80.735027 45.9047568,81.3219459 L45.9047568,81.9954595 C45.9047568,82.5823784 45.4236757,83.0538378 44.8367568,83.0538378 Z" id="Path" fill="url(#linearGradient-22)"></path>
                    <path d="M58.028,83.0730811 L51.5718919,83.0634595 C50.984973,83.0634595 50.5135135,82.5823784 50.5135135,81.9954595 L50.5135135,81.3219459 C50.5135135,80.735027 50.9945946,80.2635676 51.5815135,80.2635676 L58.0376216,80.2731892 C58.6245405,80.2731892 59.096,80.7542703 59.096,81.3411892 L59.096,82.0147027 C59.096,82.592 58.6149189,83.0730811 58.028,83.0730811 Z" id="Path" fill="url(#linearGradient-23)"></path>
                    <path d="M44.8271351,90.4143784 L11.0841081,90.3662703 C10.4971892,90.3662703 10.0257297,89.8851892 10.0257297,89.2982703 L10.0257297,88.6247568 C10.0257297,88.0378378 10.5068108,87.5663784 11.0937297,87.5663784 L44.8367568,87.6144865 C45.4236757,87.6144865 45.8951351,88.0955676 45.8951351,88.6824865 L45.8951351,89.356 C45.8951351,89.9429189 45.4140541,90.4143784 44.8271351,90.4143784 Z" id="Path" fill="url(#linearGradient-24)"></path>
                    <path d="M51.3890811,133.894486 L17.6460541,133.846378 C17.0591351,133.846378 16.5876757,133.365297 16.5876757,132.778378 L16.5876757,132.104865 C16.5876757,131.517946 17.0687568,131.046486 17.6556757,131.046486 L51.3987027,131.094595 C51.9856216,131.094595 52.4570811,131.575676 52.4570811,132.162595 L52.4570811,132.836108 C52.4570811,133.413405 51.976,133.894486 51.3890811,133.894486 Z" id="Path" fill="url(#linearGradient-25)"></path>
                    <path d="M58.0183784,90.4336216 L51.5622703,90.424 C50.9753514,90.424 50.5038919,89.9429189 50.5038919,89.356 L50.5038919,88.6824865 C50.5038919,88.0955676 50.984973,87.6241081 51.5718919,87.6241081 L58.028,87.6337297 C58.6149189,87.6337297 59.0863784,88.1148108 59.0863784,88.7017297 L59.0863784,89.3752432 C59.0863784,89.9621622 58.6052973,90.4336216 58.0183784,90.4336216 Z" id="Path" fill="url(#linearGradient-26)"></path>
                    <path d="M44.8367568,97.4381622 L11.0937297,97.3900541 C10.5068108,97.3900541 10.0353514,96.908973 10.0353514,96.3220541 L10.0353514,95.6485405 C10.0353514,95.0616216 10.5164324,94.5901622 11.1033514,94.5901622 L44.8463784,94.6382703 C45.4332973,94.6382703 45.9047568,95.1193514 45.9047568,95.7062703 L45.9047568,96.3797838 C45.9047568,96.9667027 45.4236757,97.4381622 44.8367568,97.4381622 Z" id="Path" fill="url(#linearGradient-27)"></path>
                    <path d="M58.028,97.4574054 L51.5718919,97.4477838 C50.984973,97.4477838 50.5135135,96.9667027 50.5135135,96.3797838 L50.5135135,95.7062703 C50.5135135,95.1193514 50.9945946,94.6478919 51.5815135,94.6478919 L58.0376216,94.6575135 C58.6245405,94.6575135 59.096,95.1385946 59.096,95.7255135 L59.096,96.399027 C59.096,96.9859459 58.6149189,97.4574054 58.028,97.4574054 Z" id="Path" fill="url(#linearGradient-28)"></path>
                    <path d="M44.8271351,104.798703 L11.0841081,104.750595 C10.4971892,104.750595 10.0257297,104.269514 10.0257297,103.682595 L10.0257297,103.009081 C10.0257297,102.422162 10.5068108,101.950703 11.0937297,101.950703 L44.8367568,101.998811 C45.4236757,101.998811 45.8951351,102.479892 45.8951351,103.066811 L45.8951351,103.740324 C45.8951351,104.327243 45.4140541,104.798703 44.8271351,104.798703 Z" id="Path" fill="url(#linearGradient-29)"></path>
                    <path d="M58.0183784,104.817946 L51.5622703,104.808324 C50.9753514,104.808324 50.5038919,104.327243 50.5038919,103.740324 L50.5038919,103.066811 C50.5038919,102.479892 50.984973,102.008432 51.5718919,102.008432 L58.028,102.018054 C58.6149189,102.018054 59.0863784,102.499135 59.0863784,103.086054 L59.0863784,103.759568 C59.0863784,104.346486 58.6052973,104.817946 58.0183784,104.817946 Z" id="Path" fill="url(#linearGradient-30)"></path>
                    <path d="M58.0664865,57.2582703 L38.8617297,57.2294054 C38.2748108,57.2294054 37.8033514,56.7483243 37.8033514,56.1614054 L37.8033514,55.4878919 C37.8033514,54.900973 38.2844324,54.4295135 38.8713514,54.4295135 L58.0761081,54.4583784 C58.663027,54.4583784 59.1344865,54.9394595 59.1344865,55.5263784 L59.1344865,56.1998919 C59.1248649,56.7868108 58.6534054,57.2582703 58.0664865,57.2582703 Z" id="Path" fill="url(#linearGradient-31)"></path>
                </g>
                <g id="Group-18" transform="translate(60.926126, 96.037433) rotate(-10.000000) translate(-60.926126, -96.037433) translate(15.426126, 7.037433)">
                    <g id="Group">
                        <path d="M18.9257297,177.576649 L77.5406486,177.518919 C84.4874595,177.509297 90.1161081,171.871027 90.1161081,164.924216 L90.0006486,13.2778378 C89.991027,6.33102703 84.3527568,0.702378378 77.4059459,0.702378378 L18.791027,0.760108108 C11.8442162,0.76972973 6.21556757,6.408 6.21556757,13.3548108 L6.32140541,165.001189 C6.33102703,171.948 11.9692973,177.576649 18.9257297,177.576649 Z" id="Path" fill="#FFC8A3"></path>
                        <path d="M13.6530811,177.518931 L72.268,177.461189 C79.2148108,177.451568 84.8434595,171.813297 84.8434595,164.866486 L84.7376216,13.2201081 C84.728,6.2732973 79.0897297,0.644648649 72.1429189,0.644648649 L13.5183784,0.702378378 C6.57156757,0.712 0.942918919,6.35027027 0.942918919,13.2970811 L1.04875676,164.943459 C1.05837838,171.899892 6.69664865,177.528541 13.6530811,177.518931 Z" id="Path" fill="#333333"></path>
                        <path d="M13.6530811,177.518931 L72.268,177.461189 C79.2148108,177.451568 84.8434595,171.813297 84.8434595,164.866486 L84.7376216,13.2201081 C84.728,6.2732973 79.0897297,0.644648649 72.1429189,0.644648649 L13.5183784,0.702378378 C6.57156757,0.712 0.942918919,6.35027027 0.942918919,13.2970811 L1.04875676,164.943459 C1.05837838,171.899892 6.69664865,177.528541 13.6530811,177.518931 Z" id="Path" fill-opacity="0.8" fill="#FF6600"></path>
                        <path d="M4.69535135,12.9603243 L4.80118919,165.280216 C4.80118919,170.042919 8.66908108,173.901189 13.4317838,173.901189 L72.7202162,173.843459 C77.4829189,173.843459 81.3411892,169.975568 81.3411892,165.212865 L81.2353514,12.892973 C81.2353514,8.13027027 77.3674595,4.272 72.6047568,4.272 L64.9363243,4.28162162 C63.3006486,4.28162162 61.9728649,5.60940541 61.9728649,7.2547027 L61.9728649,8.56324324 C61.9728649,10.1989189 60.6450811,11.5267027 59.0094054,11.5363243 L26.6711351,11.5651892 C25.0354595,11.5651892 23.7076757,10.2374054 23.6980541,8.60172973 L23.6980541,7.29318919 C23.6980541,5.65751351 22.3702703,4.32972973 20.724973,4.32972973 L13.3163243,4.32972973 C8.55362162,4.32972973 4.69535135,8.19762162 4.69535135,12.9603243 Z" id="Path" fill="#FFA366"></path>
                        <path d="M4.69535135,12.9699459 L4.69535135,17.0591351 L4.75308108,99.3528649 L4.81081081,165.289838 C4.81081081,170.052541 8.6787027,173.910811 13.4317838,173.901207 L72.7298378,173.843459 C74.5675676,173.843459 76.2802162,173.266162 77.6753514,172.284757 C79.9075676,170.726054 81.3604324,168.137838 81.341378,165.222486 L81.2834595,93.6568649 L81.2257297,12.9025946 C81.2257297,8.13989189 77.3578378,4.28162162 72.6047568,4.28162162 L64.9267027,4.30086486 C63.291027,4.30086486 61.9728649,5.61902703 61.9728649,7.2547027 L61.9728649,8.56324324 C61.9728649,10.1989189 60.6547027,11.5170811 59.019027,11.5170811 L26.6711351,11.5555676 C25.0354595,11.5555676 23.6980541,10.2374054 23.6980541,8.60172973 L23.6980541,7.27394595 C23.6980541,5.63827027 22.3798919,4.32010811 20.7442162,4.32010811 L13.3259459,4.32010811 C8.544,4.32010811 4.69535135,8.188 4.69535135,12.9699459 Z" id="Path" fill="#333333"></path>
                        <path d="M67.2455135,11.1803243 L75.548973,11.2476757 C76.1358919,11.2476757 76.616973,10.7665946 76.616973,10.1796757 L76.616973,10.1796757 C76.616973,9.59275676 76.1358919,9.11167568 75.548973,9.11167568 L67.2455135,9.04432432 C66.6585946,9.04432432 66.1775135,9.52540541 66.1775135,10.1123243 L66.1775135,10.1123243 C66.1775135,10.6992432 66.6585946,11.1803243 67.2455135,11.1803243 Z" id="Path" fill="#FFFFFF"></path>
                        <path d="M32.8097297,24.3811892 L54.1985946,24.4485405 C54.7855135,24.4485405 55.2665946,23.9674595 55.2665946,23.3805405 L55.2665946,23.3805405 C55.2665946,22.7936216 54.7855135,22.3125405 54.1985946,22.3125405 L32.8097297,22.2451892 C32.2228108,22.2451892 31.7417297,22.7262703 31.7417297,23.3131892 L31.7417297,23.3131892 C31.7417297,23.9001081 32.2131892,24.3811892 32.8097297,24.3811892 Z" id="Path" fill="#FFFFFF"></path>
                        <path d="M24.4677838,29.827027 L62.5212973,29.8943784 C63.1082162,29.8943784 63.5892973,29.4132973 63.5892973,28.8263784 L63.5892973,28.8263784 C63.5892973,28.2394595 63.1082162,27.7583784 62.5212973,27.7583784 L24.4677838,27.691027 C23.8808649,27.691027 23.3997838,28.1721081 23.3997838,28.759027 L23.3997838,28.759027 C23.3997838,29.3459459 23.8808649,29.827027 24.4677838,29.827027 Z" id="Path" fill="#FFFFFF"></path>
                        <path d="M11.2284324,9.66972973 L19.5318919,9.73708108 C20.1188108,9.73708108 20.5998919,9.256 20.5998919,8.66908108 L20.5998919,8.66908108 C20.5998919,8.08216216 20.1188108,7.60108108 19.5318919,7.60108108 L11.2284324,7.53372973 C10.6415135,7.53372973 10.1604324,8.01481081 10.1604324,8.60172973 L10.1604324,8.60172973 C10.1604324,9.18864865 10.6415135,9.66972973 11.2284324,9.66972973 Z" id="Path" fill="#FFFFFF"></path>
                        <g transform="translate(19.243243, 42.335135)" id="Path">
                            <path d="M46.3088649,97.9673514 L2.63632432,97.9096216 C1.58756757,97.9096216 0.740864865,97.0532973 0.740864865,96.0141622 L0.837081081,2.3572973 C0.837081081,1.30854054 1.69340541,0.461837838 2.73254054,0.461837838 L46.4050811,0.519567568 C47.4538378,0.519567568 48.3005405,1.37589189 48.3005405,2.41502703 L48.2043243,96.0718919 C48.2139459,97.1206486 47.3576216,97.9673514 46.3088649,97.9673514 Z" fill="url(#linearGradient-32)"></path>
                            <path d="M46.3088649,97.9673514 L2.63632432,97.9096216 C1.58756757,97.9096216 0.740864865,97.0532973 0.740864865,96.0141622 L0.837081081,2.3572973 C0.837081081,1.30854054 1.69340541,0.461837838 2.73254054,0.461837838 L46.4050811,0.519567568 C47.4538378,0.519567568 48.3005405,1.37589189 48.3005405,2.41502703 L48.2043243,96.0718919 C48.2139459,97.1206486 47.3576216,97.9673514 46.3088649,97.9673514 Z" fill="#F2F2F2"></path>
                            <path d="M31.5300541,15.9911351 L18.3195676,15.9718919 C17.4247568,15.9718919 16.6935135,15.2406486 16.6935135,14.3458378 L16.7031351,9.85254054 C16.7031351,8.95772973 17.4343784,8.22648649 18.3291892,8.22648649 L31.5396757,8.24572973 C32.4344865,8.24572973 33.1657297,8.97697297 33.1657297,9.87178378 L33.1561081,14.3650811 C33.1561081,15.2695135 32.4248649,15.9911351 31.5300541,15.9911351 Z" fill="url(#linearGradient-33)"></path>
                            <path d="M41.652,23.9867027 L8.17837838,23.9385946 C7.75502703,23.9385946 7.41827027,23.6018378 7.41827027,23.1784865 L7.41827027,22.6974054 C7.41827027,22.2740541 7.75502703,21.9372973 8.17837838,21.9372973 L41.652,21.9854054 C42.0753514,21.9854054 42.4121081,22.3221622 42.4121081,22.7455135 L42.4121081,23.2265946 C42.4121081,23.6499459 42.0657297,23.9867027 41.652,23.9867027 Z" fill="url(#linearGradient-34)"></path>
                            <path d="M41.6423784,28.3068108 L8.16875676,28.2587027 C7.74540541,28.2587027 7.40864865,27.9219459 7.40864865,27.4985946 L7.40864865,27.0175135 C7.40864865,26.5941622 7.74540541,26.2574054 8.16875676,26.2574054 L41.6423784,26.3055135 C42.0657297,26.3055135 42.4024865,26.6422703 42.4024865,27.0656216 L42.4024865,27.5467027 C42.4024865,27.9700541 42.0657297,28.3068108 41.6423784,28.3068108 Z" fill="url(#linearGradient-35)"></path>
                            <path d="M41.6423784,32.6269189 L8.16875676,32.5788108 C7.74540541,32.5788108 7.40864865,32.2420541 7.40864865,31.8187027 L7.40864865,31.3376216 C7.40864865,30.9142703 7.74540541,30.5775135 8.16875676,30.5775135 L41.6423784,30.6256216 C42.0657297,30.6256216 42.4024865,30.9623784 42.4024865,31.3857297 L42.4024865,31.8668108 C42.3928649,32.2901622 42.0561081,32.6269189 41.6423784,32.6269189 Z" fill="url(#linearGradient-36)"></path>
                            <path d="M21.8507027,40.7860541 L8.15913514,40.7668108 C7.73578378,40.7668108 7.39902703,40.4300541 7.39902703,40.0067027 L7.39902703,39.5256216 C7.39902703,39.1022703 7.73578378,38.7655135 8.15913514,38.7655135 L21.8507027,38.7847568 C22.2740541,38.7847568 22.6108108,39.1215135 22.6108108,39.5448649 L22.6108108,40.0259459 C22.6011892,40.4396757 22.2644324,40.7860541 21.8507027,40.7860541 Z" fill="url(#linearGradient-37)"></path>
                            <path d="M32.2035676,48.7046486 L8.13989189,48.6757838 C7.71654054,48.6757838 7.37978378,48.339027 7.37978378,47.9156757 L7.37978378,47.4345946 C7.37978378,47.0112432 7.71654054,46.6744865 8.13989189,46.6744865 L32.2035676,46.7033514 C32.6269189,46.7033514 32.9636757,47.0401081 32.9636757,47.4634595 L32.9636757,47.9445405 C32.9636757,48.3678919 32.6269189,48.7046486 32.2035676,48.7046486 Z" fill="url(#linearGradient-38)"></path>
                            <path d="M9.35221622,81.5624865 L9.34259459,88.6824865 C9.34259459,89.2309189 8.89037838,89.6831351 8.34194595,89.6831351 L8.34194595,89.6831351 C7.79351351,89.6831351 7.3412973,89.2309189 7.3412973,88.6824865 L7.35091892,81.5624865 C7.35091892,81.0140541 7.80313514,80.5618378 8.35156757,80.5618378 L8.35156757,80.5618378 C8.90962162,80.5618378 9.35221622,81.0140541 9.35221622,81.5624865 Z" fill="url(#linearGradient-39)"></path>
                            <path d="M13.4702703,81.5721081 L13.4606486,88.6921081 C13.4606486,89.2405405 13.0084324,89.6927568 12.46,89.6927568 L12.46,89.6927568 C11.9115676,89.6927568 11.4593514,89.2405405 11.4593514,88.6921081 L11.468973,81.5721081 C11.468973,81.0236757 11.9211892,80.5714595 12.4696216,80.5714595 L12.4696216,80.5714595 C13.0276757,80.5714595 13.4702703,81.0140541 13.4702703,81.5721081 Z" fill="url(#linearGradient-40)"></path>
                            <path d="M17.5883243,81.5721081 L17.5787027,88.6921081 C17.5787027,89.2405405 17.1264865,89.6927568 16.5780541,89.6927568 L16.5780541,89.6927568 C16.0296216,89.6927568 15.5774054,89.2405405 15.5774054,88.6921081 L15.587027,81.5721081 C15.587027,81.0236757 16.0392432,80.5714595 16.5876757,80.5714595 L16.5876757,80.5714595 C17.1361081,80.5714595 17.5883243,81.0236757 17.5883243,81.5721081 Z" fill="url(#linearGradient-41)"></path>
                            <path d="M21.7063784,81.5817297 L21.6967568,88.7017297 C21.6967568,89.2501622 21.2445405,89.7023784 20.6961081,89.7023784 L20.6961081,89.7023784 C20.1476757,89.7023784 19.6954595,89.2501622 19.6954595,88.7017297 L19.7050811,81.5817297 C19.7050811,81.0332973 20.1572973,80.5810811 20.7057297,80.5810811 L20.7057297,80.5810811 C21.2541622,80.5810811 21.7063784,81.0236757 21.7063784,81.5817297 Z" fill="url(#linearGradient-42)"></path>
                            <path d="M25.8148108,81.5817297 L25.8051892,88.7017297 C25.8051892,89.2501622 25.352973,89.7023784 24.8045405,89.7023784 L24.8045405,89.7023784 C24.2561081,89.7023784 23.8038919,89.2501622 23.8038919,88.7017297 L23.8135135,81.5817297 C23.8135135,81.0332973 24.2657297,80.5810811 24.8141622,80.5810811 L24.8141622,80.5810811 C25.3722162,80.5810811 25.8244324,81.0332973 25.8148108,81.5817297 Z" fill="url(#linearGradient-43)"></path>
                            <path d="M29.9328649,81.5913514 L29.9232432,88.7113514 C29.9232432,89.2597838 29.471027,89.712 28.9225946,89.712 L28.9225946,89.712 C28.3741622,89.712 27.9219459,89.2597838 27.9219459,88.7113514 L27.9315676,81.5913514 C27.9315676,81.0429189 28.3837838,80.5907027 28.9322162,80.5907027 L28.9322162,80.5907027 C29.4902703,80.5907027 29.9328649,81.0429189 29.9328649,81.5913514 Z" fill="url(#linearGradient-44)"></path>
                            <path d="M34.0509189,81.600973 L34.0412973,88.720973 C34.0412973,89.2694054 33.5890811,89.7216216 33.0406486,89.7216216 L33.0406486,89.7216216 C32.4922162,89.7216216 32.04,89.2694054 32.04,88.720973 L32.0496216,81.600973 C32.0496216,81.0525405 32.5018378,80.6003243 33.0502703,80.6003243 L33.0502703,80.6003243 C33.6083243,80.6003243 34.0509189,81.0429189 34.0509189,81.600973 Z" fill="url(#linearGradient-45)"></path>
                            <path d="M38.168973,81.600973 L38.1593514,88.720973 C38.1593514,89.2694054 37.7071351,89.7216216 37.1587027,89.7216216 L37.1587027,89.7216216 C36.6102703,89.7216216 36.1580541,89.2694054 36.1580541,88.720973 L36.1676757,81.600973 C36.1676757,81.0525405 36.6198919,80.6003243 37.1683243,80.6003243 L37.1683243,80.6003243 C37.7263784,80.6003243 38.168973,81.0525405 38.168973,81.600973 Z" fill="url(#linearGradient-46)"></path>
                            <path d="M42.287027,81.6105946 L42.2774054,88.7305946 C42.2774054,89.279027 41.8251892,89.7312432 41.2767568,89.7312432 L41.2767568,89.7312432 C40.7283243,89.7312432 40.2761081,89.279027 40.2761081,88.7305946 L40.2857297,81.6105946 C40.2857297,81.0621622 40.7379459,80.6099459 41.2863784,80.6099459 L41.2863784,80.6099459 C41.8348108,80.6099459 42.287027,81.0525405 42.287027,81.6105946 Z" fill="url(#linearGradient-47)"></path>
                            <path d="M41.6135135,48.7142703 L37.0047568,48.7046486 C36.5814054,48.7046486 36.2446486,48.3678919 36.2446486,47.9445405 L36.2446486,47.4634595 C36.2446486,47.0401081 36.5814054,46.7033514 37.0047568,46.7033514 L41.6135135,46.712973 C42.0368649,46.712973 42.3736216,47.0497297 42.3736216,47.4730811 L42.3736216,47.9541622 C42.3736216,48.3775135 42.0368649,48.7142703 41.6135135,48.7142703 Z" fill="url(#linearGradient-48)"></path>
                            <path d="M32.2035676,53.9580541 L8.13989189,53.9291892 C7.71654054,53.9291892 7.37978378,53.5924324 7.37978378,53.1690811 L7.37978378,52.688 C7.37978378,52.2646486 7.71654054,51.9278919 8.13989189,51.9278919 L32.2035676,51.9567568 C32.6269189,51.9567568 32.9636757,52.2935135 32.9636757,52.7168649 L32.9636757,53.1979459 C32.9540541,53.6212973 32.6172973,53.9580541 32.2035676,53.9580541 Z" fill="url(#linearGradient-49)"></path>
                            <path d="M41.6135135,53.9676757 L37.0047568,53.9580541 C36.5814054,53.9580541 36.2446486,53.6212973 36.2446486,53.1979459 L36.2446486,52.7168649 C36.2446486,52.2935135 36.5814054,51.9567568 37.0047568,51.9567568 L41.6135135,51.9663784 C42.0368649,51.9663784 42.3736216,52.3031351 42.3736216,52.7264865 L42.3736216,53.2075676 C42.3736216,53.6309189 42.0272432,53.9676757 41.6135135,53.9676757 Z" fill="url(#linearGradient-50)"></path>
                            <path d="M32.1939459,59.2018378 L8.13027027,59.172973 C7.70691892,59.172973 7.37016216,58.8362162 7.37016216,58.4128649 L7.37016216,57.9317838 C7.37016216,57.5084324 7.70691892,57.1716757 8.13027027,57.1716757 L32.1939459,57.2005405 C32.6172973,57.2005405 32.9540541,57.5372973 32.9540541,57.9606486 L32.9540541,58.4417297 C32.9540541,58.8650811 32.6076757,59.2114595 32.1939459,59.2018378 Z" fill="url(#linearGradient-51)"></path>
                            <path d="M41.6038919,59.2210811 L36.9951351,59.2114595 C36.5717838,59.2114595 36.235027,58.8747027 36.235027,58.4513514 L36.235027,57.9702703 C36.235027,57.5469189 36.5717838,57.2101622 36.9951351,57.2101622 L41.6038919,57.2197838 C42.0272432,57.2197838 42.364,57.5565405 42.364,57.9798919 L42.364,58.460973 C42.364,58.8843243 42.0272432,59.2210811 41.6038919,59.2210811 Z" fill="url(#linearGradient-52)"></path>
                            <path d="M32.1843243,64.4552432 L8.12064865,64.4263784 C7.6972973,64.4263784 7.36054054,64.0896216 7.36054054,63.6662703 L7.36054054,63.1851892 C7.36054054,62.7618378 7.6972973,62.4250811 8.12064865,62.4250811 L32.1843243,62.4539459 C32.6076757,62.4539459 32.9444324,62.7907027 32.9444324,63.2140541 L32.9444324,63.6951351 C32.9444324,64.1184865 32.6076757,64.4552432 32.1843243,64.4552432 Z" fill="url(#linearGradient-53)"></path>
                            <path d="M36.8700541,93.3104865 L12.8063784,93.2816216 C12.383027,93.2816216 12.0462703,92.9448649 12.0462703,92.5215135 L12.0462703,92.0404324 C12.0462703,91.6170811 12.383027,91.2803243 12.8063784,91.2803243 L36.8700541,91.3091892 C37.2934054,91.3091892 37.6301622,91.6459459 37.6301622,92.0692973 L37.6301622,92.5503784 C37.6301622,92.9737297 37.2837838,93.3104865 36.8700541,93.3104865 Z" fill="url(#linearGradient-54)"></path>
                            <path d="M41.5942703,64.4648649 L36.9855135,64.4552432 C36.5621622,64.4552432 36.2254054,64.1184865 36.2254054,63.6951351 L36.2254054,63.2140541 C36.2254054,62.7907027 36.5621622,62.4539459 36.9855135,62.4539459 L41.5942703,62.4635676 C42.0176216,62.4635676 42.3543784,62.8003243 42.3543784,63.2236757 L42.3543784,63.7047568 C42.3543784,64.1281081 42.0176216,64.4648649 41.5942703,64.4648649 Z" fill="url(#linearGradient-55)"></path>
                            <path d="M32.1939459,69.5162162 L8.13027027,69.4873514 C7.70691892,69.4873514 7.37016216,69.1505946 7.37016216,68.7272432 L7.37016216,68.2461622 C7.37016216,67.8228108 7.70691892,67.4860541 8.13027027,67.4860541 L32.1939459,67.5149189 C32.6172973,67.5149189 32.9540541,67.8516757 32.9540541,68.275027 L32.9540541,68.7561081 C32.9540541,69.1794595 32.6076757,69.5162162 32.1939459,69.5162162 Z" fill="url(#linearGradient-56)"></path>
                            <path d="M41.6038919,69.5258378 L36.9951351,69.5162162 C36.5717838,69.5162162 36.235027,69.1794595 36.235027,68.7561081 L36.235027,68.275027 C36.235027,67.8516757 36.5717838,67.5149189 36.9951351,67.5149189 L41.6038919,67.5245405 C42.0272432,67.5245405 42.364,67.8612973 42.364,68.2846486 L42.364,68.7657297 C42.364,69.1890811 42.0272432,69.5258378 41.6038919,69.5258378 Z" fill="url(#linearGradient-57)"></path>
                            <path d="M32.1843243,74.7696216 L8.12064865,74.7407568 C7.6972973,74.7407568 7.36054054,74.404 7.36054054,73.9806486 L7.36054054,73.4995676 C7.36054054,73.0762162 7.6972973,72.7394595 8.12064865,72.7394595 L32.1843243,72.7683243 C32.6076757,72.7683243 32.9444324,73.1050811 32.9444324,73.5284324 L32.9444324,74.0095135 C32.9444324,74.4232432 32.6076757,74.7696216 32.1843243,74.7696216 Z" fill="url(#linearGradient-58)"></path>
                            <path d="M41.5942703,74.7792432 L36.9855135,74.7696216 C36.5621622,74.7696216 36.2254054,74.4328649 36.2254054,74.0095135 L36.2254054,73.5284324 C36.2254054,73.1050811 36.5621622,72.7683243 36.9855135,72.7683243 L41.5942703,72.7779459 C42.0176216,72.7779459 42.3543784,73.1147027 42.3543784,73.5380541 L42.3543784,74.0191351 C42.3543784,74.4424865 42.0176216,74.7792432 41.5942703,74.7792432 Z" fill="url(#linearGradient-59)"></path>
                            <path d="M41.6231351,40.8052973 L27.9315676,40.7860541 C27.5082162,40.7860541 27.1714595,40.4492973 27.1714595,40.0259459 L27.1714595,39.5448649 C27.1714595,39.1215135 27.5082162,38.7847568 27.9315676,38.7847568 L41.6231351,38.804 C42.0464865,38.804 42.3832432,39.1407568 42.3832432,39.5641081 L42.3832432,40.0451892 C42.3832432,40.4685405 42.0464865,40.8052973 41.6231351,40.8052973 Z" fill="url(#linearGradient-60)"></path>
                        </g>
                    </g>
                    <circle id="Oval" fill="#FF6600" cx="44.1728649" cy="154.484757" r="7.16810811"></circle>
                    <circle id="Oval" fill="#FFFFFF" opacity="0.3" cx="44.1728649" cy="154.484757" r="5.696"></circle>
                    <circle id="Oval" fill="#FFFFFF" opacity="0.5" cx="27.5948108" cy="154.484757" r="3.79091892"></circle>
                    <circle id="Oval" fill="#FFFFFF" opacity="0.5" cx="15.4042162" cy="154.484757" r="3.79091892"></circle>
                    <circle id="Oval" fill="#FFFFFF" opacity="0.25" cx="72.3834595" cy="154.484757" r="3.79091892"></circle>
                    <circle id="Oval" fill="#FFFFFF" opacity="0.25" cx="60.1928649" cy="154.484757" r="3.79091892"></circle>
                </g>
            </g>
        </g>
    </g>
</svg>