<?xml version="1.0" encoding="UTF-8"?>
<svg width="127px" height="36px" viewBox="0 0 127 36" version="1.1" xmlns="http://www.w3.org/2000/svg" xmlns:xlink="http://www.w3.org/1999/xlink">
    <!-- Generator: Sketch 58 (84663) - https://sketch.com -->
    <title>Group 33</title>
    <desc>Created with Sketch.</desc>
    <g id="Page-1" stroke="none" stroke-width="1" fill="none" fill-rule="evenodd">
        <g id="Desktop-HD-Copy-3" transform="translate(-175.000000, -495.000000)">
            <g id="Group-33" transform="translate(165.000000, 488.000000)">
                <path d="M146.137143,41.3427714 C146.137143,44.9102 143.245429,47.8033429 139.678571,47.8033429 L6.46,47.8033429 C2.89285714,47.8033429 0,44.9102 0,41.3427714 L0,6.4602 C0,2.89305714 2.89285714,0.0002 6.46,0.0002 L139.678571,0.0002 C143.245429,0.0002 146.137143,2.89305714 146.137143,6.4602 L146.137143,41.3427714 Z" id="Fill-1"></path>
                <path d="M12.7805714,33.5385714 L25.794,33.5385714 L25.794,14.0857143 L12.7805714,14.0857143 L12.7805714,33.5385714 Z M19.2871429,37.8182857 C18.3371429,37.8182857 17.5671429,37.048 17.5671429,36.0968571 C17.5671429,35.1468571 18.3371429,34.3768571 19.2871429,34.3768571 C20.2382857,34.3768571 21.0082857,35.1468571 21.0082857,36.0968571 C21.0082857,37.048 20.2382857,37.8182857 19.2871429,37.8182857 L19.2871429,37.8182857 Z M25.2388571,8.17542857 L13.3351429,8.17542857 C11.9091429,8.17542857 10.752,9.33142857 10.752,10.7585714 L10.752,37.1305714 C10.752,38.5582857 11.9091429,39.7148571 13.3351429,39.7148571 L25.2388571,39.7148571 C26.6662857,39.7148571 27.8234286,38.5582857 27.8234286,37.1305714 L27.8234286,10.7585714 C27.8234286,9.33142857 26.6662857,8.17542857 25.2388571,8.17542857 L25.2388571,8.17542857 Z" id="Fill-3" fill="#FEFEFE"></path>
                <path d="M39.8567429,12.1731143 L39.1644571,10.1674 C39.0193143,9.71225714 38.9158857,9.29911429 38.8124571,8.89625714 L38.7824571,8.89625714 C38.6893143,9.29911429 38.5753143,9.73397143 38.4407429,10.1568286 L37.7587429,12.1731143 L39.8567429,12.1731143 Z M37.5724571,12.8756857 L36.8490286,15.0668286 L35.9187429,15.0668286 L38.2856,8.0994 L39.3713143,8.0994 L41.7484571,15.0668286 L40.7870286,15.0668286 L40.0430286,12.8756857 L37.5724571,12.8756857 Z" id="Fill-5" fill="#FEFEFE"></path>
                <path d="M42.6791429,10.0637429 L43.6611429,12.8657429 C43.8268571,13.3303143 43.9611429,13.7443143 44.0648571,14.1571714 L44.0957143,14.1571714 C44.2094286,13.7443143 44.3534286,13.3303143 44.5191429,12.8657429 L45.4911429,10.0637429 L46.4422857,10.0637429 L44.4774286,15.0668857 L43.6091429,15.0668857 L41.7082857,10.0637429 L42.6791429,10.0637429 Z" id="Fill-6" fill="#FEFEFE"></path>
                <path d="M49.7392571,12.5135143 C48.7466857,12.4932286 47.6209714,12.6686571 47.6209714,13.6406571 C47.6209714,14.2398 48.0132571,14.5089429 48.4675429,14.5089429 C49.1298286,14.5089429 49.5529714,14.0949429 49.6981143,13.6718 C49.7289714,13.5783714 49.7392571,13.4749429 49.7392571,13.3818 L49.7392571,12.5135143 Z M50.6281143,13.8683714 C50.6281143,14.3020857 50.6492571,14.7249429 50.7012571,15.0669429 L49.8844,15.0669429 L49.8012571,14.4363714 L49.7706857,14.4363714 C49.5024,14.8298 48.9538286,15.1806571 48.2406857,15.1806571 C47.2275429,15.1806571 46.7112571,14.4678 46.7112571,13.7443714 C46.7112571,12.5340857 47.7864,11.8729429 49.7186857,11.8832286 L49.7186857,11.7798 C49.7186857,11.3666571 49.6046857,10.6112286 48.5824,10.6229429 C48.1061143,10.6229429 47.6209714,10.7563714 47.2689714,10.9943714 L47.0615429,10.3835143 C47.4758286,10.1258 48.0855429,9.95008571 48.7158286,9.95008571 C50.2569714,9.95008571 50.6281143,10.9943714 50.6281143,11.9972286 L50.6281143,13.8683714 Z" id="Fill-7" fill="#FEFEFE"></path>
                <path d="M52.034,15.0668571 L52.9437143,15.0668571 L52.9437143,10.0637143 L52.034,10.0637143 L52.034,15.0668571 Z M52.4671429,9.14371429 C52.1268571,9.14371429 51.8991429,8.87571429 51.8991429,8.55485714 C51.8991429,8.23428571 52.1371429,7.97628571 52.4882857,7.97628571 C52.8402857,7.97628571 53.0677143,8.23428571 53.0677143,8.55485714 C53.0677143,8.87571429 52.8402857,9.14371429 52.4788571,9.14371429 L52.4671429,9.14371429 Z" id="Fill-8" fill="#FEFEFE"></path>
                <polygon id="Fill-9" fill="#FEFEFE" points="54.4005714 15.0668571 55.3102857 15.0668571 55.3102857 7.728 54.4005714 7.728"></polygon>
                <path d="M59.4036,12.5135143 C58.4110286,12.4932286 57.2838857,12.6686571 57.2838857,13.6406571 C57.2838857,14.2398 57.6770286,14.5089429 58.1318857,14.5089429 C58.7938857,14.5089429 59.2173143,14.0949429 59.3621714,13.6718 C59.3936,13.5783714 59.4036,13.4749429 59.4036,13.3818 L59.4036,12.5135143 Z M60.2924571,13.8683714 C60.2924571,14.3020857 60.3136,14.7249429 60.3650286,15.0669429 L59.5473143,15.0669429 L59.4650286,14.4363714 L59.4344571,14.4363714 C59.1656,14.8298 58.6178857,15.1806571 57.9038857,15.1806571 C56.8918857,15.1806571 56.3744571,14.4678 56.3744571,13.7443714 C56.3744571,12.5340857 57.4498857,11.8729429 59.3833143,11.8832286 L59.3833143,11.7798 C59.3833143,11.3666571 59.2690286,10.6112286 58.2453143,10.6229429 C57.7704571,10.6229429 57.2838857,10.7563714 56.9336,10.9943714 L56.7258857,10.3835143 C57.1396,10.1258 57.7501714,9.95008571 58.3801714,9.95008571 C59.9201714,9.95008571 60.2924571,10.9943714 60.2924571,11.9972286 L60.2924571,13.8683714 Z" id="Fill-10" fill="#FEFEFE"></path>
                <path d="M62.607,13.0620571 C62.607,13.1749143 62.6175714,13.2886286 62.639,13.3923429 C62.8138571,14.0223429 63.3521429,14.4572 64.003,14.4572 C64.9644286,14.4572 65.5221429,13.6820571 65.5221429,12.5340571 C65.5221429,11.5212 65.0055714,10.6640571 64.0341429,10.6640571 C63.4141429,10.6640571 62.8341429,11.0977714 62.6587143,11.7797714 C62.6284286,11.8937714 62.607,12.0180571 62.607,12.1626286 L62.607,13.0620571 Z M61.697,7.72805714 L62.607,7.72805714 L62.607,10.8597714 L62.6284286,10.8597714 C62.9484286,10.3020571 63.5267143,9.95005714 64.333,9.95005714 C65.5738571,9.95005714 66.4421429,10.9840571 66.4421429,12.4932 C66.4421429,14.2917714 65.305,15.1806286 64.189,15.1806286 C63.4658571,15.1806286 62.8964286,14.9012 62.515,14.2397714 L62.493,14.2397714 L62.4412857,15.0669143 L61.657,15.0669143 C61.6878571,14.7249143 61.697,14.2194857 61.697,13.7752 L61.697,7.72805714 Z" id="Fill-11" fill="#FEFEFE"></path>
                <polygon id="Fill-12" fill="#FEFEFE" points="67.5271429 15.0668571 68.4365714 15.0668571 68.4365714 7.728 67.5271429 7.728"></polygon>
                <path d="M73.0669714,12.0696 C73.0769714,11.5007429 72.8286857,10.5904571 71.8155429,10.5904571 C70.8866857,10.5904571 70.4929714,11.4381714 70.4204,12.0696 L73.0669714,12.0696 Z M70.4104,12.7204571 C70.4306857,13.9510286 71.2058286,14.4570286 72.1161143,14.4570286 C72.7681143,14.4570286 73.1704,14.3433143 73.5015429,14.2087429 L73.6661143,14.8493143 C73.3466857,14.9941714 72.7875429,15.1704571 71.9918286,15.1704571 C70.4624,15.1704571 69.5318286,14.1470286 69.5318286,12.6481714 C69.5318286,11.1287429 70.4306857,9.93988571 71.8895429,9.93988571 C73.5209714,9.93988571 73.9458286,11.3773143 73.9458286,12.2961714 C73.9458286,12.4824571 73.9352571,12.6273143 73.9144,12.7307429 L70.4104,12.7204571 Z" id="Fill-13" fill="#FEFEFE"></path>
                <path d="M79.2269714,14.4987143 C80.0952571,14.4987143 80.7458286,13.6821429 80.7458286,12.5447143 C80.7458286,11.697 80.3229714,10.6321429 79.2475429,10.6321429 C78.1824,10.6321429 77.7181143,11.6244286 77.7181143,12.5758571 C77.7181143,13.6715714 78.3381143,14.4987143 79.2169714,14.4987143 L79.2269714,14.4987143 Z M79.1964,15.1807143 C77.8524,15.1807143 76.7978286,14.1881429 76.7978286,12.6067143 C76.7978286,10.9321429 77.9044,9.95014286 79.2789714,9.95014286 C80.7152571,9.95014286 81.6866857,10.9941429 81.6866857,12.5135714 C81.6866857,14.3744286 80.3944,15.1807143 79.2064,15.1807143 L79.1964,15.1807143 Z" id="Fill-14" fill="#FEFEFE"></path>
                <path d="M82.7833429,11.4186571 C82.7833429,10.8906571 82.7716286,10.4778 82.7404857,10.0638 L83.5473429,10.0638 L83.5987714,10.8800857 L83.6193429,10.8800857 C83.8676286,10.4158 84.4462,9.95008571 85.2727714,9.95008571 C85.9653429,9.95008571 87.0422,10.3640857 87.0422,12.0798 L87.0422,15.0669429 L86.1310571,15.0669429 L86.1310571,12.1823714 C86.1310571,11.3772286 85.8319143,10.6943714 84.9730571,10.6943714 C84.3839143,10.6943714 83.9196286,11.1183714 83.7536286,11.6246571 C83.7124857,11.7383714 83.6919143,11.9040857 83.6919143,12.0489429 L83.6919143,15.0669429 L82.7833429,15.0669429 L82.7833429,11.4186571 Z" id="Fill-15" fill="#FEFEFE"></path>
                <path d="M91.7024286,8.86537143 L91.7024286,10.0636571 L93.0038571,10.0636571 L93.0038571,10.7562286 L91.7024286,10.7562286 L91.7024286,13.4545143 C91.7024286,14.0742286 91.8781429,14.4262286 92.3838571,14.4262286 C92.6327143,14.4262286 92.7778571,14.4059429 92.9121429,14.3639429 L92.9524286,15.0565143 C92.7778571,15.1185143 92.4981429,15.1808 92.1472857,15.1808 C91.7218571,15.1808 91.381,15.0359429 91.1638571,14.7990857 C90.9167143,14.5190857 90.813,14.0742286 90.813,13.4853714 L90.813,10.7562286 L90.0384286,10.7562286 L90.0384286,10.0636571 L90.813,10.0636571 L90.813,9.14394286 L91.7024286,8.86537143 Z" id="Fill-16" fill="#FEFEFE"></path>
                <path d="M93.9758571,7.72808571 L94.8855714,7.72808571 L94.8855714,10.8495143 L94.9055714,10.8495143 C95.0501429,10.5906571 95.2778571,10.3538 95.5572857,10.2089429 C95.8264286,10.0432286 96.1461429,9.95008571 96.4881429,9.95008571 C97.1595714,9.95008571 98.2335714,10.3640857 98.2335714,12.0903714 L98.2335714,15.0669429 L97.3252857,15.0669429 L97.3252857,12.1938 C97.3252857,11.3772286 97.025,10.7043714 96.1667143,10.7043714 C95.5778571,10.7043714 95.1232857,11.1183714 94.9478571,11.6143714 C94.8961429,11.7383714 94.8855714,11.8729429 94.8855714,12.0489429 L94.8855714,15.0669429 L93.9758571,15.0669429 L93.9758571,7.72808571 Z" id="Fill-17" fill="#FEFEFE"></path>
                <path d="M102.834114,12.0696 C102.842971,11.5007429 102.595829,10.5904571 101.582971,10.5904571 C100.653257,10.5904571 100.258686,11.4381714 100.187257,12.0696 L102.834114,12.0696 Z M100.177257,12.7204571 C100.197829,13.9510286 100.972971,14.4570286 101.882686,14.4570286 C102.533829,14.4570286 102.937257,14.3433143 103.268686,14.2087429 L103.433543,14.8493143 C103.112686,14.9941714 102.5544,15.1704571 101.758114,15.1704571 C100.229257,15.1704571 99.2984,14.1470286 99.2984,12.6481714 C99.2984,11.1287429 100.197829,9.93988571 101.655543,9.93988571 C103.2884,9.93988571 103.712971,11.3773143 103.712971,12.2961714 C103.712971,12.4824571 103.7024,12.6273143 103.681829,12.7307429 L100.177257,12.7204571 Z" id="Fill-18" fill="#FEFEFE"></path>
                <path d="M106.926286,15.0668571 L107.836,15.0668571 L107.836,10.0637143 L106.926286,10.0637143 L106.926286,15.0668571 Z M107.361429,9.14371429 C107.019429,9.14371429 106.791714,8.87571429 106.791714,8.55485714 C106.791714,8.23428571 107.029429,7.97628571 107.381429,7.97628571 C107.732571,7.97628571 107.960286,8.23428571 107.960286,8.55485714 C107.960286,8.87571429 107.732571,9.14371429 107.369714,9.14371429 L107.361429,9.14371429 Z" id="Fill-19" fill="#FEFEFE"></path>
                <path d="M110.223629,11.5416857 C110.419629,11.5936857 110.679057,11.6142571 110.967914,11.6142571 C112.063343,11.6142571 112.714771,11.0771143 112.714771,10.1362571 C112.714771,9.20597143 112.063343,8.76197143 111.071343,8.76197143 C110.679057,8.76197143 110.379343,8.80254286 110.223629,8.83425714 L110.223629,11.5416857 Z M109.3242,8.19254286 C109.757629,8.11082857 110.326771,8.04797143 111.050771,8.04797143 C111.939057,8.04797143 112.590771,8.25454286 113.003343,8.62768571 C113.385914,8.95768571 113.6242,9.46454286 113.6242,10.0845429 C113.6242,10.7148286 113.437914,11.2116857 113.075629,11.5725429 C112.600771,12.0799714 111.825057,12.3376857 110.946771,12.3376857 C110.679057,12.3376857 110.430771,12.3271143 110.223629,12.2765429 L110.223629,15.0668286 L109.3242,15.0668286 L109.3242,8.19254286 Z" id="Fill-20" fill="#FEFEFE"></path>
                <path d="M114.689029,7.72808571 L115.599314,7.72808571 L115.599314,10.8495143 L115.619886,10.8495143 C115.764457,10.5906571 115.992171,10.3538 116.270457,10.2089429 C116.540171,10.0432286 116.861029,9.95008571 117.201314,9.95008571 C117.873314,9.95008571 118.947886,10.3640857 118.947886,12.0903714 L118.947886,15.0669429 L118.039029,15.0669429 L118.039029,12.1938 C118.039029,11.3772286 117.738743,10.7043714 116.880457,10.7043714 C116.292171,10.7043714 115.8376,11.1183714 115.661029,11.6143714 C115.609314,11.7383714 115.599314,11.8729429 115.599314,12.0489429 L115.599314,15.0669429 L114.689029,15.0669429 L114.689029,7.72808571 Z" id="Fill-21" fill="#FEFEFE"></path>
                <path d="M122.442371,14.4987143 C123.308943,14.4987143 123.961229,13.6821429 123.961229,12.5447143 C123.961229,11.697 123.5378,10.6321429 122.4618,10.6321429 C121.3978,10.6321429 120.9318,11.6244286 120.9318,12.5758571 C120.9318,13.6715714 121.5518,14.4987143 122.430657,14.4987143 L122.442371,14.4987143 Z M122.410657,15.1807143 C121.066943,15.1807143 120.012086,14.1881429 120.012086,12.6067143 C120.012086,10.9321429 121.118657,9.95014286 122.4938,9.95014286 C123.930086,9.95014286 124.900943,10.9941429 124.900943,12.5135714 C124.900943,14.3744286 123.609229,15.1807143 122.421229,15.1807143 L122.410657,15.1807143 Z" id="Fill-22" fill="#FEFEFE"></path>
                <path d="M125.997057,11.4186571 C125.997057,10.8906571 125.986486,10.4778 125.955629,10.0638 L126.7622,10.0638 L126.813343,10.8800857 L126.834771,10.8800857 C127.083057,10.4158 127.661629,9.95008571 128.4882,9.95008571 C129.180771,9.95008571 130.254771,10.3640857 130.254771,12.0798 L130.254771,15.0669429 L129.346486,15.0669429 L129.346486,12.1823714 C129.346486,11.3772286 129.0462,10.6943714 128.187914,10.6943714 C127.599057,10.6943714 127.1342,11.1183714 126.969057,11.6246571 C126.927343,11.7383714 126.905629,11.9040857 126.905629,12.0489429 L126.905629,15.0669429 L125.997057,15.0669429 L125.997057,11.4186571 Z" id="Fill-23" fill="#FEFEFE"></path>
                <path d="M134.855343,12.0696 C134.865343,11.5007429 134.617057,10.5904571 133.6042,10.5904571 C132.673343,10.5904571 132.281057,11.4381714 132.208486,12.0696 L134.855343,12.0696 Z M132.198486,12.7204571 C132.219057,13.9510286 132.994771,14.4570286 133.904486,14.4570286 C134.555057,14.4570286 134.958486,14.3433143 135.289057,14.2087429 L135.454771,14.8493143 C135.133343,14.9941714 134.575629,15.1704571 133.779914,15.1704571 C132.250486,15.1704571 131.319629,14.1470286 131.319629,12.6481714 C131.319629,11.1287429 132.219057,9.93988571 133.6762,9.93988571 C135.309629,9.93988571 135.733629,11.3773143 135.733629,12.2961714 C135.733629,12.4824571 135.723629,12.6273143 135.703057,12.7307429 L132.198486,12.7204571 Z" id="Fill-24" fill="#FEFEFE"></path>
                <path d="M43.3094286,22.7523429 C43.5162857,23.5574857 43.7394286,24.3937714 44.0265714,25.2972 L45.6782857,30.0806286 L40.9774286,30.0806286 L42.6065714,25.2663429 C42.8545714,24.4854857 43.0897143,23.6423429 43.3094286,22.7523429 L43.3094286,22.7523429 Z M41.8551429,19.7860571 L35.7262857,37.8272 L38.5328571,37.8272 L40.3628571,32.2874857 L46.2971429,32.2874857 L48.1785714,37.8272 L51.0628571,37.8272 L44.9074286,19.7860571 L41.8551429,19.7860571 Z" id="Fill-25" fill="#FEFEFE"></path>
                <path d="M58.3138857,26.7225143 C60.7470286,26.7225143 61.8361714,28.9768 61.8361714,31.2099429 C61.8361714,34.0910857 60.4467429,35.8808 58.2104571,35.8808 C56.6836,35.8808 55.3624571,34.8416571 54.9947429,33.3479429 C54.9318857,33.1162286 54.8973143,32.8099429 54.8973143,32.4642286 L54.8973143,30.2690857 C54.8973143,30.0705143 54.9418857,29.8293714 54.9844571,29.5956571 C54.9978857,29.5208 55.0124571,29.4462286 55.0236,29.3736571 C55.4307429,27.8119429 56.7818857,26.7225143 58.3138857,26.7225143 M58.9938857,24.4630857 C57.1350286,24.4630857 55.6456,25.1805143 54.6544571,26.5445143 L54.5458857,24.7499429 L52.0490286,24.7499429 L52.0638857,24.9793714 C52.1370286,26.0973714 52.1684571,27.3276571 52.1684571,29.0945143 L52.1684571,43.0002286 L54.8973143,43.0002286 L54.8973143,36.5108 C55.7441714,37.5242286 57.0967429,38.1139429 58.6287429,38.1139429 C60.2244571,38.1139429 61.6938857,37.4890857 62.7650286,36.3556571 C63.9604571,35.0919429 64.5916,33.2756571 64.5916,31.1053714 C64.5916,29.1876571 64.0436,27.5296571 63.0053143,26.3116571 C61.9887429,25.1193714 60.5647429,24.4630857 58.9938857,24.4630857" id="Fill-26" fill="#FEFEFE"></path>
                <path d="M72.3705429,26.7225143 C74.8028286,26.7225143 75.8916857,28.9768 75.8916857,31.2099429 C75.8916857,34.0910857 74.5014,35.8808 72.2659714,35.8808 C70.7396857,35.8808 69.4176857,34.8416571 69.0502571,33.3479429 C68.9871143,33.1162286 68.9542571,32.8099429 68.9542571,32.4642286 L68.9542571,30.2690857 C68.9542571,30.0693714 68.9974,29.8270857 69.0414,29.5933714 C69.0548286,29.5196571 69.0679714,29.4462286 69.0805429,29.3736571 C69.4862571,27.8119429 70.8379714,26.7225143 72.3705429,26.7225143 M73.0496857,24.4630857 C71.1908286,24.4630857 69.7016857,25.1805143 68.7096857,26.5445143 L68.6014,24.7499429 L66.1051143,24.7499429 L66.1194,24.9793714 C66.1928286,26.0982286 66.2239714,27.3276571 66.2239714,29.0945143 L66.2239714,43.0002286 L68.9542571,43.0002286 L68.9542571,36.5108 C69.8005429,37.5242286 71.1522571,38.1139429 72.6839714,38.1139429 C74.2799714,38.1139429 75.7494,37.4890857 76.8219714,36.3556571 C78.0159714,35.0919429 78.6471143,33.2756571 78.6471143,31.1053714 C78.6471143,29.1876571 78.0985429,27.5296571 77.0608286,26.3116571 C76.0445429,25.1193714 74.6202571,24.4630857 73.0496857,24.4630857" id="Fill-27" fill="#FEFEFE"></path>
                <path d="M90.6583429,27.4303714 C88.1109143,26.4438 87.2946286,25.6678 87.2946286,24.2343714 C87.2946286,23.0275143 88.2537714,21.8103714 90.3972,21.8103714 C92.1654857,21.8103714 93.2972,22.4252286 93.6014857,22.6146571 L93.8329143,22.7575143 L94.6032,20.4795143 L94.4506286,20.3903714 C93.9937714,20.1223714 92.6906286,19.4983714 90.4757714,19.4983714 C86.9949143,19.4983714 84.5640571,21.5538 84.5640571,24.4952286 C84.5640571,26.8672286 86.0863429,28.5252286 89.3552,29.7132286 C91.6712,30.5792286 92.5332,31.4663714 92.5332,32.9866571 C92.5332,34.7078 91.2034857,35.7758 89.0640571,35.7758 C87.6706286,35.7758 86.2363429,35.3692286 85.1297714,34.6603714 L84.8932,34.5080857 L84.1606286,36.8389429 L84.2952,36.9280857 C85.3252,37.6160857 87.2649143,38.1140857 88.9077714,38.1140857 C93.5992,38.1140857 95.2626286,35.2535143 95.2626286,32.8038 C95.2626286,30.2786571 93.9289143,28.7209429 90.6583429,27.4303714" id="Fill-28" fill="#FEFEFE"></path>
                <path d="M100.1762,21.6418571 L97.4987714,22.4821429 L97.4987714,24.7498571 L95.5393429,24.7498571 L95.5393429,26.9315714 L97.4987714,26.9315714 L97.4987714,33.6138571 C97.4987714,35.2295714 97.8079143,36.3618571 98.4442,37.077 C99.0539143,37.7455714 99.9919143,38.1138571 101.084771,38.1138571 C102.117057,38.1138571 102.849629,37.9101429 103.194486,37.7881429 L103.347629,37.7338571 L103.217057,35.5484286 L102.955343,35.629 C102.610486,35.7347143 102.255343,35.7758571 101.685629,35.7758571 C100.627629,35.7758571 100.1762,35.1061429 100.1762,33.5352857 L100.1762,26.9315714 L103.468486,26.9315714 L103.468486,24.7498571 L100.1762,24.7498571 L100.1762,21.6418571 Z" id="Fill-29" fill="#FEFEFE"></path>
                <path d="M110.154429,26.6178571 C112.610429,26.6178571 113.727571,29.0115714 113.727571,31.2367143 C113.727571,33.973 112.202429,35.959 110.102429,35.959 L110.076429,35.959 C108.005857,35.959 106.503286,34.0061429 106.503286,31.3152857 C106.503286,28.9775714 107.632143,26.6178571 110.154429,26.6178571 M110.233,24.463 C106.413857,24.463 103.747,27.3132857 103.747,31.393 C103.747,35.3504286 106.327857,38.1138571 110.023857,38.1138571 L110.049571,38.1138571 C113.173857,38.1138571 116.535571,35.9372857 116.535571,31.1581429 C116.535571,29.2144286 115.934429,27.5452857 114.796143,26.3298571 C113.651,25.109 112.073,24.463 110.233,24.463" id="Fill-30" fill="#FEFEFE"></path>
                <path d="M124.896057,24.5894 L124.732629,24.5476857 C124.492057,24.4879714 124.295486,24.4631143 124.053486,24.4631143 C122.625486,24.4631143 121.344057,25.3036857 120.630914,26.6602571 L120.550629,24.7499714 L118.101486,24.7499714 L118.116914,24.9794 C118.189486,26.0599714 118.220343,27.2731143 118.220343,28.9102571 L118.194629,37.8271143 L120.924629,37.8271143 L120.924629,30.8702571 C120.924629,30.4916857 120.950629,30.1334 120.9992,29.8125429 C121.307771,28.1414 122.4352,27.0614 123.871486,27.0614 C124.1512,27.0614 124.370914,27.0842571 124.604343,27.1074 L124.896057,27.1374 L124.896057,24.5894 Z" id="Fill-31" fill="#FEFEFE"></path>
                <path d="M130.850857,26.5135143 C131.682286,26.5135143 132.356857,26.7706571 132.854857,27.2780857 C133.64,28.0772286 133.777714,29.2540857 133.794571,29.8186571 L127.570286,29.8186571 C127.822857,28.2426571 128.809143,26.5135143 130.850857,26.5135143 M131.033429,24.4369429 C127.399429,24.4369429 124.860857,27.3403714 124.860857,31.4972286 C124.860857,35.5006571 127.386,38.0880857 131.294,38.0880857 C133.349143,38.0880857 134.778857,37.6369429 135.616,37.2589429 L135.78,37.1849429 L135.256,35.1509429 L135.027714,35.2429429 C134.284,35.5452286 133.295714,35.8543714 131.607429,35.8543714 C130.421714,35.8543714 127.687429,35.4632286 127.519429,31.8969429 L136.330286,31.9232286 L136.365429,31.7489429 C136.421143,31.4718 136.448,31.0980857 136.448,30.6095143 C136.448,27.7623714 135.03,24.4369429 131.033429,24.4369429" id="Fill-32" fill="#FEFEFE"></path>
            </g>
        </g>
    </g>
</svg>