<svg xmlns="http://www.w3.org/2000/svg" viewBox="0 0 223.27 42.91"><defs><style>.cls-1,.cls-2{fill:#fff;}.cls-2{fill-rule:evenodd;}</style></defs><title>Recurso 5</title><g id="Capa_2" data-name="Capa 2"><g id="Capa_1-2" data-name="Capa 1"><path class="cls-1" d="M53.13,33.11a8.6,8.6,0,0,1-3-1.5,1.48,1.48,0,0,1-.62-1.29,1.53,1.53,0,0,1,.33-1,1,1,0,0,1,.8-.42,2.2,2.2,0,0,1,1.1.38,8.25,8.25,0,0,0,2.43,1.21,9.82,9.82,0,0,0,2.8.38,5.51,5.51,0,0,0,3-.69,2.26,2.26,0,0,0,1-2,1.72,1.72,0,0,0-1-1.57,12.94,12.94,0,0,0-3.28-1.07,20,20,0,0,1-3.85-1.18,5.51,5.51,0,0,1-2.24-1.73A4.48,4.48,0,0,1,49.94,20a5,5,0,0,1,.94-3,6.29,6.29,0,0,1,2.63-2.06,10.41,10.41,0,0,1,10.06,1.31,2.13,2.13,0,0,1,.5.58,1.67,1.67,0,0,1-.19,1.7,1,1,0,0,1-.79.41,1.35,1.35,0,0,1-.5-.08,3.89,3.89,0,0,1-.61-.29,9.14,9.14,0,0,0-2.14-1.2A7.27,7.27,0,0,0,57.29,17a4.93,4.93,0,0,0-2.89.74,2.37,2.37,0,0,0-1.07,2.06,1.9,1.9,0,0,0,1,1.7,11,11,0,0,0,3.2,1.1,21.77,21.77,0,0,1,3.9,1.2,5.84,5.84,0,0,1,2.29,1.68A4.07,4.07,0,0,1,64.46,28,4.87,4.87,0,0,1,63.53,31a6.06,6.06,0,0,1-2.61,2,10,10,0,0,1-3.87.71,13.56,13.56,0,0,1-3.92-.55"/><path class="cls-1" d="M79.71,25.34V32a1.6,1.6,0,0,1-.44,1.19,1.69,1.69,0,0,1-1.23.43,1.73,1.73,0,0,1-1.24-.43A1.54,1.54,0,0,1,76.34,32V25.34a3.09,3.09,0,0,0-.58-2.09,2.29,2.29,0,0,0-1.82-.66,3.08,3.08,0,0,0-2.33.91A3.41,3.41,0,0,0,70.74,26v6a1.57,1.57,0,0,1-.46,1.19,1.73,1.73,0,0,1-1.24.43,1.69,1.69,0,0,1-1.23-.43A1.6,1.6,0,0,1,67.37,32V15.85a1.47,1.47,0,0,1,.47-1.13,1.72,1.72,0,0,1,1.23-.43,1.77,1.77,0,0,1,1.21.4,1.42,1.42,0,0,1,.46,1.11v6.27a4.39,4.39,0,0,1,1.79-1.6,5.63,5.63,0,0,1,2.55-.55c3.08,0,4.63,1.8,4.63,5.42"/><path class="cls-1" d="M83.35,17.08a1.7,1.7,0,0,1-.54-1.31,1.64,1.64,0,0,1,.54-1.29,2.38,2.38,0,0,1,2.89,0,1.62,1.62,0,0,1,.56,1.29,1.7,1.7,0,0,1-.54,1.31,2.09,2.09,0,0,1-1.46.5,2.06,2.06,0,0,1-1.45-.5m.25,16.08a1.54,1.54,0,0,1-.47-1.2V21.56a1.48,1.48,0,0,1,.47-1.18A1.8,1.8,0,0,1,84.8,20a1.85,1.85,0,0,1,1.22.41,1.45,1.45,0,0,1,.48,1.18V32a1.51,1.51,0,0,1-.48,1.2,1.81,1.81,0,0,1-1.22.42,1.76,1.76,0,0,1-1.2-.42"/><path class="cls-1" d="M101.16,21.27a6.1,6.1,0,0,1,1.16,4.07V32a1.57,1.57,0,0,1-.45,1.19,2,2,0,0,1-2.46,0A1.54,1.54,0,0,1,99,32V25.52a3.5,3.5,0,0,0-.58-2.23,2.22,2.22,0,0,0-1.82-.7,3.07,3.07,0,0,0-2.33.91A3.42,3.42,0,0,0,93.34,26v6a1.57,1.57,0,0,1-.45,1.19,1.73,1.73,0,0,1-1.24.43,1.69,1.69,0,0,1-1.23-.43A1.56,1.56,0,0,1,90,32V21.54a1.48,1.48,0,0,1,.45-1.13A1.74,1.74,0,0,1,91.67,20a1.61,1.61,0,0,1,1.15.42,1.45,1.45,0,0,1,.44,1.09v.73a4.55,4.55,0,0,1,1.81-1.7,5.49,5.49,0,0,1,2.56-.59,4.4,4.4,0,0,1,3.53,1.35"/><path class="cls-1" d="M118.1,20.4a1.51,1.51,0,0,1,.46,1.16V32.21a6,6,0,0,1-1.72,4.68,7.27,7.27,0,0,1-5.09,1.59,10,10,0,0,1-4.91-1.1,1.69,1.69,0,0,1-1-1.43,1.45,1.45,0,0,1,.29-.94.88.88,0,0,1,.74-.35,1.87,1.87,0,0,1,.59.12c.23.08.48.17.73.28a14.92,14.92,0,0,0,1.73.62,6.8,6.8,0,0,0,1.77.22q3.53,0,3.53-3.45V30.72a4.05,4.05,0,0,1-1.72,1.71,5.36,5.36,0,0,1-2.59.61,5.57,5.57,0,0,1-5.15-3.12,7.5,7.5,0,0,1-.75-3.43,7.56,7.56,0,0,1,.74-3.43,5.48,5.48,0,0,1,2.09-2.32,5.76,5.76,0,0,1,3.07-.82,5.36,5.36,0,0,1,2.59.61,4.05,4.05,0,0,1,1.72,1.71v-.7a1.48,1.48,0,0,1,.46-1.14,1.92,1.92,0,0,1,2.42,0m-3.78,9a4.29,4.29,0,0,0,.9-2.89,4.33,4.33,0,0,0-.9-2.91,3.54,3.54,0,0,0-5,0,4.28,4.28,0,0,0-.91,2.91,4.24,4.24,0,0,0,.91,2.89,3.54,3.54,0,0,0,5,0"/><path class="cls-1" d="M132.29,33.11a8.74,8.74,0,0,1-3-1.5,1.51,1.51,0,0,1-.62-1.29,1.54,1.54,0,0,1,.34-1,1,1,0,0,1,.8-.42,2.2,2.2,0,0,1,1.1.38,8.13,8.13,0,0,0,2.43,1.21,9.77,9.77,0,0,0,2.8.38,5.47,5.47,0,0,0,3-.69,2.24,2.24,0,0,0,1.06-2,1.71,1.71,0,0,0-1-1.57,12.69,12.69,0,0,0-3.27-1.07,19.76,19.76,0,0,1-3.85-1.18,5.44,5.44,0,0,1-2.24-1.73A4.48,4.48,0,0,1,129.1,20a5,5,0,0,1,.94-3,6.23,6.23,0,0,1,2.63-2.06,10.41,10.41,0,0,1,10.06,1.31,2.13,2.13,0,0,1,.5.58,1.52,1.52,0,0,1,.15.71,1.56,1.56,0,0,1-.34,1,1,1,0,0,1-.8.41,1.29,1.29,0,0,1-.49-.08,3.51,3.51,0,0,1-.61-.29,9.14,9.14,0,0,0-2.14-1.2,7.27,7.27,0,0,0-2.55-.39,4.93,4.93,0,0,0-2.89.74,2.37,2.37,0,0,0-1.07,2.06,1.91,1.91,0,0,0,.94,1.7,11.23,11.23,0,0,0,3.21,1.1,21.38,21.38,0,0,1,3.89,1.2,5.77,5.77,0,0,1,2.29,1.68,4.07,4.07,0,0,1,.8,2.56,4.87,4.87,0,0,1-.93,2.95,6.06,6.06,0,0,1-2.61,2,10,10,0,0,1-3.87.71,13.56,13.56,0,0,1-3.92-.55"/><path class="cls-1" d="M158.87,25.34V32a1.57,1.57,0,0,1-.45,1.19,1.65,1.65,0,0,1-1.22.43,1.72,1.72,0,0,1-1.24-.43A1.54,1.54,0,0,1,155.5,32V25.34a3.14,3.14,0,0,0-.58-2.09,2.3,2.3,0,0,0-1.82-.66,3.07,3.07,0,0,0-2.33.91,3.42,3.42,0,0,0-.88,2.45v6a1.57,1.57,0,0,1-.45,1.19,1.73,1.73,0,0,1-1.24.43,1.69,1.69,0,0,1-1.23-.43,1.6,1.6,0,0,1-.44-1.19V15.85a1.44,1.44,0,0,1,.47-1.13,1.72,1.72,0,0,1,1.22-.43,1.78,1.78,0,0,1,1.22.4,1.42,1.42,0,0,1,.45,1.11v6.27a4.42,4.42,0,0,1,1.8-1.6,5.61,5.61,0,0,1,2.54-.55c3.09,0,4.64,1.8,4.64,5.42"/><path class="cls-1" d="M162.5,17.08a1.72,1.72,0,0,1-.53-1.31,1.67,1.67,0,0,1,.53-1.29,2.39,2.39,0,0,1,2.9,0,1.62,1.62,0,0,1,.55,1.29,1.7,1.7,0,0,1-.54,1.31,2.06,2.06,0,0,1-1.45.5,2.09,2.09,0,0,1-1.46-.5m.26,16.08a1.54,1.54,0,0,1-.47-1.2V21.56a1.48,1.48,0,0,1,.47-1.18A1.76,1.76,0,0,1,164,20a1.83,1.83,0,0,1,1.21.41,1.46,1.46,0,0,1,.49,1.18V32a1.52,1.52,0,0,1-.49,1.2,1.78,1.78,0,0,1-1.21.42,1.72,1.72,0,0,1-1.2-.42"/><path class="cls-1" d="M180.31,21.27a6,6,0,0,1,1.16,4.07V32a1.6,1.6,0,0,1-.44,1.19,1.69,1.69,0,0,1-1.23.43,1.73,1.73,0,0,1-1.24-.43A1.57,1.57,0,0,1,178.1,32V25.52a3.44,3.44,0,0,0-.58-2.23,2.2,2.2,0,0,0-1.81-.7,3.07,3.07,0,0,0-2.33.91A3.38,3.38,0,0,0,172.5,26v6a1.54,1.54,0,0,1-.46,1.19,1.72,1.72,0,0,1-1.24.43,1.65,1.65,0,0,1-1.22-.43,1.57,1.57,0,0,1-.45-1.19V21.54a1.48,1.48,0,0,1,.46-1.13,1.74,1.74,0,0,1,1.24-.44,1.63,1.63,0,0,1,1.15.42,1.45,1.45,0,0,1,.44,1.09v.73a4.59,4.59,0,0,1,1.8-1.7,5.52,5.52,0,0,1,2.56-.59,4.4,4.4,0,0,1,3.53,1.35"/><path class="cls-1" d="M197.26,20.4a1.51,1.51,0,0,1,.46,1.16V32.21A6.05,6.05,0,0,1,196,36.89a7.26,7.26,0,0,1-5.09,1.59,10,10,0,0,1-4.9-1.1A1.69,1.69,0,0,1,185,36a1.44,1.44,0,0,1,.28-.94.9.9,0,0,1,.75-.35,1.92,1.92,0,0,1,.59.12c.23.08.47.17.73.28a14.29,14.29,0,0,0,1.73.62,6.69,6.69,0,0,0,1.77.22q3.53,0,3.53-3.45V30.72a4.08,4.08,0,0,1-1.73,1.71,5.29,5.29,0,0,1-2.58.61,5.57,5.57,0,0,1-5.15-3.12,7.5,7.5,0,0,1-.76-3.43,7.56,7.56,0,0,1,.75-3.43A5.48,5.48,0,0,1,187,20.74a5.71,5.71,0,0,1,3.07-.82,5.29,5.29,0,0,1,2.58.61,4.08,4.08,0,0,1,1.73,1.71v-.7a1.51,1.51,0,0,1,.45-1.14,1.93,1.93,0,0,1,2.43,0m-3.79,9a4.24,4.24,0,0,0,.91-2.89,4.28,4.28,0,0,0-.91-2.91,3.53,3.53,0,0,0-5,0,4.28,4.28,0,0,0-.92,2.91,4.25,4.25,0,0,0,.92,2.89,3.53,3.53,0,0,0,5,0"/><path class="cls-2" d="M31.44,35.63H9.35a5.23,5.23,0,0,1-3.72-1.54A5.17,5.17,0,0,1,4.1,30.37l.06-14.88a2.54,2.54,0,0,0-.49-1.79,3.1,3.1,0,0,0-2.06-.54,1.61,1.61,0,1,1,0-3.22A5.8,5.8,0,0,1,6,11.42,5.43,5.43,0,0,1,7.39,15.5L7.33,30.38a2,2,0,0,0,2,2H31.44a1.61,1.61,0,1,1,0,3.22"/><path class="cls-2" d="M28.18,40.93a2,2,0,1,1-2-2,2,2,0,0,1,2,2"/><path class="cls-2" d="M15.78,40.93a2,2,0,1,1-2-2,2,2,0,0,1,2,2"/><path class="cls-2" d="M27.28,29.09h-15a1.61,1.61,0,0,1,0-3.22h15a.9.9,0,0,0,.9-.9v-3a.89.89,0,0,0-.9-.89H14.78a4.13,4.13,0,0,1-4.12-4.12V14a4.13,4.13,0,0,1,4.12-4.12h13.4a1.61,1.61,0,1,1,0,3.22H14.78a.89.89,0,0,0-.89.9v3a.89.89,0,0,0,.89.89h12.5a4.13,4.13,0,0,1,4.13,4.12v3a4.13,4.13,0,0,1-4.13,4.12"/><path class="cls-1" d="M178.76.34a1.29,1.29,0,0,1,.34.92V8.75a1.29,1.29,0,0,1-.34.92,1.21,1.21,0,0,1-.92.35,1.17,1.17,0,0,1-1.26-1.27V6h-4v2.8a1.25,1.25,0,0,1-.35.92,1.18,1.18,0,0,1-.91.35,1.23,1.23,0,0,1-.92-.34,1.25,1.25,0,0,1-.34-.93V1.26a1.25,1.25,0,0,1,.34-.92,1.23,1.23,0,0,1,.92-.34,1.21,1.21,0,0,1,.91.34,1.25,1.25,0,0,1,.35.92V3.91h4V1.26a1.25,1.25,0,0,1,.34-.92,1.41,1.41,0,0,1,1.84,0Z"/><path class="cls-1" d="M182.2,9.61a3.15,3.15,0,0,1-1.33-1.25,3.78,3.78,0,0,1-.47-1.91,3.71,3.71,0,0,1,.47-1.89,3.1,3.1,0,0,1,1.32-1.24,4.79,4.79,0,0,1,4,0,3.1,3.1,0,0,1,1.32,1.24A3.71,3.71,0,0,1,188,6.45a3.78,3.78,0,0,1-.47,1.91,3.12,3.12,0,0,1-1.32,1.25,4.77,4.77,0,0,1-4,0Zm3.32-3.16c0-1.15-.44-1.73-1.32-1.73s-1.33.58-1.33,1.73.44,1.74,1.33,1.74S185.52,7.61,185.52,6.45Z"/><path class="cls-1" d="M198.57,3.09a1,1,0,0,1,.56-.18,1.23,1.23,0,0,1,.83.32,1,1,0,0,1,.36.76,1.06,1.06,0,0,1-.11.46l-2.27,4.86a1.18,1.18,0,0,1-.47.54,1.38,1.38,0,0,1-.69.19,1.31,1.31,0,0,1-.68-.19,1.24,1.24,0,0,1-.47-.54L194.3,6.36l-1.24,3a1.16,1.16,0,0,1-.46.54,1.35,1.35,0,0,1-1.38,0,1.35,1.35,0,0,1-.49-.54l-2.25-4.86a1,1,0,0,1-.1-.45,1,1,0,0,1,.39-.77,1.31,1.31,0,0,1,.86-.32,1.11,1.11,0,0,1,.61.18,1,1,0,0,1,.41.54L192,6.86l1.36-3.22a1.08,1.08,0,0,1,.43-.53,1.21,1.21,0,0,1,.63-.18,1.16,1.16,0,0,1,.63.18,1.1,1.1,0,0,1,.44.53l1.4,3.23,1.3-3.26A1,1,0,0,1,198.57,3.09Z"/><path class="cls-1" d="M205.66,9.63a1.17,1.17,0,0,1-.31-.88V1.26a1.17,1.17,0,0,1,.31-.88,1.17,1.17,0,0,1,.88-.31h2.83a6.17,6.17,0,0,1,2.82.6A4.14,4.14,0,0,1,214,2.37,5.2,5.2,0,0,1,214.63,5,5.41,5.41,0,0,1,214,7.65a4.14,4.14,0,0,1-1.81,1.7,6.32,6.32,0,0,1-2.83.59h-2.83A1.17,1.17,0,0,1,205.66,9.63Zm3.52-1.76a3,3,0,0,0,2.17-.71A2.9,2.9,0,0,0,212.07,5a2.9,2.9,0,0,0-.72-2.16,3,3,0,0,0-2.17-.7h-1.25V7.87Z"/><path class="cls-1" d="M217.48,9.61a3.15,3.15,0,0,1-1.33-1.25,3.78,3.78,0,0,1-.47-1.91,3.71,3.71,0,0,1,.47-1.89,3.1,3.1,0,0,1,1.32-1.24,4.79,4.79,0,0,1,4,0,3.1,3.1,0,0,1,1.32,1.24,3.71,3.71,0,0,1,.47,1.89,3.78,3.78,0,0,1-.47,1.91,3.12,3.12,0,0,1-1.32,1.25,4.77,4.77,0,0,1-4,0Zm3.33-3.16c0-1.15-.45-1.73-1.33-1.73s-1.34.58-1.34,1.73.45,1.74,1.34,1.74S220.81,7.61,220.81,6.45Z"/></g></g></svg>